<svg xmlns="http://www.w3.org/2000/svg" xmlns:xlink="http://www.w3.org/1999/xlink" width="607.011" height="514.969" viewBox="0 0 607.011 514.969"><defs><linearGradient id="a" x1="-0.001" y1="0.499" x2="1" y2="0.499" gradientUnits="objectBoundingBox"><stop offset="0" stop-opacity="0"/><stop offset="0.99"/></linearGradient><linearGradient id="b" x1="0" y1="0.5" x2="1" y2="0.5" xlink:href="#a"/><linearGradient id="c" x1="-0.023" y1="0.619" x2="5.577" y2="-0.189" xlink:href="#a"/><linearGradient id="d" x1="1.529" y1="-0.627" x2="-0.138" y2="1.198" gradientUnits="objectBoundingBox"><stop offset="0" stop-color="#fff" stop-opacity="0"/><stop offset="0.99" stop-color="#fff"/></linearGradient><linearGradient id="e" x1="-2.326" y1="-128.225" x2="1.997" y2="68.875" xlink:href="#a"/><linearGradient id="f" x1="-0.005" y1="0.498" x2="0.993" y2="0.498" gradientUnits="objectBoundingBox"><stop offset="0" stop-color="#ecc4d7"/><stop offset="0.42" stop-color="#efd4d1"/><stop offset="1" stop-color="#f2eac9"/></linearGradient><linearGradient id="g" x1="0.409" y1="0.607" x2="5.351" y2="-2.999" xlink:href="#a"/><linearGradient id="h" x1="-0.002" y1="0.499" x2="0.999" y2="0.499" xlink:href="#f"/><linearGradient id="i" x1="0.655" y1="0.455" x2="1.026" y2="0.416" xlink:href="#a"/><linearGradient id="j" x1="0" y1="0.501" x2="0.999" y2="0.501" xlink:href="#f"/><linearGradient id="k" x1="0" y1="0.501" x2="1" y2="0.501" xlink:href="#f"/><linearGradient id="l" x1="0.827" y1="0.684" x2="-3.188" y2="-2.198" xlink:href="#a"/><linearGradient id="m" x1="0.5" y1="2.081" x2="0.5" y2="-0.989" xlink:href="#d"/><linearGradient id="n" x1="0.994" y1="-1.196" x2="-1.899" y2="8.947" xlink:href="#a"/><linearGradient id="o" x1="0.587" y1="0.523" x2="1.616" y2="1.491" xlink:href="#a"/><linearGradient id="p" x1="0.745" y1="-0.757" x2="0.261" y2="1.607" xlink:href="#d"/><linearGradient id="q" x1="0.773" y1="-0.17" x2="-0.955" y2="4.085" xlink:href="#a"/></defs><g transform="translate(0.002)"><path d="M40.934,238.321C21.622,261.986,1.174,289,3.151,319.818c1.574,24.43,17.3,46.406,17.064,70.848S3.648,438.019,7.2,462.3c3.952,27.562,31.82,44.609,58.22,51.154,55.735,13.818,113.825-1.214,170.979-5.828,43.878-3.533,87.981-.838,131.906,1.858l123.409,7.528c16.567,1.02,33.725,1.955,49.215-4.14,14.2-5.573,25.666-16.562,35.5-28.351,21.548-25.692,37.725-59.143,32.672-92.631-8.153-53.983-67.379-90.02-70.775-144.489-1.112-17.824,3.727-37.47-5.751-52.441-3.727-5.889-9.3-10.272-15.087-14-36.068-23.191-81.224-23.75-123.788-23.58l-208.361.8c-22.992.085-61.7-7.7-81.9,4.3C93.214,168.541,40.934,226.823,40.934,238.321Z" transform="translate(-3.02 -4.195)" fill="#68e1fd" opacity="0.18" style="isolation:isolate"/><path d="M484.657,364.82c.842,9.489-1.246,17.585-4.761,21.976s-8.77,7.131-14.205,8.59-23.076,5.884-28.691,6.2c5.457-1.7,26.456-8.04,29.2-13.06a64.8,64.8,0,0,0,3.009-7.108c1.853-4.66,4.278-26.468,7.861-30.05C481.232,347.235,484.253,360.216,484.657,364.82Z" transform="translate(81.312 47.063)" opacity="0.1" fill="url(#a)"/><path d="M291.521,393a1354.048,1354.048,0,0,0-150.765-5.21c-14.284.314-31.038-.326-39.235-12.027,9.152-7.131,21.594-7.861,33.183-8.254,113.9-4.065,219.545-7.512,333.445-11.577-5.222-3.784,0-13.026-1.056-19.393,11.229-3.436,34.991,1.9,42.368,9.7-6.906-4.952-21.639-6.738-27.927-4.166s-11.387,8.231-7.962,14.082c1.011,1.729,2.639,3.2,2.908,5.188.449,3.313-3.021,5.716-6.109,7-27.209,11.229-60.29.483-86.578,13.767a10.016,10.016,0,0,0-4,3.088c-3.908,5.94,5.255,11.768,12.262,12.947a502.031,502.031,0,0,0,75.843,6.985l-86.118,4c2.459,2.942,1.213,7.7-1.651,10.252s-6.8,3.369-10.578,4.043c-31.869,5.446-77.011,3.279-103.714-17.967C273.958,400.69,282.964,397.018,291.521,393Z" transform="translate(40.07 45.208)" opacity="0.1" fill="url(#b)"/><path d="M88.267,132.56,75.915,146.642c-2.156,2.448-4.492,5.345-4,8.579a10.106,10.106,0,0,0,2.605,4.84,44.792,44.792,0,0,0,7.939,7.423C86.617,156.164,89.828,144.542,88.267,132.56Z" transform="translate(5.442 0.522)" fill="#68e1fd"/><path d="M88.407,132.51,76.055,146.592c-2.156,2.448-4.492,5.356-4,8.579a10.106,10.106,0,0,0,2.549,4.84,44.828,44.828,0,0,0,7.95,7.411C86.8,156.114,89.968,144.5,88.407,132.51Z" transform="translate(5.459 0.512)" fill="url(#c)"/><rect width="371.815" height="372.77" transform="translate(121.893)" fill="#68e1fd"/><rect width="371.815" height="372.77" transform="translate(121.893)" fill="url(#d)"/><rect width="339.183" height="2.358" transform="translate(46.724 460.154) rotate(-78.53)" fill="#68e1fd"/><rect width="340.126" height="2.358" transform="matrix(0.2, -0.98, 0.98, 0.2, 82.147, 461.794)" fill="#68e1fd"/><rect width="36.046" height="2.358" transform="translate(116.92 129.004)" fill="#68e1fd"/><rect width="36.046" height="2.358" transform="translate(110.912 158.728)" fill="#68e1fd"/><rect width="36.046" height="2.358" transform="translate(104.892 188.441)" fill="#68e1fd"/><rect width="36.046" height="2.358" transform="translate(98.872 218.165)" fill="#68e1fd"/><rect width="36.046" height="2.358" transform="translate(92.852 247.89)" fill="#68e1fd"/><rect width="36.046" height="2.358" transform="translate(82.121 277.614)" fill="#68e1fd"/><rect width="36.046" height="2.358" transform="translate(76.438 307.339)" fill="#68e1fd"/><rect width="36.046" height="2.358" transform="translate(70.745 337.063)" fill="#68e1fd"/><rect width="36.046" height="2.358" transform="translate(65.052 366.788)" fill="#68e1fd"/><rect width="36.046" height="2.358" transform="translate(59.359 396.512)" fill="#68e1fd"/><rect width="36.046" height="2.358" transform="translate(53.665 430.827)" fill="#68e1fd"/><path d="M146.933,381.892l-2.942-267.416L141.532,114l.225,20.359h-6.569c-.1-3.5-.584-6.895-1.819-9.186-3.47-6.457-7.861,0-9.118,4.323-.561,1.887-1.437,3.874-3.133,4.829h-6.625a11.33,11.33,0,0,0-2.358-.225,7.77,7.77,0,0,0-1.449.213h-3.369l-.258-20.718-2.459-.46.314,25.67c-.168.27-.337.55-.483.842-1.5,2.953-1.887,6.322-2.246,9.624-3.144,33.048-1.482,66.332.191,99.481.292,5.738.6,11.577,2.56,16.979A21.334,21.334,0,0,0,106.5,269.1l1.415,112.878Zm-2.459-.55-34.059-.079-.3-25.142,34.081.079Zm-.3-27.445-34.115-.079-.314-25.143,34.126.09Zm-.3-27.433-34.126-.124-.314-25.143,34.16.09Zm-.3-27.445-34.171-.09-.314-25.143h2.246a9.448,9.448,0,0,0,.966.449,7.625,7.625,0,0,0,5.952-.427h25.064Zm-.3-27.445H120.713a4.649,4.649,0,0,0,.606-1.752c.314-2.347-.988-4.548-1.875-6.738-2.122-5.255-1.909-11.05-.651-16.653l24.2.056Zm-.3-27.445H119.376c.4-1.471.876-2.92,1.381-4.335,2.515-6.94,5.929-13.61,7.591-20.774h14.34Zm-.337-27.445H128.8c1.415-8.254.3-16.844.831-25.143h12.723Zm-.3-27.445H129.831a41.549,41.549,0,0,1,1.044-5.952c.741-2.83,1.842-5.615,2.3-8.478a43.8,43.8,0,0,0-.2-10.7h9.073Zm-.573-52.576.281,25.143H132.8a35.774,35.774,0,0,1-.09-3.638c.157-4.335,1.359-8.568,1.864-12.88a82.629,82.629,0,0,0,.606-8.613Z" transform="translate(15.352 3.507)" opacity="0.1" fill="url(#e)"/><g transform="translate(164.518 15.497)" opacity="0.74"><rect width="72.721" height="7.591" fill="#68e1fd"/><rect width="44.39" height="7.142" transform="translate(0 14.699)" fill="#68e1fd"/><rect width="139.682" height="7.187" transform="translate(62.289 14.699)" fill="#68e1fd" opacity="0.54"/><rect width="78.628" height="7.187" transform="translate(215.042 14.699)" fill="#68e1fd"/><rect width="61.032" height="7.535" transform="translate(23.088 29.398)" fill="#68e1fd"/><rect width="39.617" height="8.478" transform="translate(23.088 85.893)" fill="#68e1fd" opacity="0.48"/><rect width="16.732" height="8.444" transform="translate(132.484 111.811)" fill="#68e1fd"/><rect width="39.617" height="8.478" transform="translate(23.088 98.538)" fill="#68e1fd"/><rect width="39.617" height="8.478" transform="translate(23.088 251.56)" fill="#68e1fd"/><rect width="39.617" height="8.478" transform="translate(45.636 181.534)" fill="#68e1fd"/><rect width="39.617" height="8.478" transform="translate(45.636 195.447)" fill="#68e1fd" opacity="0.48"/><rect width="39.617" height="8.478" transform="translate(45.636 222.004)" fill="#68e1fd"/><rect width="39.617" height="8.478" transform="translate(45.636 235.918)" fill="#68e1fd"/><rect width="39.617" height="8.478" transform="translate(94.967 195.447)" fill="#68e1fd"/><rect width="39.617" height="8.478" transform="translate(94.967 235.491)" fill="#68e1fd" opacity="0.48"/><rect width="128.61" height="8.478" transform="translate(75.574 251.56)" fill="#68e1fd"/><rect width="72.721" height="7.591" transform="translate(42.683 44.098)" fill="#68e1fd"/><rect width="60.953" height="8.433" transform="translate(120.154 44.098)" fill="#68e1fd" opacity="0.52"/><rect width="56.158" height="7.142" transform="translate(42.582 58.808)" fill="#68e1fd"/><rect width="82.109" height="6.659" transform="translate(42.582 112.765)" fill="#68e1fd" opacity="0.48"/><rect width="56.158" height="7.142" transform="translate(260.948 58.808)" fill="#68e1fd"/><rect width="115.887" height="7.917" transform="translate(104.13 58.808)" fill="#68e1fd"/><rect width="25.547" height="8.051" transform="translate(231.022 58.808)" fill="#68e1fd"/><rect width="126.622" height="7.086" transform="translate(42.368 73.507)" fill="#68e1fd" opacity="0.48"/><rect width="83.513" height="7.4" transform="translate(42.368 266.372)" fill="#68e1fd"/><rect width="72.721" height="7.591" transform="translate(64.816 128.834)" fill="#68e1fd"/><rect width="72.721" height="7.591" transform="translate(64.816 167.194)" fill="#68e1fd" opacity="0.48"/><rect width="44.165" height="7.344" transform="translate(64.816 320.228)" fill="#68e1fd"/><rect width="29.915" height="6.783" transform="translate(44.906 334.455)" fill="#68e1fd"/><rect width="44.839" height="7.591" transform="translate(64.816 278.488)" fill="#68e1fd"/><rect width="44.839" height="7.591" transform="translate(118.885 278.488)" fill="#68e1fd"/><rect width="44.839" height="7.591" transform="translate(85.377 292.401)" fill="#68e1fd"/><rect width="44.839" height="7.591" transform="translate(139.435 292.401)" fill="#68e1fd"/><rect width="61.514" height="7.591" transform="translate(85.377 306.629)" fill="#68e1fd"/><rect width="16.429" height="7.591" transform="translate(156.515 306.629)" fill="#68e1fd"/><rect width="36.372" height="7.254" transform="translate(64.816 208.933)" fill="#68e1fd"/><rect width="50.622" height="6.76" transform="translate(86.926 153.707)" fill="#68e1fd"/><rect width="50.622" height="6.76" transform="translate(151.001 153.707)" fill="#68e1fd"/><rect width="50.622" height="6.76" transform="translate(151.001 194.605)" fill="#68e1fd"/><rect width="50.622" height="6.76" transform="translate(211.707 153.707)" fill="#68e1fd"/><rect width="83.412" height="6.76" transform="translate(178.917 306.943)" fill="#68e1fd"/><rect width="72.721" height="7.591" transform="translate(150.822 128.834)" fill="#68e1fd" opacity="0.48"/><rect width="72.721" height="7.591" transform="translate(88.431 140.221)" fill="#68e1fd"/><rect width="72.721" height="7.591" transform="translate(174.426 140.221)" fill="#68e1fd" opacity="0.48"/><rect width="72.721" height="7.591" transform="translate(232.706 128.834)" fill="#68e1fd"/></g><path d="M124.26,109.239a5.738,5.738,0,0,1-.281-2.044,3,3,0,0,0,0-.9,3.369,3.369,0,0,0-.73-1.123,3.627,3.627,0,0,1-.517-3.369c.775-.157,1.044-.764,1.314-1.493a7.007,7.007,0,0,1,.932-2.134.584.584,0,0,1,.415-.258.528.528,0,0,1,.427.3c.326.651-.1,1.538.337,2.111.258.314.707.415,1.022.663.674.505.707,1.538,1.3,2.111a2.393,2.393,0,0,1,.382.371,1.19,1.19,0,0,1,.135.741,5.368,5.368,0,0,1-1,2.774,4.626,4.626,0,0,0-1.19,2.055,2.572,2.572,0,0,1-.09.719.966.966,0,0,1-1.123.483C125.18,110.149,124.608,109.453,124.26,109.239Z" transform="translate(18.972 -6.331)" fill="url(#f)"/><path d="M107.435,132.348a5.075,5.075,0,0,0-1.123-1.123,3.784,3.784,0,0,0-2.369-.584,18.537,18.537,0,0,0-2.448.4c-3.526.651-7.142-.168-10.724,0-4.02.236-5.525,4.492-6.232,6.2a35.935,35.935,0,0,0-2.628,10.32c-.168,1.684-.213,3.369-.258,5.076-.2,6.884-.663,13.7-.393,20.583l.449,11.3a3.055,3.055,0,0,0,.505,1.92,2.92,2.92,0,0,0,1.516.8c6.345,1.83,13.037,1.875,19.64,1.875,3.369,0,7.209-.2,9.433-2.74,2.448-2.807,1.808-7.041,1.291-10.724C112.2,161.522,116.036,143.713,107.435,132.348Z" transform="translate(11.599 0.562)" fill="#68e1fd"/><path d="M107.435,132.348a5.075,5.075,0,0,0-1.123-1.123,3.784,3.784,0,0,0-2.369-.584,18.537,18.537,0,0,0-2.448.4c-3.526.651-7.142-.168-10.724,0-4.02.236-5.525,4.492-6.232,6.2a35.935,35.935,0,0,0-2.628,10.32c-.168,1.684-.213,3.369-.258,5.076-.2,6.884-.663,13.7-.393,20.583l.449,11.3a3.055,3.055,0,0,0,.505,1.92,2.92,2.92,0,0,0,1.516.8c6.345,1.83,13.037,1.875,19.64,1.875,3.369,0,7.209-.2,9.433-2.74,2.448-2.807,1.808-7.041,1.291-10.724C112.2,161.522,116.036,143.713,107.435,132.348Z" transform="translate(11.599 0.562)" fill="url(#g)"/><path d="M101.713,128.841a6.737,6.737,0,0,0,2-2.246,5.7,5.7,0,0,0,.326-2.684,9.713,9.713,0,0,0-1.123-4.121,5.188,5.188,0,0,0-3.3-2.572c-2.246-.46-4.559,1.123-5.615,3.122a14.913,14.913,0,0,0-1.336,6.738c-.079,2.908-2.313,7.355.415,8.377,3.155,1.179,5.615-2.246,6.142-3.751a6.547,6.547,0,0,1,2.493-2.863Z" transform="translate(7.885 -2.646)" fill="url(#h)"/><path d="M102.944,114.585a5.323,5.323,0,0,1-.842,2.807,14.6,14.6,0,0,1-1.684,2.583,6.03,6.03,0,0,0-1.123,1.527,4.57,4.57,0,0,0,.247,2.931c-.483.247-.943-.853-1.392-.55a.561.561,0,0,0-.168.281,2.01,2.01,0,0,0,.483,2.01,1.348,1.348,0,0,1,.359.438c.135.348-.157.707-.292,1.056-.337.853.258,1.9-.191,2.7a2.246,2.246,0,0,1-1.954.853c-1.314.09-2.628.124-3.942.09a1.5,1.5,0,0,1-.775-.157,1.617,1.617,0,0,1-.6-1.123,41.728,41.728,0,0,1-1.123-9.871,4.716,4.716,0,0,1,.651-2.807c.393-.528.966-.876,1.381-1.359s.82-1.4,1.37-2.01a6.12,6.12,0,0,1,2.931-1.482C98.452,111.924,102.7,111.1,102.944,114.585Z" transform="translate(7.665 -3.607)" fill="#3f3d56"/><path d="M82.924,208.481a26.95,26.95,0,0,1,.124,5.121,24.941,24.941,0,0,1-.921,4.031,115.77,115.77,0,0,1-5.345,15.643c-1.55,3.369-3.447,6.738-4.683,10.241a59.943,59.943,0,0,0-2.459,12.768A5.289,5.289,0,0,0,72.4,254.5,140.233,140.233,0,0,0,97.253,220.35a35.518,35.518,0,0,0,3.369-8.433,40.775,40.775,0,0,0,.707-7.58,121.81,121.81,0,0,0-.247-16.451c-.2-1.909-.651-4.054-2.246-5.064a6.031,6.031,0,0,0-2.628-.707c-3.066-.281-6.2,0-9.219-.674-1.123-.225-2.863-1.3-3.694-.584s-.371,4.245-.415,5.21a181.491,181.491,0,0,0,.045,22.414Z" transform="translate(5.17 10.756)" fill="#3f3d56"/><path d="M82.924,208.481a26.95,26.95,0,0,1,.124,5.121,24.941,24.941,0,0,1-.921,4.031,115.77,115.77,0,0,1-5.345,15.643c-1.55,3.369-3.447,6.738-4.683,10.241a59.943,59.943,0,0,0-2.459,12.768A5.289,5.289,0,0,0,72.4,254.5,140.233,140.233,0,0,0,97.253,220.35a35.518,35.518,0,0,0,3.369-8.433,40.775,40.775,0,0,0,.707-7.58,121.81,121.81,0,0,0-.247-16.451c-.2-1.909-.651-4.054-2.246-5.064a6.031,6.031,0,0,0-2.628-.707c-3.066-.281-6.2,0-9.219-.674-1.123-.225-2.863-1.3-3.694-.584s-.371,4.245-.415,5.21a181.491,181.491,0,0,0,.045,22.414Z" transform="translate(5.17 10.756)" fill="url(#i)"/><path d="M104.1,224.349a55.024,55.024,0,0,1-.719,12.869l-2.908,21.807a2.246,2.246,0,0,0,3.2.752,6.58,6.58,0,0,0,2.246-2.9c4.413-8.669,8.882-17.507,10.522-27.085a75.527,75.527,0,0,0,.842-13.61,167.855,167.855,0,0,0-3.908-34,2.246,2.246,0,0,0-.685-1.4,2.336,2.336,0,0,0-1.639-.2l-10.005,1.258c-2.392.3-14.059-.056-14.059-.056s4.054,9.972,5.21,13.06C95.715,204.226,104.1,213.973,104.1,224.349Z" transform="translate(12.656 10.851)" fill="#3f3d56"/><path d="M67.644,250.051a3.077,3.077,0,0,0,.82,1.123,14.868,14.868,0,0,0,8.2,4.087,2.437,2.437,0,0,0,2.347-.561,1.8,1.8,0,0,0-.281-2.246,6.176,6.176,0,0,0-2.01-1.291,5.873,5.873,0,0,1-3.279-3.212C71.832,242.606,66.263,245.66,67.644,250.051Z" transform="translate(4.898 21.197)" fill="url(#j)"/><path d="M98.1,255.244a4.773,4.773,0,0,0,2.414,1.965c2.426,1.123,5.154,2.089,7.782,1.482a3.279,3.279,0,0,0,1.965-1.123,1.617,1.617,0,0,0-.067-2.1c-.606-.55-1.561-.382-2.381-.472a3.369,3.369,0,0,1-2.369-1.437c-.3-.449-.494-.966-.775-1.426C102.251,248.069,96.018,250.966,98.1,255.244Z" transform="translate(14.465 22.099)" fill="url(#k)"/><path d="M67.552,246.362a1.954,1.954,0,0,1,1.785-.629c.943.225,1.437,1.336,2.336,1.718.4.168.853.18,1.269.326a6.165,6.165,0,0,1,2.021,1.561c1.595,1.46,3.9,2.246,4.952,4.1a1.325,1.325,0,0,1,.146,1.28,1.258,1.258,0,0,1-.876.505c-1.2.236-2.785.662-3.919.191a42,42,0,0,1-5.682-2.74c-1-.606-1.718-2.246-2.437-3.223C66.271,248.282,66.552,247.395,67.552,246.362Z" transform="translate(4.799 21.299)" fill="#3f3d56"/><path d="M98.331,251.639c-.3-.124-.674-.281-.91-.056a.517.517,0,0,0-.124.18,3.616,3.616,0,0,0,1.022,4.076,13.059,13.059,0,0,0,3.9,2.246,16.551,16.551,0,0,0,4.492,1.572,4.357,4.357,0,0,0,4.211-1.572,2.246,2.246,0,0,0,.393-1.606c-.236-1.235-1.639-1.774-2.807-2.246-1.482-.584-2.774-1.651-4.3-2.122C102.25,251.47,100.161,252.391,98.331,251.639Z" transform="translate(14.363 22.326)" fill="#3f3d56"/><path d="M104.653,134.334l8.826-4.391a16.024,16.024,0,0,0,3.133-1.864c5.244-4.267,4.952-12.15,7.67-18.338a1.909,1.909,0,0,1,.775-1.011,2,2,0,0,1,1-.067l3.56.427-2.841,20.9a19.877,19.877,0,0,1-.988,4.492,16.486,16.486,0,0,1-1.617,2.92,49.409,49.409,0,0,1-12.79,13.082,4.671,4.671,0,0,1-1.8.9,3.447,3.447,0,0,1-2.246-.415c-2.437-1.269-3.447-4.211-3.919-6.917a14.508,14.508,0,0,1,1.235-9.713Z" transform="translate(15.615 -3.936)" fill="#68e1fd"/><path d="M104.653,134.334l8.826-4.391a16.024,16.024,0,0,0,3.133-1.864c5.244-4.267,4.952-12.15,7.67-18.338a1.909,1.909,0,0,1,.775-1.011,2,2,0,0,1,1-.067l3.56.427-2.841,20.9a19.877,19.877,0,0,1-.988,4.492,16.486,16.486,0,0,1-1.617,2.92,49.409,49.409,0,0,1-12.79,13.082,4.671,4.671,0,0,1-1.8.9,3.447,3.447,0,0,1-2.246-.415c-2.437-1.269-3.447-4.211-3.919-6.917a14.508,14.508,0,0,1,1.235-9.713Z" transform="translate(15.615 -3.936)" fill="url(#l)"/><rect width="371.815" height="20.864" transform="translate(121.893 394.58)" fill="#68e1fd"/><rect width="371.815" height="17.069" transform="translate(121.893 398.42)" fill="url(#m)"/><path d="M494.039,368.627c-1.639,7.636-6.12,15.833-14.407,22.8-15.2,12.779-34.867,16.092-48.691,16.631-1.707.067-3.369.1-5.1.1-12.352,0-24.7-1.628-36.653-3.212l-8.467-1.123c-14.317-1.785-30.813-3.256-45.367,1.875l-1.28-3.638-1.336-3.773c16.159-5.7,33.744-4.155,48.949-2.246,2.841.348,5.682.73,8.534,1.123,13.273,1.752,27.007,3.571,40.426,3.054,12.588-.494,30.443-3.459,43.94-14.8,5.379-4.492,10.106-11.095,11.78-18.079a20.314,20.314,0,0,0-.281-11.14,18.821,18.821,0,0,0-2.01-4.267c-3.818-6.03-10.679-9.9-16.552-11.634-8.725-2.572-18.248-2.246-27.478-1.92h-.337l-.123-3.459-.157-4.391c9.478-.348,20.213-.741,30.319,2.246,11.757,3.459,20.662,11.319,23.806,21.01a28.894,28.894,0,0,1,.483,14.845Z" transform="translate(68.495 44.57)" fill="#68e1fd"/><path d="M494.247,360.63c-.674,8.793-5.132,18.9-15.036,27.231-15.2,12.768-34.878,16.092-48.7,16.619-1.7.067-3.369.1-5.1.1-12.352,0-24.7-1.628-36.641-3.212l-8.478-1.123c-14.317-1.785-30.813-3.256-45.355,1.875l-2.616-7.411c.651-.225,1.3-.449,1.965-.651l1.28,3.638c14.6-5.132,31.049-3.661,45.367-1.875l8.467,1.123c11.959,1.583,24.278,3.212,36.653,3.212,1.7,0,3.369,0,5.1-.1,13.823-.539,33.486-3.852,48.691-16.631C488.127,376.463,492.608,368.266,494.247,360.63Z" transform="translate(68.444 48.3)" fill="url(#n)"/><path d="M307.583,337.21,360.7,349.338l-10.118,46.478-35.148,16.855L267.27,391.706l32.307-14.441Z" transform="translate(52.124 68.767)" fill="#68e1fd"/><path d="M307.583,337.21,360.7,349.338l-10.118,46.478-35.148,16.855L267.27,391.706l32.307-14.441Z" transform="translate(52.124 68.767)" fill="url(#o)"/><path d="M304.408,336.37l53.115,12.117-10.118,46.478L312.943,411.73,264.78,390.754l31.622-14.34Z" transform="translate(51.611 68.664)" fill="#68e1fd"/><path d="M298.94,375.923l41.111,12.97,8.534-37.63L305.9,342.1Z" transform="translate(56.508 69.368)" fill="#68e1fd"/><path d="M298.94,375.923l41.111,12.97,8.534-37.63L305.9,342.1Z" transform="translate(56.508 69.368)" fill="url(#p)"/><path d="M473.555,351.68l-1.19-.225c-3.818-6.03-10.679-9.9-16.552-11.634-8.725-2.572-18.551-2.246-27.781-1.909l-.1-3.773s20.213-1.123,32.183,4.626C467.7,342.427,473.555,351.68,473.555,351.68Z" transform="translate(80.197 38.161)" fill="url(#q)"/></g></svg>