<svg xmlns="http://www.w3.org/2000/svg" xmlns:xlink="http://www.w3.org/1999/xlink" width="707.422" height="603.836" viewBox="0 0 707.422 603.836"><defs><linearGradient id="a" x1="-0.205" y1="0.014" x2="1.697" y2="1.493" gradientUnits="objectBoundingBox"><stop offset="0" stop-opacity="0"/><stop offset="0.99"/></linearGradient><linearGradient id="b" x1="0.773" y1="0.025" x2="0.117" y2="1.11" xlink:href="#a"/><linearGradient id="c" x1="-0.971" y1="0.274" x2="17.968" y2="3.184" xlink:href="#a"/><linearGradient id="d" x1="-0.971" y1="0.274" x2="17.968" y2="3.184" xlink:href="#a"/><linearGradient id="e" x1="-0.165" y1="0.52" x2="3.155" y2="0.426" xlink:href="#a"/><linearGradient id="f" x1="0.501" y1="0.456" x2="0.352" y2="5.235" xlink:href="#a"/><linearGradient id="g" x1="0.489" y1="1.386" x2="0.511" y2="-0.392" gradientUnits="objectBoundingBox"><stop offset="0" stop-color="#fff" stop-opacity="0"/><stop offset="0.99" stop-color="#fff"/></linearGradient><linearGradient id="h" x1="0.124" y1="0.482" x2="6.277" y2="0.737" xlink:href="#a"/><linearGradient id="i" y1="0.5" x2="1" y2="0.5" gradientUnits="objectBoundingBox"><stop offset="0" stop-color="#ecc4d7"/><stop offset="0.42" stop-color="#efd4d1"/><stop offset="1" stop-color="#f2eac9"/></linearGradient><linearGradient id="j" x1="0.107" y1="0.47" x2="4.865" y2="0.785" xlink:href="#a"/><linearGradient id="k" x1="0.209" y1="0.359" x2="3.509" y2="1.975" xlink:href="#a"/><linearGradient id="l" x1="0.429" y1="0.838" x2="1.132" y2="-2.489" xlink:href="#a"/><linearGradient id="m" x1="0.251" y1="1.055" x2="1.06" y2="-0.693" xlink:href="#g"/><linearGradient id="n" x1="0.316" y1="0.811" x2="1.139" y2="-0.578" xlink:href="#a"/><linearGradient id="o" x1="0.339" y1="-0.361" x2="1.269" y2="4.619" xlink:href="#a"/><linearGradient id="p" x1="0.5" y1="0.757" x2="0.497" y2="-1.492" xlink:href="#a"/><linearGradient id="q" x1="0.496" y1="-1.08" x2="0.51" y2="4.303" xlink:href="#a"/><linearGradient id="r" x1="0.386" y1="0.359" x2="1.179" y2="0.836" xlink:href="#a"/><linearGradient id="s" x1="0.547" y1="0.605" x2="0.284" y2="0.269" xlink:href="#g"/><linearGradient id="t" x1="0" y1="0.5" x2="1" y2="0.5" xlink:href="#i"/><linearGradient id="u" x1="-2.571" y1="0.542" x2="6.174" y2="0.422" xlink:href="#g"/><linearGradient id="v" x1="0.538" y1="-27.116" x2="0.483" y2="12.98" xlink:href="#g"/><linearGradient id="w" x1="0.566" y1="-30.963" x2="0.476" y2="11.701" xlink:href="#g"/><linearGradient id="x" x1="0.521" y1="-30.394" x2="0.492" y2="12.048" xlink:href="#g"/><linearGradient id="y" x1="0.536" y1="-29.936" x2="0.486" y2="12.5" xlink:href="#g"/><linearGradient id="z" x1="0.552" y1="-31.239" x2="0.486" y2="9.259" xlink:href="#g"/><linearGradient id="aa" x1="0.546" y1="-32.774" x2="0.491" y2="7.322" xlink:href="#g"/><linearGradient id="ab" x1="0.554" y1="-29.285" x2="0.489" y2="6.819" xlink:href="#g"/><linearGradient id="ac" x1="0.563" y1="-36.963" x2="0.492" y2="5.701" xlink:href="#g"/><linearGradient id="ad" x1="0.561" y1="-36.15" x2="0.49" y2="6.519" xlink:href="#g"/><linearGradient id="ae" x1="0.53" y1="-33.082" x2="0.496" y2="5.459" xlink:href="#g"/><linearGradient id="af" x1="0.636" y1="-32.185" x2="0.478" y2="5.626" xlink:href="#g"/><linearGradient id="ah" x1="0.566" y1="-30.968" x2="0.476" y2="11.701" xlink:href="#g"/><linearGradient id="aj" x1="0.536" y1="-29.942" x2="0.486" y2="12.5" xlink:href="#g"/><linearGradient id="ak" x1="0.552" y1="-31.239" x2="0.486" y2="9.264" xlink:href="#g"/><linearGradient id="ao" x1="0.561" y1="-36.15" x2="0.49" y2="6.513" xlink:href="#g"/><linearGradient id="ap" x1="0.53" y1="-33.087" x2="0.496" y2="5.459" xlink:href="#g"/><linearGradient id="ar" x1="0.538" y1="-27.116" x2="0.483" y2="12.975" xlink:href="#g"/><linearGradient id="as" x1="0.566" y1="-30.968" x2="0.476" y2="11.701" xlink:href="#g"/><linearGradient id="at" x1="0.521" y1="-30.394" x2="0.492" y2="12.043" xlink:href="#g"/><linearGradient id="au" x1="0.536" y1="-29.941" x2="0.486" y2="12.5" xlink:href="#g"/><linearGradient id="aw" x1="0.546" y1="-32.769" x2="0.491" y2="7.327" xlink:href="#g"/><linearGradient id="ax" x1="0.554" y1="-29.28" x2="0.489" y2="6.824" xlink:href="#g"/><linearGradient id="ay" x1="0.563" y1="-36.968" x2="0.492" y2="5.701" xlink:href="#g"/><linearGradient id="az" x1="0.561" y1="-36.15" x2="0.49" y2="6.513" xlink:href="#g"/><linearGradient id="ba" x1="0.53" y1="-33.087" x2="0.496" y2="5.459" xlink:href="#g"/><linearGradient id="bb" x1="0.636" y1="-32.19" x2="0.478" y2="5.626" xlink:href="#g"/></defs><g transform="translate(-0.012 -0.005)"><path d="M444.7,600.983c34.086.411,68.282.794,102.122-3.287,16.886-2.027,33.908-5.259,49.055-13,16.68-8.518,30.224-22.062,42.591-36.14,26.691-30.375,49.589-64.845,61.626-103.436s12.572-81.7-3.944-118.61c-10.956-24.651-29.211-46.069-35.949-72.144-11.175-43.248,11.326-90.385-1.849-133.072-5.04-16.324-15.064-30.717-26.4-43.467C586.479,26.845,515.54-.23,447.71,7.425c-84.8,9.586-158.681,68.665-243.767,74.321-28.759,1.9-58.093-2.424-86.277,3.561-49.4,10.463-89.55,55.108-94.74,105.326-3.451,33.538,7.19,66.666,14.708,99.533,7.943,34.771,12.325,71.541,2.465,105.806-7.45,25.8-22.651,48.781-30.7,74.39-7.464,23.5-8.559,48.52-7.71,73.13.26,7.286.767,14.79,3.93,21.364,10.723,22.2,52.423,28.677,74.28,30.635,38.647,3.492,78.964,1.137,117.775,1.808Q321.212,599.463,444.7,600.983Z" transform="translate(-1.43 -6.14)" fill="#68e1fd" opacity="0.18" style="isolation:isolate"/><path d="M270.847,437.969a5.478,5.478,0,0,1,.137,3.355,5.328,5.328,0,0,1-1.068,1.63c-4.232,4.779-10.545,7.066-16.571,9.162a44.439,44.439,0,0,1-6.45,1.863,38.433,38.433,0,0,1-7.094.424,206.248,206.248,0,0,1-23.281-1.479A27.54,27.54,0,0,1,236.638,436c4.259-.835,8.641-.63,12.955-1.054a1.849,1.849,0,0,0,1.561-.712,1.931,1.931,0,0,0,0-1.369l-1.726-6.437a2.11,2.11,0,0,1,1.917-3.068c2.917-.849,4.848-9.408,7.97-9.586s7.464,10.038,8.011,13.284C267.985,431.053,270.4,436.285,270.847,437.969Z" transform="translate(78.036 144.467)" fill="#68e1fd"/><path d="M270.847,437.969a5.478,5.478,0,0,1,.137,3.355,5.328,5.328,0,0,1-1.068,1.63c-4.232,4.779-10.545,7.066-16.571,9.162a44.439,44.439,0,0,1-6.45,1.863,38.433,38.433,0,0,1-7.094.424,206.248,206.248,0,0,1-23.281-1.479A27.54,27.54,0,0,1,236.638,436c4.259-.835,8.641-.63,12.955-1.054a1.849,1.849,0,0,0,1.561-.712,1.931,1.931,0,0,0,0-1.369l-1.726-6.437a2.11,2.11,0,0,1,1.917-3.068c2.917-.849,4.848-9.408,7.97-9.586s7.464,10.038,8.011,13.284C267.985,431.053,270.4,436.285,270.847,437.969Z" transform="translate(78.036 144.467)" fill="url(#a)"/><path d="M322.7,444.624c8.107,7.765,20.419,9.367,31.5,8.094,1.876-.219,4.013-.671,4.944-2.314s.233-3.711-.767-5.314c-2.355-3.725-6.176-6.272-10.025-8.436A91.972,91.972,0,0,0,330.434,429a10.954,10.954,0,0,1-3.67-1.63c-2.424-1.917-2.657-5.478-4.574-7.943-.808-1.027-9.942-3.478-10.833-2.739-2.739,2.109.534,8.765,1.726,11.887C315.37,434.367,318.109,440.228,322.7,444.624Z" transform="translate(112.683 145.494)" fill="#68e1fd"/><path d="M322.7,444.624c8.107,7.765,20.419,9.367,31.5,8.094,1.876-.219,4.013-.671,4.944-2.314s.233-3.711-.767-5.314c-2.355-3.725-6.176-6.272-10.025-8.436A91.972,91.972,0,0,0,330.434,429a10.954,10.954,0,0,1-3.67-1.63c-2.424-1.917-2.657-5.478-4.574-7.943-.808-1.027-9.942-3.478-10.833-2.739-2.739,2.109.534,8.765,1.726,11.887C315.37,434.367,318.109,440.228,322.7,444.624Z" transform="translate(112.683 145.494)" fill="url(#b)"/><rect width="67.241" height="273.95" transform="translate(563.562 329.11)" fill="#68e1fd"/><rect width="67.241" height="273.95" transform="translate(71.688 329.11)" fill="#68e1fd"/><rect width="67.241" height="76.499" transform="translate(71.688 329.11)" fill="url(#c)"/><rect width="67.241" height="76.499" transform="translate(563.384 329.11)" fill="url(#d)"/><rect width="598.967" height="27.389" transform="translate(46.791 306.692)" fill="#68e1fd"/><path d="M282.661,285.1s-90.906,39.852-94.644,46.7-2.492,24.281,3.122,31.758S258.38,483.724,258.38,483.724l20.542-5.615L238.454,356.076s112.078-6.217,120.171-14.311,19.3-32.374,19.3-32.374L319.39,256.46Z" transform="translate(66.715 86.345)" fill="#68e1fd"/><path d="M282.661,285.1s-90.906,39.852-94.644,46.7-2.492,24.281,3.122,31.758S258.38,483.724,258.38,483.724l20.542-5.615L238.454,356.076s112.078-6.217,120.171-14.311,19.3-32.374,19.3-32.374L319.39,256.46Z" transform="translate(66.715 86.345)" fill="url(#e)"/><rect width="292.629" height="184.29" rx="10.53" transform="translate(123.372 81.304)" fill="#68e1fd"/><rect width="273.922" height="167.158" rx="9.7" transform="translate(132.355 89.014)" fill="url(#f)"/><rect width="273.922" height="167.158" rx="9.7" transform="translate(132.355 89.014)" fill="url(#g)"/><path d="M288.335,139.049c-6.847,12.325-16.434,22.9-22.8,35.469-4.615,9.189-7.354,19.173-11.517,28.595s-10.12,18.543-19.173,23.5c-3.684,2.027-8.08,3.588-9.983,7.327a343.309,343.309,0,0,0,58.3,4.108,8.668,8.668,0,0,0,3.656-.589,9.271,9.271,0,0,0,3.259-3.369c13.257-18.981,35.182-32.635,41.6-54.875,2.972-10.23,2.2-21.131,1.369-31.758-1.013-13.9-2.04-27.828-4.108-41.632C327.406,95.4,326.3,84.078,315.245,79.655c-6.368-2.561-15.3-2.739-21.282,1.013-8.285,5.108-4.286,10.956-1.123,18.063C299,111.974,295.141,126.9,288.335,139.049Z" transform="translate(81.117 20.329)" fill="url(#h)"/><path d="M304.633,133.392a1.726,1.726,0,0,1,1.15.205,1.588,1.588,0,0,1,.411.876,46.944,46.944,0,0,1,.411,6.217,9.189,9.189,0,0,0,2.068,5.738c2.054,2.177,5.382,2.383,8.367,2.465a6.149,6.149,0,0,0,1.876-.151,12.023,12.023,0,0,0,2.314-1.369c2.123-1.219,4.807-1.013,6.984-2.123a8.671,8.671,0,0,0,2.246-1.739c4.314-4.519,4.711-11.6,3.259-17.694s-4.4-11.723-5.985-17.8c-1.369-5.355-1.753-11.189-4.834-15.79a3.78,3.78,0,0,0-2.89-2,60.052,60.052,0,0,0-13.941-.835c-3.752,0-7.669.205-10.956,2-2.109,1.137-8-7.847-9.477-5.971-1.041,1.369,1.438,29.594,1.78,31.772C290.336,135.611,299.47,133.653,304.633,133.392Z" transform="translate(103.48 23.054)" fill="url(#i)"/><path d="M272.422,172.459s9.97-35.5,30.827-42.029,52.3-8.409,59.463-6.546,27.7,13.393,29.882,46.4,4.04,49.493,4.04,49.493l-5.6,138.851s-76.581,12.449-97.123,3.109L286.432,327.5l-7.464,26.773L256.55,334.345,269,292.631S267.136,193,272.422,172.459Z" transform="translate(92.826 37.11)" fill="#68e1fd"/><path d="M272.422,172.459s9.97-35.5,30.827-42.029,52.3-8.409,59.463-6.546,27.7,13.393,29.882,46.4,4.04,49.493,4.04,49.493l-5.6,138.851s-76.581,12.449-97.123,3.109L286.432,327.5l-7.464,26.773L256.55,334.345,269,292.631S267.136,193,272.422,172.459Z" transform="translate(92.826 37.11)" fill="url(#j)"/><path d="M365.186,201.962c-5.053,8.354-7.368,18.022-9.586,27.5l-14.558,61.517c-3.027,12.818-6.122,25.828-12.407,37.4s-16.256,21.788-28.923,25.4c-9.395,2.739-19.419,1.6-29.129,2.671A66.324,66.324,0,0,0,222.5,386.581a868.443,868.443,0,0,0,119.9-6.71c5.875-.74,11.955-1.616,16.968-4.78,5.875-3.725,9.49-10.107,12.325-16.434,6.176-13.53,10.148-27.951,13.695-42.454a719.133,719.133,0,0,0,13.585-72.076c3.013-22.09,9.162-49.726,5.382-71.678C389.877,175.709,372.882,189.308,365.186,201.962Z" transform="translate(80.245 55.306)" opacity="0.48" fill="url(#k)"/><path d="M236.88,225.537l35.88-.315.931-16.5Z" transform="translate(87.517 77.115)" fill="none" stroke="#3cb6d5" stroke-miterlimit="10" stroke-width="1.28"/><path d="M253.31,323.785l74.7,125.773,16.187-3.739L306.843,319.43Z" transform="translate(93.587 118.019)" fill="#68e1fd"/><path d="M253.31,323.785l74.7,125.773,16.187-3.739L306.843,319.43Z" transform="translate(93.587 118.019)" fill="url(#l)"/><path d="M493.968,248.514c-3.122,12.476-29.923,116.405-29.923,116.405s-6.847,28.649-27.992,28.649c-11.353,0-66.94-.986-116.036-1.917-42.454-.794-80.073-1.534-80.073-1.534s-4.971-18.365,10.559-19.638,59.764,0,59.764,0,21.829-1.191,30.526-23.007c7.162-17.8,23.473-90.1,29.184-115.57A46.562,46.562,0,0,1,379,212.866c9.819-12.544,29.32-32.443,55.19-34.1,26.869-1.794,44.124,8.285,53.012,17.242a30.252,30.252,0,0,1,6.765,9.49C497.077,213.62,497.077,236.038,493.968,248.514Z" transform="translate(86.411 57.562)" fill="#68e1fd"/><path d="M487.2,196.028c0,.794,0,1.534-.068,2.328,0,0-52.341-18.639-91.549,40.194L359.157,366.459s-7.231,24.281-39.14,25.212c-42.454-.794-80.073-1.534-80.073-1.534S234.973,371.773,250.5,370.5s59.764,0,59.764,0,21.829-1.191,30.526-23.007c7.162-17.8,23.473-90.1,29.184-115.57A46.563,46.563,0,0,1,379,212.886c9.819-12.544,29.32-32.443,55.19-34.1C461.06,176.992,478.315,187.072,487.2,196.028Z" transform="translate(86.411 57.569)" fill="url(#m)"/><rect width="9.956" height="154.052" transform="translate(427.203 449.638)" fill="#68e1fd"/><rect width="9.956" height="154.052" transform="translate(427.203 449.638)" fill="url(#n)"/><line y1="154.052" transform="translate(427.203 449.638)" fill="#68e1fd" opacity="0.18" style="isolation:isolate"/><rect width="84.058" height="12.325" rx="4.5" transform="translate(392.802 591.515)" fill="#68e1fd"/><rect width="84.058" height="12.325" rx="4.5" transform="translate(392.802 591.515)" fill="url(#o)"/><rect width="84.99" height="35.182" transform="translate(233.888 265.512)" fill="#68e1fd"/><rect width="84.99" height="35.182" transform="translate(233.888 265.512)" fill="url(#p)"/><rect width="155.655" height="14.941" transform="translate(195.461 291.655)" fill="#68e1fd"/><rect width="155.655" height="11.709" transform="translate(197.912 292.751)" fill="url(#q)"/><path d="M305.168,69.267c-2.575,1.917-4.807,4.286-7.518,6a24.2,24.2,0,0,1-12.325,3.4c-2.944.1-6.546.137-7.957,2.739-1.164,2.123,0,4.807,1.479,6.7a17.255,17.255,0,0,0,5.04,4.218,11.913,11.913,0,0,1,2.739,1.753c1.685,1.712,1.7,4.423,2.739,6.587,1.479,3.04,4.848,4.656,7.012,7.258,4.259,5.108,3.218,13,6.847,18.529a18.584,18.584,0,0,0,8.7,6.437,27.664,27.664,0,0,0,14.831,2.027,19.323,19.323,0,0,0,12.654-7.436c2.588-3.6,3.629-8.066,4.369-12.435,1.465-8.614,1.972-17.557-.192-26.02C339.309,72.376,321.7,56.983,305.168,69.267Z" transform="translate(100.342 15.543)" fill="#3f3d56"/><path d="M305.168,69.267c-2.575,1.917-4.807,4.286-7.518,6a24.2,24.2,0,0,1-12.325,3.4c-2.944.1-6.546.137-7.957,2.739-1.164,2.123,0,4.807,1.479,6.7a17.255,17.255,0,0,0,5.04,4.218,11.913,11.913,0,0,1,2.739,1.753c1.685,1.712,1.7,4.423,2.739,6.587,1.479,3.04,4.848,4.656,7.012,7.258,4.259,5.108,3.218,13,6.847,18.529a18.584,18.584,0,0,0,8.7,6.437,27.664,27.664,0,0,0,14.831,2.027,19.323,19.323,0,0,0,12.654-7.436c2.588-3.6,3.629-8.066,4.369-12.435,1.465-8.614,1.972-17.557-.192-26.02C339.309,72.376,321.7,56.983,305.168,69.267Z" transform="translate(100.342 15.543)" fill="url(#r)"/><path d="M340.852,140.4a21.4,21.4,0,0,1,3.369,17.639c-3.588,15.571-13.517,52.519-30.238,68.474C292.5,247.06,259.821,268.547,192.1,266.684l.945-18.68s73.308-6.546,79.84-30.827,32.224-76.581,41.564-81.717C321.789,131.462,333.471,130.6,340.852,140.4Z" transform="translate(69.013 40.597)" fill="#68e1fd"/><path d="M340.852,140.4a21.4,21.4,0,0,1,3.369,17.639c-3.588,15.571-13.517,52.519-30.238,68.474C292.5,247.06,259.821,268.547,192.1,266.684l.945-18.68s73.308-6.546,79.84-30.827,32.224-76.581,41.564-81.717C321.789,131.462,333.471,130.6,340.852,140.4Z" transform="translate(69.013 40.597)" fill="url(#s)"/><path d="M189.783,216.334a31.827,31.827,0,0,0-30.293,10.709l16.228,1.589a6.122,6.122,0,0,1,3,.822,28.216,28.216,0,0,1,1.986,2.054,7.682,7.682,0,0,0,4.793,1.369c5.081.233,10.175.246,15.256,0a2.862,2.862,0,0,0,1.78-.479,2.739,2.739,0,0,0,.753-1.493c.671-2.6,2.15-9.888-.37-11.709-1.178-.835-4.793-.726-6.313-1.123C194.329,217.552,192.1,216.8,189.783,216.334Z" transform="translate(56.965 71.309)" fill="url(#t)"/><path d="M476.2,61.059v63.612a12.722,12.722,0,0,1-12.722,12.709H416.8L397,166.919V137.38H364.762a12.709,12.709,0,0,1-12.723-12.709V61.059A12.709,12.709,0,0,1,364.762,48.35h98.712A12.722,12.722,0,0,1,476.2,61.059Z" transform="translate(128.107 9.454)" fill="#68e1fd" opacity="0.18" style="isolation:isolate"/><path d="M472.607,58.669v63.612a12.709,12.709,0,0,1-12.722,12.709H413.226l-19.816,29.54v-29.5H361.186a12.722,12.722,0,0,1-12.736-12.709V58.669A12.722,12.722,0,0,1,361.186,45.96h98.7a12.709,12.709,0,0,1,12.722,12.709Z" transform="translate(126.781 8.571)" fill="#fff"/><rect width="11.558" height="142.973" transform="translate(150.145 100.066)" fill="url(#u)"/><path d="M374.94,81.992,394.962,71.68v2.985L378.09,83.074v.1l16.872,8.45v2.985L374.94,84.293Z" transform="translate(136.568 18.074)" fill="#68e1fd"/><path d="M391.6,98.152,403.638,66.86h2.931L394.49,98.152Z" transform="translate(142.724 16.293)" fill="#68e1fd"/><path d="M424.528,84.444,404.52,94.715V91.661l17-8.45v-.137l-17-8.45V71.68l20.008,10.271Z" transform="translate(147.497 18.074)" fill="#68e1fd"/><rect width="37.154" height="2.725" transform="translate(183.738 122.813)" fill="url(#v)"/><rect width="22.679" height="2.561" transform="translate(183.738 128.085)" fill="url(#w)"/><rect width="71.363" height="2.575" transform="translate(215.565 128.085)" fill="url(#x)"/><rect width="40.167" height="2.575" transform="translate(293.597 128.085)" fill="url(#y)"/><rect width="31.183" height="2.698" transform="translate(195.529 133.371)" fill="url(#z)"/><rect width="37.154" height="2.725" transform="translate(205.54 138.644)" fill="url(#aa)"/><rect width="31.142" height="3.027" transform="translate(245.118 138.644)" fill="url(#ab)"/><rect width="28.69" height="2.561" transform="translate(205.485 143.916)" fill="url(#ac)"/><rect width="28.69" height="2.561" transform="translate(317.043 143.916)" fill="url(#ad)"/><rect width="59.202" height="2.835" transform="translate(236.928 143.916)" fill="url(#ae)"/><rect width="13.051" height="2.89" transform="translate(301.759 143.916)" fill="url(#af)"/><rect width="37.154" height="2.725" transform="translate(183.738 151.051)" fill="url(#v)"/><rect width="22.679" height="2.561" transform="translate(183.738 156.324)" fill="url(#ah)"/><rect width="71.363" height="2.575" transform="translate(215.565 156.324)" fill="url(#x)"/><rect width="40.167" height="2.575" transform="translate(293.597 156.324)" fill="url(#aj)"/><rect width="31.183" height="2.698" transform="translate(195.529 161.596)" fill="url(#ak)"/><rect width="37.154" height="2.725" transform="translate(205.54 166.882)" fill="url(#aa)"/><rect width="31.142" height="3.027" transform="translate(245.118 166.882)" fill="url(#ab)"/><rect width="28.69" height="2.561" transform="translate(205.485 172.155)" fill="url(#ac)"/><rect width="28.69" height="2.561" transform="translate(317.043 172.155)" fill="url(#ao)"/><rect width="59.202" height="2.835" transform="translate(236.928 172.155)" fill="url(#ap)"/><rect width="13.051" height="2.89" transform="translate(301.759 172.155)" fill="url(#af)"/><rect width="37.154" height="2.725" transform="translate(183.738 179.29)" fill="url(#ar)"/><rect width="22.679" height="2.561" transform="translate(183.738 184.562)" fill="url(#as)"/><rect width="71.363" height="2.575" transform="translate(215.565 184.562)" fill="url(#at)"/><rect width="40.167" height="2.575" transform="translate(293.597 184.562)" fill="url(#au)"/><rect width="31.183" height="2.698" transform="translate(195.529 189.835)" fill="url(#ak)"/><rect width="37.154" height="2.725" transform="translate(205.54 195.107)" fill="url(#aw)"/><rect width="31.142" height="3.027" transform="translate(245.118 195.107)" fill="url(#ax)"/><rect width="28.69" height="2.561" transform="translate(205.485 200.393)" fill="url(#ay)"/><rect width="28.69" height="2.561" transform="translate(317.043 200.393)" fill="url(#az)"/><rect width="59.202" height="2.835" transform="translate(236.928 200.393)" fill="url(#ba)"/><rect width="13.051" height="2.89" transform="translate(301.759 200.393)" fill="url(#bb)"/></g></svg>