<svg xmlns="http://www.w3.org/2000/svg" xmlns:xlink="http://www.w3.org/1999/xlink" width="340.421" height="246.778" viewBox="0 0 340.421 246.778"><defs><linearGradient id="a" y1="0.504" x2="1" y2="0.504" gradientUnits="objectBoundingBox"><stop offset="0" stop-opacity="0"/><stop offset="0.99"/></linearGradient><linearGradient id="b" x1="0" y1="0.504" x2="1" y2="0.504" xlink:href="#a"/><linearGradient id="c" x1="0.651" y1="1.711" x2="0.409" y2="0.297" gradientUnits="objectBoundingBox"><stop offset="0.02" stop-color="#fff" stop-opacity="0"/><stop offset="0.58" stop-color="#fff" stop-opacity="0.388"/><stop offset="0.68" stop-color="#fff" stop-opacity="0.678"/><stop offset="1" stop-color="#fff"/></linearGradient><linearGradient id="d" x1="1.253" y1="1.009" x2="0.629" y2="0.499" xlink:href="#c"/><linearGradient id="e" x1="0.824" y1="0.485" x2="0.309" y2="0.514" gradientUnits="objectBoundingBox"><stop offset="0" stop-color="#e5c5d5"/><stop offset="0.42" stop-color="#ead4d1"/><stop offset="1" stop-color="#f0e9cb"/></linearGradient><linearGradient id="f" x1="0.003" y1="0.499" x2="0.998" y2="0.499" xlink:href="#c"/><linearGradient id="g" x1="1.064" y1="0.995" x2="0.471" y2="0.512" xlink:href="#e"/><linearGradient id="h" x1="-0.215" y1="0.5" x2="0.785" y2="0.5" xlink:href="#c"/></defs><g transform="translate(-0.02)"><path d="M243.528,65.54l-2.206,6.529H228.054A17.058,17.058,0,0,0,211,89.136V160.9l-29.757,87.215c1.129,3.982-22.974,11.955-63.89,11.518-59.619-.621-61.431-11.518-61.431-11.518L4,66.932Z" transform="translate(-3.98 -65.54)" fill="#68e1fd" opacity="0.18" style="isolation:isolate"/><path d="M171.718,252.21l40.19-185.44H46.86L79.3,252.805S62.4,263.1,122.014,263.728C162.913,264.157,172.856,256.192,171.718,252.21Z" transform="translate(-9.328 -65.693)" fill="#68e1fd" opacity="0.18" style="isolation:isolate"/><path d="M231.655,317.6c-3.028-.21-6.625-.936-7.746-3.728-.814-2.03.088-4.376-.254-6.512-.709-4.586-6.223-6.5-10.809-7.509L193.329,295.6c-2.022-.446-4.192-.971-5.54-2.529-.954-1.112-1.339-2.626-2.074-3.868-3.055-5.3-10.616-5.356-16.76-4.822A726.921,726.921,0,0,1,65.18,285.954c-10.4-.586-21.329-1.3-30.729,3.124a5.339,5.339,0,0,0-2.809,2.346c-.753,1.672.236,3.58,1.278,5.094,8.8,12.761,23.674,20.462,38.929,23.876s31.088,3.011,46.728,2.626l59.663-1.6c2.363-.07,5.015,0,6.678,1.637s1.663,4.525,2.757,6.713c1.523,3.054,5.05,4.542,8.358,5.531,12.769,3.816,26.335,3.965,39.682,4.087,33.381.306,66.8.6,100.124-1.567,4.954-.324,11.194-1.812,11.938-6.66.455-2.984-1.75-5.873-4.437-7.264s-5.873-1.61-8.927-1.8l-55.077-3.457c-7-.438-14.073-1.943-20.953-2.1C249.474,316.289,240.7,318.232,231.655,317.6Z" transform="translate(-7.396 -92.821)" fill="#68e1fd" opacity="0.18" style="isolation:isolate"/><path d="M332.567,332.244a1.462,1.462,0,0,1-.1.875,1.479,1.479,0,0,1-1.112.516,81.607,81.607,0,0,1-18.309.464,26.257,26.257,0,0,1,10.012-4.122,1.812,1.812,0,0,0,2.048-1.829,12.973,12.973,0,0,1,.691-2.7,1,1,0,0,1,.35-.525,1.086,1.086,0,0,1,.578-.079l3.168.166c1.26.079,1.313,0,1.628,1.252a42.413,42.413,0,0,1,1.042,5.978Z" transform="translate(-42.546 -97.897)" fill="#3e3e54"/><path d="M357.727,332.245a1.4,1.4,0,0,1-.105.875,1.479,1.479,0,0,1-1.112.516,81.526,81.526,0,0,1-18.3.464,26.256,26.256,0,0,1,10.012-4.122,2.468,2.468,0,0,0,1.794-.875,2.625,2.625,0,0,0,.254-.945,12.444,12.444,0,0,1,.691-2.7.954.954,0,0,1,.35-.525,1.042,1.042,0,0,1,.569-.079l3.168.166c1.269.079,1.313,0,1.637,1.252a43.765,43.765,0,0,1,1.041,5.969Z" transform="translate(-45.685 -97.898)" fill="#3e3e54"/><path d="M332.567,332.244a1.462,1.462,0,0,1-.1.875,1.479,1.479,0,0,1-1.112.516,81.607,81.607,0,0,1-18.309.464,26.257,26.257,0,0,1,10.012-4.122,1.812,1.812,0,0,0,2.048-1.829,12.973,12.973,0,0,1,.691-2.7,1,1,0,0,1,.35-.525,1.086,1.086,0,0,1,.578-.079l3.168.166c1.26.079,1.313,0,1.628,1.252a42.413,42.413,0,0,1,1.042,5.978Z" transform="translate(-42.546 -97.897)" fill="url(#a)"/><path d="M357.727,332.245a1.4,1.4,0,0,1-.105.875,1.479,1.479,0,0,1-1.112.516,81.526,81.526,0,0,1-18.3.464,26.256,26.256,0,0,1,10.012-4.122,2.468,2.468,0,0,0,1.794-.875,2.625,2.625,0,0,0,.254-.945,12.444,12.444,0,0,1,.691-2.7.954.954,0,0,1,.35-.525,1.042,1.042,0,0,1,.569-.079l3.168.166c1.269.079,1.313,0,1.637,1.252a43.765,43.765,0,0,1,1.041,5.969Z" transform="translate(-45.685 -97.898)" fill="url(#b)"/><path d="M311.46,208.529l7.4,101.586,14.826-.166-1.278-72.643,9.934,72.24,12.507.114-.473-108.526S340.6,175.586,311.46,208.529Z" transform="translate(-42.347 -81.282)" fill="#3e3e54"/><path d="M365.56,90.023v74.559a17.067,17.067,0,0,1-17.067,17.058H257.568a17.058,17.058,0,0,1-17.058-17.058V90.023A17.058,17.058,0,0,1,257.568,73h90.926A17.075,17.075,0,0,1,365.56,90.023Z" transform="translate(-33.494 -66.471)" fill="#68e1fd" opacity="0.18" style="isolation:isolate"/><path d="M267.66,124.37c1.287,8.962,4.245,17.6,7.185,26.169,2.337,6.792,4.884,13.916,10.31,18.625,2.669,2.328,6.126,4.245,7.089,7.658.56,2.048.053,4.227-.446,6.293l18.2-.411a3.23,3.23,0,0,0,1.654-.324,2.976,2.976,0,0,0,1.1-1.68c1.409-4.017,1.322-8.376,1.54-12.629.525-10.5,3.247-21.32,10.363-29.022a10.5,10.5,0,0,0,2.354-3.151,9.015,9.015,0,0,0,.333-3.72q-.823-17.3-.368-34.623a5.251,5.251,0,0,0-.21-2.022,5.066,5.066,0,0,0-.945-1.374l-5.251-6.126a4.166,4.166,0,0,0-1.077-1c-1.2-.7-2.722-.131-3.991.446-2.319,1.059-4.814,2.284-5.916,4.577a10.992,10.992,0,0,0-.779,4.464l-.394,11.57c-.131,3.693-.079,7.833,2.538,10.433,1.164,1.138,2.757,1.9,3.5,3.343a6.494,6.494,0,0,1,.376,3.658,29.347,29.347,0,0,1-1.462,6.424,58.08,58.08,0,0,1-2.713,6.249l-10.5,21.88c-.254.508-.656,1.112-1.217,1.006a1.313,1.313,0,0,1-.761-.648c-7.142-10.5-11.036-23.114-19.115-32.934-1.26-1.532-3.02-3.641-5-4.28C271.861,122.489,269.883,123.723,267.66,124.37Z" transform="translate(-36.882 -68.182)" fill="#68e1fd" opacity="0.18" style="isolation:isolate"/><path d="M279.334,144.708c-1.89-5.19-4.612-12.017-6.5-17.207-.481-1.313-.963-2.626-1.532-3.9,6.4-.875,12.472-2.057,18.913-2.486a1.435,1.435,0,0,1,1.82,1.269l9.111,27.9-5.164,16.839Z" transform="translate(-37.336 -72.468)" fill="#fff"/><path d="M332.9,241.141a58.992,58.992,0,0,0,21.837-3.755A5.917,5.917,0,0,0,357.049,236c1.112-1.234,1.068-3.1.954-4.752-1.707-25.25-5.12-50.412-5.2-75.715,0-4.674.079-9.4-.98-13.951s-3.44-8.988-7.387-11.492c-4.3-2.731-9.732-2.774-14.809-2.4-4.717.359-9.627,1.085-13.522,3.755-8.927,6.126-5.085,22.292-5.488,31.508a376.517,376.517,0,0,1-4.464,41.091c-1.19,7.667-2.494,15.316-3.772,22.966-.665,3.965-.875,8.927,2.512,11.045a10.284,10.284,0,0,0,4.166,1.155c5.881.761,11.78,1.5,17.706,1.812,1.479.079,2.958.131,4.437.149,1.82,0,1.75-.324,2.538-1.943q1.978-4.227,3.947-8.463.446,5.251.613,10.616" transform="translate(-41.165 -73.275)" fill="#68e1fd"/><path d="M332.918,240.95a59.172,59.172,0,0,0,21.88-3.763,5.882,5.882,0,0,0,2.3-1.383c1.112-1.234,1.077-3.089.963-4.752-1.707-25.25-5.12-50.412-5.2-75.715,0-4.674.079-9.4-.98-13.942s-3.448-9-7.387-11.492c-4.3-2.731-9.732-2.783-14.817-2.4-4.717.359-9.627,1.085-13.513,3.746-8.927,6.083-5.085,22.292-5.488,31.508a376.54,376.54,0,0,1-4.472,41.091c-1.182,7.667-2.486,15.316-3.772,22.974-.656,3.965-.875,8.918,2.521,11.036a10.144,10.144,0,0,0,4.157,1.155c5.89.761,11.78,1.5,17.714,1.812,1.479.079,2.958.131,4.437.149,1.82,0,1.75-.315,2.538-1.934q1.969-4.245,3.947-8.472.446,5.3.6,10.616" transform="translate(-41.172 -73.251)" fill="url(#c)"/><path d="M313.764,166.579c-.971,2.722-1.943,5.444-3.177,8.052a7.807,7.807,0,0,1-2.7,3.5,5.645,5.645,0,0,1-2.626.735c-3.361.184-6.52-1.584-9.19-3.623A40.259,40.259,0,0,1,285.723,163.5a3.851,3.851,0,0,1-.613-1.54,4.236,4.236,0,0,1,1.059-2.731l3.816-5.479a42.124,42.124,0,0,0,8.551,8.28,1.208,1.208,0,0,0,1.006.324c.368-.114.534-.534.648-.875l4.621-15.08c1.462-4.735,3.282-9.942,7.641-12.305a4.026,4.026,0,0,1,1.75-.551,4.1,4.1,0,0,1,2.862,1.47c3.781,3.868,3.606,9,2.416,13.828a186.082,186.082,0,0,1-5.715,17.741Z" transform="translate(-39.059 -74.026)" fill="#68e1fd"/><path d="M313.728,166.349c-.971,2.722-1.943,5.444-3.177,8.052a7.807,7.807,0,0,1-2.7,3.5,5.768,5.768,0,0,1-2.669.744c-3.352.175-6.512-1.593-9.181-3.632a40.163,40.163,0,0,1-10.345-11.745,4.017,4.017,0,0,1-.621-1.532A4.245,4.245,0,0,1,286.1,159l3.816-5.47a41.642,41.642,0,0,0,8.551,8.271,1.173,1.173,0,0,0,1,.324c.376-.114.543-.534.656-.875l4.621-15.08c1.453-4.744,3.273-9.951,7.641-12.305a3.807,3.807,0,0,1,1.75-.551,4.061,4.061,0,0,1,2.862,1.462c3.781,3.868,3.606,9,2.407,13.828a185.265,185.265,0,0,1-5.671,17.749Z" transform="translate(-39.049 -73.997)" fill="url(#d)"/><path d="M329.664,120.118a3.667,3.667,0,0,0-.341-1.654,4.712,4.712,0,0,0-2.713-1.8,9.353,9.353,0,0,1-5.076-3.886c-1.129-2.092-.875-4.639-.49-7a27.681,27.681,0,0,1,2.039-7.614,11.194,11.194,0,0,1,5.339-5.61c2.958-1.313,6.45-.823,9.426.429a8.411,8.411,0,0,1,3.028,1.943c1.75,1.9,1.9,4.726,1.812,7.3a69.685,69.685,0,0,1-3.912,20.839,3.063,3.063,0,0,1-.726,1.322,2.748,2.748,0,0,1-1.322.586c-1.637.385-4.665.823-6.214-.088C328.842,123.908,329.717,121.878,329.664,120.118Z" transform="translate(-43.502 -68.813)" fill="url(#e)"/><path d="M324.7,91.255a11.7,11.7,0,0,0,5.251,6.765,11.106,11.106,0,0,1,2.984,2.276c1.322,1.7,1.182,4.078.98,6.223.6.271,1.243-.289,1.68-.8s1.12-1.042,1.7-.709a1.261,1.261,0,0,1,.481.6,4.043,4.043,0,0,1-1.855,5.12,3.23,3.23,0,0,0-.945.534,1.751,1.751,0,0,0,0,2.048c.385.63.963,1.12,1.348,1.75,1,1.575.875,4.008,2.521,4.814a2.836,2.836,0,0,0,3.125-.779,8.305,8.305,0,0,0,1.61-3q3.116-8.516,5.943-17.119a8.289,8.289,0,0,0,.613-3.422,4.219,4.219,0,0,0-1.847-2.993,2.092,2.092,0,0,1-.744-.63,2.206,2.206,0,0,1-.044-1.348,4.7,4.7,0,0,0-1.435-3.7,10.5,10.5,0,0,0-3.457-2.2A27.263,27.263,0,0,0,329.947,82.6C326.061,82.888,323.873,87.772,324.7,91.255Z" transform="translate(-43.977 -67.66)" fill="#3e3e54"/><path d="M319.6,164.88a300.5,300.5,0,0,1-4.84,70.892" transform="translate(-42.759 -77.936)" fill="#fff"/><path d="M314.975,217.341a17.146,17.146,0,0,1-.359,6.267,8.752,8.752,0,0,1-3.5,5.076,3.189,3.189,0,0,1-3.5.271,3.8,3.8,0,0,1-1.146-2.241,18.275,18.275,0,0,1-.569-5.1c.079-1.3.6-4.752,2.171-5.1a5.76,5.76,0,0,1,1.243.236c.621.079,1.252.131,1.873.2Z" transform="translate(-41.652 -84.379)" fill="url(#f)"/><path d="M285.716,160.9a15.649,15.649,0,0,1-5.251-12.822c1.2-.166,2.223.814,2.993,1.75s1.663,2.074,2.424,3.16a1.077,1.077,0,0,0,.508.481c.289.1.639-.053.875.1a.875.875,0,0,1,.315.385,17.064,17.064,0,0,1,1.1,2.451" transform="translate(-38.475 -75.837)" fill="url(#g)"/><path d="M203,134.967c-1.015,1.978-3.1,3.116-5.076,4.122q-27.911,14.292-56.889,26.4c-10.24,4.289-20.918,8.428-32.024,8.236-2.564-.044-5.339-.42-7.15-2.241a8.439,8.439,0,0,1-1.952-6.538,15.99,15.99,0,0,1,5.33-10.861l-.481-1.059c-1.829-4.131-3.361-8.577-2.573-13,.875-4.8,5.531-9.207,10.249-8.008a8.98,8.98,0,0,1,10.5-14.222c-1.173-2.879-2.372-5.9-2.127-9,.306-3.965,6.074-9.225,8.892-11.973a15.894,15.894,0,0,1,13.767-4.219,12.42,12.42,0,0,1,1.934.534c2.626-3.361,7.378-4.306,11.632-3.912a25.656,25.656,0,0,1,22.23,20.629c6.739-1.042,13.583,5.321,13.032,12.13a10.87,10.87,0,0,1,11.115,8.122,7.124,7.124,0,0,1-.411,4.857Z" transform="translate(-15.944 -68.486)" fill="#68e1fd"/><path d="M186,113.57a13.268,13.268,0,0,0-6.126-5.146,20.078,20.078,0,0,0-6.547-1.3,17.819,17.819,0,0,0-6.459.6,8.542,8.542,0,0,0-5,3.938" transform="translate(-23.68 -70.72)" fill="none" stroke="#fff" stroke-linecap="round" stroke-miterlimit="10" stroke-width="1.94"/><path d="M127.48,133.4a10.782,10.782,0,0,1,2.188-5.041,7.133,7.133,0,0,1,1.435-1.75c1.68-1.348,4.1-1.006,6.223-.6a19.01,19.01,0,0,1,.131-4.936A6.319,6.319,0,0,1,140,116.988c1.925-1.234,4.42-.875,6.678-.516" transform="translate(-19.389 -71.853)" fill="none" stroke="#fff" stroke-linecap="round" stroke-miterlimit="10" stroke-width="1.94"/><path d="M193.932,137.892c-1.059-1.882-3.7-2.2-5.794-1.619a10.9,10.9,0,0,0-7.8,9.741" transform="translate(-25.985 -74.334)" fill="none" stroke="#fff" stroke-linecap="round" stroke-miterlimit="10" stroke-width="1.94"/><path d="M116.667,171.46a32.908,32.908,0,0,1,.263-8.5,6.065,6.065,0,0,1,1.365-3.4,5.251,5.251,0,0,1,2.792-1.313,12.183,12.183,0,0,1,12.481,5.593c-.691-2.958,1.532-6.126,4.446-7a9.413,9.413,0,0,1,8.507,2.092" transform="translate(-18.02 -76.893)" fill="none" stroke="#fff" stroke-linecap="round" stroke-miterlimit="10" stroke-width="1.94"/><path d="M168.565,137c.831.674.788,1.943.6,3-.674,3.5-2.538,7.142-5.846,8.551a11.658,11.658,0,0,1-5.146.691c-3.186-.175-6.6-1.12-8.481-3.693l-3.037,2.976" transform="translate(-21.781 -74.457)" fill="none" stroke="#fff" stroke-linecap="round" stroke-miterlimit="10" stroke-width="1.94"/><path d="M162.93,128.721a6.748,6.748,0,0,1,5.768-6.835,10.748,10.748,0,0,1,3.615.35c1.812.429,3.711,1.12,4.735,2.678" transform="translate(-23.812 -72.568)" fill="none" stroke="#fff" stroke-linecap="round" stroke-miterlimit="10" stroke-width="1.94"/><path d="M138.17,88.288l-1.3,2.031a15.859,15.859,0,0,0-13.767,4.219c-2.827,2.748-8.586,8.008-8.9,11.973-.245,3.1.954,6.126,2.127,8.988a8.98,8.98,0,0,0-10.5,14.231c-4.717-1.2-9.391,3.212-10.249,8.008-.788,4.376.744,8.866,2.573,12.988l-9.312,14.546c-6.4,3.2-14.765,3.7-20.226-.875a13.426,13.426,0,0,1-2.967-3.545c-2.7-4.691-2.276-10.8.42-15.483s8.017-8.56,13.128-10.292a12.157,12.157,0,0,1,6.485-16.962,21.775,21.775,0,0,1-1.418-8.358,15.57,15.57,0,0,1,7.054-11.614,20.734,20.734,0,0,1,13.47-3.046,2.232,2.232,0,0,0,2.783-1.628,16.682,16.682,0,0,1,8.043-7.256,33.477,33.477,0,0,1,5.838-1.672,19.851,19.851,0,0,1,5.409-.683,16.63,16.63,0,0,1,5.251,1.409,48.922,48.922,0,0,1,6.057,3.019Z" transform="translate(-11.445 -67.826)" fill="#68e1fd"/><path d="M143.412,114.741A15.535,15.535,0,0,1,151.858,99.6" transform="translate(-21.37 -69.79)" fill="none" stroke="#fff" stroke-linecap="round" stroke-miterlimit="10" stroke-width="1.94"/><path d="M152.4,135.389a7.982,7.982,0,0,0-8.91,9.54" transform="translate(-21.365 -74.247)" fill="none" stroke="#fff" stroke-linecap="round" stroke-miterlimit="10" stroke-width="1.94"/><path d="M130.695,149.619a12.411,12.411,0,0,0-14.485,3.588" transform="translate(-17.982 -75.908)" fill="none" stroke="#fff" stroke-linecap="round" stroke-miterlimit="10" stroke-width="1.94"/><path d="M94.4,129.2a3.632,3.632,0,0,1-1.4-3.125,8.892,8.892,0,0,1,.963-3.431,31.972,31.972,0,0,1,2.179-3.982,9.5,9.5,0,0,1,2.337-2.7c2.127-1.523,4.989-1.374,7.6-1.155" transform="translate(-15.085 -71.67)" fill="none" stroke="#fff" stroke-linecap="round" stroke-miterlimit="10" stroke-width="1.94"/><path d="M118.172,100.859a5.409,5.409,0,0,0-4.621,2.188,9.549,9.549,0,0,0-1.75,4.962" transform="translate(-17.432 -69.947)" fill="none" stroke="#fff" stroke-linecap="round" stroke-miterlimit="10" stroke-width="1.94"/><path d="M80.836,162.9c-.525.236-.954-.5-1.042-1.068A12.358,12.358,0,0,1,87.487,148.7" transform="translate(-13.424 -75.917)" fill="none" stroke="#fff" stroke-linecap="round" stroke-miterlimit="10" stroke-width="1.94"/><ellipse cx="71.54" cy="19.806" rx="71.54" ry="19.806" transform="translate(38.976 174.797)" fill="#68e1fd"/><ellipse cx="62.656" cy="11.623" rx="62.656" ry="11.623" transform="translate(51.255 174.894)" fill="url(#h)"/><path d="M125.791,212.578v-31.07H99.29v-33.4" transform="translate(-12.388 -18.482)" fill="none" stroke="#fff" stroke-miterlimit="10" stroke-width="1.45"/><circle cx="3.816" cy="3.816" r="3.816" transform="translate(83.48 121.996)" fill="none" stroke="#fff" stroke-miterlimit="10" stroke-width="1.45"/><circle cx="3.816" cy="3.816" r="3.816" transform="translate(55.815 143.701)" fill="none" stroke="#fff" stroke-miterlimit="10" stroke-width="1.45"/><circle cx="3.816" cy="3.816" r="3.816" transform="translate(96.127 124.858)" fill="none" stroke="#fff" stroke-miterlimit="10" stroke-width="1.45"/><circle cx="3.816" cy="3.816" r="3.816" transform="translate(107.339 108.885)" fill="none" stroke="#fff" stroke-miterlimit="10" stroke-width="1.45"/><circle cx="3.816" cy="3.816" r="3.816" transform="translate(138.102 112.456)" fill="none" stroke="#fff" stroke-miterlimit="10" stroke-width="1.45"/><circle cx="3.816" cy="3.816" r="3.816" transform="translate(163.308 123.029)" fill="none" stroke="#fff" stroke-miterlimit="10" stroke-width="1.45"/><circle cx="3.816" cy="3.816" r="3.816" transform="translate(148.123 169.38)" fill="none" stroke="#fff" stroke-miterlimit="10" stroke-width="1.45"/><path d="M99.29,162.735h13.119V150.57" transform="translate(-12.388 -18.789)" fill="none" stroke="#fff" stroke-miterlimit="10" stroke-width="1.45"/><path d="M129.952,184.645h15.5V161.268H127.09V133.13" transform="translate(-15.857 -16.613)" fill="none" stroke="#fff" stroke-miterlimit="10" stroke-width="1.45"/><path d="M160.505,137.21v34.107H148.34" transform="translate(-18.509 -17.122)" fill="none" stroke="#fff" stroke-miterlimit="10" stroke-width="1.45"/><path d="M121.647,198.741h-40.3v-29.1h-9.3" transform="translate(-8.987 -21.169)" fill="none" stroke="#fff" stroke-miterlimit="10" stroke-width="1.45"/><path d="M162.42,162.74h9.864v27.193" transform="translate(-20.266 -20.308)" fill="none" stroke="#fff" stroke-miterlimit="10" stroke-width="1.45"/><path d="M173.69,174.279h6.8V145.66h5.365" transform="translate(-21.672 -18.177)" fill="none" stroke="#fff" stroke-miterlimit="10" stroke-width="1.45"/><rect width="32.917" height="21.11" rx="4.47" transform="translate(219.996 17.408)" fill="#68e1fd" opacity="0.18" style="isolation:isolate"/><rect width="32.917" height="21.11" rx="4.47" transform="translate(221.361 18.458)" fill="#68e1fd" opacity="0.18" style="isolation:isolate"/></g></svg>