<svg xmlns="http://www.w3.org/2000/svg" xmlns:xlink="http://www.w3.org/1999/xlink" width="730" height="657" viewBox="0 0 730 657"><defs><linearGradient id="a" x1="0.291" y1="0.498" x2="1.292" y2="0.498" gradientUnits="objectBoundingBox"><stop offset="0.01"/><stop offset="0.83" stop-opacity="0.071"/><stop offset="1" stop-opacity="0"/></linearGradient><linearGradient id="b" x1="1.372" y1="-1.25" x2="-0.257" y2="2.013" xlink:href="#a"/><linearGradient id="c" x1="0.29" y1="0.499" x2="1.292" y2="0.499" xlink:href="#a"/><linearGradient id="d" x1="1.374" y1="-1.25" x2="-0.254" y2="2.013" xlink:href="#a"/><linearGradient id="e" x1="787.071" y1="0.5" x2="788.072" y2="0.5" xlink:href="#a"/><linearGradient id="f" x1="972.622" y1="-2.71" x2="971.735" y2="3.279" xlink:href="#a"/><linearGradient id="g" x1="797.389" y1="0.5" x2="798.391" y2="0.5" xlink:href="#a"/><linearGradient id="h" x1="984.893" y1="-2.71" x2="984.006" y2="3.279" xlink:href="#a"/><linearGradient id="i" x1="0.542" y1="1.249" x2="0.425" y2="-0.711" xlink:href="#a"/><linearGradient id="j" x1="0.066" y1="1.069" x2="0.68" y2="0.382" xlink:href="#a"/><linearGradient id="k" x1="0" y1="0.5" x2="0.999" y2="0.5" xlink:href="#a"/><linearGradient id="l" x1="0" y1="0.5" x2="1" y2="0.5" xlink:href="#a"/><linearGradient id="m" x1="0" y1="0.5" x2="1" y2="0.5" xlink:href="#a"/><linearGradient id="o" x1="0.308" y1="1.119" x2="0.588" y2="-0.125" xlink:href="#a"/><linearGradient id="p" x1="0.666" y1="0.634" x2="0.253" y2="-0.025" xlink:href="#a"/><linearGradient id="q" x1="0.517" y1="0.095" x2="-0.216" y2="1.292" gradientUnits="objectBoundingBox"><stop offset="0.02" stop-color="#fff" stop-opacity="0"/><stop offset="0.39" stop-color="#fff" stop-opacity="0.388"/><stop offset="1" stop-color="#fff"/></linearGradient><linearGradient id="r" x1="0.041" y1="-0.327" x2="0.737" y2="0.911" xlink:href="#q"/><linearGradient id="s" x1="0.852" y1="-0.038" x2="0.295" y2="0.771" xlink:href="#a"/><linearGradient id="t" x1="1.09" y1="-0.187" x2="0.153" y2="0.838" xlink:href="#a"/><linearGradient id="u" x1="0.764" y1="1.554" x2="0.351" y2="-0.193" xlink:href="#a"/><linearGradient id="v" x1="1.038" y1="1.107" x2="0.516" y2="0.382" xlink:href="#a"/><linearGradient id="w" x1="0.117" y1="0.2" x2="1.214" y2="0.973" xlink:href="#a"/><linearGradient id="x" x1="0.112" y1="0.23" x2="1.226" y2="0.907" xlink:href="#a"/><linearGradient id="y" x1="-0.595" y1="0.393" x2="1.61" y2="0.608" xlink:href="#a"/><linearGradient id="z" x1="0.727" y1="1.016" x2="0.36" y2="0.191" xlink:href="#a"/><linearGradient id="aa" x1="0" y1="0.5" x2="1" y2="0.5" xlink:href="#a"/></defs><g transform="translate(0.031 -0.005)"><path d="M744.237,295.922c.209,41.086-19.038,78.419-38.076,115.522-5.521,10.767-11.023,21.515-16.03,32.4-18.239,39.352-30.956,82.5-59.761,115.065-20.466,23.116-47.6,39.028-74.5,54.216-32.726,18.466-66.519,36.684-103.548,43.144-64.463,11.263-115.1-19.666-175.8-31.062-51.974-9.738-106.9,1.029-155.332-25.555-19.248-10.557-35.278-26.165-49.08-43.24A267.184,267.184,0,0,1,47.367,520.2,250.644,250.644,0,0,1,14.431,407.557c-2.246-54.121,15.23-109.29,50.28-150.548,23.874-28.109,54.83-49.09,83.158-72.682,45.977-38.114,85.671-83.7,132.619-120.591S385.027-1.84,444.616,2.048c50.6,3.3,96.523,29.309,140.425,54.693,27.072,15.646,54.544,31.6,75.981,54.331,20.942,22.258,35.239,49.948,48.966,77.332C727.008,222.344,744.047,257.942,744.237,295.922Z" transform="translate(-14.27 -1.69)" fill="#68e1fd" opacity="0.25"/><path d="M690.342,250.767c-5.52,10.77-11.022,21.522-16.028,32.406-18.236,39.364-30.952,82.522-59.752,115.1-20.463,23.123-47.589,39.04-74.486,54.233-32.722,18.472-66.51,36.7-103.534,43.158-64.454,11.266-115.088-19.672-175.773-31.072-51.967-9.741-106.884,1.029-155.31-25.563-19.245-10.561-35.273-26.173-49.073-43.253A267.271,267.271,0,0,1,31.64,359.557C76.392,255.647,229.609,179.13,411.511,179.13,520.527,179.035,619.15,206.466,690.342,250.767Z" transform="translate(1.5 158.912)" fill="#68e1fd" opacity="0.43"/><path d="M296.774,306.293c1.125,5.585-.419,10.618-3.45,11.228-.762.152-6.329,2.688-7.091,2.307-2.288-1.125.381-7.11-.477-11.285s-5.719-6.653-4.137-8.578a40.183,40.183,0,0,1,7.625-2.65C292.161,296.762,295.63,300.67,296.774,306.293Z" transform="translate(227.092 265.97)" fill="#3f3d56"/><path d="M296.774,306.293c1.125,5.585-.419,10.618-3.45,11.228-.762.152-6.329,2.688-7.091,2.307-2.288-1.125.381-7.11-.477-11.285s-5.719-6.653-4.137-8.578a40.183,40.183,0,0,1,7.625-2.65C292.161,296.762,295.63,300.67,296.774,306.293Z" transform="translate(227.092 265.97)" fill="url(#a)"/><ellipse cx="5.623" cy="10.313" rx="5.623" ry="10.313" transform="matrix(0.98, -0.2, 0.2, 0.98, 503.745, 566.621)" fill="#3f3d56"/><ellipse cx="5.623" cy="10.313" rx="5.623" ry="10.313" transform="matrix(0.98, -0.2, 0.2, 0.98, 503.745, 566.621)" fill="#3f3d56"/><ellipse cx="3.488" cy="6.405" rx="3.488" ry="6.405" transform="matrix(0.98, -0.2, 0.2, 0.98, 506.082, 570.804)" fill="url(#b)"/><path d="M258.408,281.9c1.144,5.566-.4,10.6-3.45,11.228-.762.152-6.329,2.669-7.091,2.307-2.288-1.144.381-7.11-.477-11.3s-5.719-6.634-4.118-8.578a41.33,41.33,0,0,1,7.625-2.631C253.891,272.292,257.265,276.314,258.408,281.9Z" transform="translate(192.43 243.888)" fill="#3f3d56"/><path d="M258.408,281.9c1.144,5.566-.4,10.6-3.45,11.228-.762.152-6.329,2.669-7.091,2.307-2.288-1.144.381-7.11-.477-11.3s-5.719-6.634-4.118-8.578a41.33,41.33,0,0,1,7.625-2.631C253.891,272.292,257.265,276.314,258.408,281.9Z" transform="translate(192.43 243.888)" fill="url(#c)"/><ellipse cx="5.623" cy="10.313" rx="5.623" ry="10.313" transform="matrix(0.98, -0.2, 0.2, 0.98, 430.724, 520.187)" fill="#3f3d56"/><ellipse cx="5.623" cy="10.313" rx="5.623" ry="10.313" transform="matrix(0.98, -0.2, 0.2, 0.98, 430.724, 520.187)" fill="#3f3d56"/><ellipse cx="3.488" cy="6.405" rx="3.488" ry="6.405" transform="matrix(0.98, -0.2, 0.2, 0.98, 433.041, 524.371)" fill="url(#d)"/><path d="M285.719,283.4c-1.144,5.585.4,10.618,3.45,11.228.763.152,6.31,2.688,7.072,2.307,2.307-1.125-.362-7.091.5-11.285s5.719-6.634,4.118-8.578a40.03,40.03,0,0,0-7.625-2.65C290.237,273.809,286.863,277.831,285.719,283.4Z" transform="translate(230.741 245.249)" fill="#3f3d56"/><path d="M285.719,283.4c-1.144,5.585.4,10.618,3.45,11.228.763.152,6.31,2.688,7.072,2.307,2.307-1.125-.362-7.091.5-11.285s5.719-6.634,4.118-8.578a40.03,40.03,0,0,0-7.625-2.65C290.237,273.809,286.863,277.831,285.719,283.4Z" transform="translate(230.741 245.249)" fill="url(#e)"/><ellipse cx="10.313" cy="5.623" rx="10.313" ry="5.623" transform="matrix(0.2, -0.98, 0.98, 0.2, 521.515, 541.121)" fill="#3f3d56"/><ellipse cx="10.313" cy="5.623" rx="10.313" ry="5.623" transform="matrix(0.2, -0.98, 0.98, 0.2, 521.515, 541.121)" fill="#3f3d56"/><ellipse cx="6.405" cy="3.488" rx="6.405" ry="3.488" transform="matrix(0.2, -0.98, 0.98, 0.2, 524.944, 538.441)" fill="url(#f)"/><path d="M244.5,306.1c-1.144,5.585.4,10.618,3.45,11.228.743.152,6.31,2.688,7.072,2.307,2.287-1.125-.362-7.091.477-11.285s5.719-6.634,4.137-8.578a40.184,40.184,0,0,0-7.625-2.65C249.017,296.509,245.624,300.531,244.5,306.1Z" transform="translate(193.488 265.784)" fill="#3f3d56"/><path d="M244.5,306.1c-1.144,5.585.4,10.618,3.45,11.228.743.152,6.31,2.688,7.072,2.307,2.287-1.125-.362-7.091.477-11.285s5.719-6.634,4.137-8.578a40.184,40.184,0,0,0-7.625-2.65C249.017,296.509,245.624,300.531,244.5,306.1Z" transform="translate(193.488 265.784)" fill="url(#g)"/><ellipse cx="10.313" cy="5.623" rx="10.313" ry="5.623" transform="matrix(0.2, -0.98, 0.98, 0.2, 443.024, 584.344)" fill="#3f3d56"/><ellipse cx="10.313" cy="5.623" rx="10.313" ry="5.623" transform="matrix(0.2, -0.98, 0.98, 0.2, 443.024, 584.344)" fill="#3f3d56"/><ellipse cx="6.405" cy="3.488" rx="6.405" ry="3.488" transform="matrix(0.2, -0.98, 0.98, 0.2, 446.468, 581.737)" fill="url(#h)"/><path d="M284.868,292.313,260.3,277.234a21.654,21.654,0,0,0-9.036-3.813c-3.3-.286-7,1.411-7.854,4.594-1.372,5.013,4.442,8.731,9.15,10.923a124.4,124.4,0,0,1,22.055,13.344,2.669,2.669,0,0,1,1.182,1.449c.267,1.277-1.239,2.116-2.478,2.554A167.926,167.926,0,0,0,245.332,319a14.717,14.717,0,0,0-4.423,3.336c-3.812,4.708-1.067,11.609,1.754,16.927a5.718,5.718,0,0,0,2.612,2.974,5.356,5.356,0,0,0,3.641-.286c14.411-4.9,24.934-17.595,38.964-23.485a13.9,13.9,0,0,1,6.214-1.392,15.557,15.557,0,0,1,5.013,1.506,127.722,127.722,0,0,1,27.278,16.26c3.927,3.069,9.093,6.538,13.344,4.1,3.813-2.116,4.118-7.72,1.906-11.438s-6.176-5.89-9.951-7.949l-24.324-13.191L340.607,291.4a10.1,10.1,0,0,0,4.423-3.05c2.04-2.974.4-7.015-1.3-10.217a7.758,7.758,0,0,0-3.222-3.812c-1.906-.915-4.308,0-6.291.934a221.65,221.65,0,0,0-33.131,19.272c1.62-6-.4-12.333-2.4-18.224l-3.565-10.446c-2.783-8.178-5.337-.61-5.871,3.374C288.3,276.949,286.336,284.688,284.868,292.313Z" transform="translate(188.811 234.2)" fill="#68e1fd"/><path d="M284.868,292.313,260.3,277.234a21.654,21.654,0,0,0-9.036-3.813c-3.3-.286-7,1.411-7.854,4.594-1.372,5.013,4.442,8.731,9.15,10.923a124.4,124.4,0,0,1,22.055,13.344,2.669,2.669,0,0,1,1.182,1.449c.267,1.277-1.239,2.116-2.478,2.554A167.926,167.926,0,0,0,245.332,319a14.717,14.717,0,0,0-4.423,3.336c-3.812,4.708-1.067,11.609,1.754,16.927a5.718,5.718,0,0,0,2.612,2.974,5.356,5.356,0,0,0,3.641-.286c14.411-4.9,24.934-17.595,38.964-23.485a13.9,13.9,0,0,1,6.214-1.392,15.557,15.557,0,0,1,5.013,1.506,127.722,127.722,0,0,1,27.278,16.26c3.927,3.069,9.093,6.538,13.344,4.1,3.813-2.116,4.118-7.72,1.906-11.438s-6.176-5.89-9.951-7.949l-24.324-13.191L340.607,291.4a10.1,10.1,0,0,0,4.423-3.05c2.04-2.974.4-7.015-1.3-10.217a7.758,7.758,0,0,0-3.222-3.812c-1.906-.915-4.308,0-6.291.934a221.65,221.65,0,0,0-33.131,19.272c1.62-6-.4-12.333-2.4-18.224l-3.565-10.446c-2.783-8.178-5.337-.61-5.871,3.374C288.3,276.949,286.336,284.688,284.868,292.313Z" transform="translate(188.811 234.2)" fill="url(#i)"/><path d="M264.963,298.821a7.091,7.091,0,0,0,3.126,1.906,6.92,6.92,0,0,0,7.415-1.411,9.056,9.056,0,0,0,1.563-3.813,72.647,72.647,0,0,0,.877-25.353c-2.821,0-5.89-.133-8.178,1.525C264.143,275.584,259.911,293.255,264.963,298.821Z" transform="translate(210.283 241.434)" fill="url(#j)"/><path d="M200.671,290.578c-4.785,1.334-9.817,1.582-14.716,2.5s-10.294,3.222-11.438,8.044c-1.087,4.518,2.307,8.978,6.252,11.437,6.863,4.308,15.4,4.766,23.485,4.575a184.349,184.349,0,0,0,34.808-4.175,5.719,5.719,0,0,0,3.2-1.506,5.548,5.548,0,0,0,.877-3.641,88.643,88.643,0,0,0-2.383-19.9,8.94,8.94,0,0,0-3.336-5.986,9.188,9.188,0,0,0-4.594-.953c-5.3-.152-15.021-1.906-19.634.82S206.657,288.939,200.671,290.578Z" transform="translate(130.365 250.575)" fill="#3f3d56"/><path d="M200.671,290.578c-4.785,1.334-9.817,1.582-14.716,2.5s-10.294,3.222-11.438,8.044c-1.087,4.518,2.307,8.978,6.252,11.437,6.863,4.308,15.4,4.766,23.485,4.575a184.349,184.349,0,0,0,34.808-4.175,5.719,5.719,0,0,0,3.2-1.506,5.548,5.548,0,0,0,.877-3.641,88.643,88.643,0,0,0-2.383-19.9,8.94,8.94,0,0,0-3.336-5.986,9.188,9.188,0,0,0-4.594-.953c-5.3-.152-15.021-1.906-19.634.82S206.657,288.939,200.671,290.578Z" transform="translate(130.365 250.575)" fill="url(#k)"/><path d="M253.78,204.02c-8.178-2.974-17.614-5.357-25.22-1.182-9.779,5.338-11.609,18.357-12.276,29.49q-2.326,38.125-4.613,76.155c-.305,5.109-.515,10.618,2.268,14.907,3.813,5.89,11.7,7.263,18.681,8.1,3.241.381,6.9.648,9.36-1.506a11.591,11.591,0,0,0,2.974-6.367,339.917,339.917,0,0,0,8.273-59.609,59.094,59.094,0,0,0,34.122,20.759,21.693,21.693,0,0,0,10.427.1,20.968,20.968,0,0,0,10.084-7.625,47.313,47.313,0,0,0,10.027-25.811c.724-9.646-2.04-12.372-9.4-17.747A221.125,221.125,0,0,0,253.78,204.02Z" transform="translate(163.934 178.417)" fill="#3f3d56"/><path d="M253.78,204.02c-8.178-2.974-17.614-5.357-25.22-1.182-9.779,5.338-11.609,18.357-12.276,29.49q-2.326,38.125-4.613,76.155c-.305,5.109-.515,10.618,2.268,14.907,3.813,5.89,11.7,7.263,18.681,8.1,3.241.381,6.9.648,9.36-1.506a11.591,11.591,0,0,0,2.974-6.367,339.917,339.917,0,0,0,8.273-59.609,59.094,59.094,0,0,0,34.122,20.759,21.693,21.693,0,0,0,10.427.1,20.968,20.968,0,0,0,10.084-7.625,47.313,47.313,0,0,0,10.027-25.811c.724-9.646-2.04-12.372-9.4-17.747A221.125,221.125,0,0,0,253.78,204.02Z" transform="translate(163.934 178.417)" fill="url(#l)"/><path d="M290.72,324.8l79.033-73.81c7.034-4.06-59.094-29.032-66.166-24.972l-68.835,39.745c-7.034,4.06-12.753,14.945-12.753,24.3h0C222,299.431,283.705,328.864,290.72,324.8Z" transform="translate(173.377 201.051)" fill="#68e1fd"/><path d="M290.72,324.8l79.033-73.81c7.034-4.06-59.094-29.032-66.166-24.972l-68.835,39.745c-7.034,4.06-12.753,14.945-12.753,24.3h0C222,299.431,283.705,328.864,290.72,324.8Z" transform="translate(173.377 201.051)" fill="url(#m)"/><path d="M265.565,312.52l68.854-39.745c7.015-4.06,12.715-14.945,12.715-24.3h0c0-9.36-5.719-13.668-12.715-9.531l-68.854,39.669c-7.015,4.041-12.715,14.926-12.715,24.286h0C252.85,312.272,258.55,316.561,265.565,312.52Z" transform="translate(201.302 211.732)" fill="#68e1fd"/><path d="M265.565,312.52l68.854-39.745c7.015-4.06,12.715-14.945,12.715-24.3h0c0-9.36-5.719-13.668-12.715-9.531l-68.854,39.669c-7.015,4.041-12.715,14.926-12.715,24.286h0C252.85,312.272,258.55,316.561,265.565,312.52Z" transform="translate(201.302 211.732)" fill="url(#l)"/><path d="M237.435,220.777c-9.036-.839-18.3-1.315-27.088,1.029s-17.156,7.987-20.588,16.375c-2.383,5.719-2.345,12.028-2.23,18.186q.515,26.688,2.573,53.375c.724,9.322,1.6,18.719,4.651,27.545a17.156,17.156,0,0,0,4.137,7.225,15.821,15.821,0,0,0,7.148,3.374,39.8,39.8,0,0,0,13.839.915,10.39,10.39,0,0,0,4.67-1.372c2.5-1.678,3.336-4.918,3.812-7.892,3.813-25.01-4.67-51.049,1.334-75.64,28.594,13.725,59.856,23.2,91.5,21.541,4.918-.248,26.173-3.565,30.672-5.585,13.5-6.1,27.869-22.284,26.116-29.623s-42.738-2.04-48.457-7c-10.866-9.531-23.885-11.3-37.439-14.011a522.187,522.187,0,0,0-54.652-8.445Z" transform="translate(142.165 196.073)" fill="#3f3d56"/><path d="M44.14,258.779v17.48L192.065,381.237l361.159-228.75-.267-10.446Z" transform="translate(40.03 128.591)" fill="#68e1fd"/><path d="M44.14,258.779v17.48L192.065,381.237l361.159-228.75-.267-10.446Z" transform="translate(40.03 128.591)" fill="url(#o)"/><path d="M144.009,227.287,44.14,276.659,192.2,382.4,552.957,159.92l-73.639-37.61Z" transform="translate(40.03 110.723)" fill="#68e1fd"/><path d="M144.009,227.287,44.14,276.659,192.2,382.4,552.957,159.92l-73.639-37.61Z" transform="translate(40.03 110.723)" fill="url(#p)"/><path d="M55.44,137.765,206.549,360.3,504.839,184.792,510.482,170,59.786,126.88Z" transform="translate(50.271 114.867)" fill="#68e1fd"/><path d="M55.44,137.765,206.549,360.3,504.839,184.792,510.482,170,59.786,126.88Z" transform="translate(50.271 114.867)" fill="url(#q)"/><path d="M57.72,207.618,367.334,37.79,508.416,250.738,207.952,428.4Z" transform="translate(51.969 34.243)" fill="#68e1fd"/><path d="M57.72,207.618,367.334,37.79,508.416,250.738,207.952,428.4Z" transform="translate(51.969 34.243)" fill="url(#r)"/><line y1="28.708" x2="49.601" transform="translate(300.63 329.158)" fill="none" stroke="#707070" stroke-miterlimit="10" stroke-width="0.73"/><line x2="37.096" y2="55.872" transform="translate(263.592 301.999)" fill="none" stroke="#707070" stroke-miterlimit="10" stroke-width="0.73"/><line x2="104.196" y2="146.496" transform="translate(184.81 263.089)" fill="none" stroke="#707070" stroke-miterlimit="10" stroke-width="0.73"/><path d="M242.828,194.624l41.537-26.63L273.919,155.47,127.29,240.584l9.264,15.155Z" transform="translate(114.989 140.785)" fill="#68e1fd"/><path d="M201.276,305.119,436.3,162.532,401.414,115.39l-178.2,104.329-63.459-94-62.678,32.9" transform="translate(87.564 104.475)" fill="none" stroke="#707070" stroke-miterlimit="10" stroke-width="0.73"/><path d="M233.792,178.032c-6.767-8.826-12.677-18.91-22.322-24.438a8.178,8.178,0,0,0,4.67-9.15c-.686-2.821-2.307-6.9.477-7.8a3.813,3.813,0,0,1,1.906,0c14.621,2.955,23.256,17.823,35.666,26.078,3.3,2.173,6.9,3.908,10.008,6.348a54.063,54.063,0,0,1,6.977,7.034l21.865,24.781a3.813,3.813,0,0,1,1.373,3.126c-.21,1.067-1.258,1.735-2.211,2.288-4.079,2.326-11.438,8.769-16.356,8.731s-11.037-6.843-14.6-9.684C251.292,197.362,241.36,188.44,233.792,178.032Z" transform="translate(163.927 120.413)" fill="url(#s)"/><path d="M203.724,212.66a41.5,41.5,0,0,1-11.152-17.728,7.339,7.339,0,0,1,.152-6.386,7.225,7.225,0,0,1,5.318-2.326,26.8,26.8,0,0,1,12.562,1.506c4.956,1.906,9.017,5.623,12.963,9.207,7.625,6.939,30.691,21.808,14.659,32.006C225.512,237.06,212.035,220.476,203.724,212.66Z" transform="translate(146.282 165.251)" fill="url(#t)"/><path d="M214.118,177.712a1.906,1.906,0,0,0-1.106.152c-1.182.648-.553,2.421-.686,3.813a3.946,3.946,0,0,1-4.537,3.031,11.437,11.437,0,0,1-5.338-2.783,7.472,7.472,0,0,0-5.414-2.23,6.958,6.958,0,0,0-2.192.839,10.942,10.942,0,0,0-5.185,4.27,7.758,7.758,0,0,0-.648,3.813c.21,6.653,5.2,12.429,11.171,15.364s12.791,3.565,19.425,3.812c7.206.267,8.75-9.093,6.519-14.449C224.221,188.558,219.875,178.283,214.118,177.712Z" transform="translate(143.644 157.697)" fill="#e8b08d"/><path d="M229.117,135.055a20.4,20.4,0,0,0-15.784-.9,4.88,4.88,0,0,0-2.287,1.582,5.3,5.3,0,0,0,.4,5.185,39,39,0,0,0,4.213,6.863,15.611,15.611,0,0,1,1.906,2.459,25.566,25.566,0,0,1,1.067,4.518,3.965,3.965,0,0,0,.8,1.906,3.507,3.507,0,0,0,1.239.782,26.462,26.462,0,0,1,4.8,1.906c.591.4,1.106.9,1.735,1.258,1.2.686,3.107.324,4.518.667a12.486,12.486,0,0,0,5.719.419c5.147-1.125,7.625-8.578,5.948-13.21C241.221,142.871,234.416,137.514,229.117,135.055Z" transform="translate(163.135 117.211)" fill="#e8b08d"/><path d="M297.611,159.434c-8.063,2.326-16.489,5.547-24.591,3.374-5.452-1.468-9.932-5.185-14.411-8.635a191.039,191.039,0,0,0-16.966-11.666,10.027,10.027,0,0,0-4.994-1.906c-2.631,0-4.823,1.906-6.71,3.813-5.223,4.956-10.885,12.181-7.53,18.567a16.756,16.756,0,0,0,6.786,5.947q13.9,8.216,28.041,16.013a44.8,44.8,0,0,0,11.037,4.842,46.21,46.21,0,0,0,10.885.839h21.312a75.051,75.051,0,0,0,20.664-1.906c6.672-1.906,13.02-6.062,16.051-12.314C350.548,148.511,310.231,155.85,297.611,159.434Z" transform="translate(172.867 124.106)" fill="#68e1fd"/><path d="M297.611,159.434c-8.063,2.326-16.489,5.547-24.591,3.374-5.452-1.468-9.932-5.185-14.411-8.635a191.039,191.039,0,0,0-16.966-11.666,10.027,10.027,0,0,0-4.994-1.906c-2.631,0-4.823,1.906-6.71,3.813-5.223,4.956-10.885,12.181-7.53,18.567a16.756,16.756,0,0,0,6.786,5.947q13.9,8.216,28.041,16.013a44.8,44.8,0,0,0,11.037,4.842,46.21,46.21,0,0,0,10.885.839h21.312a75.051,75.051,0,0,0,20.664-1.906c6.672-1.906,13.02-6.062,16.051-12.314C350.548,148.511,310.231,155.85,297.611,159.434Z" transform="translate(172.867 124.106)" fill="url(#u)"/><path d="M339.889,285.648c-4.213,16.7-13.229,32.692-27.374,42.529s-33.741,12.505-48.876,4.308a29.871,29.871,0,0,1-14.907-17.595,45.527,45.527,0,0,1-1.125-12.048q-.191-44.568,2.745-89.079c.458-6.786.991-13.725,3.546-20.035,2.955-7.225,8.311-13.115,13.573-18.815l1.487-1.6c7.911-8.712,18.09-20.092,28.594-23.695,7.625-2.612,15.25-1.163,22.379,8.292,15.917,21.1,20.607,50.8,22.646,76.4C343.911,251.431,344.121,268.949,339.889,285.648Z" transform="translate(196.531 131.202)" fill="#68e1fd"/><path d="M277.569,193.251a115.538,115.538,0,0,1-23.981,25.715,4.39,4.39,0,0,1-6.291.133l-32.978-19.863a74.017,74.017,0,0,0-8.483,13.5c-1.449,2.955-2.707,6.348-1.677,9.531a13.9,13.9,0,0,0,5.6,6.234,296.625,296.625,0,0,0,35.189,21.96c4.365,2.326,9,4.575,13.935,4.651,8.731.133,15.955-6.424,22.17-12.562,10.046-9.932,20.263-20.187,26.154-33.016,4.27-9.264,9.322-32.94-2.23-39.726C294,163.284,282.353,186.464,277.569,193.251Z" transform="translate(156.961 149.512)" fill="#68e1fd"/><path d="M277.569,193.251a115.538,115.538,0,0,1-23.981,25.715,4.39,4.39,0,0,1-6.291.133l-32.978-19.863a74.017,74.017,0,0,0-8.483,13.5c-1.449,2.955-2.707,6.348-1.677,9.531a13.9,13.9,0,0,0,5.6,6.234,296.625,296.625,0,0,0,35.189,21.96c4.365,2.326,9,4.575,13.935,4.651,8.731.133,15.955-6.424,22.17-12.562,10.046-9.932,20.263-20.187,26.154-33.016,4.27-9.264,9.322-32.94-2.23-39.726C294,163.284,282.353,186.464,277.569,193.251Z" transform="translate(156.961 149.512)" fill="url(#v)"/><path d="M287.608,156.53c-10.446,3.6-20.626,14.983-28.594,23.695-1.506-4.766.686-13.858.305-17.976a56.347,56.347,0,0,1-.724-10.561,11.9,11.9,0,0,1,4.708-9.112,15.86,15.86,0,0,1,9.531-1.754,11.093,11.093,0,0,1,3.7.629,9.531,9.531,0,0,1,3.107,2.573A46.247,46.247,0,0,1,287.608,156.53Z" transform="translate(206.452 124.191)" fill="#e6b28b"/><path d="M248.884,161.778a42.338,42.338,0,0,0,8.006,17.29c4.175,4.861,10.637,8.159,16.966,7.11a19.749,19.749,0,0,0,7.758-3.3,37.8,37.8,0,0,0,14.392-21.369,80.369,80.369,0,0,0,2.04-26.078c-.267-4.994-.82-10.2-3.622-14.335-3.222-4.766-9-7.32-14.716-8.121a88.868,88.868,0,0,0-17.29.191,31.949,31.949,0,0,0-10.77,1.716c-8.006,3.412-6.424,13.134-6.329,20.34a111.612,111.612,0,0,0,3.565,26.554Z" transform="translate(194.368 98.788)" fill="#e8b08d"/><path d="M273.935,95.893a28.917,28.917,0,0,0-3.336.724,29.928,29.928,0,0,0-20.511,21.331c-2.8.419-5.852.953-7.625,3.107a8.044,8.044,0,0,0-.839,8.1c3.717,9.283,12.3,11.19,19.063,17.156a11.037,11.037,0,0,1,.972.915,23.485,23.485,0,0,1,5.967,13.02,56.644,56.644,0,0,1,.667,7.625q0,1.906,0,3.813c0,1.182-.305,2.535.5,3.527a1.144,1.144,0,0,0,1.106.5c.572-.153.705-.9.724-1.506a24.093,24.093,0,0,1,.534-6.081c.4-1.372,1.334-4,3.164-3.812a2.707,2.707,0,0,1,1.639,1.029,12.943,12.943,0,0,1-1.2,17.824,9.188,9.188,0,0,1,9.76,5.509c1.106,2.84,1.182,6.748,4.022,7.854a4.689,4.689,0,0,0,5.052-1.716,13.649,13.649,0,0,0,2.268-5.185c2.459,2.9,7.625,1.22,9.531-2.078s1.582-7.339,1.506-11.133a113.5,113.5,0,0,1,3.813-28.155c3.222-13.611,2.288-23.294-4.918-35.628a39.786,39.786,0,0,0-6.4-8.578A30.024,30.024,0,0,0,273.935,95.893Z" transform="translate(190.528 83.303)" fill="#3f3d56"/><path d="M329.381,188.282c-15.4,10.618-29.909,22.475-44.4,34.313-5.719,4.708-11.666,9.531-15.25,16.089-6.71,12.2-3.812,27.279-.114,40.7,1.906,7.053,5.337,15.25,12.505,16.718a17.023,17.023,0,0,0,7.758-.515c10.2-2.592,19.177-8.54,27.927-14.373,9.15-6.119,18.834-12.867,22.761-23.161a47.655,47.655,0,0,0,2.421-15.746,230.812,230.812,0,0,0-1.7-35.361C340.609,200.577,340.609,180.485,329.381,188.282Z" transform="translate(212.936 165.672)" fill="#68e1fd"/><path d="M343.063,242.307a48.647,48.647,0,0,1-2.421,15.746c-3.946,10.294-13.611,17.061-22.78,23.161-7.93,5.28-16.051,10.675-25.067,13.573-.934.305-1.906.572-2.84.82a17.386,17.386,0,0,1-7.778.5c-7.167-1.525-10.522-9.665-12.5-16.718-3.812-13.344-6.577-28.594.133-40.7,3.565-6.519,9.531-11.438,15.25-16.07,14.507-11.838,29.013-23.695,44.4-34.313,6.939-4.8,9.531.972,10.751,7.625.705,4.137.9,8.616,1.2,11.037a230.82,230.82,0,0,1,1.658,35.342Z" transform="translate(212.96 165.69)" fill="url(#w)"/><path d="M334.836,237.848a48.65,48.65,0,0,1-2.421,15.746c-3.946,10.294-13.611,17.061-22.78,23.161-7.93,5.28-16.051,10.675-25.067,13.572a34.314,34.314,0,0,1-5.814-12.467c-3.812-13.344-6.577-28.479.114-40.679,3.584-6.519,9.531-11.438,15.25-16.108,12.391-10.141,24.781-20.263,37.82-29.623.705,4.137.9,8.616,1.2,11.037a230.839,230.839,0,0,1,1.7,35.361Z" transform="translate(221.181 170.147)" fill="url(#x)"/><path d="M318.617,219.072c-1.353,23.523-4.594,78.385-5.623,82.484-1.3,5.223-6.519,9.15-16.985,15.021a16.283,16.283,0,0,1-2.268,1.068c-9.8,3.908-19.92-1.716-19.92-1.716l16.966-9.15,8.654-72.9c.324-2.688,2.135-8.445,3.984-10.465l8.635-7.053a3.812,3.812,0,0,1,6.558,2.707Z" transform="translate(220.3 191.651)" fill="#68e1fd"/><path d="M309.147,217.23c-1.353,23.523-4.594,78.385-5.623,82.484-1.3,5.223-6.519,9.15-16.985,15.021a16.284,16.284,0,0,1-2.268,1.068,8.387,8.387,0,0,0,2.916-3.7c.648-2.612,10.141-74.782,9.531-80.673S309.147,217.23,309.147,217.23Z" transform="translate(229.763 193.493)" fill="url(#y)"/><line y1="34.484" x2="57.969" transform="translate(228.25 287.767)" fill="none" stroke="#707070" stroke-miterlimit="10" stroke-width="0.73"/><path d="M198.2,174.42" transform="translate(151.996 154.743)" fill="none" stroke="#707070" stroke-miterlimit="10" stroke-width="0.73"/><path d="M172.17,189.49" transform="translate(128.469 168.392)" fill="none" stroke="#707070" stroke-miterlimit="10" stroke-width="0.73"/><path d="M152.72,160.17" transform="translate(110.89 141.837)" fill="none" stroke="#707070" stroke-miterlimit="10" stroke-width="0.73"/><line y1="20.893" x2="33.95" transform="translate(252.457 340.441)" fill="none" stroke="#707070" stroke-miterlimit="10" stroke-width="0.73"/><path d="M208.832,195.825,177.36,148.95l69.464-40.47,24.286,45.426" transform="translate(160.264 98.234)" fill="none" stroke="#707070" stroke-miterlimit="10" stroke-width="0.73"/><path d="M132.38,243.73l145.447-84.085-3.908-4.175L127.29,240.584Z" transform="translate(114.993 140.787)" fill="url(#z)"/><path d="M212.542,159.254l23.066-34.865a2.44,2.44,0,0,1,3.488-.61h0a2.459,2.459,0,0,1,.553,3.317L215.63,162.647l-5.89,4.175Z" transform="translate(162.405 108.438)" fill="#68e1fd"/><path d="M212.542,159.254l23.066-34.865a2.44,2.44,0,0,1,3.488-.61h0a2.459,2.459,0,0,1,.553,3.317L215.63,162.647l-5.89,4.175Z" transform="translate(162.405 108.438)" fill="url(#aa)"/><path d="M212.828,140.381a1.334,1.334,0,0,0-1.048,0,1.277,1.277,0,0,0-.362.477,4.327,4.327,0,0,0-.553,3.3,4.728,4.728,0,0,0,2.631,2.44c1.582.743,5.3,3.813,7.053,4,1.087.114.267-2.478,1.106-3.183a3.145,3.145,0,0,0,.972-2.5c0-2.783-1.239-2.8-3.641-3.3Z" transform="translate(163.33 123.816)" fill="#e8b08d"/></g></svg>