<svg xmlns="http://www.w3.org/2000/svg" xmlns:xlink="http://www.w3.org/1999/xlink" width="680" height="658" viewBox="0 0 680 658"><defs><linearGradient id="a" x1="0.514" y1="0.779" x2="0.461" y2="-0.279" gradientUnits="objectBoundingBox"><stop offset="0" stop-color="#fff" stop-opacity="0"/><stop offset="0.95" stop-color="#fff"/></linearGradient><linearGradient id="b" x1="0.528" y1="0.507" x2="1.184" y2="0.668" xlink:href="#a"/><linearGradient id="c" x1="0.489" y1="-0.969" x2="0.508" y2="1.545" xlink:href="#a"/><linearGradient id="d" x1="0.521" y1="1.133" x2="0.467" y2="-0.473" xlink:href="#a"/><linearGradient id="e" x1="2.944" y1="98.494" x2="2.889" y2="58.447" gradientUnits="objectBoundingBox"><stop offset="0" stop-color="#fff" stop-opacity="0"/><stop offset="0.99" stop-color="#fff"/></linearGradient><linearGradient id="f" x1="4.508" y1="103.127" x2="4.417" y2="60.38" xlink:href="#e"/><linearGradient id="g" x1="1.774" y1="101.862" x2="1.745" y2="59.469" xlink:href="#e"/><linearGradient id="h" x1="2.762" y1="101.402" x2="2.711" y2="59.017" xlink:href="#e"/><linearGradient id="i" x1="3.419" y1="95.688" x2="3.353" y2="55.164" xlink:href="#e"/><linearGradient id="j" x1="2.952" y1="92.542" x2="2.896" y2="52.494" xlink:href="#e"/><linearGradient id="k" x1="3.424" y1="83.093" x2="3.358" y2="47.036" xlink:href="#e"/><linearGradient id="l" x1="3.679" y1="96.751" x2="3.607" y2="54.004" xlink:href="#e"/><linearGradient id="m" x1="2.04" y1="86.878" x2="2.005" y2="48.357" xlink:href="#e"/><linearGradient id="n" x1="2.944" y1="77.791" x2="2.889" y2="37.743" xlink:href="#e"/><linearGradient id="o" x1="4.508" y1="81.034" x2="4.417" y2="38.283" xlink:href="#e"/><linearGradient id="p" x1="1.774" y1="79.946" x2="1.745" y2="37.552" xlink:href="#e"/><linearGradient id="q" x1="2.762" y1="79.494" x2="2.711" y2="37.1" xlink:href="#e"/><linearGradient id="r" x1="3.419" y1="74.752" x2="3.353" y2="34.224" xlink:href="#e"/><linearGradient id="s" x1="2.952" y1="71.838" x2="2.896" y2="31.791" xlink:href="#e"/><linearGradient id="t" x1="3.424" y1="64.456" x2="3.358" y2="28.399" xlink:href="#e"/><linearGradient id="u" x1="3.679" y1="74.654" x2="3.607" y2="31.907" xlink:href="#e"/><linearGradient id="v" x1="2.04" y1="66.969" x2="2.005" y2="28.445" xlink:href="#e"/><linearGradient id="w" x1="2.944" y1="57.095" x2="2.889" y2="17.051" xlink:href="#e"/><linearGradient id="x" x1="4.508" y1="58.941" x2="4.417" y2="16.19" xlink:href="#e"/><linearGradient id="y" x1="1.774" y1="58.038" x2="1.745" y2="15.649" xlink:href="#e"/><linearGradient id="z" x1="2.762" y1="57.586" x2="2.711" y2="15.192" xlink:href="#e"/><linearGradient id="aa" x1="3.419" y1="53.808" x2="3.353" y2="13.28" xlink:href="#e"/><linearGradient id="ab" x1="2.952" y1="51.146" x2="2.896" y2="11.099" xlink:href="#e"/><linearGradient id="ac" x1="3.424" y1="45.822" x2="3.358" y2="9.765" xlink:href="#e"/><linearGradient id="ad" x1="3.679" y1="52.561" x2="3.607" y2="9.81" xlink:href="#e"/><linearGradient id="ae" x1="2.04" y1="47.057" x2="2.005" y2="8.532" xlink:href="#e"/><linearGradient id="af" x1="0.002" y1="0.501" x2="1" y2="0.501" gradientUnits="objectBoundingBox"><stop offset="0" stop-color="#e5c6d6"/><stop offset="0.42" stop-color="#ead4d0"/><stop offset="1" stop-color="#f0e9cb"/></linearGradient><linearGradient id="ag" x1="-0.001" y1="0.5" x2="1.001" y2="0.5" xlink:href="#af"/><linearGradient id="ah" x1="-0.003" y1="0.499" x2="0.998" y2="0.499" xlink:href="#af"/><linearGradient id="ai" x1="-0.004" y1="0.498" x2="0.998" y2="0.498" xlink:href="#af"/><linearGradient id="aj" x1="0" y1="0.5" x2="1.001" y2="0.5" xlink:href="#af"/><linearGradient id="ak" y1="0.5" x2="1.001" y2="0.5" gradientUnits="objectBoundingBox"><stop offset="0" stop-color="#010101" stop-opacity="0"/><stop offset="0.95" stop-color="#010101"/></linearGradient><linearGradient id="al" x1="0" y1="0.5" x2="1" y2="0.5" xlink:href="#ak"/><linearGradient id="am" x1="0.509" y1="-0.382" x2="0.465" y2="3.651" xlink:href="#ak"/><linearGradient id="an" x1="0.443" y1="0.912" x2="0.59" y2="-0.427" xlink:href="#ak"/><linearGradient id="ao" x1="0.495" y1="-0.178" x2="0.505" y2="1.198" xlink:href="#ak"/><linearGradient id="ap" x1="0.501" y1="0.622" x2="0.512" y2="1.676" xlink:href="#ak"/><linearGradient id="aq" x1="0.455" y1="0.264" x2="0.766" y2="1.656" xlink:href="#ak"/><linearGradient id="ar" x1="0.596" y1="0.238" x2="-0.09" y2="1.689" xlink:href="#ak"/><linearGradient id="as" x1="0.603" y1="0.096" x2="-0.102" y2="1.799" xlink:href="#ak"/></defs><g transform="translate(-0.006 -0.008)"><path d="M735.084,432.821c-19.531,28.026-46.927,49.592-68.595,76.1-31.813,38.858-52.4,89.308-95.473,115.229-20.373,12.24-43.95,17.713-67.057,23.023-37.137,8.549-75.618,17.1-113.046,9.876-28.69-5.521-54.727-20-80.229-34.276l-20.179-11.333c-4.45-2.526-8.949-5-13.447-7.529l-13.107-7.351c-38.48-21.7-76.718-44.33-109.146-74.234-36.134-33.191-64.857-76.873-70.828-125.656-6.926-56.376,19.58-115.585,66.216-147.983,25.583-17.81,56.086-27.718,81.216-46.192,39.662-29.143,61.491-75.756,88.725-116.7C370.605,9.873,467.664-26.459,549.4,27.5c31.765,20.951,55.795,52.069,73.449,85.81,14.92,28.447,25.891,59.306,45.73,84.564,22.654,28.852,55.633,48.831,75.456,79.707C773.726,323.794,766.542,387.714,735.084,432.821Z" transform="translate(-82.88 -1.75)" fill="#68e1fd" opacity="0.24"/><path d="M227.14,375.441c-2.38,2.606,1.522,6.233,4.857,7.5a191.207,191.207,0,0,0,68.155,12.627l-3.966,6.751a212.754,212.754,0,0,0,111.7.583l-5.634-8.742,32.718-1.619c5.2-.243,23.425,1.894,26.874-2.72,9.924-13.291-30.467-13.809-34.806-13.987q-64.642-2.7-129.365-2.088-17.646.162-35.292.567C256.814,374.5,230.6,371.75,227.14,375.441Z" transform="translate(5.789 228.391)" fill="#68e1fd" opacity="0.42"/><path d="M357.979,316.158q-1.311,25.9-3.124,51.9a147.889,147.889,0,0,1-3.4,26.032,75.844,75.844,0,0,1-5.375,14.748c-.987,2.024-2.4,4.225-4.614,4.452-2.8.291-4.743-2.7-5.747-5.342-5-12.951-5-27.133-5.326-40.99q-.275-10.749-.858-21.515c-.47-8.661-1.408-18.034-7.269-24.445-1.781-1.943-3.95-3.529-5.7-5.52-7.139-8.094-5-21.742,2.687-29.367,5.974-5.909,23.312-13.712,31.682-8.823C360.877,283.084,358.448,306.817,357.979,316.158Z" transform="translate(58.869 167.893)" fill="#606161"/><path d="M329.266,286.639a22.064,22.064,0,0,1,3.351,13.307c-.4,14.068-8.758,26.517-12.951,39.97-6.281,20.317-2.784,42.091-2.153,63.412a19.88,19.88,0,0,1-1.068,8.677,7.269,7.269,0,0,1-6.816,4.662,9.1,9.1,0,0,1-5.423-3.238c-10.3-11.008-9.956-27.8-11.656-42.755-1.91-16.658-7.075-32.75-11.478-48.923-1.991-7.3-3.853-14.78-3.384-22.324s3.643-15.3,9.875-19.572C298.879,272.118,321.188,275.064,329.266,286.639Z" transform="translate(37.486 167.769)" fill="#606161"/><rect width="216.186" height="238.365" rx="12.14" transform="translate(295.346 302.646) rotate(180)" fill="#68e1fd" opacity="0.52"/><rect width="216.186" height="238.365" rx="12.14" transform="translate(295.346 302.646) rotate(180)" fill="url(#a)"/><rect width="240.243" height="147.335" rx="11.56" transform="translate(660.092 256.685) rotate(180)" fill="#68e1fd" opacity="0.52"/><rect width="240.243" height="147.335" rx="11.56" transform="translate(660.092 256.685) rotate(180)" fill="url(#b)"/><rect width="150.929" height="92.568" rx="7.26" transform="translate(515.812 149.046) rotate(180)" fill="#68e1fd" opacity="0.52"/><rect width="150.929" height="92.568" rx="7.26" transform="translate(515.812 149.046) rotate(180)" fill="url(#c)"/><rect width="365.366" height="17.516" transform="translate(539.181 430.957) rotate(180)" fill="#68e1fd" opacity="0.52"/><rect width="279.662" height="206.456" rx="12.56" transform="translate(504.453 390.889) rotate(180)" fill="#68e1fd"/><rect width="279.662" height="206.456" rx="12.56" transform="translate(504.453 390.889) rotate(180)" fill="url(#d)"/><rect width="55.771" height="4.096" transform="translate(259.219 216.756)" fill="url(#e)"/><rect width="34.045" height="3.837" transform="translate(259.223 224.673)" fill="url(#f)"/><rect width="107.122" height="3.869" transform="translate(306.957 224.673)" fill="url(#g)"/><rect width="60.287" height="3.869" transform="translate(424.055 224.673)" fill="url(#h)"/><rect width="46.802" height="4.047" transform="translate(276.923 232.623)" fill="url(#i)"/><rect width="55.771" height="4.096" transform="translate(291.937 240.524)" fill="url(#j)"/><rect width="46.753" height="4.549" transform="translate(351.325 240.524)" fill="url(#k)"/><rect width="43.062" height="3.837" transform="translate(291.859 248.441)" fill="url(#l)"/><rect width="88.877" height="4.258" transform="translate(339.016 248.441)" fill="url(#m)"/><rect width="55.771" height="4.096" transform="translate(259.219 259.159)" fill="url(#n)"/><rect width="34.045" height="3.837" transform="translate(259.223 267.076)" fill="url(#o)"/><rect width="107.122" height="3.869" transform="translate(306.957 267.076)" fill="url(#p)"/><rect width="60.287" height="3.869" transform="translate(424.055 267.076)" fill="url(#q)"/><rect width="46.802" height="4.047" transform="translate(276.923 274.994)" fill="url(#r)"/><rect width="55.771" height="4.096" transform="translate(291.937 282.927)" fill="url(#s)"/><rect width="46.753" height="4.549" transform="translate(351.325 282.927)" fill="url(#t)"/><rect width="43.062" height="3.837" transform="translate(291.859 290.844)" fill="url(#u)"/><rect width="88.877" height="4.258" transform="translate(339.016 290.844)" fill="url(#v)"/><rect width="55.771" height="4.096" transform="translate(259.219 301.546)" fill="url(#w)"/><rect width="34.045" height="3.837" transform="translate(259.223 309.464)" fill="url(#x)"/><rect width="107.122" height="3.869" transform="translate(306.957 309.464)" fill="url(#y)"/><rect width="60.287" height="3.869" transform="translate(424.055 309.464)" fill="url(#z)"/><rect width="46.802" height="4.047" transform="translate(276.923 317.381)" fill="url(#aa)"/><rect width="55.771" height="4.096" transform="translate(291.937 325.298)" fill="url(#ab)"/><rect width="46.753" height="4.549" transform="translate(351.325 325.298)" fill="url(#ac)"/><rect width="43.062" height="3.837" transform="translate(291.859 333.232)" fill="url(#ad)"/><rect width="88.877" height="4.258" transform="translate(339.016 333.232)" fill="url(#ae)"/><g transform="translate(384.039 69.138)" opacity="0.52"><rect width="27.748" height="2.04" fill="#68e1fd"/><rect width="16.934" height="1.91" transform="translate(0 3.95)" fill="#68e1fd"/><rect width="53.294" height="1.926" transform="translate(23.765 3.95)" fill="#68e1fd"/><rect width="29.998" height="1.926" transform="translate(82.029 3.95)" fill="#68e1fd"/><rect width="23.28" height="2.007" transform="translate(8.807 7.884)" fill="#68e1fd"/><rect width="27.748" height="2.04" transform="translate(16.286 11.834)" fill="#68e1fd"/><rect width="23.247" height="2.266" transform="translate(45.831 11.834)" fill="#68e1fd"/><rect width="21.418" height="1.91" transform="translate(16.237 15.768)" fill="#68e1fd"/><rect width="44.212" height="2.121" transform="translate(39.727 15.768)" fill="#68e1fd"/><rect width="27.748" height="2.04" transform="translate(0 21.094)" fill="#68e1fd"/><rect width="16.934" height="1.91" transform="translate(0 25.028)" fill="#68e1fd"/><rect width="53.294" height="1.926" transform="translate(23.765 25.028)" fill="#68e1fd"/><rect width="29.998" height="1.926" transform="translate(82.029 25.028)" fill="#68e1fd"/><rect width="23.28" height="2.007" transform="translate(8.807 28.962)" fill="#68e1fd"/><rect width="27.748" height="2.04" transform="translate(16.286 32.912)" fill="#68e1fd"/><rect width="23.247" height="2.266" transform="translate(45.831 32.912)" fill="#68e1fd"/><rect width="21.418" height="1.91" transform="translate(16.237 36.846)" fill="#68e1fd"/><rect width="44.212" height="2.121" transform="translate(39.727 36.846)" fill="#68e1fd"/><rect width="27.748" height="2.04" transform="translate(0 42.172)" fill="#68e1fd"/><rect width="16.934" height="1.91" transform="translate(0 46.122)" fill="#68e1fd"/><rect width="53.294" height="1.926" transform="translate(23.765 46.122)" fill="#68e1fd"/><rect width="29.998" height="1.926" transform="translate(82.029 46.122)" fill="#68e1fd"/><rect width="23.28" height="2.007" transform="translate(8.807 50.056)" fill="#68e1fd"/><rect width="27.748" height="2.04" transform="translate(16.286 53.99)" fill="#68e1fd"/><rect width="23.247" height="2.266" transform="translate(45.831 53.99)" fill="#68e1fd"/><rect width="21.418" height="1.91" transform="translate(16.237 57.94)" fill="#68e1fd"/><rect width="44.212" height="2.121" transform="translate(39.727 57.94)" fill="#68e1fd"/></g><path d="M359.882,257.354c1.149,3.238,2.234,6.637,1.522,9.972a9.714,9.714,0,0,1-1.376,3.238c-3.238,5.019-10.911,5.8-16.189,2.784s-8.256-8.774-9.713-14.57a15.656,15.656,0,0,1-.567-5.99c.469-3.513,2.8-6.476,5.229-9.066,3.238-3.367,9.179-7.771,13.534-3.723C356.24,243.626,358.15,252.514,359.882,257.354Z" transform="translate(72.027 144.736)" fill="url(#af)"/><path d="M268.37,255.89a8.321,8.321,0,0,0-.955,4.355,7.593,7.593,0,0,0,1.133,2.72,21.84,21.84,0,0,0,5.359,6.362,11.122,11.122,0,0,0,7.787,2.412c4.144-.453,7.431-3.74,9.632-7.285a19.96,19.96,0,0,0,3.448-11.429,14.57,14.57,0,0,0-5.957-10.911c-3.124-2.266-9.632-4.322-13.162-1.732S270.135,251.713,268.37,255.89Z" transform="translate(31.179 145.229)" fill="url(#ag)"/><path d="M330.041,176.109a3.918,3.918,0,0,1,3.4.6,4.517,4.517,0,0,1,1.117,2.768,19.833,19.833,0,0,1,.243,6.265,8.6,8.6,0,0,1-2.865,5.359,12.4,12.4,0,0,1-4.08,1.975,4.614,4.614,0,0,1-3.5.13,4.031,4.031,0,0,1-1.748-2.995C321.332,183.944,323.291,177.339,330.041,176.109Z" transform="translate(65.083 106.09)" fill="url(#ah)"/><path d="M292.306,174.756a4.015,4.015,0,0,0-1.959,0,4.063,4.063,0,0,0-2.331,3.707,17.227,17.227,0,0,0,.291,4.549,12.563,12.563,0,0,0,2.946,6.783,5.5,5.5,0,0,0,6.718,1.166C304.852,186.2,298.376,176.084,292.306,174.756Z" transform="translate(43.899 105.273)" fill="url(#ai)"/><path d="M327.651,210.11a14.358,14.358,0,0,1,.259,4.468c-.6,4.144-4.727,7.042-8.872,7.56s-8.289-.874-12.158-2.412a9.714,9.714,0,0,1-3.238-1.846,7.2,7.2,0,0,1-1.862-3.578,25.984,25.984,0,0,1-.421-7.091l.259-8.353a10.005,10.005,0,0,1,.939-4.743c1.619-2.768,5.326-3.238,8.548-3.448,4.225-.178,10.588,0,13.372,3.853S326.938,205.626,327.651,210.11Z" transform="translate(52.122 115.171)" fill="url(#aj)"/><path d="M348.992,168.806a24.753,24.753,0,0,1,1.3,11.008,206.155,206.155,0,0,1-2.687,25.627c-1.068,6.362-2.752,13.194-7.787,17.209a32.209,32.209,0,0,0-4.063,3.238c-.874.939-1.489,2.1-2.3,3.124-4.1,5.132-12.352,5.132-17.986,1.716s-9.244-9.276-12.546-14.975c-3.643-6.281-7.253-12.854-7.9-20.09-.534-5.731.809-11.769-1.376-17.1-1.619-3.918-4.97-7.058-5.715-11.219a18.892,18.892,0,0,1,1-8.289c1.311-4.711,3.319-10.15,8.094-11.429,3.481-.939,7.075.842,10.685.955,4.6.162,9.276-2.412,13.647-.955,5.618,1.878,8.094,8.353,13.7,10.458S346.386,162.849,348.992,168.806Z" transform="translate(43.797 88.282)" fill="#606161"/><path d="M380.235,216.38c-16.415-13.615-40.1-13.275-61.226-10.393-8.726,1.182-17.614,2.752-25.287,7.091-12.854,7.285-20.463,21.369-24.461,35.615-2.121,7.56-3.238,16.189,1,22.826,4.452,6.864,13.323,9.228,21.45,10.134a7.172,7.172,0,0,1,3.529,1.02,6.265,6.265,0,0,1,1.975,3.966c2.266,11.818-2.331,25.093,3.74,35.47,5.877,10.021,19.006,12.66,30.581,13.55,14.975,1.149,31.212.729,43.37-8.094a17.6,17.6,0,0,0,5.035-5.164c2.007-3.432,2.121-7.609,2.169-11.575.129-8.645-3.027-26.032,1.182-33.657,3.529-6.346,13.582-6.378,17.112-13.631C407.092,249.745,390.288,224.7,380.235,216.38Z" transform="translate(31.136 123.692)" fill="#fff"/><path d="M312.65,293.74l.113,18.407a3.546,3.546,0,0,1-.389,2.056,3.238,3.238,0,0,1-2.169,1.182c-4.986,1.166-10.2.5-15.315.518s-10.636.923-14.311,4.5c5.585,4.128,12.789,5.261,19.7,6.071q15.347,1.829,30.759,2.428a79.664,79.664,0,0,0,19.928-1.036,36.959,36.959,0,0,0,15.8-7.366c-4.517-4.857-12-4.76-18.6-4.76a169.569,169.569,0,0,1-19.232-1.1,5.261,5.261,0,0,1-3.869-1.619,5.131,5.131,0,0,1-.615-3.157,63.9,63.9,0,0,1,1.538-12.142,7.691,7.691,0,0,1,1.538-3.61,8.548,8.548,0,0,1,5.148-2.04,112.262,112.262,0,0,0,21.936-5.99,25.01,25.01,0,0,0,8.014-4.419c6.378-5.8,6.1-15.784,4.63-24.283a81.446,81.446,0,0,1-38.562,10.976c-9.276.259-29.4-3.723-35.923,5.213-3.238,4.517.21,8.693,3.788,11.818C298.113,286.714,312.65,293.562,312.65,293.74Z" transform="translate(39.31 156.503)" fill="url(#ak)"/><rect width="92.892" height="65.84" rx="16.79" transform="translate(319.484 366.589)" fill="#68e1fd"/><rect width="92.892" height="65.84" rx="16.79" transform="translate(319.484 366.589)" fill="url(#al)"/><rect width="92.892" height="65.84" rx="16.79" transform="translate(319.484 372.644)" fill="#68e1fd"/><path d="M331.163,262.028a35.5,35.5,0,0,1-8.71,2.59c-8.094,1.489-17.549,1.166-23.377-4.711a10.393,10.393,0,0,1-2.186-3.108c-1.619-3.934.5-8.677,3.982-11.17s7.9-3.157,12.158-3.367c5.213-.259,15.12-1.149,19.669,2.364C338.14,248.835,337.3,259.147,331.163,262.028Z" transform="translate(49.063 146.958)" fill="url(#am)"/><rect width="12.676" height="104.645" rx="3.91" transform="translate(370.724 503.538) rotate(180)" fill="#fff"/><path d="M338.528,358.545c3.238,2.671,4.047,7.3,5.472,11.332,1.975,5.5,5.634,10.507,6.119,16.335a9.131,9.131,0,0,1-.826,5.051,8.1,8.1,0,0,1-7.026,3.95,15.379,15.379,0,0,1-7.981-2.428,27.99,27.99,0,0,1-10.1-10.377,17.807,17.807,0,0,1-2.3-6.832C321.222,368.274,328.8,350.774,338.528,358.545Z" transform="translate(64.833 217.928)" fill="#68e1fd"/><path d="M344.148,385.353a2.93,2.93,0,0,1,0,2.768,2.509,2.509,0,0,1-1.408.761,9.066,9.066,0,0,1-6.476-1.182,26.338,26.338,0,0,1-5.213-4.193,37.933,37.933,0,0,1-6.33-7.155,12.951,12.951,0,0,1-2.056-9.147c1.716-8.774,9.454-.907,12.3,2.331A46.946,46.946,0,0,1,344.148,385.353Z" transform="translate(65.252 222.008)" fill="#606161"/><path d="M297.457,358.664c-3.238,2.671-4.047,7.3-5.472,11.332-1.975,5.5-5.634,10.523-6.119,16.335a9.2,9.2,0,0,0,.826,5.067,8.094,8.094,0,0,0,7.026,3.934A15.217,15.217,0,0,0,301.7,392.9a27.861,27.861,0,0,0,10.1-10.377,17.711,17.711,0,0,0,2.3-6.832C314.747,368.393,307.17,350.828,297.457,358.664Z" transform="translate(42.55 217.987)" fill="#68e1fd"/><path d="M288.89,385.747a2.979,2.979,0,0,0,0,2.768,2.557,2.557,0,0,0,1.425.761,9.244,9.244,0,0,0,6.476-1.182,26.953,26.953,0,0,0,5.2-4.193,37.61,37.61,0,0,0,6.346-7.172,12.951,12.951,0,0,0,2.056-9.13c-1.732-8.791-9.454-.923-12.32,2.331A47.144,47.144,0,0,0,288.89,385.747Z" transform="translate(44.252 222.246)" fill="#606161"/><path d="M324.343,345.56a17.063,17.063,0,0,1-8.37,1.619,36.717,36.717,0,0,1-9.519-.7,6.654,6.654,0,0,1-2.882-1.344,6.574,6.574,0,0,1-1.619-2.3c-2.639-5.828-5.618-17.9-1.522-22.81,4.679-5.634,23.247-6.621,29.14-.712C335.286,324.854,331.142,341.561,324.343,345.56Z" transform="translate(50.347 192.37)" fill="#68e1fd"/><path d="M324.343,345.56a17.063,17.063,0,0,1-8.37,1.619,36.717,36.717,0,0,1-9.519-.7,6.654,6.654,0,0,1-2.882-1.344,6.574,6.574,0,0,1-1.619-2.3c-2.639-5.828-5.618-17.9-1.522-22.81,4.679-5.634,23.247-6.621,29.14-.712C335.286,324.854,331.142,341.561,324.343,345.56Z" transform="translate(50.347 192.37)" fill="url(#an)"/><rect width="8.451" height="54.524" transform="translate(370.254 592.71) rotate(180)" fill="#fff"/><path d="M363.649,373.23c1.878,1.538,3.707,3.464,6.119,3.756,1.748.194,3.5-.55,5.278-.55a9.908,9.908,0,0,1,6.233,2.8,10.54,10.54,0,0,1,3.432,4.857c1.311,4.468-2.671,9.357-7.317,9.81s-9.114-2.72-11.154-6.9a15.217,15.217,0,0,0-1.716-3.238,9.4,9.4,0,0,0-2.315-1.813,67.8,67.8,0,0,0-22.389-8.855c-1.376-.275-3.06-.4-3.934.68a3.821,3.821,0,0,0-.664,2.1,74.013,74.013,0,0,0-.437,9.713,3.676,3.676,0,0,0,.34,1.813,6.477,6.477,0,0,0,1.522,1.506,6.314,6.314,0,0,1,.842,7.528,11.526,11.526,0,0,1-6.33,4.857c-3.108,1.149-7.026,1.344-9.341-1.036A6.654,6.654,0,0,1,320.6,393.4a10.279,10.279,0,0,1,4.857-5.278,4.21,4.21,0,0,0,1.91-1.457,3.756,3.756,0,0,0,.291-1.943l-.227-7.22a3.48,3.48,0,0,0-1.1-2.995,3.237,3.237,0,0,0-2.1-.308,63.136,63.136,0,0,0-32.863,12.32c1.748,1.36,1.441,4.306-.129,5.86a8.515,8.515,0,0,1-6.184,1.91,12.385,12.385,0,0,1-6.913-2.024,7.156,7.156,0,0,1-3.238-6.216,7.236,7.236,0,0,1,4.322-5.7,12.95,12.95,0,0,1,7.334-.793,14.945,14.945,0,0,0,3.869.308,11.7,11.7,0,0,0,4.08-1.7,90.432,90.432,0,0,1,36.474-11.332C341.729,365.88,354.955,366.107,363.649,373.23Z" transform="translate(35.792 224.013)" fill="#fff"/><rect width="137.945" height="102.297" rx="11.02" transform="translate(622.21 379.256) rotate(180)" fill="#fff"/><rect width="158.602" height="58.183" rx="10.67" transform="translate(243.623 387.726) rotate(180)" fill="#fff"/><path d="M152.62,90.7,192.979,69.91v6.022l-34,16.95v.194l34,17.031v6.022L152.62,95.343Z" transform="translate(-39.775 40.442)" fill="#68e1fd"/><path d="M181,124.8,205.283,61.66h5.909L186.909,124.8Z" transform="translate(-22.231 35.323)" fill="#68e1fd"/><path d="M243.435,95.65,203.06,116.356v-6.168l34.256-17.031v-.275L203.06,75.851V69.91l40.375,20.706Z" transform="translate(-8.596 40.442)" fill="#68e1fd"/><rect width="135.128" height="41.913" rx="12.55" transform="translate(430.298 517.933) rotate(180)" fill="#68e1fd"/><rect width="135.128" height="41.913" rx="12.55" transform="translate(430.298 517.933) rotate(180)" fill="url(#ao)"/><g transform="translate(499.58 303.427)" opacity="0.52"><rect width="36.911" height="2.704" fill="#68e1fd"/><rect width="22.535" height="2.542" transform="translate(0 5.229)" fill="#68e1fd"/><rect width="70.891" height="2.558" transform="translate(31.617 5.229)" fill="#68e1fd"/><rect width="30.985" height="2.687" transform="translate(11.721 10.49)" fill="#68e1fd"/><rect width="36.911" height="2.704" transform="translate(21.661 15.719)" fill="#68e1fd"/><rect width="30.937" height="3.011" transform="translate(60.967 15.719)" fill="#68e1fd"/><rect width="28.509" height="2.542" transform="translate(21.596 20.965)" fill="#68e1fd"/><rect width="58.814" height="2.817" transform="translate(52.84 20.965)" fill="#68e1fd"/><rect width="36.911" height="2.704" transform="translate(0 28.055)" fill="#68e1fd"/><rect width="22.535" height="2.542" transform="translate(0 33.284)" fill="#68e1fd"/><rect width="70.891" height="2.558" transform="translate(31.617 33.284)" fill="#68e1fd"/><rect width="30.985" height="2.687" transform="translate(11.721 38.529)" fill="#68e1fd"/><rect width="36.911" height="2.704" transform="translate(21.661 43.775)" fill="#68e1fd"/><rect width="30.937" height="3.011" transform="translate(60.967 43.775)" fill="#68e1fd"/><rect width="28.509" height="2.542" transform="translate(21.596 49.02)" fill="#68e1fd"/><rect width="58.814" height="2.817" transform="translate(52.84 49.02)" fill="#68e1fd"/></g><g transform="translate(109.441 342.365)" opacity="0.52"><rect width="36.911" height="2.704" fill="#68e1fd"/><rect width="22.535" height="2.542" transform="translate(0 5.245)" fill="#68e1fd"/><rect width="70.891" height="2.558" transform="translate(31.617 5.245)" fill="#68e1fd"/><rect width="30.985" height="2.687" transform="translate(11.721 10.49)" fill="#68e1fd"/><rect width="36.911" height="2.704" transform="translate(21.661 15.736)" fill="#68e1fd"/><rect width="30.937" height="3.011" transform="translate(60.983 15.736)" fill="#68e1fd"/><rect width="28.509" height="2.542" transform="translate(21.612 20.965)" fill="#68e1fd"/><rect width="58.814" height="2.817" transform="translate(52.84 20.965)" fill="#68e1fd"/><rect width="36.911" height="2.704" transform="translate(0 28.055)" fill="#68e1fd"/><rect width="22.535" height="2.542" transform="translate(0 33.3)" fill="#68e1fd"/><rect width="70.891" height="2.558" transform="translate(31.617 33.3)" fill="#68e1fd"/></g><path d="M199.433,359.986c-5.359-10.588-11.915-21.58-10.652-33.381.761-7.139,4.371-13.615,7.9-19.88l15.9-28.185c4.857,6.314,12.854,10.15,16.059,17.435,5.148,11.7-4.857,24.656-4.322,37.429.356,9.827,6.88,18.779,6.476,28.606-.259,7.139-11.559,30.532-20.706,29.642C205.244,391.182,202.476,365.976,199.433,359.986Z" transform="translate(-17.52 169.62)" fill="#68e1fd"/><path d="M199.433,359.986c-5.359-10.588-11.915-21.58-10.652-33.381.761-7.139,4.371-13.615,7.9-19.88l15.9-28.185c4.857,6.314,12.854,10.15,16.059,17.435,5.148,11.7-4.857,24.656-4.322,37.429.356,9.827,6.88,18.779,6.476,28.606-.259,7.139-11.559,30.532-20.706,29.642C205.244,391.182,202.476,365.976,199.433,359.986Z" transform="translate(-17.52 169.62)" fill="url(#ap)"/><path d="M244.227,326.065c3.61,0,8.094.728,9.13,4.209.842,3.044-1.829,5.844-4.371,7.722-8.855,6.476-19.945,11.446-24.283,21.531-7.2,16.739-27.6,6.006-17.047-8.483,4.371-5.99,8.094-14.036,13.534-19.038C227.439,326.227,236.181,325.968,244.227,326.065Z" transform="translate(-7.593 199.024)" fill="#68e1fd"/><path d="M244.227,326.065c3.61,0,8.094.728,9.13,4.209.842,3.044-1.829,5.844-4.371,7.722-8.855,6.476-19.945,11.446-24.283,21.531-7.2,16.739-27.6,6.006-17.047-8.483,4.371-5.99,8.094-14.036,13.534-19.038C227.439,326.227,236.181,325.968,244.227,326.065Z" transform="translate(-7.593 199.024)" fill="url(#aq)"/><path d="M205.957,334.69c-4.063-4.63-10.1-6.913-15.865-9.05-2.736-1-6.249-1.829-8.094.372a5.083,5.083,0,0,0,0,5.876,18.358,18.358,0,0,0,4.581,4.29,28.913,28.913,0,0,1,8.5,9.859c2.056,4.193,2.606,8.969,4.436,13.275s5.65,8.37,10.312,8.175a9.292,9.292,0,0,0,7.965-6.556c1.813-5.585-.6-8.094-3.594-12.045C210.878,344.5,209.664,338.883,205.957,334.69Z" transform="translate(-22.193 198.137)" fill="#68e1fd"/><path d="M205.957,334.69c-4.063-4.63-10.1-6.913-15.865-9.05-2.736-1-6.249-1.829-8.094.372a5.083,5.083,0,0,0,0,5.876,18.358,18.358,0,0,0,4.581,4.29,28.913,28.913,0,0,1,8.5,9.859c2.056,4.193,2.606,8.969,4.436,13.275s5.65,8.37,10.312,8.175a9.292,9.292,0,0,0,7.965-6.556c1.813-5.585-.6-8.094-3.594-12.045C210.878,344.5,209.664,338.883,205.957,334.69Z" transform="translate(-22.193 198.137)" fill="url(#ar)"/><path d="M234.377,346.82l-5.456,51.043h-5.779c-4.452-2.525-8.952-5-13.453-7.528l-13.113-7.35L191.93,346.82Z" transform="translate(-15.476 211.877)" fill="#68e1fd"/><path d="M234.377,346.82l-5.456,51.043h-5.779c-4.452-2.525-8.952-5-13.453-7.528l-13.113-7.35L191.93,346.82Z" transform="translate(-15.476 211.877)" fill="url(#as)"/></g></svg>