<svg xmlns="http://www.w3.org/2000/svg" xmlns:xlink="http://www.w3.org/1999/xlink" width="300" height="80" viewBox="0 0 300 80"><defs><clipPath id="a"><rect width="300" height="80"/></clipPath><linearGradient id="b" x1="1" x2="0" y2="1" gradientUnits="objectBoundingBox"><stop offset="0" stop-color="#68e1fd"/><stop offset="1" stop-color="#68fafc"/></linearGradient></defs><g clip-path="url(#a)"><path d="M759.534-1442H758.21v-19.43a3.966,3.966,0,0,1-2.477-1.482,3.962,3.962,0,0,1-.82-2.768,3.962,3.962,0,0,1,1.27-2.592,3.962,3.962,0,0,1,2.689-1.048,3.963,3.963,0,0,1,2.689,1.048,3.963,3.963,0,0,1,1.27,2.592,3.963,3.963,0,0,1-.82,2.768,3.965,3.965,0,0,1-2.477,1.482V-1442Zm-.662-25.991h0a2.656,2.656,0,0,0-2.646,2.648,2.652,2.652,0,0,0,2.649,2.65,2.652,2.652,0,0,0,2.649-2.65,2.652,2.652,0,0,0-2.649-2.649ZM748.5-1442h-1.324v-19.43a3.965,3.965,0,0,1-2.477-1.482,3.962,3.962,0,0,1-.82-2.768,3.962,3.962,0,0,1,1.27-2.592,3.962,3.962,0,0,1,2.689-1.048,3.962,3.962,0,0,1,2.689,1.048,3.963,3.963,0,0,1,1.27,2.592,3.962,3.962,0,0,1-.82,2.768,3.966,3.966,0,0,1-2.477,1.482V-1442Zm-.662-25.992h0a2.656,2.656,0,0,0-2.646,2.648,2.653,2.653,0,0,0,2.65,2.65,2.652,2.652,0,0,0,2.649-2.65,2.652,2.652,0,0,0-2.649-2.649ZM737.46-1442h-1.325v-19.43a3.965,3.965,0,0,1-2.477-1.482,3.963,3.963,0,0,1-.82-2.768,3.963,3.963,0,0,1,1.27-2.592,3.963,3.963,0,0,1,2.689-1.048,3.962,3.962,0,0,1,2.689,1.048,3.963,3.963,0,0,1,1.27,2.592,3.963,3.963,0,0,1-.82,2.768,3.964,3.964,0,0,1-2.477,1.482V-1442Zm-.663-25.991h0a2.656,2.656,0,0,0-2.646,2.648,2.652,2.652,0,0,0,2.649,2.65,2.653,2.653,0,0,0,2.65-2.65,2.652,2.652,0,0,0-2.65-2.649ZM726.426-1442H725.1v-4.583H645.347a3.961,3.961,0,0,1-3.91,3.31,3.973,3.973,0,0,1-3.965-3.746,3.971,3.971,0,0,1,3.519-4.171,4.047,4.047,0,0,1,.45-.025,3.958,3.958,0,0,1,3.91,3.306h80.29l.234-.071.291.212a.676.676,0,0,1,.26.583V-1442Zm-84.991-7.9a2.632,2.632,0,0,0-1.875.778,2.633,2.633,0,0,0-.775,1.876,2.652,2.652,0,0,0,2.65,2.649,2.652,2.652,0,0,0,2.649-2.649,2.652,2.652,0,0,0-2.649-2.649h0v-.005Zm-13.8,7.9h-1.32v-16.906l1.012-.044h35.359a3.96,3.96,0,0,1,3.914-3.311,2.644,2.644,0,0,1,.336.014,3.963,3.963,0,0,1,2.592,1.27,3.963,3.963,0,0,1,1.049,2.689,3.963,3.963,0,0,1-1.049,2.689,3.963,3.963,0,0,1-2.592,1.27c-.112.009-.224.014-.336.014a3.96,3.96,0,0,1-3.914-3.311h-35.05V-1442Zm38.966-18.936a2.656,2.656,0,0,0-2.65,2.649,2.652,2.652,0,0,0,2.65,2.649,2.652,2.652,0,0,0,2.649-2.649,2.652,2.652,0,0,0-2.65-2.65ZM613.841-1442h-1.325v-33.779a3.966,3.966,0,0,1-2.477-1.482,3.962,3.962,0,0,1-.82-2.767,3.964,3.964,0,0,1,1.27-2.593,3.962,3.962,0,0,1,2.689-1.049,3.964,3.964,0,0,1,2.689,1.049,3.964,3.964,0,0,1,1.27,2.593,3.962,3.962,0,0,1-.82,2.767,3.965,3.965,0,0,1-2.477,1.482Zm-.665-40.341h0a2.655,2.655,0,0,0-2.646,2.649,2.652,2.652,0,0,0,2.649,2.649,2.652,2.652,0,0,0,2.649-2.649,2.652,2.652,0,0,0-2.649-2.649ZM602.8-1442h-1.324v-19.43a3.965,3.965,0,0,1-2.477-1.482,3.963,3.963,0,0,1-.82-2.768,3.96,3.96,0,0,1,1.269-2.592,3.964,3.964,0,0,1,2.69-1.048,3.962,3.962,0,0,1,2.689,1.048,3.962,3.962,0,0,1,1.27,2.592,3.965,3.965,0,0,1-.821,2.768,3.965,3.965,0,0,1-2.477,1.482V-1442Zm-.662-25.991h0a2.656,2.656,0,0,0-2.646,2.648,2.653,2.653,0,0,0,2.65,2.65,2.652,2.652,0,0,0,2.649-2.65,2.652,2.652,0,0,0-2.649-2.649ZM591.763-1442h-1.324v-29.978a.749.749,0,0,1,.256-.631l.158-.159,21.66-21.66V-1540.1c.43.035.875.062,1.323.079v46.075l-.322.389-21.752,21.752v29.8Zm-11.035,0H579.4v-35.833l.446-.486,21.629-21.629v-43.264c.426.215.871.427,1.324.629v42.825a.75.75,0,0,1-.146.49l-.146.158-21.784,21.784Zm-11.04,0h-1.325v-41.045a.747.747,0,0,1,.256-.6l.22-.221,21.6-21.6v-32.176h-35.6a3.963,3.963,0,0,1-3.912,3.311h0a3.976,3.976,0,0,1-3.968-3.746,3.974,3.974,0,0,1,3.519-4.171,4.045,4.045,0,0,1,.45-.025,3.958,3.958,0,0,1,3.91,3.306h36.231a.7.7,0,0,1,.638.413l.057.128v33.188a.705.705,0,0,1-.247.564l-2.278,2.279-19.558,19.558Zm-18.76-98.952a2.654,2.654,0,0,0-2.649,2.649,2.652,2.652,0,0,0,2.649,2.65,2.653,2.653,0,0,0,2.65-2.65,2.652,2.652,0,0,0-2.65-2.65ZM558.655-1442h-1.324v-26.657h-46.64a3.963,3.963,0,0,1-3.91,3.311,3.973,3.973,0,0,1-3.965-3.747,3.972,3.972,0,0,1,3.519-4.171,4.029,4.029,0,0,1,.449-.025,3.959,3.959,0,0,1,3.912,3.307h47.443l.544.261-.026.759V-1442Zm-51.876-29.974a2.656,2.656,0,0,0-2.65,2.654,2.653,2.653,0,0,0,2.65,2.65,2.652,2.652,0,0,0,2.649-2.65,2.652,2.652,0,0,0-2.649-2.649h0ZM547.615-1442h-1.324v-15.621h-35.6a3.962,3.962,0,0,1-3.911,3.311,3.972,3.972,0,0,1-3.964-3.746,3.971,3.971,0,0,1,3.519-4.17,4.015,4.015,0,0,1,.45-.025,3.958,3.958,0,0,1,3.91,3.306h36.1l.238-.075.313.216a.72.72,0,0,1,.26.6v16.2Zm-40.836-18.932a2.656,2.656,0,0,0-2.65,2.65,2.652,2.652,0,0,0,2.65,2.649,2.652,2.652,0,0,0,2.649-2.649,2.652,2.652,0,0,0-2.649-2.651ZM536.58-1442h-1.324v-4.583H510.691a3.961,3.961,0,0,1-3.911,3.31v.006a3.975,3.975,0,0,1-3.967-3.747,3.971,3.971,0,0,1,3.519-4.17,4.016,4.016,0,0,1,.45-.025,3.958,3.958,0,0,1,3.91,3.306h25.086l.234-.071.3.212a.7.7,0,0,1,.265.6V-1442Zm-29.8-7.9a2.632,2.632,0,0,0-1.874.778,2.636,2.636,0,0,0-.775,1.876,2.652,2.652,0,0,0,2.65,2.649,2.652,2.652,0,0,0,2.649-2.649,2.652,2.652,0,0,0-2.649-2.649h0v-.005Zm-14.35,7.9h-1.324v-39.02H539.07a3.96,3.96,0,0,1,3.914-3.311,2.675,2.675,0,0,1,.336.014,3.962,3.962,0,0,1,2.592,1.27,3.964,3.964,0,0,1,1.049,2.689,3.963,3.963,0,0,1-1.049,2.689,3.962,3.962,0,0,1-2.592,1.27c-.111.009-.224.014-.336.014a3.959,3.959,0,0,1-3.914-3.311H492.43Zm50.552-41.011a2.654,2.654,0,0,0-2.649,2.649,2.652,2.652,0,0,0,2.649,2.65,2.653,2.653,0,0,0,2.65-2.65,2.652,2.652,0,0,0-2.65-2.65ZM481.392-1442h-1.324v-41.505a3.964,3.964,0,0,1-2.477-1.482,3.964,3.964,0,0,1-.821-2.768,3.963,3.963,0,0,1,1.27-2.592,3.963,3.963,0,0,1,2.689-1.048,3.963,3.963,0,0,1,2.69,1.048,3.96,3.96,0,0,1,1.27,2.592,3.964,3.964,0,0,1-.82,2.768,3.96,3.96,0,0,1-2.477,1.482Zm-.665-48.067h0a2.655,2.655,0,0,0-2.646,2.649,2.652,2.652,0,0,0,2.649,2.65,2.653,2.653,0,0,0,2.65-2.65,2.652,2.652,0,0,0-2.65-2.649ZM470.356-1442h-1.319v-60.379a.672.672,0,0,1,.265-.578l.269-.207.247.071H489.4a3.96,3.96,0,0,1,3.914-3.312,2.682,2.682,0,0,1,.336.014,3.962,3.962,0,0,1,2.592,1.27,3.963,3.963,0,0,1,1.048,2.689,3.963,3.963,0,0,1-1.048,2.689,3.962,3.962,0,0,1-2.592,1.27c-.112.009-.225.014-.336.014a3.959,3.959,0,0,1-3.914-3.311H470.356Zm22.958-63.085a2.657,2.657,0,0,0-2.65,2.65,2.652,2.652,0,0,0,2.65,2.649,2.652,2.652,0,0,0,2.649-2.649,2.652,2.652,0,0,0-2.649-2.651Zm188.3,50.781h-.007a3.974,3.974,0,0,1-3.967-3.747,3.971,3.971,0,0,1,3.519-4.17,4.017,4.017,0,0,1,.45-.025,3.958,3.958,0,0,1,3.91,3.306h39.574v-21.36a.694.694,0,0,1,.181-.508l.2-.216h7.415a3.961,3.961,0,0,1,3.915-3.312,2.642,2.642,0,0,1,.334.014,3.963,3.963,0,0,1,2.592,1.27,3.963,3.963,0,0,1,1.048,2.689,3.964,3.964,0,0,1-1.048,2.69,3.96,3.96,0,0,1-2.592,1.269c-.11.009-.223.014-.336.014a3.959,3.959,0,0,1-3.914-3.311h-6.463v21.231a2.378,2.378,0,0,1-.009.252l-.062.6H685.525a3.963,3.963,0,0,1-3.911,3.312Zm0-6.627a2.657,2.657,0,0,0-2.65,2.65,2.652,2.652,0,0,0,2.65,2.649,2.652,2.652,0,0,0,2.649-2.649,2.652,2.652,0,0,0-2.65-2.651ZM736.8-1483h0a2.654,2.654,0,0,0-2.647,2.649,2.652,2.652,0,0,0,2.649,2.649,2.652,2.652,0,0,0,2.649-2.649,2.652,2.652,0,0,0-2.649-2.649Zm-106.847,17.66h0a3.973,3.973,0,0,1-3.965-3.747,3.972,3.972,0,0,1,3.519-4.171,4.027,4.027,0,0,1,.449-.025,3.959,3.959,0,0,1,3.912,3.307h28.813a3.961,3.961,0,0,1,3.914-3.311,2.644,2.644,0,0,1,.336.014,3.964,3.964,0,0,1,2.592,1.27,3.964,3.964,0,0,1,1.048,2.689,3.963,3.963,0,0,1-1.048,2.689,3.963,3.963,0,0,1-2.592,1.27c-.11.009-.223.014-.336.014a3.961,3.961,0,0,1-3.914-3.311H633.865a3.963,3.963,0,0,1-3.91,3.31Zm36.646-6.628h0a2.637,2.637,0,0,0-1.877.778,2.632,2.632,0,0,0-.776,1.877,2.652,2.652,0,0,0,2.649,2.65,2.653,2.653,0,0,0,2.65-2.65,2.652,2.652,0,0,0-2.65-2.649Zm-36.647,0h0a2.656,2.656,0,0,0-2.65,2.654,2.653,2.653,0,0,0,2.65,2.65,2.652,2.652,0,0,0,2.649-2.65,2.652,2.652,0,0,0-2.649-2.649h0v-.006Zm51.653,6.628a4.242,4.242,0,0,1-.449-.025,3.974,3.974,0,0,1-3.522-4.173,3.976,3.976,0,0,1,3.967-3.748h.005a3.969,3.969,0,0,1,3.915,3.313h28.543v-21.483l.061-.592h18.755a3.961,3.961,0,0,1,3.914-3.311,2.667,2.667,0,0,1,.336.014,3.961,3.961,0,0,1,2.592,1.269,3.964,3.964,0,0,1,1.048,2.69,3.963,3.963,0,0,1-1.048,2.689,3.964,3.964,0,0,1-2.592,1.27c-.11.009-.223.014-.334.014a3.962,3.962,0,0,1-3.916-3.312h-17.5v21.254l.075.238-.216.318a.691.691,0,0,1-.547.266H685.519a3.961,3.961,0,0,1-3.913,3.307Zm0-6.622a2.652,2.652,0,0,0-2.649,2.649,2.652,2.652,0,0,0,2.649,2.65,2.656,2.656,0,0,0,2.649-2.65,2.652,2.652,0,0,0-2.651-2.652Zm55.2-22.079a2.654,2.654,0,0,0-2.649,2.649,2.652,2.652,0,0,0,2.649,2.649,2.652,2.652,0,0,0,2.649-2.649,2.652,2.652,0,0,0-.779-1.877,2.652,2.652,0,0,0-1.879-.775Zm-33.12,17.674A3.961,3.961,0,0,1,701-1477.42a3.961,3.961,0,0,1-1.27-2.592,3.963,3.963,0,0,1,.82-2.768,3.962,3.962,0,0,1,2.477-1.482V-1512.8H659.705l-.062-.662.013.662h-.046a1.1,1.1,0,0,1-.227-.023l-.508-.123v-32.966H637.461v-4.2c.458-.517.9-1.056,1.325-1.6v4.471H660.2v33.111h43.464a.681.681,0,0,1,.542.266l.211.274-.071.256v29.074a3.963,3.963,0,0,1,2.477,1.482,3.963,3.963,0,0,1,.82,2.768,3.963,3.963,0,0,1-1.27,2.592,3.964,3.964,0,0,1-2.691,1.044Zm0-6.628a2.652,2.652,0,0,0-2.649,2.649,2.652,2.652,0,0,0,2.649,2.65,2.653,2.653,0,0,0,2.65-2.65,2.656,2.656,0,0,0-2.653-2.649Zm-11.033,6.628a3.963,3.963,0,0,1-2.689-1.049,3.963,3.963,0,0,1-1.27-2.592,3.963,3.963,0,0,1,.82-2.768,3.962,3.962,0,0,1,2.477-1.482v-17.5H648.541a.749.749,0,0,1-.489-.181l-.216-.2v-31.973a3.749,3.749,0,0,1,0-.587,1.121,1.121,0,0,0,.009-.176H629.563a3.961,3.961,0,0,1-3.913,3.31,4.03,4.03,0,0,1-.45-.025,3.975,3.975,0,0,1-3.521-4.174,3.975,3.975,0,0,1,3.966-3.748h0l.013.006a3.967,3.967,0,0,1,3.912,3.311h18.146a1.141,1.141,0,0,1,.372-.062,1.137,1.137,0,0,1,.671.217,1.57,1.57,0,0,1,.406,1.413,1.986,1.986,0,0,0,0,.4v31.141H692.9l.225.193.207.208-.013,1.193v17.234a3.962,3.962,0,0,1,2.477,1.482,3.964,3.964,0,0,1,.82,2.768,3.963,3.963,0,0,1-1.27,2.592,3.962,3.962,0,0,1-2.689,1.047Zm0-6.634a2.652,2.652,0,0,0-2.649,2.65,2.652,2.652,0,0,0,2.649,2.649,2.652,2.652,0,0,0,2.649-2.649,2.656,2.656,0,0,0-2.655-2.652Zm-67-55.186a2.652,2.652,0,0,0-2.65,2.649,2.652,2.652,0,0,0,2.65,2.649,2.658,2.658,0,0,0,2.649-2.649,2.652,2.652,0,0,0-2.653-2.652Zm55.964,61.815a3.963,3.963,0,0,1-2.689-1.048,3.962,3.962,0,0,1-1.27-2.592,3.963,3.963,0,0,1,.82-2.767,3.965,3.965,0,0,1,2.477-1.482v-6.464h-43.33a1.811,1.811,0,0,1-.262-.019l-.556-.093v-33h-7.24a3.962,3.962,0,0,1-3.911,3.311h0a3.974,3.974,0,0,1-3.967-3.746,3.974,3.974,0,0,1,3.519-4.172,4,4,0,0,1,.449-.025,3.959,3.959,0,0,1,3.912,3.307H637.3a.683.683,0,0,1,.107-.008.7.7,0,0,1,.432.149.73.73,0,0,1,.278.661v32.306H682.2l.056.614c.018.261.018.528.018.786v6.391a3.965,3.965,0,0,1,2.477,1.482,3.962,3.962,0,0,1,.82,2.767,3.962,3.962,0,0,1-1.27,2.592,3.963,3.963,0,0,1-2.686,1.047Zm0-6.63a2.653,2.653,0,0,0-2.65,2.65,2.652,2.652,0,0,0,2.65,2.649,2.652,2.652,0,0,0,2.649-2.649,2.654,2.654,0,0,0-2.657-2.653Zm-55.959-44.15a2.654,2.654,0,0,0-2.649,2.649,2.652,2.652,0,0,0,2.649,2.649,2.652,2.652,0,0,0,2.649-2.649,2.652,2.652,0,0,0-.778-1.878,2.652,2.652,0,0,0-1.879-.775Zm4.3,50.775h0a3.972,3.972,0,0,1-3.964-3.746,3.971,3.971,0,0,1,3.519-4.171,4.016,4.016,0,0,1,.45-.025,3.958,3.958,0,0,1,3.91,3.306h28.813a3.962,3.962,0,0,1,3.914-3.311,2.7,2.7,0,0,1,.336.014,3.963,3.963,0,0,1,2.592,1.27,3.963,3.963,0,0,1,1.048,2.689,3.963,3.963,0,0,1-1.048,2.689,3.962,3.962,0,0,1-2.592,1.27c-.111.009-.224.014-.336.014a3.961,3.961,0,0,1-3.914-3.311H633.865a3.961,3.961,0,0,1-3.91,3.309Zm36.646-6.627h0a2.634,2.634,0,0,0-1.877.778,2.631,2.631,0,0,0-.776,1.877,2.652,2.652,0,0,0,2.649,2.649,2.652,2.652,0,0,0,2.65-2.649A2.652,2.652,0,0,0,666.6-1483Zm-36.647,0h0a2.655,2.655,0,0,0-2.65,2.654,2.652,2.652,0,0,0,2.65,2.649,2.652,2.652,0,0,0,2.649-2.649,2.652,2.652,0,0,0-2.649-2.649h0v-.006Zm117.333,3.375h0l-.11-.851.009-44.1.079-.571H765v1.324H748.5V-1481h9.713v-32.405l-.031-.284.45-.454.454.031H765v1.321h-5.467v32.384a.68.68,0,0,1-.088.389l-.19.34h-11.37l-.6.053Zm-193.265-7.777a3.959,3.959,0,0,1-3.914-3.31h-45.14l-.062-.6c-.009-.087-.009-.185-.009-.279v-29.47h-5.249a3.96,3.96,0,0,1-3.914,3.311,2.7,2.7,0,0,1-.336-.014,3.961,3.961,0,0,1-2.592-1.27,3.963,3.963,0,0,1-1.048-2.689,3.963,3.963,0,0,1,1.048-2.689,3.963,3.963,0,0,1,2.592-1.27c.111-.009.224-.014.336-.014a3.96,3.96,0,0,1,3.914,3.312h6.194l.389.441-.009.6v29.308h43.88a3.961,3.961,0,0,1,3.916-3.312,2.65,2.65,0,0,1,.334.014,3.963,3.963,0,0,1,2.592,1.27,3.963,3.963,0,0,1,1.048,2.689,3.964,3.964,0,0,1-1.048,2.69,3.959,3.959,0,0,1-2.592,1.269c-.111,0-.224.009-.336.009Zm0-6.625a2.654,2.654,0,0,0-2.65,2.649,2.652,2.652,0,0,0,2.65,2.649,2.652,2.652,0,0,0,2.649-2.649,2.651,2.651,0,0,0-.778-1.878,2.651,2.651,0,0,0-1.879-.775Zm-58.281-30.353a2.652,2.652,0,0,0-2.649,2.649,2.652,2.652,0,0,0,2.649,2.65,2.654,2.654,0,0,0,2.649-2.65,2.652,2.652,0,0,0-.778-1.878,2.652,2.652,0,0,0-1.879-.775Zm129.916,33c-.087,0-.172,0-.229-.006a3.974,3.974,0,0,1-3.747-3.972,3.964,3.964,0,0,1,3.313-3.911v-9.611a3.965,3.965,0,0,1-2.477-1.482,3.962,3.962,0,0,1-.82-2.767,3.963,3.963,0,0,1,1.27-2.592,3.963,3.963,0,0,1,2.689-1.048,3.963,3.963,0,0,1,2.689,1.048,3.963,3.963,0,0,1,1.27,2.592,3.962,3.962,0,0,1-.82,2.767,3.966,3.966,0,0,1-2.477,1.482v9.611a3.974,3.974,0,0,1,3.285,4.362,3.967,3.967,0,0,1-3.953,3.527Zm0-6.627a2.652,2.652,0,0,0-2.65,2.649,2.653,2.653,0,0,0,2.65,2.65,2.652,2.652,0,0,0,2.649-2.65,2.658,2.658,0,0,0-2.66-2.649ZM623-1512.807a2.654,2.654,0,0,0,2.651,2.651,2.652,2.652,0,0,0,2.649-2.649,2.652,2.652,0,0,0-2.649-2.65,2.653,2.653,0,0,0-2.65,2.65Zm-57.94,14.347h0l.009-.005a3.968,3.968,0,0,1-3.912-3.311h-44.41l-.234.071-.3-.207a.675.675,0,0,1-.266-.587v-32.385H488.62a3.96,3.96,0,0,1-3.914,3.312,2.682,2.682,0,0,1-.336-.014,3.963,3.963,0,0,1-2.592-1.27,3.964,3.964,0,0,1-1.048-2.689,3.963,3.963,0,0,1,1.048-2.689,3.963,3.963,0,0,1,2.592-1.27c.111-.009.224-.014.336-.014a3.959,3.959,0,0,1,3.914,3.311h28.313l.331.459v32.65h43.879a3.961,3.961,0,0,1,3.912-3.307,4.023,4.023,0,0,1,.452.026,3.975,3.975,0,0,1,3.52,4.173,3.978,3.978,0,0,1-3.967,3.746Zm0-6.622a2.654,2.654,0,0,0-2.649,2.649,2.652,2.652,0,0,0,2.649,2.649,2.652,2.652,0,0,0,2.649-2.649,2.652,2.652,0,0,0-2.653-2.649ZM484.7-1538.2a2.652,2.652,0,0,0-2.649,2.65,2.652,2.652,0,0,0,2.649,2.649,2.654,2.654,0,0,0,2.649-2.649A2.652,2.652,0,0,0,484.7-1538.2Zm241.065,38.533a3.962,3.962,0,0,1-2.689-1.048,3.963,3.963,0,0,1-1.27-2.592,3.963,3.963,0,0,1,.82-2.768,3.962,3.962,0,0,1,2.477-1.482v-38.874a1.744,1.744,0,0,1,0-.216l.058-.6H756.5a3.963,3.963,0,0,1,3.912-3.311h.009a3.974,3.974,0,0,1,3.967,3.746,3.974,3.974,0,0,1-3.519,4.172,4,4,0,0,1-.449.025,3.959,3.959,0,0,1-3.912-3.307H726.431v38.365a3.963,3.963,0,0,1,2.477,1.482,3.963,3.963,0,0,1,.82,2.768,3.963,3.963,0,0,1-1.27,2.592,3.963,3.963,0,0,1-2.689,1.05Zm-.009-6.631a2.652,2.652,0,0,0-2.649,2.649,2.652,2.652,0,0,0,2.649,2.65,2.652,2.652,0,0,0,2.649-2.65,2.654,2.654,0,0,0-2.645-2.651Zm34.657-42.938a2.652,2.652,0,0,0-2.65,2.649,2.653,2.653,0,0,0,2.65,2.65,2.656,2.656,0,0,0,2.649-2.65,2.652,2.652,0,0,0-2.645-2.647Zm-23.606,49.566a3.962,3.962,0,0,1-2.689-1.049,3.964,3.964,0,0,1-1.27-2.593,3.961,3.961,0,0,1,.82-2.767,3.963,3.963,0,0,1,2.477-1.482v-28.048l.058-.6h20.3a3.962,3.962,0,0,1,3.914-3.311,2.722,2.722,0,0,1,.336.014,3.964,3.964,0,0,1,2.593,1.27,3.962,3.962,0,0,1,1.049,2.689,3.962,3.962,0,0,1-1.049,2.689,3.964,3.964,0,0,1-2.593,1.27c-.11.009-.223.014-.336.014a3.961,3.961,0,0,1-3.914-3.311l.014-.005H737.473v27.329a3.963,3.963,0,0,1,2.477,1.482,3.961,3.961,0,0,1,.82,2.767,3.964,3.964,0,0,1-1.27,2.593,3.962,3.962,0,0,1-2.689,1.051Zm-.013-6.628a2.652,2.652,0,0,0-2.649,2.649A2.652,2.652,0,0,0,736.8-1501a2.653,2.653,0,0,0,2.65-2.65,2.656,2.656,0,0,0-2.65-2.65Zm23.62-31.9a2.632,2.632,0,0,0-1.874.778,2.633,2.633,0,0,0-.775,1.876,2.652,2.652,0,0,0,2.649,2.649,2.652,2.652,0,0,0,2.649-2.649,2.652,2.652,0,0,0-2.649-2.649h0v-.005Zm-45.69,38.522a3.963,3.963,0,0,1-2.689-1.049,3.963,3.963,0,0,1-1.27-2.592,3.964,3.964,0,0,1,.82-2.768,3.961,3.961,0,0,1,2.477-1.482v-50a.684.684,0,0,1,.261-.571l.268-.212.252.071H756.5a3.961,3.961,0,0,1,3.911-3.311l.013-.01a3.974,3.974,0,0,1,3.967,3.745,3.971,3.971,0,0,1-3.519,4.171,4.047,4.047,0,0,1-.45.025,3.957,3.957,0,0,1-3.91-3.306H715.39v49.4a3.963,3.963,0,0,1,2.477,1.482,3.963,3.963,0,0,1,.82,2.768,3.963,3.963,0,0,1-1.27,2.592,3.963,3.963,0,0,1-2.689,1.045Zm-.009-6.62a2.652,2.652,0,0,0-2.649,2.649,2.652,2.652,0,0,0,2.649,2.649,2.632,2.632,0,0,0,1.874-.776,2.633,2.633,0,0,0,.775-1.873,2.623,2.623,0,0,0-.772-1.87,2.631,2.631,0,0,0-1.875-.779Zm45.7-53.969a2.652,2.652,0,0,0-2.649,2.65,2.652,2.652,0,0,0,2.649,2.649,2.654,2.654,0,0,0,2.65-2.649,2.653,2.653,0,0,0-2.646-2.651Zm-181.56,50.773a3.961,3.961,0,0,1-3.914-3.31H527.7l-.291.035-.477-.486.044-.371v-26.239a4.831,4.831,0,0,1,0-.508c.018-.428,0-.482-.066-.517l-.079-.044-4.984-4.983H477.583a3.961,3.961,0,0,1-3.914,3.311,2.7,2.7,0,0,1-.336-.014,3.963,3.963,0,0,1-2.592-1.27,3.963,3.963,0,0,1-1.048-2.689,3.964,3.964,0,0,1,1.048-2.689,3.963,3.963,0,0,1,2.592-1.27c.112-.009.225-.014.336-.014a3.961,3.961,0,0,1,3.914,3.312h44.581l.053.009a.734.734,0,0,1,.433.243l2.274,2.273,2.724,2.724a1.7,1.7,0,0,1,.651,1.677,2.032,2.032,0,0,0,0,.362v25.825h46.64a3.962,3.962,0,0,1,3.914-3.312,2.707,2.707,0,0,1,.336.014,3.962,3.962,0,0,1,2.592,1.27,3.963,3.963,0,0,1,1.048,2.689,3.963,3.963,0,0,1-1.048,2.689,3.963,3.963,0,0,1-2.592,1.27c-.112.005-.225.012-.335.012Zm0-6.627a2.656,2.656,0,0,0-2.65,2.65,2.652,2.652,0,0,0,2.65,2.649,2.652,2.652,0,0,0,2.649-2.649,2.652,2.652,0,0,0-2.641-2.65Zm-105.191-33.112a2.653,2.653,0,0,0-2.65,2.65,2.652,2.652,0,0,0,2.65,2.649,2.654,2.654,0,0,0,2.649-2.649,2.652,2.652,0,0,0-2.641-2.65Zm8.607,39.726a3.957,3.957,0,0,1-3.91-3.307H465v-1.321h13.364a3.962,3.962,0,0,1,3.911-3.311h0a3.974,3.974,0,0,1,3.965,3.746,3.972,3.972,0,0,1-3.52,4.17,4.062,4.062,0,0,1-.446.023Zm0-6.615a2.652,2.652,0,0,0-2.649,2.65,2.652,2.652,0,0,0,2.649,2.649h.012a2.616,2.616,0,0,0,1.862-.774,2.633,2.633,0,0,0,.775-1.875,2.653,2.653,0,0,0-2.639-2.65Zm221.408-4.409a3.961,3.961,0,0,1-3.914-3.31H670.5l-.595-.062v-25.819a3.964,3.964,0,0,1-2.477-1.482,3.962,3.962,0,0,1-.82-2.767,3.962,3.962,0,0,1,1.27-2.592,3.963,3.963,0,0,1,2.689-1.048,3.963,3.963,0,0,1,2.689,1.048,3.964,3.964,0,0,1,1.27,2.592,3.962,3.962,0,0,1-.82,2.767,3.966,3.966,0,0,1-2.477,1.482v24.566H699.77a3.962,3.962,0,0,1,3.914-3.311,2.7,2.7,0,0,1,.336.014,3.963,3.963,0,0,1,2.592,1.27,3.963,3.963,0,0,1,1.048,2.689,3.964,3.964,0,0,1-1.048,2.689,3.963,3.963,0,0,1-2.592,1.27c-.112,0-.22,0-.336,0Zm0-6.622a2.632,2.632,0,0,0-1.874.777,2.632,2.632,0,0,0-.775,1.874,2.652,2.652,0,0,0,2.649,2.65,2.653,2.653,0,0,0,2.65-2.65,2.652,2.652,0,0,0-2.65-2.649Zm-33.112-29.137a2.652,2.652,0,0,0-2.649,2.648,2.654,2.654,0,0,0,2.649,2.651,2.652,2.652,0,0,0,2.65-2.649,2.653,2.653,0,0,0-2.638-2.65Zm-91.721,35.753a3.959,3.959,0,0,1-3.914-3.31h-36.3l-.115-.022-.5-.123v-22.318l-10.649-10.649H477.583a3.961,3.961,0,0,1-3.914,3.311,2.7,2.7,0,0,1-.336-.014,3.963,3.963,0,0,1-2.592-1.27,3.963,3.963,0,0,1-1.048-2.689,3.964,3.964,0,0,1,1.048-2.689,3.963,3.963,0,0,1,2.592-1.27c.112-.009.225-.014.336-.014a3.961,3.961,0,0,1,3.914,3.312h49.933a.733.733,0,0,1,.085,0,.755.755,0,0,1,.591.283l.039.04,11.006,11.006.049.124a.863.863,0,0,1,.053.314v21.351h35.6a3.961,3.961,0,0,1,3.915-3.312,2.627,2.627,0,0,1,.334.014,3.963,3.963,0,0,1,2.592,1.27,3.963,3.963,0,0,1,1.048,2.689,3.963,3.963,0,0,1-1.048,2.689,3.964,3.964,0,0,1-2.592,1.27c-.11,0-.223.007-.335.007Zm.005-6.621a2.654,2.654,0,0,0-2.65,2.649,2.653,2.653,0,0,0,2.65,2.65,2.652,2.652,0,0,0,2.649-2.65,2.652,2.652,0,0,0-2.637-2.649Zm-105.191-33.115a2.652,2.652,0,0,0-2.65,2.649,2.652,2.652,0,0,0,2.65,2.649,2.654,2.654,0,0,0,2.649-2.649,2.652,2.652,0,0,0-2.637-2.649Zm-2.426,39.736a3.96,3.96,0,0,1-3.914-3.31H465v-1.325h2.327a3.961,3.961,0,0,1,3.914-3.311,2.682,2.682,0,0,1,.336.014,3.963,3.963,0,0,1,2.592,1.27,3.963,3.963,0,0,1,1.048,2.689,3.963,3.963,0,0,1-1.048,2.689,3.963,3.963,0,0,1-2.592,1.27c-.112.01-.224.014-.336.014Zm0-6.626a2.654,2.654,0,0,0-2.649,2.649,2.652,2.652,0,0,0,2.649,2.649,2.652,2.652,0,0,0,2.649-2.649,2.652,2.652,0,0,0-2.639-2.649Zm232.45-4.415a3.96,3.96,0,0,1-3.914-3.311h-18.1l-.57.053-.141-.72V-1568H650.815v5.253a3.963,3.963,0,0,1,2.477,1.482,3.963,3.963,0,0,1,.82,2.768,3.963,3.963,0,0,1-1.27,2.592,3.963,3.963,0,0,1-2.689,1.048,3.963,3.963,0,0,1-2.689-1.048,3.961,3.961,0,0,1-1.27-2.592,3.963,3.963,0,0,1,.82-2.768,3.96,3.96,0,0,1,2.477-1.482v-6.525l.7-.049H681.6a.669.669,0,0,1,.532.261l.211.274-.071.252v32.323h17.5a3.96,3.96,0,0,1,3.914-3.311,2.644,2.644,0,0,1,.336.014,3.963,3.963,0,0,1,2.592,1.27,3.964,3.964,0,0,1,1.048,2.689,3.963,3.963,0,0,1-1.048,2.689,3.964,3.964,0,0,1-2.592,1.27c-.11.01-.222.015-.333.015Zm0-6.623a2.654,2.654,0,0,0-2.649,2.65,2.652,2.652,0,0,0,2.649,2.649,2.652,2.652,0,0,0,2.65-2.649,2.653,2.653,0,0,0-2.643-2.651Zm-53.534-23.284a2.652,2.652,0,0,0-2.649,2.649,2.652,2.652,0,0,0,2.649,2.65,2.652,2.652,0,0,0,2.649-2.65,2.654,2.654,0,0,0-2.642-2.648Zm-99.221,16.113h0a3.976,3.976,0,0,1-3.968-3.747,3.972,3.972,0,0,1,3.519-4.17,4.045,4.045,0,0,1,.45-.025,3.958,3.958,0,0,1,3.91,3.306h37.788c.4.452.828.9,1.263,1.328H554.84a3.962,3.962,0,0,1-3.909,3.309Zm0-6.621a2.654,2.654,0,0,0-2.649,2.649,2.652,2.652,0,0,0,2.649,2.649,2.652,2.652,0,0,0,2.65-2.649,2.652,2.652,0,0,0-2.646-2.649Zm152.757,5.409A3.964,3.964,0,0,1,701-1547.63a3.963,3.963,0,0,1-1.27-2.592,3.963,3.963,0,0,1,.82-2.768,3.963,3.963,0,0,1,2.477-1.482v-13.143a3.974,3.974,0,0,1-3.285-4.362,3.968,3.968,0,0,1,3.945-3.528c.075,0,.152,0,.228.006a3.975,3.975,0,0,1,3.748,3.972,3.966,3.966,0,0,1-3.312,3.912v13.143a3.963,3.963,0,0,1,2.477,1.482,3.965,3.965,0,0,1,.82,2.768,3.963,3.963,0,0,1-1.27,2.592,3.964,3.964,0,0,1-2.693,1.048Zm0-6.623a2.652,2.652,0,0,0-2.65,2.649,2.652,2.652,0,0,0,2.65,2.649,2.652,2.652,0,0,0,2.649-2.649,2.661,2.661,0,0,0-2.642-2.644Zm-2.653-18.322h0a2.655,2.655,0,0,0,2.646,2.647,2.655,2.655,0,0,0,2.653-2.647,2.632,2.632,0,0,0-.775-1.874,2.63,2.63,0,0,0-1.874-.777,2.63,2.63,0,0,0-1.874.777,2.633,2.633,0,0,0-.775,1.874Zm-8.387,24.945a3.963,3.963,0,0,1-2.689-1.048,3.959,3.959,0,0,1-1.269-2.592,3.963,3.963,0,0,1,.82-2.767,3.964,3.964,0,0,1,2.476-1.482v-13.143a3.976,3.976,0,0,1-3.285-4.362,3.97,3.97,0,0,1,3.946-3.528c.076,0,.152,0,.229.006a3.973,3.973,0,0,1,3.747,3.972,3.965,3.965,0,0,1-3.31,3.912v13.143a3.966,3.966,0,0,1,2.476,1.482,3.963,3.963,0,0,1,.82,2.767,3.963,3.963,0,0,1-1.27,2.592,3.963,3.963,0,0,1-2.684,1.048Zm0-6.623a2.652,2.652,0,0,0-2.649,2.649,2.652,2.652,0,0,0,2.649,2.649,2.652,2.652,0,0,0,2.65-2.649,2.662,2.662,0,0,0-2.64-2.644ZM690-1571.528a2.657,2.657,0,0,0,2.647,2.648,2.654,2.654,0,0,0,2.652-2.647,2.632,2.632,0,0,0-.775-1.874,2.63,2.63,0,0,0-1.873-.777,2.63,2.63,0,0,0-1.874.777,2.631,2.631,0,0,0-.774,1.874Zm-139.073,15.122h0a3.976,3.976,0,0,1-3.968-3.747,3.974,3.974,0,0,1,3.519-4.171,4.016,4.016,0,0,1,.45-.025,3.958,3.958,0,0,1,3.91,3.307h31.524c.138.44.289.887.45,1.328H554.837a3.963,3.963,0,0,1-3.911,3.308Zm0-6.622a2.656,2.656,0,0,0-2.649,2.65,2.652,2.652,0,0,0,2.649,2.649,2.652,2.652,0,0,0,2.649-2.649,2.652,2.652,0,0,0-2.651-2.65Zm168.213-3.312a2.7,2.7,0,0,1-.336-.014,3.963,3.963,0,0,1-2.592-1.27,3.964,3.964,0,0,1-1.048-2.689A3.963,3.963,0,0,1,716.21-1573a3.964,3.964,0,0,1,2.592-1.27c.113-.009.226-.014.336-.014a3.96,3.96,0,0,1,3.914,3.311H765v1.324H723.052a3.96,3.96,0,0,1-3.914,3.309Zm0-6.621a2.652,2.652,0,0,0-2.649,2.649,2.652,2.652,0,0,0,2.649,2.649,2.656,2.656,0,0,0,2.65-2.649,2.652,2.652,0,0,0-2.652-2.65Zm-183.182,6.621a2.7,2.7,0,0,1-.336-.014,3.964,3.964,0,0,1-2.593-1.27,3.963,3.963,0,0,1-1.049-2.689,3.963,3.963,0,0,1,1.049-2.689,3.964,3.964,0,0,1,2.593-1.27c.113-.009.226-.014.336-.014a3.959,3.959,0,0,1,3.913,3.311h45.147c-.01.313-.016.641-.016.976v.348H539.869a3.96,3.96,0,0,1-3.914,3.311Zm0-6.618a2.652,2.652,0,0,0-2.649,2.649,2.652,2.652,0,0,0,2.649,2.65,2.657,2.657,0,0,0,2.65-2.65,2.652,2.652,0,0,0-2.655-2.649Zm-13.983,6.613a3.959,3.959,0,0,1-3.911-3.307H465v-1.324h53.063a3.963,3.963,0,0,1,3.911-3.311,3.972,3.972,0,0,1,3.964,3.746,3.972,3.972,0,0,1-3.519,4.171,3.9,3.9,0,0,1-.45.025Zm0-6.618h0a2.63,2.63,0,0,0-1.872.777,2.63,2.63,0,0,0-.775,1.873,2.651,2.651,0,0,0,2.649,2.648,2.655,2.655,0,0,0,2.65-2.651,2.652,2.652,0,0,0-2.648-2.646Zm24.985-6.634c-.066,0-.139,0-.229-.006a3.975,3.975,0,0,1-3.748-3.973h0a3.966,3.966,0,0,1,3.311-3.912v-40.1H524.919a.71.71,0,0,1-.7-.6v-54.59H510.7a3.962,3.962,0,0,1-3.914,3.311,2.714,2.714,0,0,1-.336-.014,3.961,3.961,0,0,1-2.592-1.27,3.963,3.963,0,0,1-1.048-2.689,3.963,3.963,0,0,1,1.048-2.689,3.962,3.962,0,0,1,2.592-1.27c.112-.009.225-.014.336-.014a3.961,3.961,0,0,1,3.914,3.311h14.56l.284.521v54.671h22.074v41.426a3.974,3.974,0,0,1,3.285,4.362,3.967,3.967,0,0,1-3.945,3.522Zm0-6.628a2.652,2.652,0,0,0-2.649,2.649,2.652,2.652,0,0,0,2.649,2.65,2.652,2.652,0,0,0,2.649-2.65,2.66,2.66,0,0,0-2.651-2.648ZM506.782-1686.1a2.652,2.652,0,0,0-2.649,2.65,2.653,2.653,0,0,0,2.649,2.649,2.654,2.654,0,0,0,2.649-2.649,2.652,2.652,0,0,0-2.649-2.65ZM558-1579.6c-.064,0-.137,0-.229-.006a3.975,3.975,0,0,1-3.748-3.972h.006a3.966,3.966,0,0,1,3.31-3.911v-51.141H535.95a.7.7,0,0,1-.548-.266l-.208-.269.066-.256V-1689h1.32v49.046h21.329a1.556,1.556,0,0,1,.172.009l.574.075v52.384a3.975,3.975,0,0,1,3.285,4.361A3.968,3.968,0,0,1,558-1579.6Zm0-6.629a2.652,2.652,0,0,0-2.649,2.649,2.652,2.652,0,0,0,2.649,2.649,2.651,2.651,0,0,0,2.649-2.648,2.653,2.653,0,0,0-2.657-2.648Zm-22.071,6.629c-.064,0-.137,0-.229-.006a3.974,3.974,0,0,1-3.748-3.972h-.007a3.966,3.966,0,0,1,3.311-3.912v-29.068H513.828a.679.679,0,0,1-.5-.252l-.221-.278.075-.26v-54.4h-2.489a3.965,3.965,0,0,1-3.918,3.312,2.682,2.682,0,0,1-.336-.014,3.966,3.966,0,0,1-2.593-1.271,3.964,3.964,0,0,1-1.049-2.691,3.967,3.967,0,0,1,1.049-2.692,3.967,3.967,0,0,1,2.593-1.271c.112-.009.225-.014.336-.014a3.965,3.965,0,0,1,3.918,3.312l3.434-.018.239.278a.675.675,0,0,1,.14.455v54.472h21.388a.745.745,0,0,1,.287.058l.4.172v30.167a3.975,3.975,0,0,1,3.285,4.361,3.967,3.967,0,0,1-3.945,3.532Zm-.006-6.627a2.652,2.652,0,0,0-2.649,2.649,2.652,2.652,0,0,0,2.649,2.65,2.652,2.652,0,0,0,2.649-2.65,2.624,2.624,0,0,0-.773-1.87,2.63,2.63,0,0,0-1.874-.778Zm-29.139-88.833a2.652,2.652,0,0,0-2.649,2.649,2.652,2.652,0,0,0,2.649,2.649,2.654,2.654,0,0,0,2.65-2.649,2.652,2.652,0,0,0-2.658-2.646Zm73.286,95.46a3.962,3.962,0,0,1-2.689-1.048,3.962,3.962,0,0,1-1.27-2.592,3.962,3.962,0,0,1,.82-2.768,3.966,3.966,0,0,1,2.477-1.482v-73.217h-21.3l-.256.071-.556-.464.035-.353V-1689h1.324v26.97h22.066l.009,1.616v72.921a3.966,3.966,0,0,1,2.477,1.483,3.963,3.963,0,0,1,.82,2.768,3.962,3.962,0,0,1-1.27,2.592A3.963,3.963,0,0,1,580.07-1579.6Zm0-6.622a2.652,2.652,0,0,0-2.649,2.649,2.652,2.652,0,0,0,2.649,2.65,2.656,2.656,0,0,0,2.649-2.65,2.652,2.652,0,0,0-2.651-2.651Zm-11.036,6.622c-.082,0-.165,0-.229-.006a3.975,3.975,0,0,1-3.747-3.972h0a3.966,3.966,0,0,1,3.311-3.912v-62.18h-21.45a.667.667,0,0,1-.614-.571l-.009-.265V-1689h1.32v38.009h22.075v63.5a3.976,3.976,0,0,1,3.285,4.362,3.967,3.967,0,0,1-3.944,3.529Zm0-6.628a2.653,2.653,0,0,0-2.65,2.65,2.652,2.652,0,0,0,2.65,2.649,2.652,2.652,0,0,0,2.649-2.649,2.656,2.656,0,0,0-2.653-2.651Zm116.553,6.093h0a3.973,3.973,0,0,1-3.965-3.746,3.971,3.971,0,0,1,3.519-4.171,4.045,4.045,0,0,1,.45-.025,3.958,3.958,0,0,1,3.91,3.306H765v1.326H689.493a3.961,3.961,0,0,1-3.91,3.309Zm0-6.622a2.656,2.656,0,0,0-2.65,2.649,2.652,2.652,0,0,0,2.65,2.649,2.652,2.652,0,0,0,2.649-2.649,2.652,2.652,0,0,0-2.655-2.651Zm-163.676,6.622a3.959,3.959,0,0,1-3.913-3.31H480.675l-.6-.062v-36.856a3.976,3.976,0,0,1-3.285-4.362,3.968,3.968,0,0,1,3.945-3.528c.075,0,.152,0,.229.006a3.975,3.975,0,0,1,3.748,3.972h0a3.965,3.965,0,0,1-3.31,3.912v35.6H518a3.96,3.96,0,0,1,3.913-3.311,2.675,2.675,0,0,1,.336.014,3.965,3.965,0,0,1,2.593,1.27,3.963,3.963,0,0,1,1.049,2.689,3.963,3.963,0,0,1-1.049,2.689,3.964,3.964,0,0,1-2.593,1.27c-.117,0-.23.006-.34.006Zm0-6.622h0a2.655,2.655,0,0,0-2.645,2.648,2.652,2.652,0,0,0,2.649,2.649,2.652,2.652,0,0,0,2.65-2.649,2.652,2.652,0,0,0-2.65-2.649Zm-41.174-40.179a2.653,2.653,0,0,0-2.649,2.651,2.656,2.656,0,0,0,2.646,2.647,2.654,2.654,0,0,0,2.652-2.647,2.632,2.632,0,0,0-.775-1.875,2.632,2.632,0,0,0-1.881-.777Zm106.746,44.984h0a3.965,3.965,0,0,1-.33-1.287,3.963,3.963,0,0,1,.82-2.768,3.966,3.966,0,0,1,2.477-1.482v-66a3.974,3.974,0,0,1-3.285-4.361,3.968,3.968,0,0,1,3.945-3.528c.076,0,.152,0,.229.006a3.975,3.975,0,0,1,3.748,3.972,3.967,3.967,0,0,1-3.312,3.911v64.506a30.2,30.2,0,0,0-2.428,3.432,2.661,2.661,0,0,0-.831,1.459c-.37.695-.717,1.413-1.031,2.134Zm.978-75.446a2.657,2.657,0,0,0,2.647,2.648,2.655,2.655,0,0,0,2.653-2.647,2.633,2.633,0,0,0-.775-1.875,2.632,2.632,0,0,0-1.874-.777,2.631,2.631,0,0,0-1.874.777,2.633,2.633,0,0,0-.775,1.875Zm53.655,74.533h0a30.053,30.053,0,0,0-3.128-5.162,3.971,3.971,0,0,1,3.277,3.255h27.658v-32.388a.689.689,0,0,1,.256-.578l.278-.22.26.075H737.2a3.961,3.961,0,0,1,3.915-3.312,2.62,2.62,0,0,1,.334.014,3.964,3.964,0,0,1,2.592,1.27,3.963,3.963,0,0,1,1.049,2.689,3.964,3.964,0,0,1-1.049,2.69,3.96,3.96,0,0,1-2.592,1.269c-.111.009-.224.014-.336.014a3.959,3.959,0,0,1-3.914-3.311H671.233v32.326l.079.238-.442.574-.539-.022H642.253a4.021,4.021,0,0,1-.143.578Zm98.993-37a2.656,2.656,0,0,0-2.65,2.649,2.652,2.652,0,0,0,2.65,2.649,2.652,2.652,0,0,0,2.649-2.649,2.651,2.651,0,0,0-.778-1.878,2.652,2.652,0,0,0-1.88-.775Zm-271.373,36.42H465v-1.324h4.031v-24.565a3.974,3.974,0,0,1-3.285-4.362,3.968,3.968,0,0,1,3.945-3.528c.075,0,.152,0,.229.006a3.975,3.975,0,0,1,3.748,3.972h0a3.965,3.965,0,0,1-3.311,3.911v25.09l.079.243-.225.3a.683.683,0,0,1-.482.254ZM469.7-1615.9a2.652,2.652,0,0,0-2.649,2.649,2.652,2.652,0,0,0,2.649,2.649,2.654,2.654,0,0,0,2.649-2.649,2.652,2.652,0,0,0-.778-1.877,2.652,2.652,0,0,0-1.878-.776Zm215.89,24.727h0a3.973,3.973,0,0,1-3.964-3.747,3.971,3.971,0,0,1,3.519-4.17,4.046,4.046,0,0,1,.45-.025,3.958,3.958,0,0,1,3.911,3.306H750.99a3.961,3.961,0,0,1,3.914-3.311,2.66,2.66,0,0,1,.336.014,3.962,3.962,0,0,1,2.592,1.27,3.963,3.963,0,0,1,1.048,2.689,3.963,3.963,0,0,1-1.048,2.689,3.964,3.964,0,0,1-2.592,1.27c-.112.009-.225.014-.336.014a3.961,3.961,0,0,1-3.914-3.311h-61.5a3.962,3.962,0,0,1-3.91,3.308Zm69.31-6.631h0a2.63,2.63,0,0,0-1.874.777,2.667,2.667,0,0,0-.776,1.877,2.652,2.652,0,0,0,2.649,2.649,2.652,2.652,0,0,0,2.65-2.649,2.653,2.653,0,0,0-2.65-2.65h0Zm-69.316,0a2.633,2.633,0,0,0-1.874.778,2.633,2.633,0,0,0-.775,1.876,2.652,2.652,0,0,0,2.65,2.649,2.652,2.652,0,0,0,2.649-2.649,2.652,2.652,0,0,0-2.649-2.65Zm-163.675,6.627a3.958,3.958,0,0,1-3.913-3.311h-26.29l-.6-.062V-1631.4a3.976,3.976,0,0,1-3.285-4.362,3.969,3.969,0,0,1,3.945-3.528c.075,0,.152,0,.228.006a3.974,3.974,0,0,1,3.748,3.973h0a3.967,3.967,0,0,1-3.311,3.912v35.6h25.557a3.959,3.959,0,0,1,3.913-3.311,2.659,2.659,0,0,1,.336.014,3.964,3.964,0,0,1,2.593,1.27,3.963,3.963,0,0,1,1.049,2.689,3.963,3.963,0,0,1-1.049,2.689,3.964,3.964,0,0,1-2.593,1.27c-.107,0-.22.007-.331.007Zm0-6.623h0a2.656,2.656,0,0,0-2.649,2.65,2.652,2.652,0,0,0,2.649,2.649,2.652,2.652,0,0,0,2.649-2.649A2.652,2.652,0,0,0,521.909-1597.8Zm-30.133-40.178a2.632,2.632,0,0,0-1.874.777,2.631,2.631,0,0,0-.774,1.875,2.655,2.655,0,0,0,2.646,2.647,2.654,2.654,0,0,0,2.651-2.648,2.632,2.632,0,0,0-.775-1.874,2.631,2.631,0,0,0-1.882-.777Zm146.579,46.8a2.706,2.706,0,0,1-.337-.014,3.963,3.963,0,0,1-2.592-1.27,3.963,3.963,0,0,1-1.049-2.689,3.963,3.963,0,0,1,1.049-2.689,3.964,3.964,0,0,1,2.592-1.27c.111-.009.224-.014.336-.014a3.96,3.96,0,0,1,3.914,3.312v.011h16.617v-32.41l-.026-.4.521-.309h69.545a3.961,3.961,0,0,1,3.914-3.311,2.7,2.7,0,0,1,.336.014,3.962,3.962,0,0,1,2.593,1.269,3.963,3.963,0,0,1,1.049,2.69,3.962,3.962,0,0,1-1.049,2.689,3.964,3.964,0,0,1-2.593,1.27c-.11.009-.223.014-.334.014a3.962,3.962,0,0,1-3.915-3.312H660.194v33.108H642.26a3.959,3.959,0,0,1-3.913,3.308Zm0-6.621a2.652,2.652,0,0,0-2.65,2.649,2.653,2.653,0,0,0,2.65,2.65h.005a2.624,2.624,0,0,0,1.869-.777,2.633,2.633,0,0,0,.774-1.872,2.652,2.652,0,0,0-.777-1.879,2.652,2.652,0,0,0-1.878-.777Zm94.479-33.113a2.654,2.654,0,0,0-2.649,2.65,2.652,2.652,0,0,0,2.649,2.649,2.652,2.652,0,0,0,2.65-2.649,2.652,2.652,0,0,0-2.65-2.649ZM601.927-1597v-28a3.975,3.975,0,0,1-3.285-4.361,3.968,3.968,0,0,1,3.944-3.528c.076,0,.153,0,.229.006a3.975,3.975,0,0,1,3.748,3.972,3.964,3.964,0,0,1-3.312,3.911v27.4c-.443.189-.888.391-1.323.6Zm-1.988-31.915h0a2.657,2.657,0,0,0,2.646,2.647,2.654,2.654,0,0,0,2.653-2.647,2.632,2.632,0,0,0-.775-1.875,2.631,2.631,0,0,0-1.873-.777,2.632,2.632,0,0,0-1.874.777,2.633,2.633,0,0,0-.775,1.875Zm26.27,31.083h0c-.434-.175-.878-.342-1.319-.5v-8.5h22.955v-43.443a.661.661,0,0,1,.256-.565l.266-.212.252.066h36.15a3.959,3.959,0,0,1,3.913-3.311,2.683,2.683,0,0,1,.336.014,3.966,3.966,0,0,1,2.593,1.27,3.963,3.963,0,0,1,1.049,2.689,3.963,3.963,0,0,1-1.049,2.689,3.964,3.964,0,0,1-2.593,1.27c-.11.009-.223.014-.336.014a3.959,3.959,0,0,1-3.913-3.312h-35.6v43.4a.818.818,0,0,1-.057.339l-.172.4H626.2v7.682Zm62.472-55.145a2.656,2.656,0,0,0-2.649,2.65,2.652,2.652,0,0,0,2.649,2.649,2.652,2.652,0,0,0,2.65-2.649,2.653,2.653,0,0,0-.778-1.877,2.653,2.653,0,0,0-1.878-.776Zm-71.744,53.044h0c-.44-.028-.885-.046-1.322-.055v-25.068a3.961,3.961,0,0,1-2.477-1.481,3.96,3.96,0,0,1-.82-2.767,3.962,3.962,0,0,1,1.269-2.591,3.958,3.958,0,0,1,2.687-1.048h.007a3.96,3.96,0,0,1,2.687,1.047,3.96,3.96,0,0,1,1.269,2.59,3.959,3.959,0,0,1-.82,2.766,3.959,3.959,0,0,1-2.477,1.481v25.121Zm-.661-31.684a2.652,2.652,0,0,0-2.649,2.649,2.652,2.652,0,0,0,2.649,2.649,2.654,2.654,0,0,0,2.65-2.649,2.652,2.652,0,0,0-.778-1.877,2.652,2.652,0,0,0-1.878-.776Zm69.316,29.412a2.651,2.651,0,0,1-.336-.014,3.962,3.962,0,0,1-2.592-1.27,3.963,3.963,0,0,1-1.048-2.689,3.963,3.963,0,0,1,1.048-2.689,3.964,3.964,0,0,1,2.592-1.27c.112-.009.225-.014.336-.014a3.96,3.96,0,0,1,3.914,3.312h53.209a3.962,3.962,0,0,1,3.914-3.312,2.675,2.675,0,0,1,.336.014,3.963,3.963,0,0,1,2.592,1.27,3.963,3.963,0,0,1,1.048,2.689,3.963,3.963,0,0,1-1.048,2.689,3.963,3.963,0,0,1-2.592,1.27c-.112.009-.225.014-.336.014a3.96,3.96,0,0,1-3.914-3.31H689.5a3.96,3.96,0,0,1-3.914,3.306Zm0-6.624a2.652,2.652,0,0,0-2.649,2.649,2.652,2.652,0,0,0,2.649,2.649,2.654,2.654,0,0,0,2.649-2.649,2.652,2.652,0,0,0-.778-1.878,2.652,2.652,0,0,0-1.879-.775Zm61.037,0h0a2.655,2.655,0,0,0-2.646,2.653,2.653,2.653,0,0,0,2.649,2.645,2.654,2.654,0,0,0,2.649-2.652,2.654,2.654,0,0,0-2.649-2.646ZM521.913-1602.2a3.959,3.959,0,0,1-3.913-3.31H502.949a1.557,1.557,0,0,1-.207-.009l-.6-.062v-47.893a3.974,3.974,0,0,1-3.285-4.361,3.968,3.968,0,0,1,3.945-3.528c.076,0,.152,0,.229.006a3.975,3.975,0,0,1,3.748,3.972,3.957,3.957,0,0,1-3.307,3.911v46.641h14.521a3.96,3.96,0,0,1,3.913-3.312,2.675,2.675,0,0,1,.336.014,3.965,3.965,0,0,1,2.593,1.27,3.964,3.964,0,0,1,1.049,2.689,3.963,3.963,0,0,1-1.049,2.689,3.963,3.963,0,0,1-2.593,1.27c-.114,0-.227,0-.336,0Zm0-6.621a2.654,2.654,0,0,0-2.649,2.649,2.652,2.652,0,0,0,2.649,2.65,2.652,2.652,0,0,0,2.649-2.65,2.652,2.652,0,0,0-.779-1.882,2.652,2.652,0,0,0-1.883-.775ZM500.156-1657.4a2.655,2.655,0,0,0,2.646,2.647,2.645,2.645,0,0,0,2.451-1.633,2.638,2.638,0,0,0-.572-2.889,2.631,2.631,0,0,0-1.874-.777,2.627,2.627,0,0,0-1.014.2,2.641,2.641,0,0,0-1.634,2.45Zm256.121,44.206a3.984,3.984,0,0,1-3.586-2.272,3.956,3.956,0,0,1,1.091-4.776,3.98,3.98,0,0,1,2.5-.884,3.934,3.934,0,0,1,2.4.812L765-1626.18v1.814l-5.412,5.026a3.907,3.907,0,0,1,.653,2.326,3.957,3.957,0,0,1-3.166,3.74,4.027,4.027,0,0,1-.8.082Zm-.015-6.629a2.656,2.656,0,0,0-2.41,1.55,2.657,2.657,0,0,0,.86,3.252,2.633,2.633,0,0,0,1.55.5,2.643,2.643,0,0,0,1.807-.711,2.656,2.656,0,0,0,.843-1.845,2.658,2.658,0,0,0-2.039-2.675,2.652,2.652,0,0,0-.611-.068Zm-128.732,6.572a2.635,2.635,0,0,1-.336-.014,3.964,3.964,0,0,1-2.593-1.27,3.963,3.963,0,0,1-1.049-2.689,3.963,3.963,0,0,1,1.049-2.689,3.964,3.964,0,0,1,2.593-1.27c.111-.009.224-.014.336-.014a3.959,3.959,0,0,1,3.913,3.311h3.541a3.96,3.96,0,0,1,3.914-3.311,2.659,2.659,0,0,1,.336.014,3.962,3.962,0,0,1,2.592,1.27,3.964,3.964,0,0,1,1.048,2.689,3.963,3.963,0,0,1-1.048,2.689,3.963,3.963,0,0,1-2.592,1.27c-.111.009-.224.014-.336.014a3.96,3.96,0,0,1-3.914-3.311h-3.542a3.96,3.96,0,0,1-3.912,3.314Zm11.371-6.623a2.652,2.652,0,0,0-2.649,2.65,2.652,2.652,0,0,0,2.649,2.649,2.652,2.652,0,0,0,2.649-2.649,2.656,2.656,0,0,0-2.65-2.647Zm-11.368,0a2.652,2.652,0,0,0-2.649,2.65,2.652,2.652,0,0,0,2.649,2.649,2.657,2.657,0,0,0,2.649-2.649,2.652,2.652,0,0,0-2.649-2.647Zm123.233-4.334a3.951,3.951,0,0,1-2.77-1.125,3.974,3.974,0,0,1-.227-5.452,3.971,3.971,0,0,1,3-1.365,3.936,3.936,0,0,1,2.433.834l11.8-10.817v1.8l-10.9,9.991a3.956,3.956,0,0,1-.649,5.087,3.961,3.961,0,0,1-2.686,1.049Zm-.006-6.634a2.661,2.661,0,0,0-2.4,1.534,2.658,2.658,0,0,0,.837,3.258,2.633,2.633,0,0,0,1.567.513,2.648,2.648,0,0,0,1.793-.7,2.653,2.653,0,0,0,.857-1.841,2.659,2.659,0,0,0-2.02-2.69,2.665,2.665,0,0,0-.634-.072ZM465-1624.569v-1.812l26.105-24.24V-1689h1.328v38.594a.711.711,0,0,1-.269.614L465-1624.571Zm173.133-3.667h-11.81v-29.219a3.963,3.963,0,0,1-2.477-1.482,3.962,3.962,0,0,1-.82-2.767,3.964,3.964,0,0,1,1.27-2.593,3.962,3.962,0,0,1,2.689-1.049,3.962,3.962,0,0,1,2.689,1.049,3.965,3.965,0,0,1,1.27,2.593,3.96,3.96,0,0,1-.82,2.767,3.963,3.963,0,0,1-2.477,1.482v27.893h9.161v-31.849a.675.675,0,0,1,.247-.473l.278-.225.256.076h47.174a3.96,3.96,0,0,1,3.912-3.31,3.988,3.988,0,0,1,.45.025,3.974,3.974,0,0,1,3.522,4.173,3.976,3.976,0,0,1-3.968,3.748h.005a3.965,3.965,0,0,1-3.911-3.311h-46.64v32.467Zm50.541-35.789a2.655,2.655,0,0,0-2.649,2.654,2.652,2.652,0,0,0,2.649,2.65,2.653,2.653,0,0,0,2.65-2.65,2.652,2.652,0,0,0-2.65-2.649h0Zm-61.7,0a2.652,2.652,0,0,0-2.649,2.649,2.654,2.654,0,0,0,2.649,2.649,2.652,2.652,0,0,0,2.649-2.649,2.652,2.652,0,0,0-2.647-2.648Zm118.278,28.78a3.984,3.984,0,0,1-2.939-1.3,3.951,3.951,0,0,1-1.014-2.865,3.952,3.952,0,0,1,2.332-3.411,3.943,3.943,0,0,1,1.631-.351,3.981,3.981,0,0,1,2.469.862L765-1657.845v1.776l-16.384,14.746a3.962,3.962,0,0,1,.543,2.823,3.96,3.96,0,0,1-1.506,2.449,3.94,3.94,0,0,1-2.4.808Zm.015-6.6a2.641,2.641,0,0,0-1.77.679,2.633,2.633,0,0,0-.874,1.828,2.638,2.638,0,0,0,1.5,2.53,2.63,2.63,0,0,0,1.141.259,2.644,2.644,0,0,0,1.771-.679,2.627,2.627,0,0,0,.875-1.828,2.63,2.63,0,0,0-.676-1.911,2.65,2.65,0,0,0-1.965-.876Zm-23.487,6.52a3.96,3.96,0,0,1-3.914-3.31h-50.45a3.961,3.961,0,0,1-3.914,3.31,3.983,3.983,0,0,1-.448-.025,3.975,3.975,0,0,1-3.521-4.174,3.974,3.974,0,0,1,3.965-3.747h.007a3.966,3.966,0,0,1,3.912,3.312h50.45a3.962,3.962,0,0,1,3.914-3.312,2.691,2.691,0,0,1,.336.014,3.962,3.962,0,0,1,2.592,1.27,3.963,3.963,0,0,1,1.048,2.689,3.963,3.963,0,0,1-1.048,2.689,3.964,3.964,0,0,1-2.592,1.27c-.109.011-.222.016-.334.016Zm-58.276-6.622a2.652,2.652,0,0,0-2.649,2.649,2.652,2.652,0,0,0,2.649,2.649,2.658,2.658,0,0,0,2.649-2.649,2.652,2.652,0,0,0-2.647-2.648Zm58.278,0a2.654,2.654,0,0,0-2.65,2.651,2.652,2.652,0,0,0,2.649,2.649,2.652,2.652,0,0,0,2.649-2.649,2.652,2.652,0,0,0-2.649-2.65ZM465-1640.533v-1.8l15.069-13.814V-1689H481.4v33.4l-.411.419-.225.208L465-1640.534Zm137.471-.577a2.706,2.706,0,0,1-.337-.014,3.963,3.963,0,0,1-2.592-1.27,3.963,3.963,0,0,1-1.048-2.689,3.964,3.964,0,0,1,1.048-2.689,3.963,3.963,0,0,1,2.592-1.27c.112-.009.225-.014.336-.014a3.96,3.96,0,0,1,3.914,3.312h9.223v-14.962H602.549a1.023,1.023,0,0,1-.165.013,1.029,1.029,0,0,1-.758-.335.854.854,0,0,1-.146-.725V-1689h1.32v26.967h14.127v16.826a.689.689,0,0,1-.141.512.709.709,0,0,1-.559.27H616.2v.007h-9.814a3.959,3.959,0,0,1-3.914,3.309Zm0-6.629a2.652,2.652,0,0,0-2.649,2.649,2.652,2.652,0,0,0,2.649,2.65h0a2.657,2.657,0,0,0,2.649-2.645,2.652,2.652,0,0,0-2.648-2.653Zm101.3.826a.9.9,0,0,1-.4-.093l-.35-.186v-17.328a3.965,3.965,0,0,1-2.477-1.483,3.962,3.962,0,0,1-.82-2.767,3.964,3.964,0,0,1,1.27-2.593,3.962,3.962,0,0,1,2.689-1.049,3.962,3.962,0,0,1,2.689,1.049,3.964,3.964,0,0,1,1.27,2.593,3.962,3.962,0,0,1-.82,2.767,3.964,3.964,0,0,1-2.477,1.483v16.286h32.2l2.185-1.912,19.469-17.042V-1689h1.325v22.03a.7.7,0,0,1-.278.614l-21.907,19.17a.876.876,0,0,1-.6.269H703.876a.949.949,0,0,1-.1,0Zm-.089-24.172a2.652,2.652,0,0,0-2.649,2.649,2.654,2.654,0,0,0,2.649,2.65,2.653,2.653,0,0,0,2.65-2.65,2.652,2.652,0,0,0-2.647-2.648ZM465-1656.251v-1.784l4.031-3.627V-1689h1.328v27.572a.723.723,0,0,1-.274.6L465-1656.253Zm271.779-4.458H714.357l-.225-.371a.677.677,0,0,1-.071-.319h.008v-21.386H645.355a3.961,3.961,0,0,1-3.914,3.311,2.714,2.714,0,0,1-.336-.014,3.963,3.963,0,0,1-2.592-1.27,3.963,3.963,0,0,1-1.048-2.689,3.964,3.964,0,0,1,1.048-2.689,3.964,3.964,0,0,1,2.592-1.27c.112-.009.225-.014.336-.014a3.96,3.96,0,0,1,3.914,3.311h69.328l.441-.031.266.561v21.545h21.138l10.65-10.649V-1689H748.5v16.5a.737.737,0,0,1-.247.614l-10.931,10.931a.728.728,0,0,1-.542.246ZM641.435-1686.1a2.653,2.653,0,0,0-2.65,2.65,2.652,2.652,0,0,0,2.65,2.649,2.654,2.654,0,0,0,2.649-2.649,2.652,2.652,0,0,0-2.649-2.65Zm47.24,17.66a3.959,3.959,0,0,1-3.913-3.31h-58.4l-.044-.615c-.009-.12-.009-.252-.009-.38V-1689h1.324v15.93h57.129a3.96,3.96,0,0,1,3.913-3.311,2.7,2.7,0,0,1,.336.014,3.965,3.965,0,0,1,2.593,1.27,3.963,3.963,0,0,1,1.049,2.689,3.963,3.963,0,0,1-1.049,2.689,3.964,3.964,0,0,1-2.593,1.27c-.111.009-.224.014-.335.014Zm0-6.621a2.654,2.654,0,0,0-2.649,2.649,2.652,2.652,0,0,0,2.649,2.649,2.652,2.652,0,0,0,2.65-2.649,2.652,2.652,0,0,0-2.65-2.645Zm-97.57,5.413a3.963,3.963,0,0,1-2.689-1.049,3.964,3.964,0,0,1-1.27-2.592,3.962,3.962,0,0,1,.82-2.768,3.966,3.966,0,0,1,2.477-1.482V-1689h1.324v11.466a3.964,3.964,0,0,1,2.477,1.482,3.963,3.963,0,0,1,.82,2.768,3.964,3.964,0,0,1-1.27,2.592,3.962,3.962,0,0,1-2.694,1.049Zm0-6.628a2.652,2.652,0,0,0-2.649,2.649,2.652,2.652,0,0,0,2.649,2.649,2.654,2.654,0,0,0,2.649-2.649,2.652,2.652,0,0,0-2.654-2.645Zm-11.033,6.628a3.961,3.961,0,0,1-2.689-1.049,3.964,3.964,0,0,1-1.27-2.592,3.962,3.962,0,0,1,.82-2.768,3.964,3.964,0,0,1,2.477-1.482V-1689h1.325v11.466a3.965,3.965,0,0,1,2.477,1.482,3.962,3.962,0,0,1,.82,2.768,3.963,3.963,0,0,1-1.27,2.592,3.964,3.964,0,0,1-2.694,1.049Zm0-6.628a2.652,2.652,0,0,0-2.65,2.649,2.652,2.652,0,0,0,2.65,2.649,2.654,2.654,0,0,0,2.649-2.649,2.652,2.652,0,0,0-2.657-2.645Zm-11.034,6.628a3.963,3.963,0,0,1-2.69-1.049,3.961,3.961,0,0,1-1.27-2.592,3.963,3.963,0,0,1,.82-2.768,3.965,3.965,0,0,1,2.477-1.482V-1689H569.7v11.466a3.965,3.965,0,0,1,2.477,1.482,3.964,3.964,0,0,1,.821,2.768,3.963,3.963,0,0,1-1.27,2.592,3.963,3.963,0,0,1-2.7,1.049Zm0-6.628a2.652,2.652,0,0,0-2.649,2.649,2.652,2.652,0,0,0,2.649,2.649,2.654,2.654,0,0,0,2.649-2.649,2.652,2.652,0,0,0-2.661-2.645Zm44.154,5.966a3.964,3.964,0,0,1-2.689-1.048,3.963,3.963,0,0,1-1.27-2.592,3.963,3.963,0,0,1,.82-2.768,3.963,3.963,0,0,1,2.477-1.482V-1689h1.324v10.8a3.962,3.962,0,0,1,2.477,1.482,3.964,3.964,0,0,1,.82,2.768,3.963,3.963,0,0,1-1.27,2.592,3.963,3.963,0,0,1-2.7,1.052Zm0-6.628a2.652,2.652,0,0,0-2.649,2.65,2.652,2.652,0,0,0,2.649,2.649,2.654,2.654,0,0,0,2.649-2.649,2.652,2.652,0,0,0-2.661-2.645Zm123.6,2.423h-11.52l-.137-.477a1.43,1.43,0,0,1-.04-.41V-1689h1.336v13.174h9.706V-1689h1.325v13.678l.075.243-.225.313a.679.679,0,0,1-.534.256Z" transform="translate(-465 1610)" fill="#fff"/><path d="M-778.529-454.814a10,10,0,0,1-10-10,10,10,0,0,1,10-10Zm3.214,0v-10a10,10,0,0,1,10-10,10,10,0,0,1,10,10,10,10,0,0,1-10,10Z" transform="translate(921.529 504.814)" fill="url(#b)"/></g></svg>