<svg xmlns="http://www.w3.org/2000/svg" xmlns:xlink="http://www.w3.org/1999/xlink" width="646.769" height="527.948" viewBox="0 0 646.769 527.948"><defs><linearGradient id="a" x1="0.064" y1="0.391" x2="0.697" y2="0.661" gradientUnits="objectBoundingBox"><stop offset="0.01"/><stop offset="0.12" stop-opacity="0.749"/><stop offset="1" stop-opacity="0"/></linearGradient><linearGradient id="b" x1="0.577" y1="1.099" x2="0.407" y2="0.086" xlink:href="#a"/><linearGradient id="c" x1="0.321" y1="1.057" x2="0.582" y2="0.316" xlink:href="#a"/><linearGradient id="d" x1="0.624" y1="-0.69" x2="0.405" y2="1.412" xlink:href="#a"/><linearGradient id="e" x1="0.297" y1="-0.591" x2="0.832" y2="2.285" xlink:href="#a"/><linearGradient id="f" x1="0.498" y1="1.471" x2="0.502" y2="-0.617" xlink:href="#a"/><linearGradient id="g" x1="0.482" y1="1.326" x2="0.516" y2="-0.132" xlink:href="#a"/></defs><g transform="translate(0.002 -0.006)"><rect width="588.287" height="376.812" rx="8.95" transform="translate(57.511 19.548)" fill="#68e1fd" opacity="0.48" style="isolation:isolate"/><path d="M639.047,348.538c-.429,12.341-3.256,24.9-10.165,35.132-8.7,12.881-22.839,20.854-36.53,28.35l-38.817,21.362c-17.01,9.371-34.941,18.964-54.334,19.234-13.723.207-27-4.32-40.2-8.116-61.64-17.788-126.568-20.282-190.288-15.787-32.638,2.3-65.118,6.353-97.455,11.229-25.873,3.844-56.923,16.629-80.254,1.493C65.594,424.917,50,398.171,35.639,372.2c-12.5-22.537-25.174-45.63-29.3-71.058C-.017,261.852,15.2,221.494,39.007,189.57a255.943,255.943,0,0,1,23.395-27V306.831a14.294,14.294,0,0,0,14.215,14.294H636.458A111.445,111.445,0,0,1,639.047,348.538Z" transform="translate(-4.89 75.33)" fill="#68e1fd" opacity="0.18" style="isolation:isolate"/><path d="M327.913,32.344H178.22a89.926,89.926,0,0,1,18.233-10.737c11.832-5.162,24.729-7.465,37.594-8.386C266.415,10.887,298.879,18.034,327.913,32.344Z" transform="translate(97.072 -12.78)" fill="#68e1fd" opacity="0.18" style="isolation:isolate"/><path d="M207.939,255.822a23.222,23.222,0,0,0,5.194,5.019,24.268,24.268,0,0,0,9.53,2.827l50.7,7.639a2.938,2.938,0,0,1,1.414.476,2.891,2.891,0,0,1,.746,2.287,89.211,89.211,0,0,1-3.8,28.049,3.875,3.875,0,0,1-1.032,1.969,4.066,4.066,0,0,1-2.319.7c-17.058,1.445-34.2.985-51.3.524a34.944,34.944,0,0,1-8.545-.937c-4.765-1.334-8.656-4.59-12.245-7.941-7.7-7.163-38.88-35.958-40.77-39.865a106.713,106.713,0,0,1-6.035-17.344c-1.588-5.718,10.022-6.432,9.784-12.372a38.387,38.387,0,0,1,1.461-12.166,20.774,20.774,0,0,1,5.082-9.4c1.747-1.588-.953-12.357,1.461-12.484,2.8,9.53,15.438,28.588,20.933,36.752a307.614,307.614,0,0,0,19.742,26.27Z" transform="translate(80.075 93.113)" fill="#68e1fd"/><path d="M207.939,255.822a23.222,23.222,0,0,0,5.194,5.019,24.268,24.268,0,0,0,9.53,2.827l50.7,7.639a2.938,2.938,0,0,1,1.414.476,2.891,2.891,0,0,1,.746,2.287,89.211,89.211,0,0,1-3.8,28.049,3.875,3.875,0,0,1-1.032,1.969,4.066,4.066,0,0,1-2.319.7c-17.058,1.445-34.2.985-51.3.524a34.944,34.944,0,0,1-8.545-.937c-4.765-1.334-8.656-4.59-12.245-7.941-7.7-7.163-38.88-35.958-40.77-39.865a106.713,106.713,0,0,1-6.035-17.344c-1.588-5.718,10.022-6.432,9.784-12.372a38.387,38.387,0,0,1,1.461-12.166,20.774,20.774,0,0,1,5.082-9.4c1.747-1.588-.953-12.357,1.461-12.484,2.8,9.53,15.438,28.588,20.933,36.752a307.614,307.614,0,0,0,19.742,26.27Z" transform="translate(80.075 93.113)" fill="url(#a)"/><path d="M122.041,185.059a92.979,92.979,0,0,0-9.529,9.847c-7.02,8.624-11.69,18.884-16.041,29.113-11.578,27.223-21.664,56.335-18.662,85.765a11.118,11.118,0,0,0,1.4,5.051,9.831,9.831,0,0,0,5.448,3.51c5.575,1.779,11.531,1.858,17.471,1.906,22.887.206,45.805.413,68.676-.7,3.542-.175,7.29-.445,10.228-2.446a16.582,16.582,0,0,0,4.987-6.242c6.147-11.562,7.941-24.936,12.706-37.1,6.353-15.882,23.824-30.32,20.139-47.06C203.105,155.628,129.252,178.5,122.041,185.059Z" transform="translate(37.69 83.416)" fill="#68e1fd"/><path d="M122.041,185.059a92.979,92.979,0,0,0-9.529,9.847c-7.02,8.624-11.69,18.884-16.041,29.113-11.578,27.223-21.664,56.335-18.662,85.765a11.118,11.118,0,0,0,1.4,5.051,9.831,9.831,0,0,0,5.448,3.51c5.575,1.779,11.531,1.858,17.471,1.906,22.887.206,45.805.413,68.676-.7,3.542-.175,7.29-.445,10.228-2.446a16.582,16.582,0,0,0,4.987-6.242c6.147-11.562,7.941-24.936,12.706-37.1,6.353-15.882,23.824-30.32,20.139-47.06C203.105,155.628,129.252,178.5,122.041,185.059Z" transform="translate(37.69 83.416)" fill="url(#b)"/><path d="M198.6,157.706c-2.684,13.04-5.5,26.428-12.706,37.657A29.16,29.16,0,0,1,174.892,206.2c-4.654,2.335-10.562,2.652-14.914-.206-2.176-1.414-4.558-3.637-6.925-2.589-1.715.778-2.271,2.907-2.509,4.765a47.964,47.964,0,0,0,.191,13.738,11.61,11.61,0,0,1,.222,3.907,6.448,6.448,0,0,1-5.162,4.765,12.309,12.309,0,0,1-7.195-1.128,23.252,23.252,0,0,1-13.4-17.185,55.685,55.685,0,0,1-.476-7.624c-.3-11.308-2.1-22.569-1.731-33.861s3.176-23.046,10.848-31.384a49.427,49.427,0,0,1,15.5-10.737c8.656-4.129,18.313-7.036,27.779-5.527a26.4,26.4,0,0,1,18.376,12.261C200.447,143,200.463,148.669,198.6,157.706Z" transform="translate(64.553 51.892)" fill="#ffdad2"/><path d="M228.59,141.26a26.286,26.286,0,0,0-13.9-26.46c-4.209-2.1-8.894-2.986-13.437-4.193-10.641-2.859-20.854-7.592-31.765-8.608s-23.458,2.811-28.318,12.706c-.889,1.811-1.763,4-3.717,4.479a8.147,8.147,0,0,1-3.176-.286c-7.29-1.286-13.85,4.939-17.137,11.562-5.3,10.721-5.575,23.22-4.415,35.116,1.064,11.007,3.875,22.9,12.706,29.6.874.667,2.16,1.271,3,.556a2.509,2.509,0,0,0,.683-1.477,48.281,48.281,0,0,0,.985-12.706c-.175-3.176-.683-6.544.143-9.672s3.478-6.1,6.718-6c3,0,5.416,2.8,6.162,5.718a21.093,21.093,0,0,1-.334,8.958c.476,1.191,2.144-.238,2.43-1.477,2.192-9.974,2.684-21.14,9.609-28.589a12.277,12.277,0,0,1,2.986,5.194,7.941,7.941,0,0,1,8.18-2.033,19.441,19.441,0,0,1,5.464,3.574C188.328,170.389,225.049,166.482,228.59,141.26Z" transform="translate(58.217 39.606)" fill="#3f3d56"/><path d="M111.521,193.061c-5.337,3.875-7.941,10.689-8.1,17.264s6.8,48.3,13.357,60.147c5.082,9.212,15.676,33.258,31.765,39.9,4.765,1.969,75.2,1.144,107.89-2.4-.206-7.735-.588-15.47-1.1-23.2a4.4,4.4,0,0,0-.874-2.843c-.826-.858-2-6.464-3.177-6.464-19.059.079-38.277,5.908-57.336,6.353a33.545,33.545,0,0,1-8.275-.492,23.823,23.823,0,0,1-6.353-2.6c-14.707-8.322-22.839-24.665-28.589-40.564-4.4-12.261-7.941-24.951-14.294-36.4-2.255-4.082-4.272-8.052-8.719-9.847C122.5,189.789,116.365,189.551,111.521,193.061Z" transform="translate(53.07 91.677)" fill="#68e1fd"/><path d="M111.521,193.061c-5.337,3.875-7.941,10.689-8.1,17.264s6.8,48.3,13.357,60.147c5.082,9.212,15.676,33.258,31.765,39.9,4.765,1.969,75.2,1.144,107.89-2.4-.206-7.735-.588-15.47-1.1-23.2a4.4,4.4,0,0,0-.874-2.843c-.826-.858-2-6.464-3.177-6.464-19.059.079-38.277,5.908-57.336,6.353a33.545,33.545,0,0,1-8.275-.492,23.823,23.823,0,0,1-6.353-2.6c-14.707-8.322-22.839-24.665-28.589-40.564-4.4-12.261-7.941-24.951-14.294-36.4-2.255-4.082-4.272-8.052-8.719-9.847C122.5,189.789,116.365,189.551,111.521,193.061Z" transform="translate(53.07 91.677)" fill="url(#c)"/><path d="M205.978,243.075c9.895-.937,20.885,1.271,27.159,8.974a4.764,4.764,0,0,1,1.239,2.541,4.257,4.257,0,0,1-.762,2.4c-3.7,6.146-11.737,7.608-18.487,10.038a48,48,0,0,0-9.99,4.955,15.884,15.884,0,0,1-5.972,2.954c-4.765.715-8.719-3.542-10.88-7.8-2.478-4.765-6.353-14.548-1.588-19.059C190.588,244.5,201.086,243.52,205.978,243.075Z" transform="translate(100.73 122.568)" fill="#ffdad2"/><path d="M266.229,243.773a13.549,13.549,0,0,1,4.431,4.05,5.829,5.829,0,0,1,.413,5.765,8.021,8.021,0,0,1-2.97,2.668c-8.783,5.225-19.551,6.162-28.446,11.118a15.454,15.454,0,0,1-6.131,2.668,8.465,8.465,0,0,1-6.8-3.177,21.6,21.6,0,0,1-3.669-6.782C212.657,232.766,251.267,234.244,266.229,243.773Z" transform="translate(122.417 119.424)" fill="#ffdad2"/><path d="M86.23,221h41.152v33.8A11.912,11.912,0,0,1,115.47,266.71H98.142A11.912,11.912,0,0,1,86.23,254.8Z" transform="translate(50.726 130)" fill="#fff"/><path d="M110.39,226.16h12.468a9.927,9.927,0,0,1,9.927,9.927V240.2a9.927,9.927,0,0,1-9.927,9.927H110.39Z" transform="translate(64.938 133.035)" fill="none" stroke="#fff" stroke-miterlimit="10" stroke-width="3.3"/><rect width="575.105" height="17.645" rx="5.56" transform="translate(71.663 395.979)" fill="#68e1fd"/><rect width="315.093" height="109.287" transform="translate(220.371 413.894)" fill="#68e1fd"/><rect width="123.772" height="109.287" transform="translate(98.742 413.894)" fill="#68e1fd"/><rect width="313.028" height="109.287" transform="translate(222.451 413.894)" fill="url(#d)"/><rect width="123.772" height="109.287" transform="translate(98.742 413.894)" fill="url(#e)"/><path d="M629.372,39.344V108.91H41.1V39.344A14.294,14.294,0,0,1,55.315,25.05H615.157a14.294,14.294,0,0,1,14.215,14.294Z" transform="translate(16.411 -5.566)" fill="#68e1fd" opacity="0.18" style="isolation:isolate"/><rect width="224.705" height="20.711" rx="6.52" transform="translate(525.775 395.677) rotate(180)" fill="#68e1fd"/><rect width="224.705" height="20.711" rx="6.52" transform="translate(525.775 395.677) rotate(180)" fill="url(#f)"/><path d="M245.51,305.372H402.064l41.294-104.713A9.212,9.212,0,0,0,434.8,188.08H311.946a29.669,29.669,0,0,0-27.54,18.773Z" transform="translate(136.656 90.337)" fill="#68e1fd"/><path d="M250.52,303.266H399.212l39.214-99.472a8.735,8.735,0,0,0-8.132-11.944H313.621a28.16,28.16,0,0,0-26.206,17.82Z" transform="translate(139.603 92.554)" fill="#68e1fd"/><path d="M250.52,303.266H399.212l39.214-99.472a8.735,8.735,0,0,0-8.132-11.944H313.621a28.16,28.16,0,0,0-26.206,17.82Z" transform="translate(139.603 92.554)" fill="url(#g)"/><rect width="220.131" height="12.388" transform="translate(338.33 245.556)" fill="#fff" opacity="0.51"/><rect width="156.49" height="12.388" transform="translate(338.33 224.353)" fill="#fff"/><rect width="104.761" height="12.388" transform="translate(516.214 224.353)" fill="#fff"/><rect width="161.064" height="11.007" transform="translate(459.545 145.925)" fill="#fff"/><rect width="172.309" height="11.007" transform="translate(425.811 165.476)" fill="#fff" opacity="0.51"/><rect width="105.936" height="11.007" transform="translate(341.316 145.925)" fill="#fff"/><rect width="232.821" height="11.007" transform="translate(387.788 184.44)" fill="#fff"/><rect width="34.179" height="11.007" transform="translate(341.316 184.44)" fill="#fff" opacity="0.51"/><rect width="153.679" height="11.007" transform="translate(466.93 203.991)" fill="#fff" opacity="0.51"/><rect width="105.936" height="11.007" transform="translate(341.316 203.991)" fill="#fff"/><rect width="68.12" height="11.007" transform="translate(341.316 165.016)" fill="#fff"/><rect width="161.064" height="11.007" transform="translate(400.637 108.871)" fill="#fff"/><rect width="172.309" height="11.007" transform="translate(366.902 128.422)" fill="#fff" opacity="0.51"/><rect width="105.936" height="11.007" transform="translate(282.423 108.871)" fill="#fff"/><rect width="161.064" height="11.007" transform="translate(399.207 86.08)" fill="#fff"/><rect width="105.936" height="11.007" transform="translate(280.994 65.401)" fill="#fff"/><rect width="105.936" height="11.007" transform="translate(280.994 46.532)" fill="#fff"/><rect width="68.12" height="11.007" transform="translate(282.423 127.962)" fill="#fff"/></g></svg>