<svg xmlns="http://www.w3.org/2000/svg" width="2256.803" height="35000.508" viewBox="0 0 2256.803 35000.508"><g transform="translate(2749.053 0.5)"><path d="M2528.25,35612.508l-.041-.082c-1.509-2.977-15.414-30.531-38.286-80.375-14.159-30.863-29.041-64.336-44.223-99.484-18.964-43.9-38.359-90.336-57.65-138.012-49.177-121.516-98.218-252.289-145.764-388.687-59.418-170.469-116.609-350.152-169.991-534.062-135.909-468.223-248.291-966.477-334.027-1480.918-24.773-148.615-47.632-300.684-67.936-451.975-21.354-159.121-40.464-321.7-56.786-483.217-8.477-83.85-16.364-169.006-23.445-253.1-7.264-86.174-13.9-173.863-19.741-260.637-5.968-88.746-11.259-178.941-15.723-268.082-4.568-91.086-8.4-183.754-11.4-275.432-2.241-68.359-3.686-138.65-4.3-208.922-.6-68.537-.423-139.129.532-209.811.932-68.836,2.627-139.7,5.05-210.627,2.354-69.164,5.464-140.281,9.232-211.377,3.664-69.15,8.073-140.5,13.1-212.068,4.854-69.186,10.455-140.74,16.636-212.678,11.691-136.049,26.027-279.7,42.609-426.959,15.436-137.1,32.736-277.312,52.891-428.641,17.95-134.8,37.768-275.391,60.586-429.785,42.318-286.4,88.777-577.859,133.7-859.729l.191-1.186.041-.277c37.6-235.869,76.482-479.773,112.65-718.928,19.491-128.863,36.655-246.082,52.482-358.359,17.773-126.082,33.436-242.9,47.886-357.127,15.486-122.449,29.541-242.082,41.768-355.568,13.059-121.227,24.545-240.232,34.141-353.709,10.146-120.031,18.554-238.3,24.991-351.541,6.754-118.881,11.573-236.318,14.327-349.055,1.586-65,2.282-131.3,2.064-197.059-.214-64.391-1.3-130.072-3.236-195.223-1.9-63.7-4.646-128.781-8.177-193.441-3.436-62.945-7.723-127.449-12.736-191.723-4.873-62.363-10.573-126.309-16.941-190.049-6.177-61.8-13.164-125.2-20.768-188.451-7.345-61.072-15.5-123.949-24.232-186.887-8.432-60.713-17.627-123.09-27.327-185.4-18.427-118.338-38.859-238.238-62.468-366.547-21.009-114.2-44.045-232.373-70.427-361.258-48.914-238.965-101.745-477.342-152.836-707.869l-.136-.613-.036-.154c-41.632-187.832-84.686-382.064-124.255-570.787-21.3-101.617-40-193.9-57.164-282.131-19.282-99.123-36.182-190.8-51.664-280.26-16.618-95.986-31.6-189.727-44.523-278.623-13.814-95.027-25.836-188.309-35.736-277.25-10.473-94.035-18.991-186.941-25.318-276.127-6.627-93.336-11.091-185.949-13.264-275.277,0-50.2.732-102.291,2.173-154.832,1.414-51.445,3.545-104.74,6.341-158.4,2.736-52.637,6.182-107.078,10.236-161.8,3.95-53.418,8.618-108.932,13.868-165,10.027-107.123,22.659-221.137,37.55-338.877,13.941-110.186,30.377-227.75,48.859-349.418,17.273-113.7,36.25-230.959,58.023-358.482,19.418-113.76,40.7-233.486,65.041-366.027,45.223-246.186,94.7-501.623,142.555-748.645v-.023c211.623-1092.439,430.45-2222.072,424.736-3227.132-.4-70.791-1.646-142.654-3.7-213.6-2-68.936-4.827-138.863-8.4-207.836-3.468-66.991-7.75-135.027-12.723-202.214-4.836-65.272-10.445-131.464-16.677-196.728-6.027-63.149-12.845-127.545-20.254-191.391-7.114-61.295-15-123.937-23.455-186.19-8.114-59.75-16.959-120.691-26.291-181.132-8.941-57.923-18.614-117.209-28.745-176.214-18.827-109.6-40.15-223.391-63.373-338.231-20.873-103.187-43.354-207.941-68.727-320.25-46.954-207.832-95.05-402.646-141.564-591.051-32.591-132-63.373-256.69-92.023-378.809-32.186-137.205-56.564-249.445-76.723-353.228-23.582-121.4-40.986-229.586-53.2-330.745-6.559-54.313-11.677-107.445-15.214-157.909-3.682-52.573-5.786-104.2-6.255-153.45-.518-54.859,1.055-110.986,4.677-166.813,3.459-53.282,8.886-108,16.132-162.618,6.841-51.627,15.564-105.113,25.927-158.973,9.677-50.286,21.141-102.732,34.077-155.887,12.036-49.478,25.309-99.636,40.573-153.341,13.614-47.9,28.468-97.413,45.418-151.359,31.614-100.641,65.75-201.463,98.764-298.968l.045-.136c40.273-118.959,81.914-241.968,118.691-363.809,19.809-65.623,36.686-125.732,51.591-183.759,16.745-65.2,30.609-126.141,42.386-186.3,6.227-31.827,11.877-63.591,16.8-94.414,5.1-31.986,9.6-64.091,13.368-95.427,3.886-32.35,7.1-64.836,9.564-96.564,2.532-32.7,4.341-65.618,5.377-97.827,1.059-33.059,1.336-66.441.818-99.218-.536-33.641-1.923-67.532-4.118-100.731-2.259-34.114-5.432-68.559-9.436-102.377-4.1-34.655-9.187-69.691-15.123-104.146-10.814-62.809-23.232-125.932-36.9-187.618-12.991-58.582-27.514-117.677-43.168-175.655-14.755-54.636-31.014-110.127-48.327-164.932-16.114-51.009-33.736-103.309-52.377-155.45-17.332-48.454-35.432-96.6-55.332-147.2-17.627-44.823-36.332-90.682-57.173-140.2-38.541-91.514-77.655-179.364-115.477-264.323-73.918-166.023-143.736-322.836-199.364-483.927-14.332-41.514-27.4-82.468-38.85-121.723-12.227-41.936-23.146-83.75-32.441-124.272-9.8-42.677-18.223-85.732-25.032-127.959-7.1-44.009-12.686-88.682-16.609-132.773a1050.322,1050.322,0,0,1-3.727-120.624,1098.627,1098.627,0,0,1,9.377-116.009c4.9-36.554,11.782-74.15,20.455-111.741,8.086-35.036,18.014-71.314,29.514-107.818,10.682-33.923,22.636-68.023,36.55-104.25,12.341-32.132,25.936-65.173,41.568-101.018,28.941-66.368,60.036-131.132,90.1-193.764l.014-.027c74.773-155.759,145.4-302.877,170.8-447.986,3.218-18.4,5.686-36.682,7.332-54.345,1.7-18.259,2.582-36.514,2.618-54.25.032-18.291-.836-36.541-2.577-54.241a516.613,516.613,0,0,0-22.641-108.777,547.187,547.187,0,0,0-21.027-54.7,602.038,602.038,0,0,0-28.132-55.023c-10.677-18.509-22.7-37.155-35.723-55.423-13.041-18.3-25.332-36.9-36.523-55.3-10.945-17.982-21.182-36.309-30.423-54.473-9.009-17.7-17.332-35.759-24.736-53.655-7.209-17.414-13.764-35.186-19.477-52.832-5.55-17.136-10.473-34.636-14.627-52.014-4.032-16.85-7.468-34.073-10.209-51.2-2.655-16.555-4.745-33.5-6.209-50.377-1.414-16.3-2.3-32.973-2.623-49.568-.318-15.877-.141-32.282.532-48.75.641-15.659,1.745-31.791,3.277-47.945,2.823-29.8,7.1-60.368,13.091-93.459,11.068-61.214,26.055-120.186,40.55-177.214l.009-.041c23.273-91.568,45.255-178.059,46.982-258.845a419.68,419.68,0,0,0-2.786-59.568,334.28,334.28,0,0,0-12.123-57.523,307.969,307.969,0,0,0-23.218-55.486,334.98,334.98,0,0,0-36.077-53.455c-44.35-53.968-87.491-106.7-127.755-158.464-45.809-58.9-82.8-110.068-113.1-156.441-17.327-26.518-32.918-52.191-46.341-76.309-14.364-25.809-26.818-50.845-37.014-74.423A556.333,556.333,0,0,1,1209,681.263,376.436,376.436,0,0,1,1196.287,612H2528.25Z" transform="translate(-3020.5 -612.5)" fill="#69ffcd" opacity="0.08"/><path d="M-269.053,546.821c142.281,480.784,522.84,798.116,602.025,1151.056S217.9,2332.622,163.245,2964.365s524.037,946.99,608.315,1818.166-625.638,1758.7-608.315,3005.64c20.508,1476.165,757.406,1944.1,710.887,3238.572C808.767,12845.624,108.764,13249.654,90.578,14091.6,68.257,15125,636.145,16069.914,632.849,17608.678c87.018,2276.5-656.03,3342.93-646.173,5860.926,37.042,2306.941,780.726,5362.508,744.329,7008.443-47.049,2127.664-1000.058,4445.18-1000.058,4445.18Z" transform="translate(-2480 76.772)" fill="#809fff" opacity="0.04"/></g></svg>