<svg xmlns="http://www.w3.org/2000/svg" xmlns:xlink="http://www.w3.org/1999/xlink" width="730.438" height="657" viewBox="0 0 730.438 657"><defs><linearGradient id="a" x1="1.321" y1="0.206" x2="-0.609" y2="0.827" gradientUnits="objectBoundingBox"><stop offset="0.01"/><stop offset="0.13" stop-opacity="0.69"/><stop offset="0.25" stop-opacity="0.322"/><stop offset="1" stop-opacity="0"/></linearGradient><linearGradient id="b" x1="0.807" y1="0.525" x2="-0.656" y2="0.406" xlink:href="#a"/><linearGradient id="c" x1="0.081" y1="-1.148" x2="1.339" y2="3.8" xlink:href="#a"/><linearGradient id="d" x1="1.535" y1="0.451" x2="-0.421" y2="0.55" xlink:href="#a"/><linearGradient id="e" x1="-0.963" y1="-0.416" x2="4.236" y2="2.839" xlink:href="#a"/><linearGradient id="f" x1="1.23" y1="0.098" x2="-0.739" y2="1.029" xlink:href="#a"/><linearGradient id="g" x1="-1.52" y1="0.608" x2="3.993" y2="0.35" xlink:href="#a"/><linearGradient id="h" x1="-0.918" y1="0.638" x2="2.862" y2="0.27" xlink:href="#a"/><linearGradient id="i" x1="0.481" y1="0.95" x2="0.514" y2="-0.096" gradientUnits="objectBoundingBox"><stop offset="0.01" stop-color="#fff"/><stop offset="0.13" stop-color="#fff" stop-opacity="0.69"/><stop offset="0.15" stop-color="#fff" stop-opacity="0.612"/><stop offset="0.2" stop-color="#fff" stop-opacity="0.471"/><stop offset="0.25" stop-color="#fff" stop-opacity="0.341"/><stop offset="0.3" stop-color="#fff" stop-opacity="0.231"/><stop offset="0.36" stop-color="#fff" stop-opacity="0.149"/><stop offset="0.44" stop-color="#fff" stop-opacity="0.078"/><stop offset="0.52" stop-color="#fff" stop-opacity="0.031"/><stop offset="0.65" stop-color="#fff" stop-opacity="0.012"/><stop offset="1" stop-color="#fff" stop-opacity="0"/></linearGradient></defs><g transform="translate(0.005 0.02)"><path d="M770.391,523.671c-3.27,34.035-30.516,60.9-59.228,79.437-18.044,11.706-37.779,21.539-58.867,26.073-29.727,6.36-60.581,1.895-90.962,3.113-74.159,2.977-144.777,39.763-218.935,36.786-49.958-2.03-97.615-22.148-140.424-47.973-18.2-10.984-36.493-23.84-46.214-42.853-6.112-11.909-8.39-25.419-13.691-37.711C121.592,493.177,60.492,471.8,44.343,422.807c-9.766-29.614-.293-62,11.818-90.736,12.9-30.674,29.321-60.739,54.6-82.436A198.889,198.889,0,0,1,133.748,232.9c23.817-15.292,49.62-28.035,66.919-50.183,20.434-26.163,25.4-61.032,40.6-90.6C269.007,37.827,334.234,5.484,394.274,16.2c14.931,2.661,30.245-3.338,45.4-3.947A1184.713,1184.713,0,0,1,603.737,24.113C647.019,30.271,694.811,42,718.155,78.943c12.856,20.3,15.991,45.244,17.209,69.287A538.732,538.732,0,0,1,723.478,290.8c-.744,3.451-1.534,6.9-2.255,10.352-5.864,25.4-12.067,51.221-7.511,76.685C723.027,429.912,775.443,470.961,770.391,523.671Z" transform="translate(-40.3 -12.27)" fill="#68e1fd" opacity="0.18" style="isolation:isolate"/><ellipse cx="193.359" cy="55.867" rx="193.359" ry="55.867" transform="translate(189.327 504.409)" fill="#282328" opacity="0.16"/><path d="M230.181,257.614h-9.789a48.74,48.74,0,0,1-48.763-48.74V153.21h71.9Z" transform="translate(124.582 164.697)" fill="#68e1fd"/><path d="M243.543,153.21l-13.375,104.4H220.38a48.74,48.74,0,0,1-48.74-48.763V153.21Z" transform="translate(124.595 164.697)" fill="url(#a)"/><path d="M185.193,69.84h66.6V149.8H120.71V134.323A64.483,64.483,0,0,1,185.193,69.84Z" transform="translate(151.55 87.705)" fill="#68e1fd"/><path d="M292.109,82.11v79.955H161V146.593A64.483,64.483,0,0,1,225.506,82.11Z" transform="translate(111.237 75.435)" fill="url(#b)"/><path d="M242.125,142.418s12.924-15.45,24.607-9.924-5.842,33.02-6.766,42.673-12.743,23.005-21.81,18.044S242.125,142.418,242.125,142.418Z" transform="translate(204.074 137.191)" fill="#ffbbab"/><path d="M293.875,143.383s-2.616,137.965-34.035,161.106-62.25,17.435-62.25,17.435V102.018S280.658,99.312,293.875,143.383Z" transform="translate(157.173 100.388)" fill="#ffbbab"/><path d="M305.885,113.264c-2.255-.226-4.082,2.255-4.127,4.511a14.5,14.5,0,0,0,2.255,6.473c5.819,11.931,7.466,25.351,7.082,38.478-.361,12.134-4.308,24.81-3.225,36.809.293,3.361.97,6.969-.632,9.946a20.3,20.3,0,0,1-4.827,4.985c-6.428,5.8-9.405,14.412-12.134,22.554-.947-6.067.2-12.247,1.06-18.314s1.443-12.2,1.714-18.314c.158-3.428,2.052-14.48,0-17.186-2.481-3.338-7.939.812-11.548,2.03-1.218.406-14.886,3.879-14.931,3.5L265.265,169.9l-34.644,7.556c.2-3.857,0-8.638-3.586-10.285a9.856,9.856,0,0,0-6.045,0L199.7,171.3c2.436-7.172-3.406-19.6-3.947-27.065-1.015-13.939,3.541-23.254,3.361-37.215,0-7.42-3.767-30.7,3.97-34.553S229.426,75.17,237.23,77.2a173.262,173.262,0,0,1,34.35,13.059A169.61,169.61,0,0,1,305.885,113.264Z" transform="translate(154.681 61.828)" fill="#42202e"/><rect width="62.949" height="21.494" transform="translate(291.814 234.974)" fill="#68e1fd"/><rect width="62.949" height="21.494" transform="translate(291.814 234.974)" fill="url(#c)"/><path d="M129.747,108.93h77.61V181.1h-77.61a12.337,12.337,0,0,1-12.337-12.337v-47.5A12.337,12.337,0,0,1,129.747,108.93Z" transform="translate(147.407 136.78)" fill="#68e1fd"/><path d="M247.657,121.2v72.174h-77.61a12.337,12.337,0,0,1-12.337-12.36V133.537A12.337,12.337,0,0,1,170.047,121.2Z" transform="translate(107.107 124.51)" fill="url(#d)"/><path d="M164.355,175.3h-12.4l9.044-42.786h3.361Z" transform="translate(190.769 166.383)" fill="#68e1fd"/><rect width="28.238" height="40.237" transform="translate(326.525 349.032)" fill="#68e1fd"/><path d="M210,143.3a11.547,11.547,0,0,0,6.766,2.391,129.009,129.009,0,0,0,27.674.383" transform="translate(172.753 152.255)" fill="none" stroke="#42202e" stroke-miterlimit="10" stroke-width="1"/><path d="M257.961,130.886c-6.451.857-12.9,1.849-19.307,3.022a69.757,69.757,0,0,0-15.134,4.06c-2.977,1.286-9.36,6.405-12.653,5.12s-1.241-5.616,1.038-6.766c3.992-2.255,9.653-2.774,14.051-3.609a127.188,127.188,0,0,1,14.886-1.849,120.447,120.447,0,0,1,17.119.023Z" transform="translate(171.683 136.273)" fill="#42202e"/><path d="M197.59,179.1a130.3,130.3,0,0,0,25.735-3.27" transform="translate(157.173 193.095)" fill="none" stroke="#42202e" stroke-linecap="round" stroke-linejoin="round" stroke-width="1"/><path d="M207.323,154.25l1.241,8.413a12.608,12.608,0,0,1,0,5.03,9.022,9.022,0,0,1-2.752,4.2,14.954,14.954,0,0,1-8.052,3.789" transform="translate(157.387 166.002)" fill="none" stroke="#42202e" stroke-linecap="round" stroke-linejoin="round" stroke-width="1"/><circle cx="16.374" cy="16.374" r="16.374" transform="translate(305.031 266.821)" fill="url(#e)"/><circle cx="9.992" cy="9.992" r="9.992" transform="translate(311.414 273.204)" fill="#68e1fd"/><path d="M241.948,82.11v2.842c-67.415.744-69.671,77.113-69.671,77.113H161V146.593A64.483,64.483,0,0,1,225.506,82.11Z" transform="translate(111.237 75.435)" fill="url(#f)"/><path d="M177.174,121.2v72.174h-7.127a12.337,12.337,0,0,1-12.337-12.36V133.537A12.337,12.337,0,0,1,170.047,121.2Z" transform="translate(107.107 124.51)" fill="url(#g)"/><path d="M230.169,245.976v11.638H220.38a48.74,48.74,0,0,1-48.74-48.763V153.21h51.514L222,158.691H180.436s-6.405,74.813,18.269,81.2S230.169,245.976,230.169,245.976Z" transform="translate(124.595 164.697)" fill="url(#h)"/><path d="M253.98,139.05a5.661,5.661,0,0,1,4.827-2.255,4.263,4.263,0,0,1,3.09,3.045,10.464,10.464,0,0,1,.158,4.511,83.81,83.81,0,0,1-6.225,20.3c-2.436,5.977-5.052,12.247-10.149,16.217-1.94,1.489-4.691,2.594-6.766,1.263-6.225-4.06-2.391-16.713,1.714-20.885,2.955-2.977,5.774-4.308,7.375-8.39C249.988,147.778,250.1,143.245,253.98,139.05Z" transform="translate(204.94 144.078)" fill="#e0a194"/><ellipse cx="173.827" cy="41.004" rx="173.827" ry="41.004" transform="translate(208.859 490.808)" fill="#68e1fd"/><path d="M671.459,290.842c-.744,3.451-1.534,6.9-2.255,10.352L550.974,545.12a41.342,41.342,0,0,1-23.005,20.84c-47.229,17.3-190.878,60.6-315.9,1.782a41.274,41.274,0,0,1-21.336-23.772L81.73,232.9c23.817-15.292,49.62-28.035,66.919-50.183,20.434-26.163,25.4-61.032,40.6-90.6C216.989,37.827,282.216,5.484,342.256,16.2c14.931,2.661,30.245-3.338,45.4-3.947A1184.714,1184.714,0,0,1,551.718,24.113C595,30.271,642.793,42,666.137,78.943c12.856,20.3,15.991,45.244,17.209,69.287a538.733,538.733,0,0,1-11.886,142.611Z" transform="translate(11.718 -12.27)" fill="url(#i)"/><path d="M361.385,104.792a28.486,28.486,0,0,1-55.371,9.473,28.148,28.148,0,0,1-1.624-9.473,28.509,28.509,0,0,1,56.995,0Z" transform="translate(291.254 69.127)" fill="#68e1fd" opacity="0.82" style="isolation:isolate"/><path d="M352.792,92.862a28.486,28.486,0,0,1-46.778,21.833,28.148,28.148,0,0,1-1.624-9.473,28.509,28.509,0,0,1,46.778-21.855,28.172,28.172,0,0,1,1.624,9.5Z" transform="translate(291.254 68.697)" fill="#fff" opacity="0.55" style="isolation:isolate"/><path d="M313.862,114.4a14.232,14.232,0,0,1-27.674,4.736,13.848,13.848,0,0,1-.812-4.736,14.254,14.254,0,1,1,28.486,0Z" transform="translate(267.37 97.365)" fill="#68e1fd" opacity="0.82" style="isolation:isolate"/><path d="M309.591,107.9A14.254,14.254,0,0,1,286.2,118.819a13.846,13.846,0,0,1-.812-4.736,14.254,14.254,0,0,1,23.389-10.939,14.435,14.435,0,0,1,.812,4.759Z" transform="translate(267.401 97.683)" fill="#fff" opacity="0.55" style="isolation:isolate"/><path d="M201.489,60.955a20.434,20.434,0,1,1-7.33-15.788,20.434,20.434,0,0,1,7.33,15.788Z" transform="translate(110.759 23.086)" fill="#68e1fd" opacity="0.82" style="isolation:isolate"/><path d="M195.309,52.03a20.434,20.434,0,0,1-33.538,15.653,20.437,20.437,0,0,1,32.388-22.464A20,20,0,0,1,195.309,52.03Z" transform="translate(110.759 23.146)" fill="#fff" opacity="0.55" style="isolation:isolate"/><path d="M309.851,171.91a14.66,14.66,0,1,1-14.638-14.66,14.66,14.66,0,0,1,14.638,14.66Z" transform="translate(261.3 169.768)" fill="#68e1fd" opacity="0.82" style="isolation:isolate"/><path d="M305.417,165.525A14.66,14.66,0,0,1,281.374,176.8,14.66,14.66,0,0,1,295.2,157.27a14.435,14.435,0,0,1,9.383,3.428,13.917,13.917,0,0,1,.834,4.827Z" transform="translate(261.313 169.794)" fill="#fff" opacity="0.55" style="isolation:isolate"/><path d="M122.6,178.694a20.412,20.412,0,0,1-39.7,6.766,19.871,19.871,0,0,1-1.173-6.766,20.434,20.434,0,0,1,40.869,0Z" transform="translate(11.718 171.037)" fill="#68e1fd" opacity="0.82" style="isolation:isolate"/><path d="M116.441,169.8A20.411,20.411,0,0,1,82.9,185.454a19.87,19.87,0,0,1-1.173-6.766,20.457,20.457,0,0,1,33.538-15.675A20.1,20.1,0,0,1,116.441,169.8Z" transform="translate(11.718 171.065)" fill="#fff" opacity="0.55" style="isolation:isolate"/><path d="M100.794,143.6A10.217,10.217,0,0,1,80.946,147a10.1,10.1,0,0,1-.586-3.406,10.217,10.217,0,0,1,20.434,0Z" transform="translate(9.998 139.801)" fill="#68e1fd" opacity="0.82" style="isolation:isolate"/><path d="M97.727,139.224a10.24,10.24,0,0,1-16.78,7.826,10.1,10.1,0,0,1-.586-3.406,10.217,10.217,0,0,1,16.78-7.826A10.014,10.014,0,0,1,97.727,139.224Z" transform="translate(9.998 139.866)" fill="#fff" opacity="0.55" style="isolation:isolate"/><path d="M141.874,124.075a10.217,10.217,0,0,1-19.848,3.406,10.013,10.013,0,0,1-.586-3.406,10.217,10.217,0,0,1,20.434,0Z" transform="translate(61.572 115.32)" fill="#68e1fd" opacity="0.82" style="isolation:isolate"/><path d="M138.784,119.654a10.195,10.195,0,0,1-16.758,7.826,10.013,10.013,0,0,1-.586-3.406,10.217,10.217,0,0,1,10.217-10.195,10.06,10.06,0,0,1,6.541,2.368A10.015,10.015,0,0,1,138.784,119.654Z" transform="translate(61.572 115.32)" fill="#fff" opacity="0.55" style="isolation:isolate"/><g transform="translate(108.673 280.06)" opacity="0.82" style="isolation:isolate"><path d="M72.2,187.651l-2.143-.767L90.83,128.558l-42.65-2.143.113-2.255,45.7,2.3Z" transform="translate(-48.18 -124.16)" fill="#68e1fd"/></g><path d="M97.449,147.909H67.79v-2.255H95.712L105.5,108.8l2.188.586Z" transform="translate(85.112 136.617)" fill="#68e1fd"/><path d="M265.382,220.3a6.451,6.451,0,0,1,9.022,9.022,5.933,5.933,0,0,1-1.556,1.534,6.451,6.451,0,1,1-7.353-10.6Z" transform="translate(238.94 247.342)" fill="#68e1fd" opacity="0.82" style="isolation:isolate"/><path d="M264.263,221.633a6.45,6.45,0,0,1,10.082,5.887,5.932,5.932,0,0,1-1.556,1.534,6.428,6.428,0,0,1-10.082-5.887,5.932,5.932,0,0,1,1.556-1.534Z" transform="translate(238.886 249.17)" fill="#fff" opacity="0.55" style="isolation:isolate"/><path d="M263.3,199.2a6.428,6.428,0,0,1,8.886,9.022,5.931,5.931,0,0,1-1.556,1.534,6.451,6.451,0,0,1-7.33-10.6Z" transform="translate(236.468 221.009)" fill="#68e1fd" opacity="0.82" style="isolation:isolate"/><path d="M262.205,200.656a6.451,6.451,0,0,1,9.022,1.6,6.54,6.54,0,0,1,1.105,4.263,5.931,5.931,0,0,1-1.556,1.534,6.451,6.451,0,0,1-10.082-5.887,5.842,5.842,0,0,1,1.511-1.511Z" transform="translate(236.365 222.782)" fill="#fff" opacity="0.55" style="isolation:isolate"/><g transform="translate(511.381 419.063)" opacity="0.82" style="isolation:isolate"><path d="M227.474,237.936l-.744-2.12,42.447-15.36-14.818-23.817,40.124-10.849.586,2.165-37.192,10.059,14.683,23.614Z" transform="translate(-226.73 -185.79)" fill="#68e1fd"/></g><path d="M257.7,200.606,247.848,186.4,225.5,194.471l-.767-2.143,23.975-8.638,10.849,15.63Z" transform="translate(282.14 230.637)" fill="#68e1fd"/><path d="M300.82,194.058a12.946,12.946,0,1,1-5.481,9.45,12.946,12.946,0,0,1,5.481-9.45Z" transform="translate(279.826 213.051)" fill="#68e1fd" opacity="0.82" style="isolation:isolate"/><path d="M298.445,196.865a12.9,12.9,0,0,1,20.186,11.773,12.9,12.9,0,0,1-23.3-8.593,12.587,12.587,0,0,1,3.112-3.18Z" transform="translate(279.833 216.627)" fill="#fff" opacity="0.55" style="isolation:isolate"/><g transform="translate(535.379 351.084)" opacity="0.82" style="isolation:isolate"><path d="M264.345,229.628l-26.975-46.3,30.088-12.9-7.511-13.69,1.962-1.083,8.706,15.878-30,12.856L266.307,228.5Z" transform="translate(-237.37 -155.65)" fill="#68e1fd"/></g><path d="M310.906,75.173a14.638,14.638,0,0,1-28.441,4.849,14.436,14.436,0,0,1-.834-4.872,14.66,14.66,0,1,1,29.321,0Z" transform="translate(262.68 48.292)" fill="#68e1fd" opacity="0.82" style="isolation:isolate"/><path d="M306.485,68.82a14.615,14.615,0,0,1-14.638,14.638,14.367,14.367,0,0,1-9.383-3.428,14.437,14.437,0,0,1-.835-4.872A14.66,14.66,0,0,1,305.673,63.88,14.683,14.683,0,0,1,306.485,68.82Z" transform="translate(262.68 48.285)" fill="#fff" opacity="0.55" style="isolation:isolate"/><g transform="translate(537.815 132.87)" opacity="0.82" style="isolation:isolate"><path d="M265.425,132.878,238.45,86.552l30.088-12.879-7.511-13.691,1.962-1.083L271.7,74.756l-30.02,12.879,25.689,44.116Z" transform="translate(-238.45 -58.9)" fill="#68e1fd"/></g></g></svg>