<svg xmlns="http://www.w3.org/2000/svg" xmlns:xlink="http://www.w3.org/1999/xlink" width="847.516" height="658" viewBox="0 0 847.516 658"><defs><linearGradient id="a" x1="0.4" y1="-1.198" x2="0.652" y2="3.336" gradientUnits="objectBoundingBox"><stop offset="0.01"/><stop offset="0.08" stop-opacity="0.69"/><stop offset="0.21" stop-opacity="0.322"/><stop offset="1" stop-opacity="0"/></linearGradient><linearGradient id="b" x1="-0.2" y1="0.661" x2="1.643" y2="0.277" xlink:href="#a"/><linearGradient id="c" x1="-0.366" y1="0.943" x2="1.495" y2="-0.022" xlink:href="#a"/><linearGradient id="d" x1="1.75" y1="0.234" x2="-2.039" y2="1.077" xlink:href="#a"/><linearGradient id="e" x1="-0.657" y1="0.66" x2="2.04" y2="0.357" xlink:href="#a"/><linearGradient id="f" x1="-0.974" y1="0.132" x2="2.995" y2="1.129" xlink:href="#a"/><linearGradient id="g" x1="-0.876" y1="1.129" x2="2.871" y2="-0.56" xlink:href="#a"/><linearGradient id="h" x1="0.731" y1="1.532" x2="0.196" y2="-0.986" xlink:href="#a"/><linearGradient id="i" x1="-1.202" y1="0.401" x2="2.596" y2="0.645" xlink:href="#a"/><linearGradient id="j" x1="-1.787" y1="0.304" x2="2.639" y2="0.698" xlink:href="#a"/><linearGradient id="k" x1="-1.786" y1="0.304" x2="2.641" y2="0.698" xlink:href="#a"/><linearGradient id="l" x1="-1.52" y1="0.445" x2="3.639" y2="0.586" xlink:href="#a"/><linearGradient id="n" x1="-0.803" y1="2.48" x2="1.787" y2="-1.45" xlink:href="#a"/><linearGradient id="o" x1="-0.805" y1="2.479" x2="1.788" y2="-1.451" xlink:href="#a"/><linearGradient id="p" x1="-0.107" y1="0.986" x2="1.277" y2="-0.087" xlink:href="#a"/><linearGradient id="q" x1="-2.175" y1="1.179" x2="4.071" y2="-0.355" xlink:href="#a"/><linearGradient id="r" x1="0.486" y1="0.949" x2="0.523" y2="-0.089" gradientUnits="objectBoundingBox"><stop offset="0.01" stop-color="#fff"/><stop offset="0.13" stop-color="#fff" stop-opacity="0.69"/><stop offset="0.15" stop-color="#fff" stop-opacity="0.612"/><stop offset="0.2" stop-color="#fff" stop-opacity="0.471"/><stop offset="0.25" stop-color="#fff" stop-opacity="0.341"/><stop offset="0.3" stop-color="#fff" stop-opacity="0.231"/><stop offset="0.36" stop-color="#fff" stop-opacity="0.149"/><stop offset="0.44" stop-color="#fff" stop-opacity="0.078"/><stop offset="0.52" stop-color="#fff" stop-opacity="0.031"/><stop offset="0.65" stop-color="#fff" stop-opacity="0.012"/><stop offset="1" stop-color="#fff" stop-opacity="0"/></linearGradient></defs><g transform="translate(0.006 0.042)"><path d="M853.476,580.254c-12.852,26.062-41.847,39.653-69.566,48.363a417.642,417.642,0,0,1-136.983,18.9c-57.229-1.7-113.653-15.2-170.882-16.725-95.74-2.553-189.309,28.324-284.937,32.175-50.221,1.948-104.9-5.508-140.812-40.683C2.135,575.06,5.516,494.88,32.25,432.927s71.895-114.19,100.89-175.181c14.6-30.719,24.92-63.23,39.205-94.083,21.584-46.482,52.774-89.314,94.509-119.071S361.43-.86,412.009,7.469c25.077,4.12,48.811,13.86,71.425,25.682,6.18,3.224,12.27,6.605,18.293,10.076,21.875,12.74,43.123,32.219,67.484,39.832,29.242,8.956,62.021,5.777,91.934,14.934,32.018,9.785,62.693,27.876,81.164,55.752,43.011,64.663,8.575,154.492,35.175,227.439,9.135,25.032,25.1,47.019,40.593,68.984,16.569,23.443,32.622,47.019,39.384,74.626C861.984,543.086,861.85,563.26,853.476,580.254Z" transform="translate(-12.92 -5.29)" fill="#68e1fd" opacity="0.18" style="isolation:isolate"/><path d="M201.423,247.12A518.268,518.268,0,0,0,68.067,274.951c-3.068,1.075-6.717,2.888-6.717,6.157s3.359,5.239,6.381,6.314c13.053,4.657,27.226,4.836,41.086,4.948,53.6.515,108.368.828,159.172-16.255,4.478-1.523,9.964-4.59,9.382-9.359s-6.359-6.359-11.016-6.986l-78.3-10.68" transform="translate(47.092 294.393)" fill="url(#a)"/><path d="M158.24,165.2a3.381,3.381,0,0,1-1.993.828c-4.478.4-11.8-5.732-14.33-7.725l-9.2-7.3c-5.889-4.657-11.419-12.27-5.6-19.256a7.044,7.044,0,0,1,.56-.627,8.264,8.264,0,0,1,1.926-1.5,8.172,8.172,0,0,1,5.015-1.008c3.985.493,7.031,3.806,9.516,7.03,4.814,6.269,8.956,13.009,13.21,19.7a15.673,15.673,0,0,1,2.239,4.881,5.127,5.127,0,0,1-1.343,4.971Z" transform="translate(125.518 147.488)" fill="#fff"/><path d="M156.247,164.675c-4.478.4-11.8-5.732-14.33-7.725l-9.2-7.3c-5.889-4.657-11.419-12.27-5.6-19.256a8.038,8.038,0,0,1,4.344-.694c4.03.493,7.053,3.806,9.516,7.03,4.814,6.292,8.956,13.009,13.21,19.726a14.868,14.868,0,0,1,2.239,4.859,5.889,5.889,0,0,1-.179,3.359Z" transform="translate(125.518 148.839)" fill="url(#b)"/><path d="M138.442,122.66a17.911,17.911,0,0,1,3.247,4.1l4.209,6.717a13.434,13.434,0,0,1,2.709,6.851,1.836,1.836,0,0,1-.4,1.321,1.993,1.993,0,0,1-.985.448,59.938,59.938,0,0,1-14.24,1.791,10.815,10.815,0,0,1-4.814-1.075,11.2,11.2,0,0,1-4.747-6.874c-1.3-3.784-5.038-11.643-.851-14.777C126.352,118.428,135.061,119.727,138.442,122.66Z" transform="translate(120.552 136.468)" fill="#fff"/><path d="M138.7,122.626a17.911,17.911,0,0,1,3.247,4.1l4.209,6.717a13.434,13.434,0,0,1,2.709,6.851,1.836,1.836,0,0,1-.4,1.321,1.993,1.993,0,0,1-.985.448,59.938,59.938,0,0,1-14.24,1.791,10.815,10.815,0,0,1-4.791-.806,11.2,11.2,0,0,1-4.747-6.874c-1.3-3.784-5.015-11.643-.851-14.778C126.636,118.395,135.323,119.693,138.7,122.626Z" transform="translate(120.916 136.502)" fill="url(#c)"/><path d="M106.3,109.009a19.77,19.77,0,0,0,3.112,11.2,14.757,14.757,0,0,1,1.455,2.239,10.59,10.59,0,0,1,.269,5.8c-.694,4.68-1.478,9.65-4.635,13.188a2.1,2.1,0,0,0-.448.649c-.2.627.358,1.254.851,1.7,1.59,1.455,3.224,2.866,4.881,4.277a25.614,25.614,0,0,0,5.642,3.9,13.546,13.546,0,0,0,9.337.649,1.545,1.545,0,0,0,1.075-.717,1.634,1.634,0,0,0,0-.985,121.961,121.961,0,0,1-1.9-12.4,9.649,9.649,0,0,1,0-2.664,13.991,13.991,0,0,1,.784-2.239,25.95,25.95,0,0,0,1.343-6.9,40.436,40.436,0,0,0-1.142-14.486,25.5,25.5,0,0,0-7.5-12.359c-2.552-2.239-7.389-4.7-10.568-2.1a6.493,6.493,0,0,0-1.635,3.694,33.226,33.226,0,0,0-.918,7.568Z" transform="translate(102.428 107.936)" fill="#fff"/><path d="M106.3,109.009a19.77,19.77,0,0,0,3.112,11.2,14.757,14.757,0,0,1,1.455,2.239,10.59,10.59,0,0,1,.269,5.8c-.694,4.68-1.478,9.65-4.635,13.188a2.1,2.1,0,0,0-.448.649c-.2.627.358,1.254.851,1.7,1.59,1.455,3.224,2.866,4.881,4.277a25.614,25.614,0,0,0,5.642,3.9,13.546,13.546,0,0,0,9.337.649,1.545,1.545,0,0,0,1.075-.717,1.634,1.634,0,0,0,0-.985,121.961,121.961,0,0,1-1.9-12.4,9.649,9.649,0,0,1,0-2.664,13.991,13.991,0,0,1,.784-2.239,25.95,25.95,0,0,0,1.343-6.9,40.436,40.436,0,0,0-1.142-14.486,25.5,25.5,0,0,0-7.5-12.359c-2.552-2.239-7.389-4.7-10.568-2.1a6.493,6.493,0,0,0-1.635,3.694,33.226,33.226,0,0,0-.918,7.568Z" transform="translate(102.428 107.936)" fill="url(#d)"/><path d="M104.85,105.274a9.986,9.986,0,0,1,1.523-4.881l2.754-5.262a17.777,17.777,0,0,1,2.373-3.717,12.068,12.068,0,0,1,6.314-3.4,37.011,37.011,0,0,1,11.016-.425,28.5,28.5,0,0,1,5.844.828,19.031,19.031,0,0,1,11.755,11.8,46.214,46.214,0,0,1,2.239,16.994,55.306,55.306,0,0,1-.582,8.6,48.609,48.609,0,0,1-4.478,12.919,23.487,23.487,0,0,1-3.56,5.777,8.464,8.464,0,0,1-13.434,0,24.338,24.338,0,0,1-4.321-7.232,20.017,20.017,0,0,1-2.239-8.575,28.568,28.568,0,0,0,.336-5.15,12.181,12.181,0,0,0-2.732-5.374,19.211,19.211,0,0,0-4.724-5.06,34.347,34.347,0,0,1-4.836-3.672C106.91,108.185,104.94,107.625,104.85,105.274Z" transform="translate(100.99 96.446)" fill="#fff"/><path d="M167.475,193.291a33.921,33.921,0,0,1-1.187,13.434,2.844,2.844,0,0,1-.873,1.388,3.381,3.381,0,0,1-2.1.4,91.8,91.8,0,0,0-14.464.761c-2.844.381-5.665.9-8.508,1.321-1.746.269-3.493.493-5.239.627a51.835,51.835,0,0,1-16.614-1.433,4.479,4.479,0,0,1-1.634-.672,4.859,4.859,0,0,1-1.388-1.948l-11.2-22.972a108.6,108.6,0,0,1-5.53-12.718A52.123,52.123,0,0,1,96.05,157.8a50.87,50.87,0,0,1,.179-8.262,4.478,4.478,0,0,1,4.612-5.015,53.063,53.063,0,0,0,7.792-1.411,9.986,9.986,0,0,0,6.135-4.657c1.679-3.247.627-7.232-.873-10.568a13.972,13.972,0,0,0-4.321-5.911c-1.187-.828-2.8-1.97-2.239-3.269a2.239,2.239,0,0,1,.828-.9c4.657-3.269,9.381-1.276,13.121,2.015a20.151,20.151,0,0,0,15.673,4.478c3.2-.4,1.881-3.515,1.7-5.978,2.62.739,5.195,1.612,7.747,2.552a21.965,21.965,0,0,1,6.717,3.538,24.182,24.182,0,0,1,4.344,5.62c1.276,2.015,2.53,4.03,3.65,6.113C170.52,153.885,166.96,174.036,167.475,193.291Z" transform="translate(89.974 132.112)" fill="#fff"/><path d="M140.288,193.129c-1.746.269-3.493.493-5.239.627a51.833,51.833,0,0,1-16.614-1.433,4.477,4.477,0,0,1-1.634-.672,4.858,4.858,0,0,1-1.388-1.948l-11.2-22.972a108.588,108.588,0,0,1-5.53-12.718A52.124,52.124,0,0,1,96,140.4a12.472,12.472,0,0,1,6.56-2.463,47.512,47.512,0,0,0,10.277-2.239c1.254-.448,11.2-4.1,11.2-5.508.672,4.792-3.985,8.464-7.993,11.2a7.03,7.03,0,0,0-2.911,2.978,7.232,7.232,0,0,0,0,4.075,287.206,287.206,0,0,0,7.926,29.107,20.263,20.263,0,0,0,4.03,7.949C129.093,189.681,135.519,190.039,140.288,193.129Z" transform="translate(90.024 149.515)" fill="url(#e)"/><path d="M99.836,184.143a17.33,17.33,0,0,1-3.6,5.821,6.113,6.113,0,0,1-6.336,1.567,4.881,4.881,0,0,1-1.634-1.187,11.867,11.867,0,0,1-2.038-7.7,168.532,168.532,0,0,1,5.329-41.355c.918-3.56,1.59-9.9,5.15-11.934a14.331,14.331,0,0,1,5.172-.448c4.478.157,10.277,1.1,10.411,2.552C114.076,149.64,107.292,167.485,99.836,184.143Z" transform="translate(77.859 147.843)" fill="#fff"/><path d="M93.343,183.449a16.971,16.971,0,0,1-3.6,5.821,6.917,6.917,0,0,1-1.478,1.075,11.867,11.867,0,0,1-2.038-7.7,168.532,168.532,0,0,1,5.329-41.355c.918-3.56,1.59-9.9,5.15-11.934a14.331,14.331,0,0,1,5.172-.448c2.239.47,3.829,1.075,3.918,1.858C107.606,148.946,100.844,166.79,93.343,183.449Z" transform="translate(77.859 147.843)" fill="url(#f)"/><path d="M103.544,118.675a16.949,16.949,0,0,0-8.575,10.747,16.77,16.77,0,0,0,1.411,13.837,13.277,13.277,0,0,0,16.524,4.478,13.905,13.905,0,0,0,2.732-1.836,15.807,15.807,0,0,0,3.65-18.763C115.971,120.69,111.806,114.846,103.544,118.675Z" transform="translate(87.652 133.737)" fill="#fff"/><path d="M103.544,118.675a16.949,16.949,0,0,0-8.575,10.747,16.77,16.77,0,0,0,1.411,13.837,13.277,13.277,0,0,0,16.524,4.478,13.905,13.905,0,0,0,2.732-1.836,15.807,15.807,0,0,0,3.65-18.763C115.971,120.69,111.806,114.846,103.544,118.675Z" transform="translate(87.652 133.737)" fill="url(#g)"/><path d="M110.268,151.028a7.59,7.59,0,0,0,4.948-4.478,39.3,39.3,0,0,0,4.053-9.785,13.053,13.053,0,0,0-1.59-10.187,19.725,19.725,0,0,0-8.128-5.71,21.158,21.158,0,0,0-7.523-2.418,13.188,13.188,0,0,0-12.292,8.508,23.734,23.734,0,0,0,0,15.673,132.328,132.328,0,0,0,6.247,14.71c1.1,2.485,5.911-2.239,6.516-2.709A28.59,28.59,0,0,1,110.268,151.028Z" transform="translate(80.615 134.969)" fill="#fff"/><path d="M98.384,155.35a17.061,17.061,0,0,0-5.933-.246,7.389,7.389,0,0,0-4.9,2.956,5.866,5.866,0,0,0-.985,3.224,3.269,3.269,0,0,0,1.187,2.664,3.6,3.6,0,0,0,1.926.515,8.956,8.956,0,0,0,6.269-1.993,6,6,0,0,0,1.97-6.068" transform="translate(78.326 180.196)" fill="#fff"/><path d="M187.974,136.606a8.02,8.02,0,0,1-.2.784,31.189,31.189,0,0,1-9.605,13.21,99.859,99.859,0,0,1-21.4,15.024c-5.687,2.978-13.568,5.53-18.315-.336l-.381-.493c-4.3-5.889,1.455-10.479,6.2-13.591,11.732-7.747,25.838-10.613,37.951-17.621,1.478-.851,3.4-1.769,4.814-.806A3.627,3.627,0,0,1,187.974,136.606Z" transform="translate(140.272 152.211)" fill="#fff"/><path d="M186.934,134.26a8.02,8.02,0,0,1-.2.784,31.189,31.189,0,0,1-9.605,13.21,99.859,99.859,0,0,1-21.4,15.024c-5.687,2.978-13.568,5.53-18.315-.336-.269-4.142,4.053-7.456,7.725-9.9,11.71-7.747,25.816-10.613,38.063-17.6a6.2,6.2,0,0,1,3.739-1.187Z" transform="translate(141.313 154.557)" fill="url(#h)"/><path d="M161.025,138.239c.694-4.165,2.038-8.71,5.665-10.859a.84.84,0,0,1,1.187.515,2.06,2.06,0,0,1-.134,1.455c-.515,1.433-1.433,2.664-2.038,4.075a4.836,4.836,0,0,0-.112,4.366A23.263,23.263,0,0,0,176.161,124.8a5.508,5.508,0,0,1,.918-2.015,1.657,1.657,0,0,1,1.97-.515,46.461,46.461,0,0,1-3.65,13.859l7.613-10.1a23.711,23.711,0,0,1-3.985,12.74,62.956,62.956,0,0,0,6.493-7.747c.9,4.859-2.508,9.337-5.71,13.121a23.244,23.244,0,0,1,5.933-4.366c-3.985,8.284-13.143,13.277-21.718,15.539-3.806,1.008-7.434.627-6.516-3.985S160.308,142.784,161.025,138.239Z" transform="translate(166.057 139.541)" fill="#fff"/><path d="M136.022,197.175a253.3,253.3,0,0,1-13.434,50.669,25.525,25.525,0,0,1-5.127,9.449,10.857,10.857,0,0,1-2.082,1.679,8.441,8.441,0,0,1-7.747.94c-4.277-1.881-5.418-7.277-5.844-11.889a233.039,233.039,0,0,1,.963-52.55c1.008-7.456,2.038-20.89,8.441-26.085a13.255,13.255,0,0,1,11.934-1.455,19.344,19.344,0,0,1,8.956,5.217C137.545,179.442,137.142,188.868,136.022,197.175Z" transform="translate(95.902 195.287)" fill="#fff"/><path d="M130.88,196.732A253.3,253.3,0,0,1,117.446,247.4a25.525,25.525,0,0,1-5.127,9.449,10.86,10.86,0,0,1-2.082,1.679c-3-2.373-3.918-6.963-4.3-10.949a231.741,231.741,0,0,1,.985-52.55c.985-7.456,2.015-20.89,8.441-26.084a8.822,8.822,0,0,1,2.62-1.455,19.344,19.344,0,0,1,8.956,5.217C132.4,179,132,188.425,130.88,196.732Z" transform="translate(101.044 195.73)" fill="url(#i)"/><path d="M109.74,205.206a10.39,10.39,0,0,0-4.478,1.612,9.763,9.763,0,0,0-3.359,3.045,7.165,7.165,0,0,0,1.366,8.732,9.09,9.09,0,0,0,8.956,1.769,6.565,6.565,0,0,0,1.9-.94,7.366,7.366,0,0,0,2.418-5.463C116.793,209.93,114.442,204.937,109.74,205.206Z" transform="translate(96.211 242.448)" fill="#fff"/><path d="M123.235,222.47c-.739,17.42-6.247,34.257-11.665,50.8l-5.911,17.912a15.673,15.673,0,0,1-3.941,7.277,5.6,5.6,0,0,1-6.919.56,2.106,2.106,0,0,1-.56-.537q3.023-30.764,6.18-61.618a57.431,57.431,0,0,1,3.2-16.1,23.218,23.218,0,0,1,9.516-10.434c3.314-1.634,6.717-1.254,8.956,3.515A18.114,18.114,0,0,1,123.235,222.47Z" transform="translate(87.844 247.731)" fill="#fff"/><path d="M117.056,221.986c-.716,17.42-6.224,34.257-11.643,50.8q-2.956,8.956-5.933,17.912a15.494,15.494,0,0,1-3.918,7.277,4.766,4.766,0,0,1-.761.56,2.1,2.1,0,0,1-.56-.537q3.023-30.764,6.18-61.618a57.431,57.431,0,0,1,3.2-16.1,23.218,23.218,0,0,1,9.516-10.434,8.24,8.24,0,0,1,2.8,3.515,18.092,18.092,0,0,1,1.119,8.62Z" transform="translate(87.844 248.215)" fill="url(#j)"/><path d="M142.8,218.405c-.717,17.42-6.2,34.257-11.643,50.8q-2.956,8.956-5.933,17.912A15.493,15.493,0,0,1,121.3,294.4a4.767,4.767,0,0,1-.761.56,2.509,2.509,0,0,1-.56-.537l6.113-61.707a56.671,56.671,0,0,1,3.224-16.1,22.972,22.972,0,0,1,9.516-10.434,8.419,8.419,0,0,1,2.8,3.515A18.382,18.382,0,0,1,142.8,218.405Z" transform="translate(119.736 243.668)" fill="url(#k)"/><path d="M104.68,250.222a7.411,7.411,0,0,0-3.717-2.06,6.716,6.716,0,0,0-4.3,1.388,7.321,7.321,0,0,0-3.6,4.008,7.859,7.859,0,0,0,.134,3.224l1.366,7.792a3.381,3.381,0,0,0,.918,2.127,3.313,3.313,0,0,0,1.545.582l7.232,1.388a40.994,40.994,0,0,0,10.165,1.1,6.068,6.068,0,0,0,3.291-.94,5.306,5.306,0,0,0,1.724-3,4.478,4.478,0,0,0,0-3.045c-1.008-2.239-2.732-.6-4.142-1.343-1.052-.56-1.814-2.933-2.552-3.918a49.259,49.259,0,0,0-8.06-7.3Z" transform="translate(86.248 295.68)" fill="#fff"/><path d="M130.523,246.584a7.456,7.456,0,0,0-3.739-2.082,6.717,6.717,0,0,0-4.277,1.388,7.232,7.232,0,0,0-3.6,4.008,7.859,7.859,0,0,0,0,3.224l1.366,7.814a3.359,3.359,0,0,0,.918,2.1,3.516,3.516,0,0,0,1.545.582l7.232,1.388a41.112,41.112,0,0,0,10.165,1.1,5.955,5.955,0,0,0,3.291-.94,5.172,5.172,0,0,0,1.724-3,4.478,4.478,0,0,0-.112-3.045c-1.008-2.239-2.709-.6-4.142-1.343-1.052-.56-1.814-2.933-2.552-3.918A47.965,47.965,0,0,0,130.523,246.584Z" transform="translate(118.194 291.146)" fill="#fff"/><path d="M152.266,244.083a26.218,26.218,0,0,1-2.642,10.411,9.2,9.2,0,0,1-8.956,4.948,7.049,7.049,0,0,1-1.343-.381c-3.717-1.411-5.8-5.822-7.187-9.717a229.588,229.588,0,0,1-11.956-51.184c-.873-7.456-3.179-20.733,1.769-27.361A9.516,9.516,0,0,1,126,167.733a19.524,19.524,0,0,1,17.017,1.635c6.963,4.7,8.956,13.927,9.852,22.278A253.434,253.434,0,0,1,152.266,244.083Z" transform="translate(118.37 194.502)" fill="#fff"/><path d="M144.932,244.632a26.04,26.04,0,0,1-2.642,10.434,11.2,11.2,0,0,1-2.956,3.314c-3.717-1.411-5.8-5.821-7.187-9.717a229.591,229.591,0,0,1-11.956-51.184c-.873-7.456-3.179-20.733,1.769-27.361a9.516,9.516,0,0,1,4.053-3.068,19.1,19.1,0,0,1,9.695,2.866c6.963,4.724,8.956,13.949,9.874,22.39a254.8,254.8,0,0,1-.649,52.326Z" transform="translate(118.383 195.185)" fill="url(#l)"/><path d="M135.484,201.546a10.389,10.389,0,0,0-4.478,1.612,9.986,9.986,0,0,0-3.359,3.045,7.21,7.21,0,0,0,1.366,8.732,9.091,9.091,0,0,0,8.956,1.769,6.157,6.157,0,0,0,1.926-.94,7.366,7.366,0,0,0,2.418-5.463C142.537,206.27,140.186,201.277,135.484,201.546Z" transform="translate(128.122 237.913)" fill="#fff"/><path d="M129.314,217.094a55.75,55.75,0,0,0-3.224,16.076L120,294.9a5.4,5.4,0,0,0,7.478,0,15.674,15.674,0,0,0,3.941-7.254l5.911-17.912c5.441-16.569,10.949-33.406,11.643-50.826a18.047,18.047,0,0,0-1.164-8.6C142.726,199.495,131.912,210.869,129.314,217.094Z" transform="translate(119.761 243.233)" fill="#fff"/><path d="M142.8,218.405c-.717,17.42-6.2,34.257-11.643,50.8q-2.956,8.956-5.933,17.912A15.493,15.493,0,0,1,121.3,294.4a4.767,4.767,0,0,1-.761.56,2.509,2.509,0,0,1-.56-.537l6.113-61.707a56.671,56.671,0,0,1,3.224-16.1,22.972,22.972,0,0,1,9.516-10.434,8.419,8.419,0,0,1,2.8,3.515A18.382,18.382,0,0,1,142.8,218.405Z" transform="translate(119.736 243.668)" fill="url(#k)"/><path d="M108.139,261.53a1.029,1.029,0,0,0-.739.2c-.246.224-.224.627-.4.918s-.918.425-1.455.358a14.689,14.689,0,0,1-4.478-1.1,5.329,5.329,0,0,1-2.956-3.269c-.649-2.485,1.075-5.508-.515-7.523a2.933,2.933,0,0,0-4.747.537,5.553,5.553,0,0,0-.246,2.911q.358,3.515.873,7.053a1.836,1.836,0,0,0,2.038,1.881l13.233,2.44a8.955,8.955,0,0,0,3.157.179c1.634-.291,3.538-2.4,1.858-3.9C112.707,261.239,109.505,261.507,108.139,261.53Z" transform="translate(85.699 298.142)" fill="url(#n)"/><path d="M134.3,257.931a1.03,1.03,0,0,0-.739.2c-.246.246-.224.649-.4.918a1.893,1.893,0,0,1-1.455.358,14.039,14.039,0,0,1-4.478-1.1,5.284,5.284,0,0,1-2.956-3.269c-.649-2.485,1.075-5.508-.515-7.523a2.956,2.956,0,0,0-4.747.537,5.553,5.553,0,0,0-.246,2.911c.246,2.351.515,4.7.851,7.053a2.53,2.53,0,0,0,.336,1.075,2.642,2.642,0,0,0,1.724.828l13.233,2.418a8.754,8.754,0,0,0,3.135.2c1.657-.291,3.56-2.418,1.858-3.9C138.867,257.64,135.665,257.909,134.3,257.931Z" transform="translate(118.112 293.702)" fill="url(#o)"/><path d="M132.392,192.477c1.276,1.142,2.732,2.664,2.239,4.321s-2.485,2.1-4.165,2.239A31.526,31.526,0,0,1,114.95,194a101.763,101.763,0,0,1-20.89-15.673c-4.724-4.635-9.695-11.6-4.993-18.069,4.3-5.889,10.456-1.814,14.867,1.724C114.906,170.445,121.981,182.983,132.392,192.477Z" transform="translate(79.09 183.081)" fill="#fff"/><path d="M134.538,196.726c-.47,1.567-2.373,2.1-4.008,2.239h0a31.638,31.638,0,0,1-15.539-5.06A101.585,101.585,0,0,1,94.1,178.231c-4.7-4.59-9.628-11.486-5.038-17.912v-.112c4.3-5.889,10.434-1.814,14.867,1.724,10.971,8.755,18.046,21.315,28.413,30.675C133.6,193.568,135.053,195.091,134.538,196.726Z" transform="translate(79.161 183.019)" fill="#fff"/><path d="M130.53,197.289h0a31.638,31.638,0,0,1-15.539-5.06A101.582,101.582,0,0,1,94.1,176.556c-4.7-4.59-9.628-11.486-5.038-17.912,3.6-.784,7.657,2.038,10.837,4.478,10.971,8.777,17.912,21.315,28.436,30.7A5.888,5.888,0,0,1,130.53,197.289Z" transform="translate(79.161 184.604)" fill="url(#p)"/><path d="M104.5,174.791a6.225,6.225,0,0,0,3,6.314c7.523,5.821,17.487,8.956,22.838,16.725a15.09,15.09,0,0,0,3.806,4.635,10.993,10.993,0,0,0,5.956,1.12,8.15,8.15,0,0,0,6.112-1.746,7.277,7.277,0,0,0,1.388-2.6,107.339,107.339,0,0,0,6.874-34.458c0-2.552-.224-5.6-2.463-6.717a7.187,7.187,0,0,0-3.963-.425L117.934,160.1c-3.538.291-8.531-.425-10.9,2.239S104.5,171.768,104.5,174.791Z" transform="translate(100.466 183.392)" fill="#fff"/><path d="M123.618,160.37c-1.209,1.612-2.485,3.179-3.806,4.7,6.4,1.612,10.658,7.657,13.434,13.658a43.639,43.639,0,0,1,4.478,18.4,2.552,2.552,0,0,1-.2,1.164,1.9,1.9,0,0,1-2.239.761,5.665,5.665,0,0,1-2.1-1.455,158.367,158.367,0,0,0-21.9-17.128,18.36,18.36,0,0,1-3.493-2.642,10.837,10.837,0,0,1-2.463-4.478c-1.075-3.672-.582-10.322,3.179-12.539S119.633,160.37,123.618,160.37Z" transform="translate(100.962 186.08)" fill="url(#q)"/><path d="M120.751,173.018c4.165-.6,8.956-.739,12.068,2.038a.9.9,0,0,1-.134,1.3,2.06,2.06,0,0,1-1.411.336A42.348,42.348,0,0,1,126.8,176a4.859,4.859,0,0,0-4.209,1.231A23.286,23.286,0,0,0,138.26,183.3a5.418,5.418,0,0,1,2.239.246,1.657,1.657,0,0,1,1.12,1.7,46.661,46.661,0,0,1-14.33.828l11.979,4.1a23.622,23.622,0,0,1-13.434.157,66.792,66.792,0,0,0,9.382,3.784c-4.344,2.239-9.673.493-14.24-1.388a22.594,22.594,0,0,1,5.956,4.3c-9.09-1.254-16.658-8.419-21.45-15.875-2.239-3.314-2.888-6.874,1.769-7.434S116.184,173.712,120.751,173.018Z" transform="translate(99.642 202.136)" fill="#fff"/><path d="M119.82,100.61a3.918,3.918,0,0,0-3.448.94,3.65,3.65,0,0,0-.313,2.575,18.974,18.974,0,0,0,.358,2.978,1.522,1.522,0,0,0,.2.56,1.142,1.142,0,0,0,.761.336,63.118,63.118,0,0,0,16.546,1.052,2.082,2.082,0,0,0,1.187-.313,2.239,2.239,0,0,0,.582-1.5,41.553,41.553,0,0,0,0-6.023c0-1.411-1.254-.828-2.239-.716-1.5.179-3.045.2-4.478.246C125.911,100.767,122.776,100.745,119.82,100.61Z" transform="translate(114.746 112.462)" fill="#68e1fd"/><ellipse cx="191.951" cy="55.46" rx="191.951" ry="55.46" transform="translate(385.767 517.265)" fill="#282328" opacity="0.16"/><ellipse cx="172.561" cy="40.705" rx="172.561" ry="40.705" transform="translate(405.157 503.763)" fill="#68e1fd"/><path d="M656.713,434.565l-47.736,98.517a41.131,41.131,0,0,1-22.838,20.756c-46.885,17.173-189.488,60.14-313.6,1.769a41,41,0,0,1-21.159-23.6L143.15,223.18c23.644-15.181,49.258-27.831,66.432-49.818,20.285-25.973,25.211-60.588,40.3-89.941s41.6-52.706,72.231-65.67c6.18,3.224,12.27,6.605,18.293,10.076,21.83,12.65,43.079,32.13,67.439,39.743,29.242,8.956,62.021,5.777,91.934,14.934,32.018,9.785,62.693,27.876,81.164,55.752,43.011,64.663,8.575,154.492,35.175,227.439C625.255,390.613,641.219,412.556,656.713,434.565Z" transform="translate(148.444 10.2)" fill="url(#r)"/><path d="M308.263,86.535a20.957,20.957,0,0,1-40.593,7.053,20.508,20.508,0,0,1-1.209-6.963A20.957,20.957,0,0,1,287.417,65.69a20.688,20.688,0,0,1,13.434,4.881,20.913,20.913,0,0,1,7.411,15.964Z" transform="translate(301.227 69.598)" fill="#68e1fd" opacity="0.82" style="isolation:isolate"/><path d="M301.948,77.579A20.957,20.957,0,0,1,281.1,98.492a20.711,20.711,0,0,1-13.434-4.9,20.51,20.51,0,0,1-1.209-6.963A20.957,20.957,0,0,1,287.417,65.69a20.688,20.688,0,0,1,13.434,4.881,20.509,20.509,0,0,1,1.1,7.008Z" transform="translate(301.227 69.598)" fill="#fff" opacity="0.55" style="isolation:isolate"/><path d="M244.795,156.389a9.225,9.225,0,0,1,12.718,12.986,8.956,8.956,0,0,1-2.239,2.239,9.225,9.225,0,1,1-10.5-15.158Z" transform="translate(269.133 179.963)" fill="#68e1fd" opacity="0.82" style="isolation:isolate"/><path d="M242.963,158.443a9.2,9.2,0,0,1,14.419,8.419,8.958,8.958,0,0,1-2.239,2.239,9.225,9.225,0,0,1-14.442-8.419A8.956,8.956,0,0,1,242.963,158.443Z" transform="translate(269.264 182.477)" fill="#fff" opacity="0.55" style="isolation:isolate"/><path d="M241.742,126.1a9.225,9.225,0,0,1,12.718,12.986,8.531,8.531,0,0,1-2.239,2.239,9.2,9.2,0,0,1-12.83-2.239,9.314,9.314,0,0,1-1.612-6.09,9.18,9.18,0,0,1,3.963-6.9Z" transform="translate(265.648 142.433)" fill="#68e1fd" opacity="0.82" style="isolation:isolate"/><path d="M240.041,128.153a9.2,9.2,0,0,1,14.419,8.419,8.529,8.529,0,0,1-2.239,2.239,9.2,9.2,0,0,1-12.83-2.239,9.314,9.314,0,0,1-1.612-6.09A8.956,8.956,0,0,1,240.041,128.153Z" transform="translate(265.648 144.947)" fill="#fff" opacity="0.55" style="isolation:isolate"/><g transform="translate(523.959 266.875)" opacity="0.82" style="isolation:isolate"><path d="M235.107,193.729l-1.1-3.023,60.7-21.965-21.159-34.055,57.364-15.516.828,3.112-53.177,14.4,21,33.742Z" transform="translate(-234.01 -119.17)" fill="#68e1fd"/></g><path d="M278.294,140.344l-14.106-20.33-31.951,11.553-1.1-3.045,34.279-12.382,15.516,22.39Z" transform="translate(286.393 143.951)" fill="#68e1fd"/><path d="M295.608,118.646a18.449,18.449,0,0,1,25.458,25.973,17.911,17.911,0,0,1-4.478,4.344,18.448,18.448,0,1,1-21.026-30.319Z" transform="translate(327.45 131.146)" fill="#68e1fd" opacity="0.82" style="isolation:isolate"/><path d="M292.2,122.732a18.427,18.427,0,0,1,28.861,16.837,17.912,17.912,0,0,1-4.478,4.344A18.449,18.449,0,0,1,287.7,127.1,18.784,18.784,0,0,1,292.2,122.732Z" transform="translate(327.453 136.195)" fill="#fff" opacity="0.55" style="isolation:isolate"/><g transform="translate(558.306 169.68)" opacity="0.82" style="isolation:isolate"><path d="M287.928,181.554l-38.578-66.23L292.362,96.9,281.614,77.3l2.821-1.545,12.449,22.7-42.922,18.382L290.7,179.919Z" transform="translate(-249.35 -75.76)" fill="#68e1fd"/></g><path d="M285.1,179.253a19.457,19.457,0,1,1-11.486,11.732A19.457,19.457,0,0,1,285.1,179.253Z" transform="translate(308.716 208.753)" fill="#68e1fd" opacity="0.82" style="isolation:isolate"/><path d="M279.206,183a19.435,19.435,0,0,1,24.987,11.464,19.211,19.211,0,0,1,0,13.277,19.435,19.435,0,0,1-30.607-21.427,19.368,19.368,0,0,1,5.62-3.314Z" transform="translate(308.744 213.429)" fill="#fff" opacity="0.55" style="isolation:isolate"/><path d="M300.159,195.259a9.74,9.74,0,0,1,9.628,16.591,9.426,9.426,0,0,1-2.843,1.634,9.717,9.717,0,1,1-6.717-18.226Z" transform="translate(334.81 229.4)" fill="#68e1fd" opacity="0.82" style="isolation:isolate"/><path d="M297.1,197.148a9.717,9.717,0,0,1,12.539,12.382,9.426,9.426,0,0,1-2.843,1.634A9.74,9.74,0,0,1,294.233,198.8a9.808,9.808,0,0,1,2.866-1.657Z" transform="translate(334.959 231.72)" fill="#fff" opacity="0.55" style="isolation:isolate"/><path d="M275.684,206.851A10.008,10.008,0,1,1,269.8,219.7a9.9,9.9,0,0,1,0-6.717A10.008,10.008,0,0,1,275.684,206.851Z" transform="translate(304.632 243.714)" fill="#68e1fd" opacity="0.82" style="isolation:isolate"/><path d="M272.661,209.626a8.822,8.822,0,1,1-2.866,8.508,9.9,9.9,0,0,1,0-6.717,9.786,9.786,0,0,1,2.866-1.791Z" transform="translate(304.632 245.282)" fill="#fff" opacity="0.55" style="isolation:isolate"/><g transform="translate(589.003 435.406)" opacity="0.82" style="isolation:isolate"><path d="M286.592,223.682l-15.4-16.188-6.986,8.06-1.142-1.008,8.083-9.337,15.36,16.143,22.122-26.913,1.187.963Z" transform="translate(-263.06 -194.44)" fill="#68e1fd"/></g></g></svg>