<svg xmlns="http://www.w3.org/2000/svg" width="720" height="518" viewBox="0 0 720 518"><path d="M97.479,374.89c0,10.152-5.621,17.731-13.895,17.731-2.785,0-5.4-1.515-6.29-3.223,0,0-1.5,5.958-1.815,7.116a21.389,21.389,0,0,1-2.541,5.464c-.494-.25-1.8-.8-3.073-1.321A22.3,22.3,0,0,1,70.322,395c.488-2.1,3.3-14.108,3.3-14.108A9.9,9.9,0,0,1,72.8,376.8c0-3.83,2.209-6.7,4.963-6.7,2.347,0,3.474,1.765,3.474,3.881,0,2.366-1.508,5.9-2.278,9.182a4,4,0,0,0,4.075,4.976c4.869,0,8.155-6.29,8.155-13.751,0-5.677-3.8-9.914-10.709-9.914A12.232,12.232,0,0,0,67.8,376.874a7.478,7.478,0,0,0,1.7,5.07,1.283,1.283,0,0,1,.369,1.446c-.125.476-.4,1.615-.532,2.078a.885.885,0,0,1-1.283.651c-3.6-1.483-5.276-5.433-5.276-9.889,0-7.348,6.171-16.161,18.4-16.161C91.007,360.069,97.479,367.216,97.479,374.89Z" transform="translate(-38.167 -157.233)" fill="#68e1fd"/><path d="M1097.309,140.508H1080.36a11.8,11.8,0,0,0-11.861,11.66v16.655a11.8,11.8,0,0,0,11.861,11.654h16.949a11.8,11.8,0,0,0,11.861-11.654V152.169A11.8,11.8,0,0,0,1097.309,140.508Zm-8.474,26.65a6.664,6.664,0,1,1,6.778-6.666A6.732,6.732,0,0,1,1088.835,167.159Zm11.016-14.99a2.514,2.514,0,1,1,1.789-.721,2.5,2.5,0,0,1-1.789.721Z" transform="translate(-416.124 -74.383)" fill="#68e1fd"/><path d="M506.425,518.884H315.8a22.624,22.624,0,0,1-12.129-3.481,20.283,20.283,0,0,1-9.6-17.037V55.39c0-11.321,9.747-20.531,21.728-20.531h44.8v4.075c0,8.7,7.512,15.771,16.745,15.771H440.5a17.245,17.245,0,0,0,9.942-3.085,15.69,15.69,0,0,0,6.8-12.686V34.859h49.18c11.981,0,21.728,9.21,21.728,20.531V498.366a20.03,20.03,0,0,1-7.651,15.622,22.44,22.44,0,0,1-14.077,4.895ZM315.8,36.106c-11.29,0-20.476,8.651-20.476,19.284V498.366a19.041,19.041,0,0,0,9.021,15.985,21.367,21.367,0,0,0,11.455,3.284H506.425a21.18,21.18,0,0,0,13.29-4.617,18.792,18.792,0,0,0,7.186-14.653V55.39c0-10.633-9.185-19.284-20.476-19.284H458.5v2.827a16.936,16.936,0,0,1-7.343,13.711A18.486,18.486,0,0,1,440.5,55.952H377.343c-9.924,0-18-7.634-18-17.019V36.106Z" transform="translate(-125.288 -34.859)" fill="#3f3d56"/><path d="M523.111,84.262V488.436a18.2,18.2,0,0,1-18.232,18.151h-164.7a18.166,18.166,0,0,1-18.232-18.151V84.262A18.2,18.2,0,0,1,340.177,66.1h24.646v3.149a14.985,14.985,0,0,0,15.011,14.959H463.6a14.927,14.927,0,0,0,8.9-2.918,13.938,13.938,0,0,0,1.477-1.235,14.886,14.886,0,0,0,4.632-10.806V66.1h26.269A18.192,18.192,0,0,1,523.111,84.262Z" transform="translate(-135.735 -46.546)" fill="#f2f2f2"/><path d="M505.244,515.8H395.164V397.283h110.08Zm-108.669-1.411H503.832v-115.7H396.575Z" transform="translate(-163.165 -171.387)" fill="#3f3d56"/><rect width="72.27" height="1.411" transform="translate(246.436 105.06)" fill="#3f3d56"/><rect width="72.27" height="1.411" transform="translate(246.436 124.209)" fill="#3f3d56"/><rect width="72.27" height="1.411" transform="translate(246.436 143.358)" fill="#3f3d56"/><path d="M367.474,782.624l-.672-.252c-.148-.056-14.839-5.684-21.721-18.447s-3.512-28.131-3.478-28.284l.159-.7.671.252c.148.056,14.839,5.684,21.721,18.447s3.512,28.131,3.478,28.284Zm-21.291-19.293c5.819,10.791,17.428,16.323,20.37,17.585.559-3.153,2.313-15.9-3.5-26.682s-17.427-16.32-20.37-17.585c-.56,3.154-2.313,15.9,3.5,26.682Z" transform="translate(-142.646 -298.432)" fill="#3f3d56"/><path d="M339.543,770.983c12.368,7.441,17.131,22.221,17.131,22.221s-15.289,2.716-27.657-4.725-17.131-22.221-17.131-22.221S327.175,763.542,339.543,770.983Z" transform="translate(-131.815 -309.967)" fill="#68e1fd"/><path d="M542.891,757.752,524.114,756.5l6.259,28.165,21.28-8.763Z" transform="translate(-196.883 -284.68)" fill="#ffb9b9"/><path d="M758.407,649.061,714.6,606.5l-25.036,19.4-49.445,59.46,5.633,8.762,60.086-40.683,40.683,53.2,38.805-19.4Z" transform="translate(-240.659 -228.564)" fill="#2f2e41"/><path d="M758.407,649.061,714.6,606.5l-25.036,19.4-49.445,59.46,5.633,8.762,60.086-40.683,40.683,53.2,38.805-19.4Z" transform="translate(-240.659 -228.564)" opacity="0.1"/><path d="M808.813,737.514,803.18,741.9l-45.69-15.647-10.64-4.381-21.28,4.381s0-17.525,20.029-16.9l20.654,5.007,24.41,1.878Z" transform="translate(-287.298 -288.852)" fill="#ffb9b9"/><path d="M768.8,753.1l-13.77,8.763H738.759l-75.733-28.165L552.243,753.722l-3.129-23.784L650.508,685.5l88.877,29.417Z" transform="translate(-206.598 -258.118)" fill="#2f2e41"/><path d="M772.915,614.207l-9.388,1.878-2.046-2.387a12.647,12.647,0,0,1-1.71-13.886h0l26.287-34.424s7.511-16.9,19.4-10.014-10.014,18.151-10.014,18.151L782.3,594.178l1.252,10.64Z" transform="translate(-299.589 -230.154)" fill="#ffb9b9"/><circle cx="24.41" cy="24.41" r="24.41" transform="translate(508.253 294.687)" fill="#ffb9b9"/><path d="M859.07,571.094l11.266,26.913,26.913-11.266s-8.763-21.28-8.763-21.906S859.07,571.094,859.07,571.094Z" transform="translate(-337.373 -234.249)" fill="#ffb9b9"/><path d="M902.317,661.134a140.246,140.246,0,0,1-6.878,43.378l-1.828,5.623-8.762,40.057-9.388,2.5-6.885-8.763-13.77-10.014-10.014-16.273L836.2,703.337l-2.679-4.469-9.388-46.942L788.461,631.9l-11.892-1.878,2.5-6.885,10.64-14.4,10.64-1.252,3.129-2.5,2.5,1.252L816,600.6l3.129,1.252,18.3,1.7,11.116-2.328,15.985-8.581,6.547,1.07L893.611,612.5a140.126,140.126,0,0,1,8.706,48.638Z" transform="translate(-306.553 -245.199)" fill="#575a89"/><path d="M529.47,787.092s5.606-9.5,3.238-10.61-12.424-5.531-12.424-5.531l-14.747-4.887s-21.278-31.624-21.746-4.123,15.493,34.111,15.493,34.111,14.235,30.634,22.3,25.749,16.132-21.467,16.132-21.467S523.175,792.517,529.47,787.092Z" transform="translate(-196.405 -304.329)" fill="#2f2e41"/><path d="M901.588,640.543,877.8,656.19,842.3,688.2l-2.679-4.469-7.511-37.554h1.878l19.4-35.676Z" transform="translate(-312.665 -230.06)" opacity="0.1"/><path d="M841.8,604.5l-19.4,35.676h-6.885l-4.381,12.518-10.014,2.5,26.913,29.417,38.179-34.424,23.784-15.647Z" transform="translate(-301.057 -227.815)" fill="#575a89"/><path d="M841.169,505.915l-2.645,1.018a3.692,3.692,0,0,1-.944-5.19l-4.887-.229a36.906,36.906,0,0,1,55.1-4.441c.223-.766,2.648.725,3.639,2.237.333-1.247,2.607,4.781,3.411,9.042.372-1.419,1.8.872.55,3.07.795-.116,1.154,1.918.539,3.051.87-.409.723,2.019-.22,3.641,1.241-.11-9.786,17-14.251,27.005-1.3-5.957-2.754-12.229-6.934-16.666-.711-.754-1.489-1.441-2.265-2.127l-4.2-3.709c-4.886-4.313-9.33-9.635-15.839-11.247-4.473-1.108-7.3-1.358-4.863-6.4-2.2.919-4.259,2.286-6.481,3.139C840.9,507.408,841.212,506.62,841.169,505.915Z" transform="translate(-327.514 -204.944)" fill="#2f2e41"/><circle cx="4.381" cy="4.381" r="4.381" transform="translate(540.482 317.539)" fill="#ffb9b9"/><path d="M481.209,464.714c.024.481.036.975.036,1.468,0,15.019-11.433,32.336-32.336,32.336a31.72,31.72,0,0,1-17.377-5.139,22.408,22.408,0,0,0,2.708.169,22.773,22.773,0,0,0,14.1-4.862,11.385,11.385,0,0,1-10.614-7.894,11.441,11.441,0,0,0,2.142.2,11.159,11.159,0,0,0,2.984-.4,11.364,11.364,0,0,1-9.11-11.144v-.132a11.145,11.145,0,0,0,5.163,1.42,11.393,11.393,0,0,1-3.538-15.175,32.188,32.188,0,0,0,23.407,11.878,11.553,11.553,0,0,1-.289-2.6,11.35,11.35,0,0,1,19.64-7.762,22.7,22.7,0,0,0,7.221-2.756,11.469,11.469,0,0,1-4.994,6.294,23.081,23.081,0,0,0,6.511-1.793,23.072,23.072,0,0,1-5.656,5.885Z" transform="translate(-176.775 -192.391)" fill="#68e1fd"/><path d="M456.231,514.164a45.153,45.153,0,1,1,45.152-45.153,45.153,45.153,0,0,1-45.152,45.153Zm0-89.054a43.9,43.9,0,1,0,43.9,43.9,43.9,43.9,0,0,0-43.9-43.9Zm-10.291,67.042a32.385,32.385,0,0,1-17.721-5.238l-2.245-1.461,2.66.315a22.431,22.431,0,0,0,2.635.16,21.991,21.991,0,0,0,12.4-3.768,11.98,11.98,0,0,1-9.5-8.174l-.325-1.016,1.046.213a10.288,10.288,0,0,0,2.274.2,12.032,12.032,0,0,1-7.011-10.91v-1.21l.932.523a10.489,10.489,0,0,0,2.764,1.07,12,12,0,0,1-1.981-14.594l.455-.784.572.7a31.657,31.657,0,0,0,22.15,11.6,12.208,12.208,0,0,1-.148-1.916,11.976,11.976,0,0,1,20.481-8.445,21.92,21.92,0,0,0,6.681-2.613l1.416-.84-.5,1.568a11.923,11.923,0,0,1-3.15,5.021,22.347,22.347,0,0,0,3.825-1.292l1.968-.87-1.193,1.79a23.639,23.639,0,0,1-5.545,5.846c.014.383.021.771.021,1.159C478.9,475.39,466.571,492.153,445.941,492.153Zm-14.824-4.973a31.186,31.186,0,0,0,14.824,3.721c19.846,0,31.705-16.126,31.705-31.717,0-.482-.011-.964-.035-1.435l-.017-.339.274-.2a22.44,22.44,0,0,0,4.252-4.019,23.754,23.754,0,0,1-4.665,1.054l-2.925.359,2.526-1.516a10.785,10.785,0,0,0,4.074-4.36,23.068,23.068,0,0,1-5.849,1.982l-.34.066-.237-.252a10.724,10.724,0,0,0-18.56,7.335,10.534,10.534,0,0,0,.276,2.446l.194.812-.834-.042a32.9,32.9,0,0,1-23.256-11.387,10.75,10.75,0,0,0,3.758,13.537l1.793,1.2-2.157-.054a11.791,11.791,0,0,1-4.481-1.013,10.764,10.764,0,0,0,8.572,9.636l2.6.523-2.559.695a12.006,12.006,0,0,1-4.331.361,10.736,10.736,0,0,0,9.667,6.489l1.756.034-1.381,1.084a23.243,23.243,0,0,1-14.494,5Z" transform="translate(-169.125 -181.332)" fill="#3f3d56"/><path d="M1107.7,181.372a7.288,7.288,0,1,1,7.4-7.287A7.288,7.288,0,0,1,1107.7,181.372Zm0-13.322a6.036,6.036,0,1,0,6.153,6.036,6.1,6.1,0,0,0-6.153-6.035Z" transform="translate(-428.107 -84.218)" fill="#3f3d56"/><path d="M1109.958,185.392h-16.946a9.148,9.148,0,0,1-6.421-2.624,8.782,8.782,0,0,1-2.678-6.329V159.786a8.85,8.85,0,0,1,2.675-6.326,9.071,9.071,0,0,1,6.424-2.627h16.945a9.145,9.145,0,0,1,6.421,2.624,8.78,8.78,0,0,1,2.678,6.328v16.653a8.852,8.852,0,0,1-2.675,6.326A9.072,9.072,0,0,1,1109.958,185.392Zm-16.946-33.306a7.827,7.827,0,0,0-5.544,2.265,7.608,7.608,0,0,0-2.3,5.436v16.653a7.542,7.542,0,0,0,2.3,5.433,7.9,7.9,0,0,0,5.547,2.268h16.946a7.83,7.83,0,0,0,5.544-2.265,7.61,7.61,0,0,0,2.3-5.436V159.786a7.537,7.537,0,0,0-2.3-5.432,7.9,7.9,0,0,0-5.547-2.268Zm8.473,26.645a10.619,10.619,0,1,1,10.794-10.618,10.619,10.619,0,0,1-10.794,10.618Zm0-19.984a9.368,9.368,0,1,0,9.542,9.366,9.466,9.466,0,0,0-9.542-9.366Zm11.015,1.665a3.124,3.124,0,1,1,3.167-3.124,3.124,3.124,0,0,1-3.167,3.124Zm0-5a1.873,1.873,0,1,0,1.916,1.872,1.9,1.9,0,0,0-1.916-1.872Z" transform="translate(-421.891 -78.246)" fill="#3f3d56"/><path d="M1086.883,195.15c-22.519,0-40.839-18.009-40.839-40.145s18.321-40.146,40.839-40.146,40.84,18.009,40.84,40.146S1109.4,195.15,1086.883,195.15Zm0-79.039c-21.828,0-39.588,17.448-39.588,38.894s17.759,38.894,39.588,38.894,39.588-17.448,39.588-38.894-17.759-38.894-39.588-38.894Zm8.908,59.153h-16.945a12.4,12.4,0,0,1-12.488-12.283V146.328a12.4,12.4,0,0,1,12.488-12.283h16.945a12.4,12.4,0,0,1,12.488,12.283v16.653a12.4,12.4,0,0,1-12.488,12.283ZM1078.845,135.3a11.148,11.148,0,0,0-11.236,11.031v16.653a11.148,11.148,0,0,0,11.236,11.031h16.945a11.148,11.148,0,0,0,11.236-11.031V146.328a11.148,11.148,0,0,0-11.236-11.031Z" transform="translate(-407.723 -64.787)" fill="#3f3d56"/><path d="M67.722,408.824a44.483,44.483,0,1,1,44.267-44.483A44.425,44.425,0,0,1,67.722,408.824Zm0-87.713a43.231,43.231,0,1,0,43.015,43.231A43.172,43.172,0,0,0,67.722,321.11Zm.261,69.468a26.406,26.406,0,0,1-7.475-1.088l-.792-.233.438-.7a20.587,20.587,0,0,0,2.512-5.375c.317-1.139,1.8-7.044,1.813-7.1l.4-1.592.762,1.454c.744,1.419,3.092,2.887,5.733,2.887,7.813,0,13.27-7.033,13.27-17.1,0-6.977-5.862-14.194-15.672-14.194-12.261,0-17.776,9.083-17.776,15.533,0,4.639,1.781,8.032,4.888,9.308a.384.384,0,0,0,.29.029.392.392,0,0,0,.154-.255c.069-.252.178-.69.284-1.116.094-.377.186-.745.245-.967.112-.421.119-.446-.244-.882a8.119,8.119,0,0,1-1.846-5.471,12.884,12.884,0,0,1,13.3-13.02c6.888,0,11.338,4.136,11.338,10.536,0,8.2-3.777,14.382-8.786,14.382a4.858,4.858,0,0,1-3.853-1.786,4.567,4.567,0,0,1-.825-3.961c.285-1.216.668-2.459,1.038-3.66a21.318,21.318,0,0,0,1.222-5.38c0-.764-.205-3.255-2.845-3.255-2.433,0-4.339,2.668-4.339,6.073a9.427,9.427,0,0,0,.762,3.81l.1.2-.051.22s-2.816,12-3.31,14.1a22.034,22.034,0,0,0-.432,5.77l.038,1-.917-.405a26.327,26.327,0,1,1,10.574,2.236Zm-6.333-2.07a25.246,25.246,0,1,0-4.637-1.732,21.79,21.79,0,0,1,.488-5.087c.456-1.939,2.887-12.3,3.261-13.9a10.906,10.906,0,0,1-.8-4.153c0-4.108,2.456-7.325,5.591-7.325,2.489,0,4.1,1.769,4.1,4.507a21.949,21.949,0,0,1-1.277,5.748c-.364,1.181-.74,2.4-1.015,3.577a3.339,3.339,0,0,0,.587,2.9,3.614,3.614,0,0,0,2.872,1.312c4.3,0,7.535-5.645,7.535-13.131,0-5.727-3.865-9.284-10.086-9.284A11.658,11.658,0,0,0,56.219,363.71a6.923,6.923,0,0,0,1.553,4.667,1.862,1.862,0,0,1,.494,2.008c-.058.218-.148.578-.24.947-.109.437-.221.886-.29,1.137a1.5,1.5,0,0,1-2.13,1.06c-3.545-1.457-5.662-5.369-5.662-10.465,0-8.251,7.117-16.785,19.027-16.785,10.593,0,16.924,7.853,16.924,15.445,0,10.636-6.107,18.356-14.521,18.356a8.7,8.7,0,0,1-6-2.417c-.459,1.822-1.268,5.024-1.5,5.852A20.621,20.621,0,0,1,61.65,388.509Z" transform="translate(-23.456 -142.17)" fill="#3f3d56"/><path d="M893.885,328.758a57.689,57.689,0,0,1-22.179-4.342c-19.624-8.18-32.62-25.8-45.187-42.831-6.785-9.2-13.8-18.706-21.815-26.713-12.842-12.831-27.74-21.12-43.084-23.972-17.244-3.206-34.817.94-47.005,11.086a44.109,44.109,0,0,0-4.346,4.155q2.668.324,5.322.692c18.61,2.579,41.951,9.732,47.457,29.164,2.114,7.459.609,15.9-4.127,23.165-5.076,7.782-13.154,13.133-21.607,14.313a30.043,30.043,0,0,1-4.158.287c-15.225,0-30.226-11.316-34.668-26.873-3.761-13.175.034-28.526,9.289-39.782a328.5,328.5,0,0,0-33.7-2.094l.013-1.252a329.633,329.633,0,0,1,34.659,2.2,45.377,45.377,0,0,1,5.063-4.937c12.471-10.382,30.428-14.626,48.035-11.355,15.594,2.9,30.719,11.307,43.741,24.317,8.081,8.074,15.125,17.622,21.937,26.856,13.04,17.676,25.357,34.372,44.661,42.419,19.4,8.089,43.228,4.409,59.286-9.155s23.673-36.438,18.944-56.919l1.22-.282c4.831,20.927-2.948,44.3-19.356,58.158A59.893,59.893,0,0,1,893.885,328.758ZM709.261,247.282c-9.381,10.995-13.292,26.233-9.57,39.265,4.681,16.4,21.482,27.919,37.448,25.69,8.1-1.132,15.852-6.275,20.732-13.758,4.539-6.959,5.987-15.029,3.972-22.14-5.323-18.782-28.184-25.738-46.425-28.265Q712.349,247.649,709.261,247.282Z" transform="translate(-268.567 -107.816)" fill="#3f3d56"/><path d="M190,341.243a75.857,75.857,0,0,1-16.707-1.8,62.106,62.106,0,0,1-34.788-21.12c-2.936-3.516-5.61-7.463-8.2-11.281-3.926-5.795-7.985-11.787-12.971-16.246-4.962-4.437-11.494-6.77-17.043-6.1a13.876,13.876,0,0,0-10.015,6.157l-1.034-.705a15.094,15.094,0,0,1,10.9-6.694c5.984-.728,12.728,1.665,18.029,6.406,5.1,4.562,9.2,10.619,13.173,16.477,2.569,3.792,5.225,7.713,8.12,11.18,16.887,20.221,43.709,27.287,73.592,19.387l.32,1.21A91.727,91.727,0,0,1,190,341.243Z" transform="translate(-48.068 -128.373)" fill="#3f3d56"/></svg>