<svg xmlns="http://www.w3.org/2000/svg" xmlns:xlink="http://www.w3.org/1999/xlink" width="620" height="518" viewBox="0 0 620 518"><defs><linearGradient id="a" x1="0.5" y1="1" x2="0.5" gradientUnits="objectBoundingBox"><stop offset="0" stop-color="gray" stop-opacity="0.251"/><stop offset="0.54" stop-color="gray" stop-opacity="0.122"/><stop offset="1" stop-color="gray" stop-opacity="0.102"/></linearGradient><clipPath id="d"><rect width="101.916" height="68.702" fill="#fff"/></clipPath><linearGradient id="e" x1="0.5" x2="0.5" y2="0" xlink:href="#a"/><linearGradient id="h" x1="0.511" y1="1.102" x2="0.511" y2="-0.241" xlink:href="#a"/><linearGradient id="i" x1="0.572" y1="0.676" x2="0.572" y2="0.102" xlink:href="#a"/><linearGradient id="k" x1="0.5" x2="0.5" y2="0" xlink:href="#a"/><linearGradient id="l" x1="0.5" x2="0.5" y2="0.001" xlink:href="#a"/></defs><g transform="translate(0 -0.072)"><g transform="translate(109.754 58.297)" opacity="0.5"><rect width="317.856" height="427.115" fill="url(#a)"/></g><rect width="307.922" height="412.213" transform="translate(113.893 64.09)" fill="#f2f2f2"/><rect width="105.95" height="3.309" transform="translate(138.026 81.475)" fill="#e0e0e0"/><rect width="105.95" height="3.309" transform="translate(138.026 96.37)" fill="#68e1fd" opacity="0.7"/><rect width="105.95" height="3.309" transform="translate(259.387 81.475)" fill="#e0e0e0"/><rect width="105.95" height="3.309" transform="translate(275.897 175.839)" fill="#e0e0e0"/><rect width="105.95" height="3.309" transform="translate(278.375 184.942)" fill="#e0e0e0"/><rect width="105.95" height="3.309" transform="translate(283.329 194.044)" fill="#e0e0e0"/><rect width="105.95" height="3.309" transform="translate(275.897 322.346)" fill="#e0e0e0"/><rect width="105.95" height="3.309" transform="translate(278.375 331.455)" fill="#e0e0e0"/><rect width="105.95" height="3.309" transform="translate(283.329 340.557)" fill="#e0e0e0"/><g transform="translate(138.845 141.901)" opacity="0.5"><rect width="112.575" height="114.226" fill="url(#a)"/></g><rect width="110.795" height="109.259" transform="translate(139.555 144.385)" fill="#f5f5f5"/><g transform="translate(143.455 151.003)" opacity="0.5"><rect width="103.338" height="71.186" fill="url(#a)"/></g><rect width="101.916" height="68.702" transform="translate(144.165 151.829)" fill="#fff"/><g transform="translate(144.165 151.829)" clip-path="url(#d)"><path d="M199.239,294.5,224.9,254.764l10.76,17.385,23.171-24,19.869,24,17.385-35.59,44.7,71.186L195.93,302.779Z" transform="translate(-207.874 -228.277)" fill="#68e1fd" opacity="0.4"/><circle cx="7.451" cy="7.451" r="7.451" transform="translate(3.776 2.484)" fill="#68e1fd" opacity="0.4"/></g><g transform="translate(138.845 288.408)" opacity="0.5"><rect width="112.575" height="114.226" fill="url(#e)"/></g><rect width="110.795" height="109.259" transform="translate(139.555 290.891)" fill="#f5f5f5"/><g transform="translate(143.455 297.517)" opacity="0.5"><rect width="103.338" height="71.186" fill="url(#a)"/></g><rect width="101.916" height="68.702" transform="translate(144.165 298.342)" fill="#fff"/><g transform="translate(144.165 298.342)" clip-path="url(#d)"><path d="M199.239,510.992,224.9,471.261l10.76,17.385,23.171-24,19.869,24,17.385-35.6,44.7,71.186L195.93,519.269Z" transform="translate(-207.874 -444.773)" fill="#bdbdbd" opacity="0.4"/><circle cx="7.451" cy="7.451" r="7.451" transform="translate(3.776 2.484)" fill="#bdbdbd" opacity="0.4"/></g><g transform="translate(155.57 37.193)" opacity="0.5"><rect width="427.115" height="317.856" transform="translate(0 418.923) rotate(-78.76)" fill="url(#h)"/></g><rect width="412.213" height="307.922" transform="translate(161.399 447.99) rotate(-78.76)" fill="#fff"/><rect width="218.525" height="3.309" transform="translate(260.468 66.708) rotate(11.24)" fill="#e0e0e0"/><rect width="218.525" height="3.309" transform="translate(199.679 373.602) rotate(11.24)" fill="#e0e0e0"/><rect width="168.859" height="3.309" transform="translate(196.05 392.277) rotate(11.24)" fill="#e0e0e0"/><rect width="62.909" height="3.309" transform="translate(192.46 410.947) rotate(11.24)" fill="#68e1fd" opacity="0.7"/><rect width="109.259" height="3.309" transform="translate(256.951 85.39) rotate(11.24)" fill="#68e1fd" opacity="0.7"/><rect width="197.005" height="3.309" transform="translate(253.117 104.059) rotate(11.24)" fill="#e0e0e0"/><rect width="48.008" height="3.309" transform="translate(249.619 122.734) rotate(11.24)" fill="#3ad29f" opacity="0.7"/><rect width="218.525" height="3.309" transform="translate(245.674 141.403) rotate(11.24)" fill="#e0e0e0"/><g transform="translate(242.635 220.273)" opacity="0.5"><rect width="112.575" height="196.172" transform="translate(0 110.416) rotate(-78.76)" fill="url(#i)"/></g><rect width="193.695" height="110.091" transform="translate(265.669 221.332) rotate(11.24)" fill="#fff"/><rect width="218.525" height="3.309" transform="translate(241.976 160.076) rotate(11.24)" fill="#e0e0e0"/><rect width="24.004" height="80.288" transform="translate(282.843 239.897) rotate(11.24)" fill="#68e1fd"/><rect width="24.004" height="53.801" transform="translate(319.806 274.271) rotate(11.24)" fill="#3ad29f"/><rect width="24.004" height="28.971" transform="translate(357.093 307.01) rotate(11.24)" fill="#f55f44"/><rect width="24.004" height="58.768" transform="translate(405.013 286.177) rotate(11.24)" fill="#fdd835"/><g transform="translate(81.276 436.579)" opacity="0.5"><rect width="2.484" height="14.069" transform="translate(5.786)" fill="#47e6b1"/><rect width="2.484" height="14.069" transform="translate(14.069 5.793) rotate(90)" fill="#47e6b1"/></g><path d="M694.621,72.891a3.039,3.039,0,0,1-1.692-3.675,1.458,1.458,0,0,0,.068-.338h0a1.523,1.523,0,0,0-2.707-1.008h0a1.459,1.459,0,0,0-.169.3,3.039,3.039,0,0,1-3.675,1.692,1.462,1.462,0,0,0-.338-.068h0A1.523,1.523,0,0,0,685.1,72.5h0a1.462,1.462,0,0,0,.3.169,3.039,3.039,0,0,1,1.692,3.675,1.461,1.461,0,0,0-.068.338h0a1.523,1.523,0,0,0,2.707,1.008h0a1.463,1.463,0,0,0,.169-.3,3.039,3.039,0,0,1,3.675-1.692,1.461,1.461,0,0,0,.338.068h0a1.523,1.523,0,0,0,1.008-2.707h0a1.46,1.46,0,0,0-.3-.169Z" transform="translate(-317.464 -67.23)" fill="#4d8af0" opacity="0.5"/><path d="M281.511,176.731a3.038,3.038,0,0,1-1.692-3.675,1.464,1.464,0,0,0,.068-.338h0a1.523,1.523,0,0,0-2.707-1.008h0a1.463,1.463,0,0,0-.169.3,3.039,3.039,0,0,1-3.675,1.692,1.462,1.462,0,0,0-.338-.068h0a1.523,1.523,0,0,0-1.008,2.707h0a1.463,1.463,0,0,0,.3.169,3.039,3.039,0,0,1,1.692,3.675,1.461,1.461,0,0,0-.068.338h0a1.523,1.523,0,0,0,2.707,1.008h0a1.462,1.462,0,0,0,.169-.3,3.039,3.039,0,0,1,3.675-1.692,1.461,1.461,0,0,0,.338.068h0a1.523,1.523,0,0,0,1.008-2.707h0A1.462,1.462,0,0,0,281.511,176.731Z" transform="translate(-183.113 -100.798)" fill="#fdd835" opacity="0.5"/><path d="M248.811,481.791a3.039,3.039,0,0,1-1.692-3.675,1.462,1.462,0,0,0,.068-.338h0a1.523,1.523,0,0,0-2.707-1.008h0a1.463,1.463,0,0,0-.169.3,3.038,3.038,0,0,1-3.675,1.692,1.461,1.461,0,0,0-.338-.068h0a1.523,1.523,0,0,0-1.008,2.707h0a1.462,1.462,0,0,0,.3.169,3.039,3.039,0,0,1,1.692,3.675,1.463,1.463,0,0,0-.068.338h0a1.523,1.523,0,0,0,2.707,1.008h0a1.461,1.461,0,0,0,.169-.3,3.039,3.039,0,0,1,3.675-1.692,1.461,1.461,0,0,0,.338.068h0a1.523,1.523,0,0,0,1.008-2.707h0a1.462,1.462,0,0,0-.3-.169Z" transform="translate(-172.543 -199.413)" fill="#fdd835" opacity="0.5"/><circle cx="4.967" cy="4.967" r="4.967" transform="translate(223.151 14.424)" fill="#f55f44" opacity="0.5"/><circle cx="4.967" cy="4.967" r="4.967" transform="translate(0 209.893)" fill="#f55f44" opacity="0.5"/><circle cx="4.967" cy="4.967" r="4.967" transform="translate(578.232 76.508)" fill="#f55f44" opacity="0.5"/><circle cx="4.967" cy="4.967" r="4.967" transform="translate(550.086 224.673)" fill="#4d8af0" opacity="0.5"/><circle cx="4.967" cy="4.967" r="4.967" transform="translate(20.532 93.332)" fill="#47e6b1" opacity="0.5"/><circle cx="4.967" cy="4.967" r="4.967" transform="translate(571.146 433.134)" fill="#47e6b1" opacity="0.5"/><circle cx="4.967" cy="4.967" r="4.967" transform="translate(610.065 286.709)" fill="#47e6b1" opacity="0.5"/><rect width="126.198" height="103.588" transform="translate(367.433 406.776)" fill="url(#a)"/><path d="M718.88,616.428a36.916,36.916,0,0,1,73.832,0v23.625h10.334V616.428a47.253,47.253,0,0,0-94.506,0v23.625h10.334Z" transform="translate(-325.394 -229.467)" fill="url(#k)"/><path d="M721.261,616.582a35.441,35.441,0,1,1,70.881,0v22.684h9.921V616.582a45.362,45.362,0,0,0-90.723,0v22.684h9.921Z" transform="translate(-326.297 -230.128)" fill="#f5f5f5"/><rect width="123.328" height="100.651" transform="translate(368.721 407.723)" fill="#68e1fd"/><rect width="123.328" height="100.651" transform="translate(368.721 407.723)" fill="#f5f5f5"/><rect width="123.328" height="60.954" transform="translate(368.721 427.565)" fill="#68e1fd"/><path d="M783.092,722.676a9.041,9.041,0,1,0-15.619,6.192v19.294a6.578,6.578,0,0,0,13.156,0V728.888a9,9,0,0,0,2.463-6.213Z" transform="translate(-343.61 -276.162)" fill="url(#l)"/><path d="M782.442,725.651a7.8,7.8,0,1,0-13.467,5.339v16.634a5.671,5.671,0,0,0,11.342,0V730.99A7.762,7.762,0,0,0,782.442,725.651Z" transform="translate(-344.203 -277.527)" opacity="0.2"/></g></svg>