<svg xmlns="http://www.w3.org/2000/svg" xmlns:xlink="http://www.w3.org/1999/xlink" width="580" height="518" viewBox="0 0 580 518"><defs><linearGradient id="a" y1="0.5" x2="1" y2="0.5" gradientUnits="objectBoundingBox"><stop offset="0" stop-color="gray" stop-opacity="0.251"/><stop offset="0.535" stop-color="gray" stop-opacity="0.122"/><stop offset="1" stop-color="gray" stop-opacity="0.102"/></linearGradient></defs><g transform="translate(-0.005)"><path d="M514.177,76.854,332,188.815s0,230.92,182.179,356.876C696.356,419.735,696.356,188.815,696.356,188.815Z" transform="translate(-223.029 -69.595)" fill="#3f3d56"/><path d="M601.814,76.854,598.7,78.768V543.507c1.034.73,2.068,1.461,3.114,2.184C783.993,419.735,783.993,188.815,783.993,188.815Z" transform="translate(-309.693 -69.595)" fill="#68e1fd" opacity="0.04"/><g transform="translate(232.74 204.204)" opacity="0.7"><path d="M359.231,332.686l34.344,31.482,42.574-61.418,17.172,14.31-59.747,75.728L344.921,338.41Z" transform="translate(-344.921 -302.75)" fill="url(#a)"/></g><path d="M372.529,334.253l27.859,25.537,39.467-58.04,13.93,11.608-53.4,69.648L360.921,338.9Z" transform="translate(-117.377 -98.214)" fill="#3ad29f"/><path d="M331.6,111.857a2.482,2.482,0,0,1-1.383-3,1.2,1.2,0,0,0,.054-.275h0a1.245,1.245,0,0,0-2.236-.825h0a1.19,1.19,0,0,0-.138.244,2.482,2.482,0,0,1-3,1.383,1.194,1.194,0,0,0-.275-.054h0a1.245,1.245,0,0,0-.825,2.236h0a1.193,1.193,0,0,0,.244.138,2.482,2.482,0,0,1,1.383,3,1.192,1.192,0,0,0-.054.275h0a1.245,1.245,0,0,0,2.236.825h0a1.2,1.2,0,0,0,.138-.244,2.482,2.482,0,0,1,3-1.383,1.192,1.192,0,0,0,.275.054h0a1.245,1.245,0,0,0,.825-2.236h0a1.194,1.194,0,0,0-.244-.138Z" transform="translate(-219.951 -79.463)" fill="#4d8af0" opacity="0.5"/><path d="M185.6,436.857a2.482,2.482,0,0,1-1.383-3,1.2,1.2,0,0,0,.054-.275h0a1.245,1.245,0,0,0-2.236-.825h0a1.2,1.2,0,0,0-.138.244,2.482,2.482,0,0,1-3,1.383,1.193,1.193,0,0,0-.275-.054h0a1.245,1.245,0,0,0-.825,2.236h0a1.194,1.194,0,0,0,.244.138,2.482,2.482,0,0,1,1.383,3,1.194,1.194,0,0,0-.054.275h0a1.245,1.245,0,0,0,2.236.825h0a1.193,1.193,0,0,0,.138-.244,2.482,2.482,0,0,1,3-1.383,1.194,1.194,0,0,0,.275.054h0a1.245,1.245,0,0,0,.825-2.236h0A1.191,1.191,0,0,0,185.6,436.857Z" transform="translate(-172.572 -185.234)" fill="#4d8af0" opacity="0.5"/><circle cx="4.053" cy="4.053" r="4.053" transform="translate(500.973 167.315)" fill="#f55f44" opacity="0.5"/><circle cx="4.053" cy="4.053" r="4.053" transform="translate(77.952 456.677)" fill="#f55f44" opacity="0.5"/><circle cx="4.053" cy="4.053" r="4.053" transform="translate(569.872 323.16)" fill="#f55f44" opacity="0.5"/><path d="M870.6,140.857a2.482,2.482,0,0,1-1.383-3,1.2,1.2,0,0,0,.054-.275h0a1.245,1.245,0,0,0-2.236-.825h0a1.189,1.189,0,0,0-.138.244,2.482,2.482,0,0,1-3,1.383,1.2,1.2,0,0,0-.275-.054h0a1.245,1.245,0,0,0-.825,2.236h0a1.2,1.2,0,0,0,.244.138,2.482,2.482,0,0,1,1.383,3,1.189,1.189,0,0,0-.054.275h0a1.245,1.245,0,0,0,2.236.825h0a1.2,1.2,0,0,0,.138-.244,2.482,2.482,0,0,1,3-1.383,1.19,1.19,0,0,0,.275.054h0a1.245,1.245,0,0,0,.825-2.236h0A1.193,1.193,0,0,0,870.6,140.857Z" transform="translate(-395.373 -88.874)" fill="#4d8af0" opacity="0.5"/><path d="M970.6,768.857a2.482,2.482,0,0,1-1.383-3,1.2,1.2,0,0,0,.054-.275h0a1.245,1.245,0,0,0-2.236-.825h0a1.192,1.192,0,0,0-.138.244,2.482,2.482,0,0,1-3,1.383,1.194,1.194,0,0,0-.275-.054h0a1.245,1.245,0,0,0-.825,2.236h0a1.192,1.192,0,0,0,.244.138,2.482,2.482,0,0,1,1.383,3,1.2,1.2,0,0,0-.054.275h0a1.245,1.245,0,0,0,2.236.825h0a1.192,1.192,0,0,0,.138-.244,2.482,2.482,0,0,1,3-1.383,1.188,1.188,0,0,0,.275.054h0a1.245,1.245,0,0,0,.825-2.236h0a1.194,1.194,0,0,0-.244-.138Z" transform="translate(-427.825 -293.296)" fill="#4d8af0" opacity="0.5"/><path d="M178.6,246.857a2.482,2.482,0,0,1-1.383-3,1.192,1.192,0,0,0,.054-.275h0a1.245,1.245,0,0,0-2.236-.825h0a1.193,1.193,0,0,0-.138.244,2.482,2.482,0,0,1-3,1.383,1.192,1.192,0,0,0-.275-.054h0a1.245,1.245,0,0,0-.825,2.236h0a1.194,1.194,0,0,0,.244.138,2.482,2.482,0,0,1,1.383,3,1.194,1.194,0,0,0-.054.275h0a1.245,1.245,0,0,0,2.236.825h0a1.194,1.194,0,0,0,.138-.244,2.482,2.482,0,0,1,3-1.383,1.192,1.192,0,0,0,.275.054h0a1.245,1.245,0,0,0,.825-2.236h0A1.192,1.192,0,0,0,178.6,246.857Z" transform="translate(-170.3 -123.419)" fill="#4d8af0" opacity="0.5"/><circle cx="4.053" cy="4.053" r="4.053" transform="translate(49.581 187.554)" fill="#47e6b1" opacity="0.5"/><circle cx="4.053" cy="4.053" r="4.053" transform="translate(571.899 219.938)" fill="#47e6b1" opacity="0.5"/><g transform="translate(389.003)" opacity="0.5"><rect width="2.026" height="11.483" transform="translate(4.728)" fill="#47e6b1"/><rect width="2.026" height="11.483" transform="translate(11.483 4.728) rotate(90)" fill="#47e6b1"/></g><g transform="translate(396.426 449.247)" opacity="0.5"><rect width="2.026" height="11.483" transform="translate(4.728)" fill="#47e6b1"/><rect width="2.026" height="11.483" transform="translate(11.483 4.728) rotate(90)" fill="#47e6b1"/></g><g transform="translate(13.105 473.564)" opacity="0.5"><rect width="2.026" height="11.483" transform="translate(4.728)" fill="#47e6b1"/><rect width="2.026" height="11.483" transform="translate(11.483 4.728) rotate(90)" fill="#47e6b1"/></g><g transform="translate(473.953 267.162)" opacity="0.5"><rect width="2.026" height="11.483" transform="translate(4.728)" fill="#47e6b1"/><rect width="2.026" height="11.483" transform="translate(11.483 4.728) rotate(90)" fill="#47e6b1"/></g><path d="M794.735,120.578l4.352,3.989,6.166-9.068,2.176,1.814L799.087,128.2l-6.166-6.891Z" transform="translate(-257.822 -37.482)" fill="#47e6b1" opacity="0.5"/><rect width="15.024" height="19.317" transform="translate(397.804 162.003) rotate(-2.221)" fill="#68e1fd"/><path d="M671.88,403.131s-20.791-9.934-20.458-1.355S672.379,416,672.379,416Z" transform="translate(-326.724 -174.185)" fill="#ffb9b9"/><path d="M689.509,507.4s-9.809,24.008-13.433,41.332-9.143,41.166-2.044,58.074,27.284,66.6,27.492,71.964-1.729,10.807,2.561,10.64,27.632-7.515,28.579-10.774-7.964-11.5-7.964-11.5L702.695,598.18l22.959-44.923,16.56,67.018,3.244,83.644s15.919-4.913,18.23-.707c0,0,7.132-9.942,8.038-14.273s-3.368-86.861-3.368-86.861,14.612-94,2.816-93.545S713.175,480.71,689.509,507.4Z" transform="translate(-333.013 -206.215)" fill="#68e1fd"/><path d="M711.927,772.47s-10.881,24.049-11.912,25.163-8.122,12.129-2.76,11.921,18.022-6.069,27.341-15.022,21.6-24.465,20.491-25.5-8.745-3.957-8.745-3.957Z" transform="translate(-341 -293.561)" fill="#575a89"/><path d="M782.481,794.849s-.656,10.765-2.635,15.138-1.729,10.807,3.633,10.6,19.219-2.893,19.219-2.893.823-6.476-.291-7.506-5.861-12.66-3.841-15.961S782.481,794.849,782.481,794.849Z" transform="translate(-368.113 -302.591)" fill="#575a89"/><path d="M788.56,278.6s11.431,17.814,15.886,21.937-8.08,13.2-8.08,13.2l-22.436,3.018s.282-20.416-.873-22.52S788.56,278.6,788.56,278.6Z" transform="translate(-366.261 -135.252)" fill="#ffb9b9"/><path d="M755.708,310.751s4.622,8.413,8.912,8.246,26.476-9.618,27.424-12.877,7.349,23.342,7.349,23.342L745.1,425l-13.243-9.152,6.417-56.1,5.27-30.276Z" transform="translate(-352.909 -144.16)" fill="#68e1fd"/><path d="M780.946,393.155a30.043,30.043,0,0,0-3.331,14.091c.008.214.016.429.036.643.514,9.925,4.17,21.4,5.482,29.751.952,5.988.681,10.359-2.823,11.386-8.5,2.477,1.239,4.248-31.63,15.188s-38.6,1.5-38.688-.648,4.655-18.438,3.541-19.469-15.586,13.492-19.959,11.514-.5-12.868-.5-12.868,9.85-22.935,9.642-28.3,14.921-30.65,14.921-30.65l10.29-66.985s3.957-8.745,9.277-10.026a13.179,13.179,0,0,1,9.734,1.77l-8.9,19.677-9.393,34.731,1.571,12.827s10.923-22.977,18.1-31.847,22.469-29.869,22.469-29.869,3.571-12.049.875-15.65,11.245-4.152,17.188,10.653c3.15,7.847,8.265,19.548,11.469,30.443,2.855,9.652,4.2,18.674,1.375,23.832C797.365,371.233,786.49,381.589,780.946,393.155Z" transform="translate(-339.815 -141.087)" fill="#575a89"/><path d="M842.59,382.844c-4.323,7.879-15.2,18.235-20.743,29.8-1.448-5.217-3.215-10.615-3.215-10.615s-6.776-36.252,13.266-45.621a13.414,13.414,0,0,1,9.316,2.6C844.07,368.663,845.419,377.686,842.59,382.844Z" transform="translate(-380.736 -160.56)" opacity="0.1"/><path d="M716.18,392.191l-16.991,4.955-23.592.915-2.427,20.5,38.771,2.792S721.625,394.128,716.18,392.191Z" transform="translate(-333.81 -172.209)" fill="#575a89"/><path d="M769.063,494.231S746.332,498,751.52,504.842s25.325-.351,25.325-.351Z" transform="translate(-359.023 -205.399)" fill="#ffb9b9"/><path d="M802.98,461.5c.514,9.925,4.17,21.4,5.482,29.751-7.241,6.854-14.127,12.9-16.722,13-5.362.208-13.982-.532-17.158.665s-5.038-19.136-5.038-19.136,1.9-6.517,10.349-10.067A117.75,117.75,0,0,0,802.98,461.5Z" transform="translate(-365.142 -194.772)" opacity="0.1"/><path d="M815.957,346.879s18.147-2.852,17.167,27.258,1.913,49.329-5.386,54.981S796.732,460.391,791.37,460.6s-13.982-.532-17.158.665-5.038-19.136-5.038-19.136,1.9-6.517,10.349-10.067,28.372-16.136,28.205-20.425-5.038-19.136-5.038-19.136S795.915,356.248,815.957,346.879Z" transform="translate(-365.04 -157.493)" fill="#575a89"/><circle cx="23.61" cy="23.61" r="23.61" transform="translate(382.699 122.531)" fill="#ffb9b9"/><path d="M742.774,230.312a4.56,4.56,0,0,1-1.985,1,1.417,1.417,0,0,1-1.642-1.137,5.886,5.886,0,0,1-2.252,2.889c-1.1.575-2.808.093-2.967-1.141a5.2,5.2,0,0,1-1.2,2.529,1.794,1.794,0,0,1-2.522.084c.483,2.639.185,5.354.337,8.033s.866,5.519,2.89,7.281c2.952,2.569,7.391,1.935,11.273,1.448a3.422,3.422,0,0,1,1.767.1c1.454.619,1.388,2.643,1.407,4.223a11.735,11.735,0,0,0,10.276,11.144,5.882,5.882,0,0,0,4.372-1.067c1.1-.934,1.666-2.457,2.929-3.159,2.055-1.142,4.547.523,6.049,2.331s2.983,4.032,5.31,4.363c3.078.438,5.423-2.7,6.573-5.588a32.574,32.574,0,0,0-.647-25.31C776.316,224.318,754.36,222.1,742.774,230.312Z" transform="translate(-352.363 -117.989)" fill="#2f2e41"/></g></svg>