<?xml version="1.0" encoding="utf-8"?>
<!-- Generator: Adobe Illustrator 24.1.2, SVG Export Plug-In . SVG Version: 6.00 Build 0)  -->
<svg version="1.1" id="Layer_1" xmlns="http://www.w3.org/2000/svg" xmlns:xlink="http://www.w3.org/1999/xlink" x="0px" y="0px"
	 viewBox="0 0 604 1000" style="enable-background:new 0 0 604 1000;" xml:space="preserve">
<style type="text/css">
	.st0{opacity:0.1;fill:none;stroke:#218CFF;stroke-width:10;stroke-miterlimit:10;enable-background:new    ;}
	.st1{fill:#68E1FD;}
	.st2{enable-background:new    ;}
	.st3{fill:#FFFFFF;}
</style>
<g transform="translate(-1231 -1061)">
	<path class="st0" d="M1529,1081c0,100,30,220,30,320s-30,220-30,320s30,220,30,320"/>
	<g transform="translate(-10)">
		<circle class="st1" cx="1569" cy="2041" r="20"/>
		<g class="st2">
			<path class="st3" d="M1577.5,2046.3h-2.8v3.7h-3.9v-3.7h-9.4v-2.7l8.2-11.1h4.2l-7.6,10.5h4.7v-3.3h3.8v3.3h2.8L1577.5,2046.3
				L1577.5,2046.3z"/>
		</g>
		<g class="st2">
			<path d="M1642.9,2041h3.7v7.1c-1.9,1.5-4.6,2.2-7.1,2.2c-5.5,0-9.5-3.8-9.5-9s4-9,9.6-9c3.1,0,5.6,1,7.3,3l-2.6,2.4
				c-1.3-1.3-2.7-2-4.5-2c-3.4,0-5.7,2.3-5.7,5.6c0,3.3,2.3,5.6,5.7,5.6c1.1,0,2.1-0.2,3.1-0.8V2041z"/>
			<path d="M1663.4,2044.4h-10.2c0.4,1.7,1.8,2.7,3.8,2.7c1.4,0,2.4-0.4,3.4-1.3l2.1,2.2c-1.2,1.4-3.1,2.2-5.5,2.2
				c-4.6,0-7.7-2.9-7.7-6.9s3.1-6.9,7.2-6.9c3.9,0,7,2.6,7,7C1663.5,2043.6,1663.4,2044.1,1663.4,2044.4z M1653.2,2042.1h6.6
				c-0.3-1.7-1.5-2.8-3.3-2.8C1654.7,2039.3,1653.5,2040.4,1653.2,2042.1z"/>
			<path d="M1675,2049.4c-0.8,0.6-2,0.8-3.2,0.8c-3.2,0-5-1.6-5-4.8v-5.5h-2.1v-3h2.1v-3.3h3.9v3.3h3.3v3h-3.3v5.5
				c0,1.1,0.6,1.8,1.7,1.8c0.6,0,1.1-0.2,1.6-0.5L1675,2049.4z"/>
			<path d="M1683.8,2043.3c0-4,3.1-6.9,7.5-6.9c2.8,0,5,1.2,6,3.4l-3,1.6c-0.7-1.3-1.8-1.8-3-1.8c-2,0-3.5,1.4-3.5,3.7
				s1.5,3.7,3.5,3.7c1.2,0,2.3-0.5,3-1.8l3,1.6c-1,2.1-3.2,3.4-6,3.4C1686.9,2050.2,1683.8,2047.3,1683.8,2043.3z"/>
			<path d="M1698.6,2043.3c0-4,3.1-6.9,7.4-6.9s7.4,2.9,7.4,6.9s-3.1,6.9-7.4,6.9S1698.6,2047.3,1698.6,2043.3z M1709.5,2043.3
				c0-2.3-1.5-3.7-3.4-3.7c-2,0-3.4,1.4-3.4,3.7c0,2.3,1.5,3.7,3.4,3.7S1709.5,2045.6,1709.5,2043.3z"/>
			<path d="M1730,2042.3v7.7h-3.9v-7.1c0-2.2-1-3.2-2.7-3.2c-1.9,0-3.2,1.1-3.2,3.6v6.6h-3.9v-13.4h3.7v1.6c1-1.1,2.6-1.8,4.4-1.8
				C1727.6,2036.4,1730,2038.2,1730,2042.3z"/>
			<path d="M1742.5,2049.4c-0.8,0.6-2,0.8-3.2,0.8c-3.2,0-5-1.6-5-4.8v-5.5h-2.1v-3h2.1v-3.3h3.9v3.3h3.3v3h-3.3v5.5
				c0,1.1,0.6,1.8,1.7,1.8c0.6,0,1.1-0.2,1.6-0.5L1742.5,2049.4z"/>
			<path d="M1756.8,2042.3v7.7h-3.6v-1.7c-0.7,1.2-2.1,1.9-4.1,1.9c-3.1,0-5-1.8-5-4.1c0-2.4,1.7-4,5.8-4h3.1c0-1.7-1-2.6-3.1-2.6
				c-1.4,0-2.9,0.5-3.9,1.2l-1.4-2.7c1.5-1,3.6-1.6,5.8-1.6C1754.4,2036.4,1756.8,2038.3,1756.8,2042.3z M1752.9,2045.8v-1.4h-2.7
				c-1.8,0-2.4,0.7-2.4,1.6c0,1,0.8,1.6,2.2,1.6C1751.3,2047.6,1752.5,2047,1752.9,2045.8z"/>
			<path d="M1759.7,2043.3c0-4,3.1-6.9,7.5-6.9c2.8,0,5,1.2,6,3.4l-3,1.6c-0.7-1.3-1.8-1.8-3-1.8c-2,0-3.5,1.4-3.5,3.7
				s1.5,3.7,3.5,3.7c1.2,0,2.3-0.5,3-1.8l3,1.6c-1,2.1-3.2,3.4-6,3.4C1762.9,2050.2,1759.7,2047.3,1759.7,2043.3z"/>
			<path d="M1784.6,2049.4c-0.8,0.6-2,0.8-3.2,0.8c-3.2,0-5-1.6-5-4.8v-5.5h-2.1v-3h2.1v-3.3h3.9v3.3h3.3v3h-3.3v5.5
				c0,1.1,0.6,1.8,1.7,1.8c0.6,0,1.1-0.2,1.6-0.5L1784.6,2049.4z"/>
			<path d="M1793.9,2032.5c0-1.2,1-2.2,2.4-2.2s2.4,0.9,2.4,2.1c0,1.3-1,2.2-2.4,2.2S1793.9,2033.7,1793.9,2032.5z M1794.4,2036.6
				h3.9v13.4h-3.9V2036.6z"/>
			<path d="M1815.9,2042.3v7.7h-3.9v-7.1c0-2.2-1-3.2-2.7-3.2c-1.9,0-3.2,1.1-3.2,3.6v6.6h-3.9v-13.4h3.7v1.6c1-1.1,2.6-1.8,4.4-1.8
				C1813.5,2036.4,1815.9,2038.2,1815.9,2042.3z"/>
			<path d="M1824,2036.9h3.4v3h-3.3v10.1h-3.9v-10.1h-2.1v-3h2.1v-0.6c0-3,1.8-5,5.2-5c1.1,0,2.2,0.2,3,0.7l-1,2.8
				c-0.4-0.3-1-0.5-1.6-0.5c-1.2,0-1.8,0.6-1.8,1.9L1824,2036.9L1824,2036.9z"/>
			<path d="M1828.5,2043.3c0-4,3.1-6.9,7.4-6.9s7.4,2.9,7.4,6.9s-3.1,6.9-7.4,6.9S1828.5,2047.3,1828.5,2043.3z M1839.3,2043.3
				c0-2.3-1.5-3.7-3.4-3.7s-3.4,1.4-3.4,3.7c0,2.3,1.5,3.7,3.4,3.7S1839.3,2045.6,1839.3,2043.3z"/>
		</g>
	</g>
	<g transform="translate(10 20)">
		<circle class="st1" cx="1519" cy="1701" r="20"/>
		<g class="st2">
			<path class="st3" d="M1525.4,1704.7c0,2.9-2.3,5.6-7.2,5.6c-2.4,0-5-0.7-6.7-1.9l1.6-3.1c1.3,1,3.2,1.6,5,1.6
				c2,0,3.3-0.8,3.3-2.2c0-1.3-1-2.1-3.3-2.1h-1.8v-2.7l3.6-4.1h-7.4v-3.2h12.2v2.6l-3.9,4.5
				C1523.8,1700.1,1525.4,1702.1,1525.4,1704.7z"/>
		</g>
		<g class="st2">
			<path d="M1238.6,1698.9c0,3.9-2.9,6.3-7.6,6.3h-3.5v4.8h-4v-17.5h7.6C1235.7,1692.5,1238.6,1694.9,1238.6,1698.9z M1234.5,1698.9
				c0-1.9-1.2-3-3.7-3h-3.3v6.1h3.3C1233.3,1701.9,1234.5,1700.8,1234.5,1698.9z"/>
			<path d="M1253.3,1702.3v7.7h-3.6v-1.7c-0.7,1.2-2.1,1.9-4.1,1.9c-3.1,0-5-1.8-5-4.1c0-2.4,1.7-4,5.8-4h3.1c0-1.7-1-2.6-3.1-2.6
				c-1.4,0-2.9,0.5-3.9,1.2l-1.4-2.7c1.5-1,3.6-1.6,5.8-1.6C1250.9,1696.4,1253.3,1698.3,1253.3,1702.3z M1249.4,1705.8v-1.4h-2.7
				c-1.8,0-2.4,0.7-2.4,1.6c0,1,0.8,1.6,2.2,1.6C1247.8,1707.6,1248.9,1707,1249.4,1705.8z"/>
			<path d="M1255.7,1708.8l1.3-2.8c1.2,0.8,3,1.3,4.7,1.3c1.8,0,2.5-0.5,2.5-1.2c0-2.2-8.1,0-8.1-5.3c0-2.5,2.3-4.3,6.2-4.3
				c1.8,0,3.9,0.4,5.2,1.2l-1.3,2.8c-1.3-0.8-2.6-1-3.9-1c-1.7,0-2.5,0.5-2.5,1.2c0,2.3,8.1,0.1,8.1,5.4c0,2.5-2.3,4.3-6.3,4.3
				C1259.3,1710.2,1257,1709.6,1255.7,1708.8z"/>
			<path d="M1279.2,1709.4c-0.8,0.6-2,0.8-3.2,0.8c-3.2,0-5-1.6-5-4.8v-5.5h-2.1v-3h2.1v-3.3h3.9v3.3h3.3v3h-3.3v5.5
				c0,1.1,0.6,1.8,1.7,1.8c0.6,0,1.1-0.2,1.6-0.5L1279.2,1709.4z"/>
			<path d="M1294.4,1704.4h-10.2c0.4,1.7,1.8,2.7,3.8,2.7c1.4,0,2.4-0.4,3.4-1.3l2.1,2.2c-1.2,1.4-3.1,2.2-5.5,2.2
				c-4.6,0-7.7-2.9-7.7-6.9s3.1-6.9,7.2-6.9c3.9,0,7,2.6,7,7C1294.4,1703.6,1294.4,1704.1,1294.4,1704.4z M1284.1,1702.1h6.6
				c-0.3-1.7-1.5-2.8-3.3-2.8C1285.7,1699.3,1284.4,1700.4,1284.1,1702.1z"/>
			<path d="M1303.6,1703.3c0-4,3.1-6.9,7.4-6.9s7.4,2.9,7.4,6.9s-3.1,6.9-7.4,6.9C1306.7,1710.2,1303.6,1707.3,1303.6,1703.3z
				 M1314.4,1703.3c0-2.3-1.5-3.7-3.4-3.7s-3.4,1.4-3.4,3.7c0,2.3,1.5,3.7,3.4,3.7C1313,1707,1314.4,1705.6,1314.4,1703.3z"/>
			<path d="M1335,1702.3v7.7h-3.9v-7.1c0-2.2-1-3.2-2.7-3.2c-1.9,0-3.2,1.1-3.2,3.6v6.6h-3.9v-13.4h3.7v1.6c1-1.1,2.6-1.8,4.4-1.8
				C1332.6,1696.4,1335,1698.2,1335,1702.3z"/>
			<path d="M1359.6,1696.6v13.4h-3.7v-1.6c-1,1.2-2.5,1.8-4.2,1.8c-3.4,0-5.7-1.9-5.7-6v-7.6h3.9v7c0,2.2,1,3.2,2.7,3.2
				c1.8,0,3.1-1.2,3.1-3.6v-6.6L1359.6,1696.6L1359.6,1696.6z"/>
			<path d="M1377.3,1702.3v7.7h-3.9v-7.1c0-2.2-1-3.2-2.7-3.2c-1.9,0-3.2,1.1-3.2,3.6v6.6h-3.9v-13.4h3.7v1.6c1-1.1,2.6-1.8,4.4-1.8
				C1374.9,1696.4,1377.3,1698.2,1377.3,1702.3z"/>
			<path d="M1380.6,1692.5c0-1.2,1-2.2,2.4-2.2s2.4,0.9,2.4,2.1c0,1.3-1,2.2-2.4,2.2S1380.6,1693.7,1380.6,1692.5z M1381,1696.6h3.9
				v13.4h-3.9V1696.6z"/>
			<path d="M1393.1,1696.9h3.4v3h-3.3v10.1h-3.9v-10.1h-2.1v-3h2.1v-0.6c0-3,1.8-5,5.2-5c1.1,0,2.2,0.2,3,0.7l-1,2.8
				c-0.4-0.3-1-0.5-1.6-0.5c-1.1,0-1.8,0.6-1.8,1.9L1393.1,1696.9L1393.1,1696.9z"/>
			<path d="M1412.3,1696.6l-6.1,14.3c-1.3,3.2-3.1,4.2-5.6,4.2c-1.4,0-2.9-0.5-3.7-1.2l1.4-2.8c0.6,0.5,1.4,0.8,2.2,0.8
				c1.1,0,1.7-0.5,2.2-1.7v-0.1l-5.8-13.5h4l3.8,9.1l3.8-9.1L1412.3,1696.6L1412.3,1696.6z"/>
			<path d="M1426.9,1704.4h-10.2c0.4,1.7,1.8,2.7,3.8,2.7c1.4,0,2.4-0.4,3.4-1.3l2.1,2.2c-1.2,1.4-3.1,2.2-5.5,2.2
				c-4.6,0-7.7-2.9-7.7-6.9s3.1-6.9,7.2-6.9c3.9,0,7,2.6,7,7C1427,1703.6,1426.9,1704.1,1426.9,1704.4z M1416.7,1702.1h6.6
				c-0.3-1.7-1.5-2.8-3.3-2.8C1418.2,1699.3,1417,1700.4,1416.7,1702.1z"/>
			<path d="M1428.9,1707.8c0-1.5,1.1-2.4,2.4-2.4s2.4,0.9,2.4,2.4c0,1.4-1.1,2.4-2.4,2.4C1430,1710.2,1428.9,1709.2,1428.9,1707.8z"
				/>
			<path d="M1436.2,1692.5c0-1.2,1-2.2,2.4-2.2s2.4,0.9,2.4,2.1c0,1.3-1,2.2-2.4,2.2S1436.2,1693.7,1436.2,1692.5z M1436.6,1696.6
				h3.9v13.4h-3.9V1696.6z"/>
			<path d="M1443.4,1703.3c0-4,3.1-6.9,7.4-6.9s7.4,2.9,7.4,6.9s-3.1,6.9-7.4,6.9C1446.5,1710.2,1443.4,1707.3,1443.4,1703.3z
				 M1454.2,1703.3c0-2.3-1.5-3.7-3.4-3.7s-3.4,1.4-3.4,3.7c0,2.3,1.5,3.7,3.4,3.7C1452.8,1707,1454.2,1705.6,1454.2,1703.3z"/>
		</g>
	</g>
	<g transform="translate(-10)">
		<circle class="st1" cx="1569" cy="1401" r="20"/>
		<g class="st2">
			<path class="st3" d="M1575.5,1406.7v3.3h-13.2v-2.6l6.7-6.4c1.5-1.5,1.8-2.4,1.8-3.2c0-1.4-1-2.2-2.8-2.2c-1.5,0-2.8,0.6-3.6,1.8
				l-2.9-1.9c1.3-2,3.8-3.2,6.9-3.2c3.9,0,6.5,2,6.5,5.2c0,1.7-0.5,3.2-2.9,5.5l-4,3.8h7.5V1406.7z"/>
		</g>
		<g class="st2">
			<path d="M1629.7,1408.3l1.4-3c1.5,1.1,3.7,1.8,5.8,1.8c2.4,0,3.4-0.8,3.4-1.9c0-3.3-10.2-1-10.2-7.5c0-3,2.4-5.4,7.4-5.4
				c2.2,0,4.4,0.5,6.1,1.5l-1.2,3.1c-1.6-0.9-3.3-1.4-4.8-1.4c-2.4,0-3.3,0.9-3.3,2c0,3.2,10.2,1,10.2,7.4c0,2.9-2.4,5.4-7.4,5.4
				C1634,1410.3,1631.2,1409.5,1629.7,1408.3z"/>
			<path d="M1660.7,1402.3v7.7h-3.9v-7.1c0-2.2-1-3.2-2.7-3.2c-1.9,0-3.2,1.1-3.2,3.6v6.6h-3.9v-18.5h3.9v6.5c1-1,2.5-1.6,4.3-1.6
				C1658.3,1396.4,1660.7,1398.2,1660.7,1402.3z"/>
			<path d="M1676.4,1402.3v7.7h-3.7v-1.7c-0.7,1.2-2.1,1.9-4.1,1.9c-3.2,0-5-1.8-5-4.1c0-2.4,1.7-4,5.8-4h3.1c0-1.7-1-2.6-3.1-2.6
				c-1.4,0-2.9,0.5-3.9,1.2l-1.4-2.7c1.5-1,3.6-1.6,5.8-1.6C1674,1396.4,1676.4,1398.3,1676.4,1402.3z M1672.5,1405.8v-1.4h-2.7
				c-1.8,0-2.4,0.7-2.4,1.6c0,1,0.8,1.6,2.2,1.6C1670.9,1407.6,1672.1,1407,1672.5,1405.8z"/>
			<path d="M1688.5,1396.4v3.6c-0.3,0-0.6,0-0.9,0c-2.1,0-3.6,1.2-3.6,3.7v6.3h-3.9v-13.4h3.7v1.8
				C1684.9,1397,1686.5,1396.4,1688.5,1396.4z"/>
			<path d="M1704.1,1404.4h-10.2c0.4,1.7,1.8,2.7,3.8,2.7c1.4,0,2.5-0.4,3.4-1.3l2.1,2.2c-1.2,1.4-3.1,2.2-5.5,2.2
				c-4.6,0-7.7-2.9-7.7-6.9s3.1-6.9,7.2-6.9c3.9,0,7,2.6,7,7C1704.2,1403.6,1704.1,1404.1,1704.1,1404.4z M1693.9,1402.1h6.6
				c-0.3-1.7-1.5-2.8-3.3-2.8C1695.4,1399.3,1694.1,1400.4,1693.9,1402.1z"/>
			<path d="M1727.7,1396.6l-6.1,14.3c-1.3,3.2-3.1,4.2-5.6,4.2c-1.4,0-2.9-0.5-3.8-1.2l1.4-2.8c0.6,0.5,1.4,0.8,2.2,0.8
				c1.1,0,1.7-0.5,2.2-1.7v-0.1l-5.8-13.5h4l3.8,9.1l3.8-9.1L1727.7,1396.6L1727.7,1396.6z"/>
			<path d="M1728.2,1403.3c0-4,3.1-6.9,7.4-6.9s7.4,2.9,7.4,6.9s-3.1,6.9-7.4,6.9C1731.3,1410.2,1728.2,1407.3,1728.2,1403.3z
				 M1739,1403.3c0-2.3-1.5-3.7-3.4-3.7s-3.4,1.4-3.4,3.7c0,2.3,1.5,3.7,3.4,3.7S1739,1405.6,1739,1403.3z"/>
			<path d="M1759.3,1396.6v13.4h-3.7v-1.6c-1,1.2-2.5,1.8-4.2,1.8c-3.4,0-5.7-1.9-5.7-6v-7.6h3.9v7c0,2.2,1,3.2,2.7,3.2
				c1.8,0,3.1-1.2,3.1-3.6v-6.6L1759.3,1396.6L1759.3,1396.6z"/>
			<path d="M1771.6,1396.4v3.6c-0.3,0-0.6,0-0.9,0c-2.2,0-3.6,1.2-3.6,3.7v6.3h-3.9v-13.4h3.7v1.8
				C1767.9,1397,1769.5,1396.4,1771.6,1396.4z"/>
			<path d="M1790.2,1409.4c-0.8,0.6-2,0.8-3.2,0.8c-3.2,0-5-1.6-5-4.8v-5.5h-2.1v-3h2.1v-3.3h3.9v3.3h3.3v3h-3.3v5.5
				c0,1.1,0.6,1.8,1.7,1.8c0.6,0,1.2-0.2,1.6-0.5L1790.2,1409.4z"/>
			<path d="M1804.6,1402.3v7.7h-3.7v-1.7c-0.7,1.2-2.1,1.9-4.1,1.9c-3.2,0-5-1.8-5-4.1c0-2.4,1.7-4,5.8-4h3.1c0-1.7-1-2.6-3.1-2.6
				c-1.4,0-2.9,0.5-3.9,1.2l-1.4-2.7c1.5-1,3.6-1.6,5.8-1.6C1802.2,1396.4,1804.6,1398.3,1804.6,1402.3z M1800.7,1405.8v-1.4h-2.7
				c-1.8,0-2.4,0.7-2.4,1.6c0,1,0.8,1.6,2.2,1.6C1799.1,1407.6,1800.2,1407,1800.7,1405.8z"/>
			<path d="M1822.4,1396.6v11.2c0,5-2.7,7.3-7.5,7.3c-2.5,0-5-0.6-6.6-1.8l1.5-2.8c1.2,0.9,3,1.5,4.8,1.5c2.7,0,3.9-1.2,3.9-3.7
				v-0.6c-1,1.1-2.5,1.7-4.2,1.7c-3.7,0-6.7-2.6-6.7-6.5s3-6.5,6.7-6.5c1.9,0,3.4,0.6,4.4,1.9v-1.7H1822.4z M1818.5,1402.9
				c0-2-1.5-3.3-3.5-3.3s-3.5,1.3-3.5,3.3s1.5,3.3,3.5,3.3C1817.1,1406.2,1818.5,1404.8,1818.5,1402.9z"/>
		</g>
	</g>
	<g transform="translate(10)">
		<circle class="st1" cx="1519" cy="1081" r="20"/>
		<g class="st2">
			<path class="st3" d="M1521.7,1072.5v17.5h-4v-14.2h-3.5v-3.2h7.5V1072.5z"/>
		</g>
		<g class="st2">
			<path d="M1334.6,1081h3.7v7.1c-1.9,1.5-4.6,2.2-7.1,2.2c-5.5,0-9.5-3.8-9.5-9s4-9,9.6-9c3.1,0,5.6,1,7.3,3l-2.6,2.4
				c-1.3-1.3-2.7-2-4.5-2c-3.4,0-5.7,2.3-5.7,5.6c0,3.3,2.3,5.6,5.7,5.6c1.1,0,2.1-0.2,3.1-0.8V1081z"/>
			<path d="M1350.3,1076.4v3.6c-0.3,0-0.6,0-0.9,0c-2.1,0-3.6,1.2-3.6,3.7v6.3h-3.9v-13.4h3.7v1.8
				C1346.7,1077,1348.3,1076.4,1350.3,1076.4z"/>
			<path d="M1364.7,1082.3v7.7h-3.6v-1.7c-0.7,1.2-2.1,1.9-4.1,1.9c-3.1,0-5-1.8-5-4.1c0-2.4,1.7-4,5.8-4h3.1c0-1.7-1-2.6-3.1-2.6
				c-1.4,0-2.9,0.5-3.9,1.2l-1.4-2.7c1.5-1,3.6-1.6,5.8-1.6C1362.4,1076.4,1364.7,1078.3,1364.7,1082.3z M1360.8,1085.8v-1.4h-2.7
				c-1.8,0-2.4,0.7-2.4,1.6c0,1,0.8,1.6,2.2,1.6C1359.3,1087.6,1360.4,1087,1360.8,1085.8z"/>
			<path d="M1383.2,1083.3c0,4.2-2.9,6.9-6.7,6.9c-1.8,0-3.2-0.6-4.2-1.8v1.5h-3.7v-18.5h3.9v6.5c1-1.1,2.4-1.6,4-1.6
				C1380.2,1076.4,1383.2,1079.1,1383.2,1083.3z M1379.2,1083.3c0-2.3-1.5-3.7-3.4-3.7s-3.4,1.4-3.4,3.7c0,2.3,1.5,3.7,3.4,3.7
				S1379.2,1085.6,1379.2,1083.3z"/>
			<path d="M1405.2,1082.3v7.7h-3.6v-1.7c-0.7,1.2-2.1,1.9-4.1,1.9c-3.1,0-5-1.8-5-4.1c0-2.4,1.7-4,5.8-4h3.1c0-1.7-1-2.6-3.1-2.6
				c-1.4,0-2.9,0.5-3.9,1.2l-1.4-2.7c1.5-1,3.6-1.6,5.8-1.6C1402.9,1076.4,1405.2,1078.3,1405.2,1082.3z M1401.3,1085.8v-1.4h-2.7
				c-1.8,0-2.4,0.7-2.4,1.6c0,1,0.8,1.6,2.2,1.6C1399.8,1087.6,1400.9,1087,1401.3,1085.8z"/>
			<path d="M1425,1089.4c-0.8,0.6-2,0.8-3.2,0.8c-3.2,0-5-1.6-5-4.8v-5.5h-2.1v-3h2.1v-3.3h3.9v3.3h3.3v3h-3.3v5.5
				c0,1.1,0.6,1.8,1.7,1.8c0.6,0,1.1-0.2,1.6-0.5L1425,1089.4z"/>
			<path d="M1439.4,1082.3v7.7h-3.6v-1.7c-0.7,1.2-2.1,1.9-4.1,1.9c-3.1,0-5-1.8-5-4.1c0-2.4,1.7-4,5.8-4h3.1c0-1.7-1-2.6-3.1-2.6
				c-1.4,0-2.9,0.5-3.9,1.2l-1.4-2.7c1.5-1,3.6-1.6,5.8-1.6C1437,1076.4,1439.4,1078.3,1439.4,1082.3z M1435.5,1085.8v-1.4h-2.7
				c-1.8,0-2.4,0.7-2.4,1.6c0,1,0.8,1.6,2.2,1.6C1433.9,1087.6,1435,1087,1435.5,1085.8z"/>
			<path d="M1457.2,1076.6v11.2c0,5-2.7,7.3-7.5,7.3c-2.5,0-5-0.6-6.6-1.8l1.5-2.8c1.1,0.9,3,1.5,4.7,1.5c2.7,0,3.9-1.2,3.9-3.7
				v-0.6c-1,1.1-2.5,1.7-4.2,1.7c-3.7,0-6.7-2.6-6.7-6.5s3-6.5,6.7-6.5c1.9,0,3.4,0.6,4.4,1.9v-1.7H1457.2z M1453.3,1082.9
				c0-2-1.5-3.3-3.5-3.3s-3.5,1.3-3.5,3.3s1.5,3.3,3.5,3.3C1451.8,1086.2,1453.3,1084.8,1453.3,1082.9z"/>
		</g>
	</g>
</g>
</svg>
