<svg xmlns="http://www.w3.org/2000/svg" xmlns:xlink="http://www.w3.org/1999/xlink" width="790.029" height="657" viewBox="0 0 790.029 657"><defs><linearGradient id="a" x1="0.5" y1="1" x2="0.5" gradientUnits="objectBoundingBox"><stop offset="0" stop-color="gray" stop-opacity="0.251"/><stop offset="0.54" stop-color="gray" stop-opacity="0.122"/><stop offset="1" stop-color="gray" stop-opacity="0.102"/></linearGradient><linearGradient id="f" xlink:href="#a"/></defs><g transform="translate(0)"><g transform="translate(415.185)" opacity="0.8"><rect width="374.844" height="418.366" fill="url(#a)"/></g><rect width="362.449" height="129.928" transform="translate(421.378 279.327)" fill="#fff"/><rect width="14.045" height="66.578" transform="translate(451.039 310.144)" fill="#64ffda"/><g transform="translate(478.772 310.144)" opacity="0.7"><rect width="14.045" height="66.578" fill="#64ffda"/></g><g transform="translate(506.515 310.144)" opacity="0.6"><rect width="14.045" height="66.578" fill="#64ffda"/></g><g transform="translate(534.248 310.144)" opacity="0.5"><rect width="14.045" height="66.578" fill="#64ffda"/></g><g transform="translate(561.981 310.144)" opacity="0.5"><rect width="14.045" height="66.578" fill="#64ffda"/></g><g transform="translate(589.714 310.144)" opacity="0.4"><rect width="14.045" height="66.578" fill="#64ffda"/></g><g transform="translate(617.457 310.144)" opacity="0.3"><rect width="14.045" height="66.578" fill="#64ffda"/></g><circle cx="33.891" cy="33.891" r="33.891" transform="translate(698.625 309.114)" fill="#68e1fd"/><rect width="362.449" height="129.928" transform="translate(421.378 144.338)" fill="#fff"/><rect width="14.045" height="66.578" transform="translate(451.039 175.155)" fill="#64ffda"/><g transform="translate(478.772 175.155)" opacity="0.7"><rect width="14.045" height="66.578" fill="#64ffda"/></g><g transform="translate(506.515 175.155)" opacity="0.6"><rect width="14.045" height="66.578" fill="#64ffda"/></g><g transform="translate(534.248 175.155)" opacity="0.5"><rect width="14.045" height="66.578" fill="#64ffda"/></g><g transform="translate(561.981 175.155)" opacity="0.5"><rect width="14.045" height="66.578" fill="#64ffda"/></g><g transform="translate(589.714 175.155)" opacity="0.4"><rect width="14.045" height="66.578" fill="#64ffda"/></g><g transform="translate(617.457 175.155)" opacity="0.3"><rect width="14.045" height="66.578" fill="#64ffda"/></g><circle cx="33.891" cy="33.891" r="33.891" transform="translate(698.625 174.134)" fill="#68e1fd"/><rect width="362.449" height="129.928" transform="translate(421.378 9.348)" fill="#fff"/><rect width="14.045" height="66.578" transform="translate(451.039 40.175)" fill="#64ffda"/><g transform="translate(478.772 40.175)" opacity="0.7"><rect width="14.045" height="66.578" fill="#64ffda"/></g><g transform="translate(506.515 40.175)" opacity="0.6"><rect width="14.045" height="66.578" fill="#64ffda"/></g><g transform="translate(534.248 40.175)" opacity="0.5"><rect width="14.045" height="66.578" fill="#64ffda"/></g><g transform="translate(561.981 40.175)" opacity="0.5"><rect width="14.045" height="66.578" fill="#64ffda"/></g><g transform="translate(589.714 40.175)" opacity="0.4"><rect width="14.045" height="66.578" fill="#64ffda"/></g><g transform="translate(617.457 40.175)" opacity="0.3"><rect width="14.045" height="66.578" fill="#64ffda"/></g><circle cx="36.536" cy="36.536" r="36.536" transform="translate(695.98 36.499)" fill="url(#a)"/><circle cx="36.536" cy="36.536" r="36.536" transform="translate(695.98 172.392)" fill="url(#a)"/><circle cx="36.536" cy="36.536" r="36.536" transform="translate(695.98 307.372)" fill="url(#a)"/><circle cx="33.891" cy="33.891" r="33.891" transform="translate(698.625 39.144)" fill="#68e1fd"/><g transform="translate(30.161 299.501)" opacity="0.8"><path d="M701.74,752.9H200.07V432.61a14.41,14.41,0,0,1,14.41-14.41H687.321a14.41,14.41,0,0,1,14.41,14.41Z" transform="translate(-200.07 -418.2)" fill="url(#a)"/></g><path d="M55.06,334.85H514.084a14.41,14.41,0,0,1,14.41,14.41V663.654H40.65V349.26a14.41,14.41,0,0,1,14.41-14.41Z" transform="translate(-3.576 -29.457)" fill="#fff"/><rect width="456.434" height="299.373" transform="translate(52.779 324.518)" fill="#f5f5f5"/><rect width="454.5" height="269.34" transform="translate(54.53 339.056)" fill="#e0e0e0" opacity="0.8"/><rect width="454.5" height="14.31" transform="translate(54.53 324.746)" fill="#f5f5f5"/><circle cx="3.466" cy="3.466" r="3.466" transform="translate(60.805 328.212)" fill="#ff5252"/><circle cx="3.466" cy="3.466" r="3.466" transform="translate(70.345 328.212)" fill="#ff0"/><circle cx="3.466" cy="3.466" r="3.466" transform="translate(79.894 328.212)" fill="#69f0ae"/><g transform="translate(0 602.577)" opacity="0.8"><path d="M712.867,803.645c-27.926,2.116-507.507,1.268-524.27,0-21.971-10.589-21.6-51.666-21.6-51.666l219.936-1.468.739,12.5h94.158l3.648-11.035H729.247S734.09,789.672,712.867,803.645Z" transform="translate(-167 -750.51)" fill="url(#f)"/></g><path d="M725.991,755.75H486.985a7.3,7.3,0,0,1-5.572,12.139h-91.2a7.3,7.3,0,0,1-5.573-12.139H170.63s-.365,35.678,21.332,44.872c16.553,1.1,490.27,1.824,517.85,0C730.779,788.483,725.991,755.75,725.991,755.75Z" transform="translate(-167.319 -148.394)" fill="#f5f5f5"/><circle cx="2.946" cy="2.946" r="2.946" transform="translate(50.016 612.126)" fill="#e0e0e0"/><circle cx="2.946" cy="2.946" r="2.946" transform="translate(58.844 612.126)" fill="#e0e0e0"/><circle cx="2.946" cy="2.946" r="2.946" transform="translate(67.672 612.126)" fill="#e0e0e0"/><g transform="translate(178.354 349.644)" opacity="0.7"><path d="M451.011,473.18,362.49,527.655s0,112.362,88.521,173.641c88.521-61.288,88.521-173.641,88.521-173.641Z" transform="translate(-362.49 -473.18)" fill="url(#a)"/></g><path d="M451.5,480.23,368,531.641s0,106.032,83.542,163.864c83.542-57.832,83.542-163.864,83.542-163.864Z" transform="translate(-184.62 -124.156)" fill="#68e1fd"/><path d="M460.972,480.23l-1.432.912V694.557l1.432,1C544.514,637.728,544.514,531.7,544.514,531.7Z" transform="translate(-192.655 -124.156)" opacity="0.05"/><path d="M452.424,493.85,378.55,539.324s0,93.793,73.874,144.958C526.3,633.117,526.3,539.324,526.3,539.324Z" transform="translate(-185.547 -125.354)" fill="#68e1fd"/><path d="M459.55,494.24v190.4c73.874-51.165,73.874-144.958,73.874-144.958Z" transform="translate(-192.657 -125.388)" opacity="0.08"/><path d="M239,288.17V99.38H394.957" transform="translate(-20.952 -8.743)" fill="none" stroke="#3ad29f" stroke-miterlimit="10" stroke-width="2" stroke-dasharray="12"/><path d="M186,225.17V36.38H341.957" transform="translate(-16.306 -3.2)" fill="none" stroke="#3ad29f" stroke-miterlimit="10" stroke-width="2" stroke-dasharray="12"/><path d="M708.083,477.38V625.129H626" transform="translate(-54.899 -41.996)" fill="none" stroke="#3ad29f" stroke-miterlimit="10" stroke-width="2" stroke-dasharray="12"/><path d="M762.083,513.38V661.129H680" transform="translate(-59.609 -45.163)" fill="none" stroke="#3ad29f" stroke-miterlimit="10" stroke-width="2" stroke-dasharray="12"/></g></svg>