<svg xmlns="http://www.w3.org/2000/svg" xmlns:xlink="http://www.w3.org/1999/xlink" width="293.117" height="320.841" viewBox="0 0 293.117 320.841"><defs><linearGradient id="a" x1="0.5" y1="0.55" x2="0.549" y2="3.974" gradientUnits="objectBoundingBox"><stop offset="0" stop-opacity="0"/><stop offset="0.95"/></linearGradient><linearGradient id="b" x1="0.515" y1="0.374" x2="-1.524" y2="1.983" xlink:href="#a"/><linearGradient id="c" x1="0.654" y1="0.376" x2="-1.527" y2="1.753" xlink:href="#a"/></defs><g transform="translate(-0.003 0.031)"><path d="M326.77,59c-1.93-26-22.08-49.56-47.44-55.5-22.9-5.37-46.84,2.62-70.29.83-9.1-.7-18.07-2.87-27.2-3.1a65.47,65.47,0,0,0-52.37,24.66c-14.6,18.62-24.66,41.7-27.14,65.23-7.6,72.25-34.51,90.3-37.74,110.88-12.49,79.5,69.12,116.62,134,119.89,59.17,3,138.22-34.43,148.16-47.12,14.37-18.38,10.19-64.5,3.75-86.92-5.16-18-13.16-35.86-14.69-54.66-1.26-15.59.22-24.78-5.92-40.22C325.59,82.22,327.61,70.31,326.77,59Z" transform="translate(-63.31 -1.25)" fill="#68e1fd" opacity="0.24" style="isolation:isolate"/><path d="M85.57,249.9,35.2,264.2l-20.45-72,1.12-1.68,37.46-9.28,8.19,2.71,6.19,3.07,18.98,61.2Z" fill="#68e1fd" opacity="0.44" style="isolation:isolate"/><path d="M332.34,121.11a39.13,39.13,0,0,1-39.16,39.16H146.75A39.148,39.148,0,1,1,144.83,82a37.74,37.74,0,0,1,37.1-31.207h5a37.78,37.78,0,0,1,24,8.62A45.29,45.29,0,0,1,298.42,76a33.919,33.919,0,0,1-.53,6.3,39.11,39.11,0,0,1,34.45,38.81Z" transform="translate(-63.31 -1.25)" fill="#68e1fd"/><path d="M332.34,121.11a39.13,39.13,0,0,1-39.16,39.16H146.75A39.148,39.148,0,1,1,144.83,82a37.74,37.74,0,0,1,37.1-31.207h5a37.78,37.78,0,0,1,24,8.62A45.29,45.29,0,0,1,298.42,76a33.919,33.919,0,0,1-.53,6.3,39.11,39.11,0,0,1,34.45,38.81Z" transform="translate(-63.31 -1.25)" fill="url(#a)"/><path d="M331.78,109.84a36.7,36.7,0,0,1-11.38,26.55,39.52,39.52,0,0,1-27.5,11H147.51c-21.52,0-38.95-16.76-38.95-37.53A36.78,36.78,0,0,1,119.94,83.3,39.31,39.31,0,0,1,145.6,72.38,35.41,35.41,0,0,1,156,53.07a38,38,0,0,1,26.45-10.6h5a38.39,38.39,0,0,1,23.82,8.25c6.5-16.13,22.73-27.56,41.83-27.56,24.87,0,45,19.43,45,43.44a31.087,31.087,0,0,1-.53,6C316.85,74.85,331.78,90.66,331.78,109.84Z" transform="translate(-63.31 -1.25)" fill="#fff"/><path d="M146.49,210.47H121.65a3,3,0,0,1,0-6h24.84a6.94,6.94,0,0,0,6.94-6.94V154.77a3,3,0,0,1,6,0v42.79a12.93,12.93,0,0,1-12.94,12.91Z" transform="translate(-63.31 -1.25)" fill="#68e1fd"/><path d="M294.76,210.47H269.92A12.93,12.93,0,0,1,257,197.56V154.77a3,3,0,0,1,6,0v42.79a6.94,6.94,0,0,0,6.94,6.94h24.84a3,3,0,0,1,0,6Z" transform="translate(-63.31 -1.25)" fill="#68e1fd"/><path d="M212.13,265.81a3,3,0,0,1-3-3V158.13a3,3,0,0,1,6,0V262.82A3,3,0,0,1,212.13,265.81Z" transform="translate(-63.31 -1.25)" fill="#68e1fd"/><path d="M211.26,50.72l10.22,10.57s6.35-38.14,46.36-35.52C267.84,25.77,230.2,12.48,211.26,50.72Z" transform="translate(-63.31 -1.25)" fill="url(#b)"/><path d="M145.6,72.38s7.27-.81,14.19,7.61c0,0,1.49-34,30.37-34.59,0,0-11.83-7.56-28.32,3.08C147.07,58,145.6,72.38,145.6,72.38Z" transform="translate(-63.31 -1.25)" fill="url(#c)"/><path d="M86.69,248.22l-50.37,14.3-20.45-72,38.58-10.96,8.19,2.7,6.19,3.08Z" fill="#fff"/><path d="M117.6,180.81l8.7,11,6-5.42S124.33,182.28,117.6,180.81Z" transform="translate(-63.31 -1.25)" fill="#68e1fd" opacity="0.44" style="isolation:isolate"/><path d="M126.3,191.78s3.5-1.33,4.69-.28,16.41,58.75,16.41,58.75l2.6-.79-17.74-63.1Z" transform="translate(-63.31 -1.25)" fill="#68e1fd" opacity="0.1" style="isolation:isolate"/><path d="M27.83,204.03l34.53-9.15.7,2.2-34.49,9.3Z" fill="#68e1fd" opacity="0.44" style="isolation:isolate"/><path d="M30.07,211.74l34.53-9.15.7,2.2-34.49,9.3Z" fill="#68e1fd" opacity="0.44" style="isolation:isolate"/><path d="M32.32,219.46l34.52-9.15.71,2.19-34.5,9.3Z" fill="#68e1fd" opacity="0.44" style="isolation:isolate"/><path d="M34.56,227.17l34.53-9.15.7,2.19-34.49,9.3Z" fill="#68e1fd" opacity="0.44" style="isolation:isolate"/><path d="M119.99,249.34l56.22,8.37-9.49,51.73-56.93-9.9Z" fill="#68e1fd"/><path d="M119.48,248.32l56.22,8.37-9.49,51.73-56.93-9.9Z" fill="#fff"/><path d="M119.99,249.34l54.69,8.52-9.41,49.28-55.02-9.64Z" fill="#68e1fd" opacity="0.44" style="isolation:isolate"/><path d="M123.87,254.34l-5.51,30.61,25.1-11.32,8.26,11.63-5.81,5.2,12.96-8.37,5.81,7.55,5.82-27.34Z" fill="#fff"/><path d="M303.82,242.28l-17.39-24.1,21-32.51,21.12,28.44s5.4,10.34.25,15.08-10.45-1.3-10.12-3.52,7.19-11,7.19-11l-12.34-16.34-18.25,26.82,13.46,19.76c3,5.41,1.33,12.53-4.16,15.4a7.58,7.58,0,0,1-6.8.38C291.28,257.87,303.82,242.28,303.82,242.28Z" transform="translate(-63.31 -1.25)" fill="#fff"/><path d="M304.66,242l-17.39-24.1,21-32.51,21.12,28.44s5.4,10.34.25,15.08-10.45-1.3-10.12-3.52,7.19-11,7.19-11L314.4,198.06l-18.25,26.82,13.47,19.76c3,5.41,1.32,12.53-4.17,15.4a7.58,7.58,0,0,1-6.8.38C292.13,257.59,304.66,242,304.66,242Z" transform="translate(-63.31 -1.25)" fill="#68e1fd" opacity="0.44" style="isolation:isolate"/><path d="M305.87,241.82l-17.38-24.11,21-32.5,21.12,28.43s5.39,10.34.25,15.09-10.45-1.3-10.12-3.53,7.19-11,7.19-11l-12.34-16.34-18.26,26.82,13.47,19.76c3,5.42,1.33,12.53-4.17,15.4a7.53,7.53,0,0,1-6.79.38C293.34,257.4,305.87,241.82,305.87,241.82Z" transform="translate(-63.31 -1.25)" fill="#68e1fd" opacity="0.44" style="isolation:isolate"/><circle cx="9.35" cy="9.35" r="9.35" transform="translate(139.66 189.69)" fill="#fff"/><path d="M212.32,212.62a12.34,12.34,0,1,1,12.33-12.33,12.34,12.34,0,0,1-12.33,12.33Zm0-18.69a6.36,6.36,0,1,0,6.36,6.36A6.36,6.36,0,0,0,212.32,193.93Z" transform="translate(-63.31 -1.25)" fill="#68e1fd"/><circle cx="9.35" cy="9.35" r="9.35" transform="translate(187.89 174.74)" fill="#fff"/><path d="M260.55,197.67a12.34,12.34,0,1,1,12.34-12.34,12.34,12.34,0,0,1-12.34,12.34Zm0-18.7a6.345,6.345,0,1,1,0,.03Z" transform="translate(-63.31 -1.25)" fill="#68e1fd"/><circle cx="9.35" cy="9.35" r="9.35" transform="translate(83.95 174.74)" fill="#fff"/><path d="M156.61,197.67a12.34,12.34,0,1,1,12.33-12.34,12.34,12.34,0,0,1-12.33,12.34Zm0-18.7a6.345,6.345,0,1,1,0,.03Z" transform="translate(-63.31 -1.25)" fill="#68e1fd"/></g></svg>