<svg xmlns="http://www.w3.org/2000/svg" xmlns:xlink="http://www.w3.org/1999/xlink" width="309.995" height="242.193" viewBox="0 0 309.995 242.193"><defs><linearGradient id="a" x1="0.638" y1="0.537" x2="-0.755" y2="0.167" gradientUnits="objectBoundingBox"><stop offset="0.01"/><stop offset="0.13" stop-opacity="0.69"/><stop offset="0.25" stop-opacity="0.322"/><stop offset="1" stop-opacity="0"/></linearGradient><linearGradient id="b" x1="0.917" y1="0.51" x2="-1.305" y2="0.456" xlink:href="#a"/><linearGradient id="c" x1="-6.828" y1="0.097" x2="10.268" y2="1.037" xlink:href="#a"/><linearGradient id="d" x1="0.952" y1="0.637" x2="-1.282" y2="-0.039" xlink:href="#a"/><linearGradient id="e" x1="0.929" y1="-0.249" x2="-0.201" y2="1.392" xlink:href="#a"/><linearGradient id="f" x1="3.883" y1="0.858" x2="-2.853" y2="0.143" xlink:href="#a"/><linearGradient id="g" x1="0.532" y1="1.366" x2="0.478" y2="0.226" xlink:href="#a"/><linearGradient id="h" x1="0.408" y1="1.957" x2="0.562" y2="-0.163" xlink:href="#a"/><linearGradient id="i" x1="-1.486" y1="-0.157" x2="4.249" y2="1.741" xlink:href="#a"/><linearGradient id="j" x1="-1.565" y1="-0.065" x2="4.398" y2="1.566" xlink:href="#a"/><linearGradient id="k" x1="-0.155" y1="0.5" x2="2.842" y2="0.5" xlink:href="#a"/><linearGradient id="l" x1="1.004" y1="1.35" x2="-0.822" y2="-2.195" xlink:href="#a"/><linearGradient id="m" x1="0.999" y1="-0.043" x2="-0.458" y2="1.541" xlink:href="#a"/></defs><g transform="translate(-0.009 -0.049)"><path d="M229.46,45.146A341.464,341.464,0,0,1,245.926,79.5c4.638,11.648,14.634,21.5,23.837,29.653,10.16,9,21.2,17.006,30.765,26.634s17.726,21.268,20.385,34.552c3.01,15.035-1.358,30.781-8.843,44.172a48.336,48.336,0,0,1-8.883,11.918A53.361,53.361,0,0,1,290.5,234.66c-12.074,6.037-24.769,10.724-38.176,12.532-13.955,1.881-28.147,1.047-42.078-.679-18.732-2.315-37.293-6.233-56.139-7.362-13.587-.818-27.223-.147-40.794.875-14.52,1.088-29.325,2.56-43.485-.818-18.585-4.425-34.691-17.243-44.532-33.669C16.714,191.257,7.07,164.1,14.579,148.083c8-17.055,29.685-28.63,43.886-39.812,5.726-4.524,11.452-9.505,14.724-16.049,3.648-7.3,3.918-15.747,5.432-23.722,4.908-25.972,24.54-48.63,49.6-57.154C163.39-.646,205.877,7.313,226.605,40.254,227.611,41.825,228.56,43.477,229.46,45.146Z" transform="translate(-11.87 -6.02)" fill="#68e1fd" opacity="0.18" style="isolation:isolate"/><path d="M282.527,213.741h-6.495v-.564h5.922v-52.99H259.115V81.854H238.15V81.29h21.53v78.332h22.847Z" transform="translate(-43.341 -14.786)" fill="#68e1fd"/><path d="M133.283,124.56h-.573V105.828h14.618V88.92h.564V106.4H133.283Z" transform="translate(-24.152 -16.174)" fill="#68e1fd"/><rect width="92.238" height="32.041" rx="10.43" transform="translate(96.288 187.2)" fill="#68e1fd"/><rect width="92.238" height="32.041" rx="10.43" transform="translate(96.288 149.09)" fill="#68e1fd"/><rect width="92.238" height="32.041" rx="10.43" transform="translate(96.288 187.2)" fill="url(#a)"/><rect width="92.238" height="32.041" rx="10.43" transform="translate(96.288 149.09)" fill="url(#b)"/><rect width="92.238" height="32.041" rx="10.43" transform="translate(105.376 187.2)" fill="#68e1fd"/><path d="M232.93,196.8v14.969a8.524,8.524,0,0,1-8.548,8.548h-75.15a8.532,8.532,0,0,1-8.532-8.548V196.8a8.532,8.532,0,0,1,8.532-8.532h75.15a8.532,8.532,0,0,1,8.548,8.532Z" transform="translate(-35.315 -39.18)" fill="#68e1fd"/><path d="M252.683,201.77v12.458A8.556,8.556,0,0,1,249.345,221c-.065-2.65-.213-10.029,0-13.3a8.082,8.082,0,0,1,3.337-5.93Z" transform="translate(-55.069 -41.637)" fill="url(#c)"/><rect width="92.238" height="32.041" rx="10.43" transform="translate(96.288 108.386)" fill="#68e1fd"/><rect width="92.238" height="32.041" rx="10.43" transform="translate(96.288 108.386)" fill="url(#d)"/><rect width="92.238" height="32.041" rx="10.43" transform="translate(105.376 108.386)" fill="#68e1fd"/><path d="M216.978,160.291a1.636,1.636,0,0,0-.941,1.8c.082.728.425,1.415.54,2.135.335,2.1-1.415,4.139-3.468,4.671-2.691.687-5.448-.671-7.836-2.086a3.689,3.689,0,0,1-.818-.581,3.419,3.419,0,0,1-.671-1.742,19.23,19.23,0,0,1-.434-3.607c0-2.773,1.219-5.423,1.284-8.18a10.307,10.307,0,0,0-5.513-9.235,32.723,32.723,0,0,0-4.295-1.546,25.834,25.834,0,0,1-3.73-1.636c-.753-.393-1.579-.949-1.636-1.791a8.18,8.18,0,0,1,4.025-.687h23.722a1.232,1.232,0,0,1,1.44.973c1.587,3.8,1.4,8.016,1.726,12.049a24.54,24.54,0,0,0,1.088,5.8c.335,1.022,1.432,2.978.744,4.049C220.912,162.671,218.434,159.9,216.978,160.291Z" transform="translate(-44.19 -29.99)" fill="url(#e)"/><path d="M228.8,73.465a10.724,10.724,0,0,1-10.732,10.724H144.546a10.732,10.732,0,1,1,0-21.456H147A21.145,21.145,0,0,1,167.36,35.87h6.258a21.113,21.113,0,0,1,18.765,11.4,12.614,12.614,0,0,1,5.775-1.391h1.636a12.72,12.72,0,0,1,12.72,12.72v.63a12.7,12.7,0,0,1-.491,3.5h6.086A10.74,10.74,0,0,1,228.8,73.465Z" transform="translate(-34.008 -11.444)" fill="#fff"/><path d="M183.084,79.223a8.588,8.588,0,0,0,.9-2.029,59.222,59.222,0,0,1,2.757-6.315,7.583,7.583,0,0,1,1.849-2.6c1.481-1.211,3.566-1.243,5.481-1.219,1.276,0,2.732.123,3.5,1.137a4.09,4.09,0,0,1,.6,2.241,57.072,57.072,0,0,1-2.151,19.477q-5.276.27-10.569.466c-2.4.1-7.182,1.243-9.145-.474C171.289,85.538,181.424,81.595,183.084,79.223Z" transform="translate(-41.544 -17.119)" fill="url(#f)"/><path d="M278.527,219.434a1.922,1.922,0,0,1-1.922-1.882V205.095a8.18,8.18,0,1,0-16.36,0v12.458a1.922,1.922,0,1,1-3.845,0V205.095a12.025,12.025,0,0,1,24.049,0v12.458A1.922,1.922,0,0,1,278.527,219.434Z" transform="translate(-56.373 -40.054)" fill="#fff"/><path d="M280.447,205.095v12.458a1.906,1.906,0,0,1-.949,1.636,1.873,1.873,0,0,1-.973.27,1.922,1.922,0,0,1-1.922-1.906V205.095a8.18,8.18,0,0,0-7.207-8.123,9.573,9.573,0,0,0-.973-.057,8.18,8.18,0,0,0-8.18,8.18v12.458a1.922,1.922,0,0,1-.949,1.636,1.9,1.9,0,0,1-.982.27,1.931,1.931,0,0,1-1.922-1.922V205.095a12.041,12.041,0,0,1,12.033-12.025,9.575,9.575,0,0,1,.973.049A12.025,12.025,0,0,1,280.447,205.095Z" transform="translate(-56.371 -40.054)" fill="url(#g)"/><path d="M280.85,205.092V217.55a1.1,1.1,0,1,1-1.89,0V205.092a8.18,8.18,0,0,0-8.18-8.18,9.732,9.732,0,0,0-.982.057,9.567,9.567,0,0,0-.973-.057,8.18,8.18,0,0,0-8.18,8.18V217.55a1.1,1.1,0,1,1-1.9,0V205.092a11.084,11.084,0,1,1,22.086,0Z" transform="translate(-56.773 -40.052)" fill="url(#h)"/><rect width="42.438" height="42.438" rx="9.04" transform="translate(190.252 177.45)" fill="#68e1fd"/><rect width="42.43" height="42.43" rx="9.03" transform="translate(190.252 177.458)" fill="url(#i)"/><rect width="35.076" height="42.43" rx="9.03" transform="translate(197.614 177.458)" fill="url(#j)"/><path d="M274.418,246.017h0a2.7,2.7,0,1,1,1.636,0l2.1,6.675H272.52Z" transform="translate(-59.306 -48.731)" fill="url(#k)"/><circle cx="3.624" cy="3.624" r="3.624" transform="translate(116.207 121.13)" fill="#fff"/><circle cx="3.624" cy="3.624" r="3.624" transform="translate(127.103 121.13)" fill="#fff"/><circle cx="3.624" cy="3.624" r="3.624" transform="translate(138.007 121.13)" fill="#fff"/><circle cx="3.624" cy="3.624" r="3.624" transform="translate(116.207 161.491)" fill="#fff"/><circle cx="3.624" cy="3.624" r="3.624" transform="translate(127.103 161.491)" fill="#fff"/><circle cx="3.624" cy="3.624" r="3.624" transform="translate(138.007 161.491)" fill="#fff"/><circle cx="3.624" cy="3.624" r="3.624" transform="translate(116.207 201.851)" fill="#fff"/><circle cx="3.624" cy="3.624" r="3.624" transform="translate(127.103 201.851)" fill="#fff"/><circle cx="3.624" cy="3.624" r="3.624" transform="translate(138.007 201.851)" fill="#fff"/><path d="M225.98,154.085a6.969,6.969,0,0,0,.164,2.969A4.908,4.908,0,0,0,228,159.287a8.352,8.352,0,0,0,6.078,1.407,1.186,1.186,0,0,0,.769-.335,1.031,1.031,0,0,0,.2-.6,4.573,4.573,0,0,0-1.235-3.1,10.3,10.3,0,0,1-1.89-2.838c-.687-2.029.671-7.01-3.027-6.667C225.841,147.443,226.209,151.933,225.98,154.085Z" transform="translate(-50.82 -31.695)" fill="#ffbbab"/><path d="M206.37,121.633a68.843,68.843,0,0,1,8.393.818c4.908.753,8.049,2.838,9.26,7.763,1.112,4.5,2.225,9.055,2.209,13.693a4.245,4.245,0,0,1-.875,3.059c-1.137,1.145-3.2.72-4.319-.425A10.074,10.074,0,0,1,219,142.205c-.769-2.626-1.742-8.851-4.524-9.546-4.712-1.178-9.554,1.791-14.168,0a20.916,20.916,0,0,1-4.671-2.323,8.671,8.671,0,0,1-3.223-4.008,9.357,9.357,0,0,1-.483-2.691,11.558,11.558,0,0,1,.049-2.258c.147-.867.294-.769,1.17-.761,1.481,0,2.953.115,4.425.254C200.505,121.117,203.434,121.551,206.37,121.633Z" transform="translate(-44.634 -26.866)" fill="#282328"/><path d="M224.8,159.75s-.671,1.186-.139,2,6.462,5.669,11.223,3.01-5.415-4.417-5.415-4.417Z" transform="translate(-50.559 -33.99)" fill="#68e1fd"/><path d="M225.515,156.209a.924.924,0,0,1,1.121.45,3.82,3.82,0,0,0,3.272,1.693c1.456-.155,2.241-1.71,2.945-1.636s4.041,3.771,4.09,5.17-2.012,2.16-4.155,2.02-6.749-2.241-7.517-3.477A4.556,4.556,0,0,1,225.515,156.209Z" transform="translate(-50.633 -33.336)" fill="#fff"/><path d="M213.248,160.392a6.928,6.928,0,0,0-.327,2.961,4.842,4.842,0,0,0,1.464,2.5,8.319,8.319,0,0,0,5.767,2.389,1.211,1.211,0,0,0,.818-.2,1.063,1.063,0,0,0,.3-.556,4.605,4.605,0,0,0-.712-3.272,10.209,10.209,0,0,1-1.4-3.108c-.352-2.11,1.808-6.806-1.9-7.076C214.165,153.816,213.8,158.323,213.248,160.392Z" transform="translate(-48.452 -32.947)" fill="#ffbbab"/><path d="M199.4,125.09a70.012,70.012,0,0,1,8.18,2.135c4.687,1.546,7.468,4.09,7.861,9.178.352,4.622.7,9.3-.065,13.906a4.254,4.254,0,0,1-1.366,2.871c-1.309.941-3.272.188-4.2-1.129a9.943,9.943,0,0,1-1.292-4.605c-.335-2.716-.27-9-2.9-10.16-2.781-1.211-5.881-.818-8.834-.982-1.538-.082-3.157-.384-4.663-.417-5.031-.106-6.078-3.853-6.25-4.442a18.445,18.445,0,0,1-.933-5.841,14.806,14.806,0,0,1,.466-2.871c.188-.875.2-.973,1.145-.818,1.464.245,2.9.6,4.327.973C193.709,123.61,196.515,124.526,199.4,125.09Z" transform="translate(-43.367 -27.093)" fill="#473f47"/><path d="M211.387,165.69a2.363,2.363,0,0,0-.466,1.955c.352.892,5.44,6.65,10.577,4.8s-4.614-5.243-4.614-5.243Z" transform="translate(-48.079 -35.071)" fill="#68e1fd"/><path d="M212.611,162.337a.933.933,0,0,1,1.039.63,3.812,3.812,0,0,0,2.969,2.209c1.464.082,2.454-1.325,3.174-1.129s3.37,4.384,3.166,5.726-2.339,1.8-4.425,1.309-6.29-3.313-6.847-4.654a4.548,4.548,0,0,1,.924-4.09Z" transform="translate(-48.208 -34.458)" fill="#fff"/><path d="M209.957,113l-12.687,4.63,9,5.571,12.826-7.239Z" transform="translate(-35.901 -20.557)" fill="#68e1fd"/><path d="M209.957,113l-12.687,4.63,9,5.571,12.826-7.239Z" transform="translate(-35.901 -20.557)" fill="url(#l)"/><path d="M196.57,117.4l9.857,6.83L222.9,117.4l6.323-12.736-19.051,5.726-4.033,11.3-9-5.571Z" transform="translate(-35.774 -19.039)" fill="#68e1fd"/><path d="M209.99,105.924a2.532,2.532,0,0,1-2.847.221l-.2-.172c-1.325-1.3-1.538-4.09-1.481-6.127a22.626,22.626,0,0,1,.213-2.56l5.006-6.086,2.585,11.64a14.086,14.086,0,0,1-3.272,3.084Z" transform="translate(-47.1 -21.514)" fill="#fff"/><path d="M206.268,101.645c-.09.556-.1,1.145-.18,1.718-.45,3.125-1.636,6.233-1.186,9.432a3.362,3.362,0,0,1-.049,2.127,2.56,2.56,0,0,1-1.489,1.063c-2.978,1.1-6.225,1.1-9.4,1.072-2.38,0-5.8.188-7.771-1.391a3.943,3.943,0,0,1-1.153-2.757,48.18,48.18,0,0,1,0-10.07l.1-1.309q.409-4.524,1.145-9c.368-2.16.883-4.483,2.544-5.914,2.209-1.906,6.07-2.806,8.916-2.912a9.423,9.423,0,0,1,2.757.237,11.8,11.8,0,0,1,3.509,1.8c1.276.883,2.413,1.636,2.888,3.1a18.815,18.815,0,0,1,.818,5.178,17.881,17.881,0,0,1-.622,4.908c-.2.777-.524,1.538-.72,2.315A1.438,1.438,0,0,0,206.268,101.645Z" transform="translate(-43.337 -20.147)" fill="#fff"/><path d="M190.9,118.207c-.949.131-2.912-1.006-3.591-1.235-.4-.131-.753-.393-1.145-.556-2-.818-1.382-6.667-1.358-8.262.082-4.213-.115-8.614.45-12.769a14.029,14.029,0,0,1,1.252-4.654,5.505,5.505,0,0,1,3.607-2.986,1.571,1.571,0,0,1,.933,0c1.211.507,1.17,2.626,1.235,3.665a8.278,8.278,0,0,0,.646,3.043c.474,1.023,1.235,1.4,1.971,2.16a17.26,17.26,0,0,1,4.033,5.767c.425,1.145.646,2.356,1.022,3.526a25.358,25.358,0,0,0,4.09,7.076c.589.818,1.219,1.8.875,2.732a2.5,2.5,0,0,1-1.562,1.333,5.472,5.472,0,0,1-2.659.368c-2.135-.278-3.746-2-5.652-2.994-.663-.344-1.93-.924-2.683-.6s-1.014,1.333-1.129,2.012c-.065.434.294,1.84.09,2.119A.6.6,0,0,1,190.9,118.207Z" transform="translate(-43.323 -20.872)" fill="#020202" opacity="0.1"/><path d="M205,79.294a2.037,2.037,0,0,1-1.366.45,6.315,6.315,0,0,1-1.235-.164h-.221a.2.2,0,0,0-.172,0,.245.245,0,0,0-.106.172,14.545,14.545,0,0,0-.409,2.454h0v.45a.611.611,0,0,1-.654.7,3.541,3.541,0,0,1-1.137,0,4.957,4.957,0,0,1-2.143-1.137A22.83,22.83,0,0,0,197.953,78a21.758,21.758,0,0,1,.262-5.464,2.986,2.986,0,0,1,3.8-2.4,6.814,6.814,0,0,1,3.517,1.538,1.464,1.464,0,0,1,.384,1.17c0,.728.041,1.456,0,2.184s-.106,1.636-.213,2.454A2.847,2.847,0,0,1,205,79.294Z" transform="translate(-45.664 -17.657)" fill="#ffbbab"/><path d="M204.025,71.208a11.793,11.793,0,0,0-2.838-.057,2.74,2.74,0,0,0-1.808,3.117c-.376.074-.344-.573-.573-.867s-.9,0-1.006.393a2.675,2.675,0,0,0,.2,1.3,3.746,3.746,0,0,1-.2,2.454c-.082.18-.254.384-.434.311s-.278-.425-.368-.589a6.372,6.372,0,0,0-.5-.663c-.368-.434-.818-.818-1.17-1.26a3.4,3.4,0,0,1-1.072-2.757,2.217,2.217,0,0,1,.564-1.088,2.454,2.454,0,0,1,.859-.622c.131-.065.286-.131.335-.262a.622.622,0,0,0,0-.245,2.789,2.789,0,0,1,1.554-2.593,6.8,6.8,0,0,1,3.1-.654h2.086a4.72,4.72,0,0,0,1.693-.147,4.972,4.972,0,0,0-.384-1.129,5.489,5.489,0,0,1,1.268.818,2.119,2.119,0,0,0-.082-.712A4.344,4.344,0,0,1,207.1,67.4a2.454,2.454,0,0,1-.335,2.74,3.444,3.444,0,0,1-2.454,1.047Z" transform="translate(-45.061 -16.9)" fill="#fc682d"/><path d="M202.864,81.442h-.221a.2.2,0,0,0-.172,0,.245.245,0,0,0-.106.172,14.547,14.547,0,0,0-.409,2.454h0a3.321,3.321,0,0,1-1.751-3.828,14.012,14.012,0,0,0,2.642,1.235Z" transform="translate(-46.125 -19.519)" fill="#e0a194"/><path d="M227.625,113.4c-.548-.229-1.014-.744-1.636-.72s-1.121.753-1.636,1.227a2.937,2.937,0,0,1-2.045.744,3.4,3.4,0,0,1-.7-.106,4.524,4.524,0,0,1-2.4-1.71s1.521-1.71,1.718-1.824c.671-.384,1.579-.352,2.3-.736a23.6,23.6,0,0,1,2.258-1.26,5.407,5.407,0,0,1,4.851.368c.18.106.376.3.278.5a.376.376,0,0,1-.188.164h0a5,5,0,0,1-2.65.286,6.625,6.625,0,0,1,1.456.965c.2.172.376.5.164.654a.458.458,0,0,1-.36,0l-1.98-.483a4.744,4.744,0,0,1,1.252,1.456.54.54,0,0,1,.082.311C228.28,113.494,227.887,113.518,227.625,113.4Z" transform="translate(-49.602 -24.683)" fill="#ffbbab"/><path d="M228.136,113.7c-.548-.229-1.014-.744-1.636-.72s-1.121.753-1.636,1.227a2.937,2.937,0,0,1-2.045.744,3.018,3.018,0,0,1-.54-.319.654.654,0,0,1-.27-.344.556.556,0,0,1,.4-.589,4.811,4.811,0,0,1,.818-.123,1.751,1.751,0,0,0,1.088-.671c.221-.294.36-.671.679-.818a1.636,1.636,0,0,1,.671-.147l.9-.057a.949.949,0,0,0,.4-.082.335.335,0,0,0,.188-.335c0-.155-.188-.237-.335-.294-.294-.106-1.284-.164-.646-.515a4.409,4.409,0,0,1,1.456-.344,15.542,15.542,0,0,1,3.018,0,2.389,2.389,0,0,1,.319.057h0a5,5,0,0,1-2.65.286,6.625,6.625,0,0,1,1.456.965c.2.172.376.5.164.654a.458.458,0,0,1-.36,0l-1.98-.483a4.744,4.744,0,0,1,1.252,1.456.54.54,0,0,1,.082.311A.667.667,0,0,1,228.136,113.7Z" transform="translate(-50.113 -24.979)" fill="#e0a194"/><path d="M217.159,112.71a17.326,17.326,0,0,1-5.914-1.121,8.474,8.474,0,0,1-3.452-2.495,1.448,1.448,0,0,1-.27-.491,1.481,1.481,0,0,1,0-.941,4.524,4.524,0,0,1,1.505-2.282c1.955-1.456,4.613-.082,4.613-.082s4.982,3.877,5.121,4.646c.082.417-.4,1.2-.867,1.824S217.159,112.71,217.159,112.71Z" transform="translate(-47.463 -23.973)" fill="#fff"/><rect width="9.023" height="21.235" rx="4.511" transform="translate(141.778 67.717) rotate(-11.13)" fill="#fff"/><path d="M216.984,111.891a17.326,17.326,0,0,1-5.914-1.121c-.237-.09-1.456-.818-1.636-.744a.4.4,0,0,0-.147.229l-.663,1.89a1.489,1.489,0,0,1-.671-1.186c-.049-.474,0-.949-.049-1.415a8.778,8.778,0,0,0-.728-2.086c-.892-2.274-.728-4.81-.556-7.247l1.816,4.753a5.325,5.325,0,0,0,.622,1.284,5.423,5.423,0,0,0,.818.818,14.724,14.724,0,0,0,4.393,2.708c.278.115,3.337,1.415,3.5,1.178C217.344,111.49,216.984,111.891,216.984,111.891Z" transform="translate(-47.288 -23.153)" fill="#020202" opacity="0.1"/><path d="M218.586,125.5c-.491-.434-.818-1.137-1.448-1.3s-1.276.442-1.89.818a2.691,2.691,0,0,1-2.25.074,3.527,3.527,0,0,1-.679-.344,5.612,5.612,0,0,1-2.02-2.626s1.873-1.342,2.094-1.4c.753-.188,1.636.139,2.454,0a22.5,22.5,0,0,1,2.511-.622,5.652,5.652,0,0,1,4.744,1.988c.155.18.3.458.172.63a.327.327,0,0,1-.221.115h0a4.957,4.957,0,0,1-2.7-.556,7.682,7.682,0,0,1,1.235,1.513c.164.245.27.654,0,.753a.478.478,0,0,1-.36-.106l-1.865-1.17a6.029,6.029,0,0,1,.933,1.98.581.581,0,0,1,0,.352C219.216,125.806,218.815,125.741,218.586,125.5Z" transform="translate(-47.982 -26.77)" fill="#ffbbab"/><path d="M219.038,125.8c-.491-.434-.818-1.137-1.448-1.3s-1.276.442-1.89.818a2.691,2.691,0,0,1-2.25.074,3.494,3.494,0,0,1-.466-.515.818.818,0,0,1-.2-.458.54.54,0,0,1,.532-.507,4.557,4.557,0,0,1,.818.123,1.513,1.513,0,0,0,1.227-.36c.286-.245.507-.605.818-.7a1.448,1.448,0,0,1,.7.057l.916.237a1,1,0,0,0,.409,0,.319.319,0,0,0,.262-.3.589.589,0,0,0-.27-.417c-.27-.213-1.243-.605-.532-.769a3.959,3.959,0,0,1,1.513.1,15.641,15.641,0,0,1,3,1.014,2.3,2.3,0,0,1,.311.164h0a4.957,4.957,0,0,1-2.7-.556,7.681,7.681,0,0,1,1.235,1.513c.164.245.27.654,0,.753a.478.478,0,0,1-.36-.106l-1.865-1.17a6.029,6.029,0,0,1,.933,1.98.581.581,0,0,1,0,.352C219.668,126.108,219.267,126.043,219.038,125.8Z" transform="translate(-48.434 -27.072)" fill="#e0a194"/><path d="M201.224,109.366l8.458,7.517-2.8,5.08s-16.09-7.534-16.908-11.174,3.436-3.5,3.436-3.5S196.93,104.556,201.224,109.366Z" transform="translate(-44.265 -24.301)" fill="#fff"/><rect width="34.43" height="34.43" transform="translate(201.974 93.392)" fill="#68e1fd"/><rect width="25.244" height="34.43" transform="translate(68.73 77.441)" fill="#68e1fd" opacity="0.18" style="isolation:isolate"/><rect width="25.244" height="34.43" transform="translate(62.579 83.02)" fill="#fff"/><path d="M73.55,225.36a10.912,10.912,0,0,0,1.775,4.908c3.926,6.937,8.327,13.767,14.4,18.912,8.941,7.558,20.638,10.822,31.943,13.906-1.006-.491-2.225-5.726-2.675-6.847-.875-2.241-1.693-4.507-2.528-6.765-1.333-3.558-4.09-6.421-6.838-9.047A53.989,53.989,0,0,0,87.824,227.6,51.363,51.363,0,0,0,73.55,225.36Z" transform="translate(-23.094 -45.931)" fill="#68e1fd"/><path d="M73.55,225.36a10.912,10.912,0,0,0,1.775,4.908c3.926,6.937,8.327,13.767,14.4,18.912,8.941,7.558,20.638,10.822,31.943,13.906-1.006-.491-2.225-5.726-2.675-6.847-.875-2.241-1.693-4.507-2.528-6.765-1.333-3.558-4.09-6.421-6.838-9.047A53.989,53.989,0,0,0,87.824,227.6,51.363,51.363,0,0,0,73.55,225.36Z" transform="translate(-23.094 -45.931)" fill="url(#m)"/><path d="M123.559,222.845c-.924-6.454-1.873-12.99-4.466-18.969S112,192.423,105.89,190.19q-.27,13.857-.532,27.706c-.106,5.333-.2,10.773,1.333,15.886,2.691,9,12.008,19.477,20.982,22.438,1.333-4.3-.9-10.822-1.538-15.3Z" transform="translate(-28.874 -39.53)" fill="#68e1fd"/><rect width="28.36" height="2.92" transform="translate(160.158 163.65)" fill="#fff"/><rect width="28.36" height="2.92" transform="translate(160.158 204.01)" fill="#fff"/><path d="M269,133.182l8.671-4.532,8.319,4.507s-1.546,11.133-8.115,14.323C277.859,147.48,269.712,144.364,269,133.182Z" transform="translate(-58.666 -28.33)" fill="#fff"/></g></svg>