<svg xmlns="http://www.w3.org/2000/svg" xmlns:xlink="http://www.w3.org/1999/xlink" width="299.753" height="241.903" viewBox="0 0 299.753 241.903"><defs><linearGradient id="a" x1="0.502" y1="0.687" x2="0.517" y2="1.901" gradientUnits="objectBoundingBox"><stop offset="0" stop-color="#010101" stop-opacity="0"/><stop offset="0.95" stop-color="#010101"/></linearGradient><linearGradient id="b" x1="0.148" y1="-0.723" x2="2.17" y2="6.303" xlink:href="#a"/><linearGradient id="e" x1="0.148" y1="-0.724" x2="2.17" y2="6.302" xlink:href="#a"/><linearGradient id="f" x1="0.148" y1="-0.723" x2="2.172" y2="6.303" xlink:href="#a"/><linearGradient id="i" x1="0.148" y1="-0.724" x2="2.172" y2="6.302" xlink:href="#a"/><linearGradient id="ac" x1="0.149" y1="-0.723" x2="2.172" y2="6.303" xlink:href="#a"/><linearGradient id="af" x1="0.149" y1="-0.724" x2="2.172" y2="6.302" xlink:href="#a"/><linearGradient id="ao" x1="0.501" y1="-1.744" x2="0.495" y2="9.077" xlink:href="#a"/><linearGradient id="ap" x1="-0.001" y1="0.499" x2="0.999" y2="0.499" gradientUnits="objectBoundingBox"><stop offset="0" stop-color="#e5c6d6"/><stop offset="0.42" stop-color="#ead4d0"/><stop offset="1" stop-color="#f0e9cb"/></linearGradient><linearGradient id="aq" x1="0" y1="0.5" x2="1" y2="0.5" xlink:href="#ap"/><linearGradient id="ar" x1="1.762" y1="61.894" x2="1.709" y2="21.892" gradientUnits="objectBoundingBox"><stop offset="0" stop-color="#fff" stop-opacity="0"/><stop offset="0.99" stop-color="#fff"/></linearGradient><linearGradient id="as" x1="2.618" y1="66.928" x2="2.536" y2="24.172" xlink:href="#ar"/><linearGradient id="at" x1="1.193" y1="66.768" x2="1.165" y2="23.446" xlink:href="#ar"/><linearGradient id="au" x1="2.137" y1="64.517" x2="2.078" y2="23.429" xlink:href="#ar"/><linearGradient id="av" x1="1.94" y1="64.54" x2="1.891" y2="23.433" xlink:href="#ar"/><linearGradient id="aw" x1="2.212" y1="57.969" x2="2.154" y2="20.957" xlink:href="#ar"/><linearGradient id="ax" x1="2.429" y1="69.08" x2="2.368" y2="25.225" xlink:href="#ar"/><linearGradient id="ay" x1="1.438" y1="63.126" x2="1.408" y2="22.444" xlink:href="#ar"/><linearGradient id="az" x1="2.043" y1="55.044" x2="1.998" y2="13.109" xlink:href="#ar"/><linearGradient id="ba" x1="3.079" y1="58.091" x2="3.009" y2="13.906" xlink:href="#ar"/><linearGradient id="bb" x1="1.34" y1="59.261" x2="1.315" y2="12.649" xlink:href="#ar"/><linearGradient id="bc" x1="2.472" y1="55.225" x2="2.421" y2="12.512" xlink:href="#ar"/><linearGradient id="bd" x1="2.221" y1="54.751" x2="2.178" y2="11.621" xlink:href="#ar"/><linearGradient id="be" x1="2.547" y1="48.769" x2="2.497" y2="10.326" xlink:href="#ar"/><linearGradient id="bf" x1="2.793" y1="57.053" x2="2.74" y2="11.573" xlink:href="#ar"/><linearGradient id="bg" x1="1.615" y1="53.103" x2="1.588" y2="9.934" xlink:href="#ar"/><linearGradient id="bh" x1="2.326" y1="42.037" x2="2.286" y2="-1.631" xlink:href="#ar"/><linearGradient id="bi" x1="3.541" y1="42.944" x2="3.479" y2="-2.7" xlink:href="#ar"/><linearGradient id="bj" x1="1.487" y1="45.734" x2="1.465" y2="-4.402" xlink:href="#ar"/><linearGradient id="bk" x1="2.81" y1="39.925" x2="2.764" y2="-4.366" xlink:href="#ar"/><linearGradient id="bl" x1="2.504" y1="38.793" x2="2.466" y2="-6.202" xlink:href="#ar"/><linearGradient id="bm" x1="2.885" y1="34.071" x2="2.84" y2="-5.702" xlink:href="#ar"/><linearGradient id="bn" x1="3.159" y1="38.995" x2="3.112" y2="-8.376" xlink:href="#ar"/><linearGradient id="bo" x1="1.793" y1="37.435" x2="1.768" y2="-8.285" xlink:href="#ar"/></defs><g transform="translate(-0.011 0.001)"><path d="M338.834,200.78c-8.915,3.011-18.337,4.852-27.077,8.231-14.267,5.547-26.1,14.972-39.6,21.843a105.6,105.6,0,0,1-18.364,7.281,115.158,115.158,0,0,1-19.4,3.9,144.076,144.076,0,0,1-26.409.564,192.767,192.767,0,0,1-25.181-3.379,287.413,287.413,0,0,1-36.654-9.989c-37-12.543-61.153-77.55-45.03-108.283,7.1-13.552,20.99-23.274,31-35.318,18.56-22.354,24.141-53.052,48.5-70.589C196.4,3.68,217.878-.073,238.186,1.329S277.965,8.871,296.9,15.5c9.138,3.189,18.4,6.6,25.788,12.329,13.026,10.06,18.3,25.537,26.53,38.965,13.464,21.974,36.236,40.426,40.622,65.042C395.033,161.138,370.278,190.131,338.834,200.78Z" transform="translate(-90.77 -1.05)" fill="#68e1fd" opacity="0.24" style="isolation:isolate"/><rect width="98.502" height="33.477" transform="translate(90.616 164.839)" fill="#68e1fd"/><rect width="98.502" height="33.477" transform="translate(90.616 164.839)" fill="url(#a)"/><rect width="98.502" height="33.477" transform="translate(90.616 162.76)" fill="#68e1fd"/><rect width="6.493" height="4.935" transform="translate(94.477 168.325)" fill="url(#b)"/><rect width="6.493" height="4.935" transform="translate(94.477 174.169)" fill="url(#b)"/><rect width="6.493" height="4.935" transform="translate(94.477 180.012)" fill="url(#b)"/><rect width="6.493" height="4.935" transform="translate(94.477 185.862)" fill="url(#e)"/><rect width="6.493" height="4.935" transform="translate(103.035 168.325)" fill="url(#f)"/><rect width="6.493" height="4.935" transform="translate(103.035 174.169)" fill="url(#f)"/><rect width="6.493" height="4.935" transform="translate(103.035 180.012)" fill="url(#f)"/><rect width="6.493" height="4.935" transform="translate(103.035 185.862)" fill="url(#i)"/><rect width="6.493" height="4.935" transform="translate(111.599 168.325)" fill="url(#b)"/><rect width="6.493" height="4.935" transform="translate(111.599 174.169)" fill="url(#b)"/><rect width="6.493" height="4.935" transform="translate(111.599 180.012)" fill="url(#b)"/><rect width="6.493" height="4.935" transform="translate(111.599 185.862)" fill="url(#e)"/><rect width="6.493" height="4.935" transform="translate(120.157 168.325)" fill="url(#f)"/><rect width="6.493" height="4.935" transform="translate(120.157 174.169)" fill="url(#f)"/><rect width="6.493" height="4.935" transform="translate(120.157 180.012)" fill="url(#f)"/><rect width="6.493" height="4.935" transform="translate(128.721 168.325)" fill="url(#b)"/><rect width="6.493" height="4.935" transform="translate(128.721 174.169)" fill="url(#b)"/><rect width="6.493" height="4.935" transform="translate(128.721 180.012)" fill="url(#b)"/><rect width="6.493" height="4.935" transform="translate(137.279 168.325)" fill="url(#f)"/><rect width="6.493" height="4.935" transform="translate(137.279 174.169)" fill="url(#f)"/><rect width="6.493" height="4.935" transform="translate(137.279 180.012)" fill="url(#f)"/><rect width="6.493" height="4.935" transform="translate(145.844 168.325)" fill="url(#b)"/><rect width="6.493" height="4.935" transform="translate(145.844 174.169)" fill="url(#b)"/><rect width="6.493" height="4.935" transform="translate(145.844 180.012)" fill="url(#b)"/><rect width="6.493" height="4.935" transform="translate(154.401 168.325)" fill="url(#f)"/><rect width="6.493" height="4.935" transform="translate(154.401 174.169)" fill="url(#f)"/><rect width="6.493" height="4.935" transform="translate(154.401 180.012)" fill="url(#f)"/><rect width="6.493" height="4.935" transform="translate(162.959 168.325)" fill="url(#ac)"/><rect width="6.493" height="4.935" transform="translate(162.959 174.169)" fill="url(#ac)"/><rect width="6.493" height="4.935" transform="translate(162.959 180.012)" fill="url(#ac)"/><rect width="6.493" height="4.935" transform="translate(162.959 185.862)" fill="url(#af)"/><rect width="6.493" height="4.935" transform="translate(171.524 168.325)" fill="url(#b)"/><rect width="6.493" height="4.935" transform="translate(171.524 174.169)" fill="url(#b)"/><rect width="6.493" height="4.935" transform="translate(171.524 180.012)" fill="url(#b)"/><rect width="6.493" height="4.935" transform="translate(171.524 185.862)" fill="url(#e)"/><rect width="6.493" height="4.935" transform="translate(180.081 168.325)" fill="url(#f)"/><rect width="6.493" height="4.935" transform="translate(180.081 174.169)" fill="url(#f)"/><rect width="6.493" height="4.935" transform="translate(180.081 180.012)" fill="url(#f)"/><rect width="6.493" height="4.935" transform="translate(180.081 185.862)" fill="url(#i)"/><rect width="50.766" height="4.84" transform="translate(110.317 186.183)" fill="url(#ao)"/><path d="M242.875,304.359c.175-.659.675-1.485,1.431-1.271a1.3,1.3,0,0,1,.742.843c.412.944,2.025,2.239,2.416,3.189.074-2.376.175-8.386,1.8-11.824a1.033,1.033,0,0,1,1.057-.536.954.954,0,0,1,.866.755c.628,3.908,1.039,10.233,1.3,8.938.331-1.633,1.35-14.74,4.137-13.244.877,2.328.256,11.337-.074,13.772.742-3.225,2.139-15.981,4.947-14.621,1.775,4.074-1.9,14.5-.216,18.6a2.113,2.113,0,0,0,1.9,1.5,1.682,1.682,0,0,0,1.451-1.681c.054-.766-.189-1.532-.121-2.3a1.17,1.17,0,0,1,.675-1.027c.81-.309,1.5.594,1.728,1.36a17.623,17.623,0,0,1-.2,10.939c-1.282,3.712-3.773,7-6.223,10.221a4.657,4.657,0,0,1-1.228,1.241,3.431,3.431,0,0,1-.844.35,20.957,20.957,0,0,1-6.54.82c-9.563-.463-8.693-5.885-9.449-10.524a36,36,0,0,1,.459-15.506Z" transform="translate(-138.153 -118.502)" fill="url(#ap)"/><path d="M242.974,357.224a3.818,3.818,0,0,1,1.957-1.782,5.259,5.259,0,0,1,1.593-.19,73.366,73.366,0,0,1,13.262.974,1.85,1.85,0,0,1,1.114.457,1.3,1.3,0,0,1,.25.7,11.251,11.251,0,0,1-.675,5.689,1.189,1.189,0,0,1-.513.689,1.628,1.628,0,0,1-.9.071,132.581,132.581,0,0,0-13.566-.653C240.935,363.163,241,360.407,242.974,357.224Z" transform="translate(-138.124 -144.892)" fill="#fff"/><path d="M256.092,391.232a200.618,200.618,0,0,1-26.213-3.522,4.509,4.509,0,0,1-.169-2.346,45.589,45.589,0,0,1,6.749-16.736,3.143,3.143,0,0,1,1.35-1.312,3.575,3.575,0,0,1,1.471-.22,94.161,94.161,0,0,1,16.562,1.122,3.263,3.263,0,0,1,2.133.885,2.4,2.4,0,0,1,.4,1.473A67.916,67.916,0,0,1,256.092,391.232Z" transform="translate(-134.201 -149.699)" fill="#68e1fd"/><path d="M298.015,339c-.364-.594-.641-1.431,0-1.782a1.568,1.568,0,0,1,1.033-.1,9.13,9.13,0,0,1,3.5,1.253c1.613.992,3.374,2.578,5.183,1.865,1.566-.624,1.7-2.5,1.6-4.015q-.513-7.6-1.039-15.209c0-.5,0-1.122.5-1.366.763-.362,1.505.5,1.822,1.188l4.13,9.205c.79-2.215-.128-9.823.256-13.2a1.051,1.051,0,0,1,.945-.88,1.155,1.155,0,0,1,1.2.589c1.249,2.643,2.605,9.5,2.841,11.129.675,4.846,1.019.594,1.222-.22.486-2.019-.148-8.908,1.235-9.437,2.025.131,2.7,2.447,2.747,4.24s-1.019,8.742.965,9.158c.877-1.936.81-5.458,1.991-5.588,1.849.748.216,8.154-.371,9.87-1.755,5.143-.628,4.466-2.376,9.6a9,9,0,0,1-1.89,3.563,8.848,8.848,0,0,1-4.218,2.049C309.542,353.305,302.233,345.727,298.015,339Z" transform="translate(-156.309 -128.935)" fill="url(#aq)"/><path d="M315.412,381.082a1.5,1.5,0,0,0,.6,1.188,2.006,2.006,0,0,0,.756.19,34.943,34.943,0,0,0,11.865-.778,2.5,2.5,0,0,0,1.114-.469,1.789,1.789,0,0,0,.513-1.087c.378-2.3-.783-4.549-1.917-6.646a.856.856,0,0,0-.324-.38,1.035,1.035,0,0,0-.587-.03q-2.835.41-5.7.594c-1.39.083-3.671-.309-4.961.16C314.245,374.745,315.163,379.068,315.412,381.082Z" transform="translate(-161.969 -152.121)" fill="#fff"/><path d="M332.137,392.075a120.73,120.73,0,0,1-20.247,4.062c.088-2.376.169-4.834.4-7.216.189-2.031,2.477-6.034,5.284-6.034,2.814-1.069,5.98-1.146,9.037-1.217a5.105,5.105,0,0,1,3.084.624,3.489,3.489,0,0,1,1.134,2.376C331.314,387.11,331.8,389.587,332.137,392.075Z" transform="translate(-160.944 -155.625)" fill="#68e1fd"/><path d="M218.563,190.516H55.615L11.53,109.64H273.669Z" transform="translate(-3.745 -44.527)" fill="#68e1fd" opacity="0.52"/><path d="M178.691,213.214H114.636c-3.725,0-7.714-1.829-8.915-4.092l-11.014-20.75c-1.195-2.263.85-4.092,4.569-4.092h64.062c3.719,0,7.707,1.829,8.909,4.092L183.26,209.1C184.461,211.367,182.416,213.214,178.691,213.214Z" transform="translate(-90.227 -75.463)" fill="#fff" opacity="0.27"/><path d="M172.573,221.934H108.511c-3.719,0-7.714-1.829-8.909-4.092L88.588,197.11c-1.181-2.263.844-4.11,4.569-4.11h64.055c3.725,0,7.714,1.835,8.915,4.1l11.041,20.744C178.337,220.105,176.292,221.934,172.573,221.934Z" transform="translate(-88.24 -79.004)" fill="#fff"/><path d="M386.43,182.472h64.062c3.725,0,7.714-1.835,8.915-4.092l11.008-20.739c1.2-2.257-.844-4.092-4.562-4.092H401.791c-3.719,0-7.714,1.835-8.915,4.092L381.84,178.38C380.666,180.637,382.711,182.472,386.43,182.472Z" transform="translate(-183.577 -62.983)" fill="#fff" opacity="0.27"/><path d="M386.43,194.722h64.062c3.725,0,7.714-1.835,8.915-4.1l11.008-20.733c1.2-2.257-.844-4.092-4.562-4.092H401.791c-3.719,0-7.714,1.835-8.915,4.092L381.84,190.625C380.666,192.887,382.711,194.722,386.43,194.722Z" transform="translate(-183.577 -67.958)" fill="#fff"/><path d="M102.88,135.55h48.067l.54,3.035H104.466Z" transform="translate(-33.442 -55.049)" fill="url(#ar)"/><path d="M107.34,145.24h28.123l.823,2.625H108.71Z" transform="translate(-34.892 -58.984)" fill="url(#as)"/><path d="M165.82,145.24h88.507l-1.154,2.637H166.421Z" transform="translate(-53.904 -58.984)" fill="url(#at)"/><path d="M132.26,154.18h37.133l.31,2.548H133.313Z" transform="translate(-42.994 -62.615)" fill="url(#au)"/><path d="M152.24,162.41h42.553l-.067,2.387H153Z" transform="translate(-49.489 -65.957)" fill="url(#av)"/><path d="M219.338,162.41H255l-.891,2.643h-34.9Z" transform="translate(-71.261 -65.957)" fill="url(#aw)"/><path d="M154.3,170.04h31.646l.115,2.085H154.968Z" transform="translate(-50.159 -69.056)" fill="url(#ax)"/><path d="M205.69,170.04h65.3l-1.208,2.3H205.758Z" transform="translate(-66.865 -69.056)" fill="url(#ay)"/><path d="M123.12,179.51h39.036l.358,2.007H124.173Z" transform="translate(-40.022 -72.902)" fill="url(#az)"/><path d="M126.09,185.95H149.1l.553,1.764h-22.65Z" transform="translate(-40.988 -75.517)" fill="url(#ba)"/><path d="M173.95,185.95h72.437l-.776,1.776H174.355Z" transform="translate(-56.547 -75.517)" fill="url(#bb)"/><path d="M146.01,191.97h30.614l.216,1.74H146.725Z" transform="translate(-47.464 -77.962)" fill="url(#bc)"/><path d="M162.16,197.62h35.318l-.041,1.645H162.693Z" transform="translate(-52.714 -80.257)" fill="url(#bd)"/><path d="M217.858,197.62h29.6l-.614,1.823H217.77Z" transform="translate(-70.793 -80.257)" fill="url(#be)"/><path d="M163.58,202.9h26.429l.081,1.461H164.046Z" transform="translate(-53.176 -82.401)" fill="url(#bf)"/><path d="M206.5,202.9h54.539l-.844,1.609H206.547Z" transform="translate(-67.129 -82.401)" fill="url(#bg)"/><path d="M136.96,209.56h32.861l.25,1.431H137.709Z" transform="translate(-44.521 -85.106)" fill="url(#bh)"/><path d="M139.07,214.15h19.484l.4,1.265H139.738Z" transform="translate(-45.207 -86.97)" fill="url(#bi)"/><path d="M179.58,214.15h61.308l-.56,1.271H179.87Z" transform="translate(-58.377 -86.97)" fill="url(#bj)"/><path d="M155.66,218.48H181.7l.155,1.265H156.18Z" transform="translate(-50.601 -88.728)" fill="url(#bk)"/><path d="M169.2,222.58h30.188l-.034,1.206h-29.77Z" transform="translate(-55.003 -90.393)" fill="url(#bl)"/><path d="M216.811,222.58h25.3l-.452,1.336H216.75Z" transform="translate(-70.461 -90.393)" fill="url(#bm)"/><path d="M170.23,226.47h22.69l.061,1.075H170.574Z" transform="translate(-55.337 -91.973)" fill="url(#bn)"/><path d="M207.08,226.47H253.9l-.621,1.188h-46.17Z" transform="translate(-67.317 -91.973)" fill="url(#bo)"/><g transform="translate(6.206 119.59)" opacity="0.52"><path d="M9.19,201.37H33.864l.277,1.152H10.007Z" transform="translate(-9.19 -201.37)" fill="#68e1fd"/><path d="M11.48,205.05H25.916l.425,1H12.189Z" transform="translate(-9.934 -202.865)" fill="#68e1fd"/><path d="M41.5,205.05H86.941l-.594,1H41.81Z" transform="translate(-19.694 -202.865)" fill="#68e1fd"/><path d="M24.27,208.45H43.336l.162.968H24.81Z" transform="translate(-14.092 -204.245)" fill="#68e1fd"/><path d="M34.53,211.58H56.377l-.034.9H34.921Z" transform="translate(-17.428 -205.516)" fill="#68e1fd"/><path d="M68.977,211.58h18.31l-.459,1H68.91Z" transform="translate(-28.605 -205.516)" fill="#68e1fd"/><path d="M35.59,214.48H51.835l.061.79H35.934Z" transform="translate(-17.773 -206.694)" fill="#68e1fd"/><path d="M61.97,214.48H95.492l-.614.873H62Z" transform="translate(-26.349 -206.694)" fill="#68e1fd"/><path d="M19.58,218.08H39.618l.189.766H20.12Z" transform="translate(-12.568 -208.156)" fill="#68e1fd"/><path d="M21.1,220.53H32.918l.283.671H21.579Z" transform="translate(-13.062 -209.151)" fill="#68e1fd"/><path d="M45.68,220.53H82.867l-.4.671H45.882Z" transform="translate(-21.053 -209.151)" fill="#68e1fd"/><path d="M31.33,222.81H47.049l.108.665H31.7Z" transform="translate(-16.388 -210.077)" fill="#68e1fd"/><path d="M39.63,224.96H57.758l-.02.624H39.9Z" transform="translate(-19.086 -210.95)" fill="#68e1fd"/><path d="M68.217,224.96h15.2l-.317.695H68.17Z" transform="translate(-28.364 -210.95)" fill="#68e1fd"/><path d="M40.35,226.97H53.922l.04.552H40.593Z" transform="translate(-19.32 -211.766)" fill="#68e1fd"/><path d="M62.39,226.97h28l-.439.612H62.41Z" transform="translate(-26.485 -211.766)" fill="#68e1fd"/><path d="M26.69,229.5H43.556l.135.546H27.068Z" transform="translate(-14.879 -212.794)" fill="#68e1fd"/><path d="M27.77,231.25h10l.2.481h-9.86Z" transform="translate(-15.23 -213.505)" fill="#68e1fd"/><path d="M48.57,231.25H80.041l-.283.481H48.718Z" transform="translate(-21.992 -213.505)" fill="#68e1fd"/><path d="M36.29,232.89H49.653l.081.481H36.553Z" transform="translate(-18 -214.171)" fill="#68e1fd"/><path d="M43.24,234.45h15.5l-.02.457H43.436Z" transform="translate(-20.26 -214.804)" fill="#68e1fd"/><path d="M67.684,234.45H80.669l-.229.511H67.65Z" transform="translate(-28.195 -214.804)" fill="#68e1fd"/><path d="M43.77,235.93H55.419l.027.41h-11.5Z" transform="translate(-20.432 -215.405)" fill="#68e1fd"/><path d="M62.69,235.93H86.723l-.317.451H62.7Z" transform="translate(-26.583 -215.405)" fill="#68e1fd"/></g><g transform="translate(220.792 104.007)" opacity="0.52"><path d="M329.855,175.13h20.288l-.56.986H329.74Z" transform="translate(-327.985 -175.13)" fill="#68e1fd"/><path d="M329.531,178.29H341.4l-.337.855H329.43Z" transform="translate(-327.885 -176.413)" fill="#68e1fd"/><path d="M354.052,178.29H391.4l-1.174.861H353.62Z" transform="translate(-335.749 -176.413)" fill="#68e1fd"/><path d="M337.946,181.2h15.671l-.533.831H337.73Z" transform="translate(-330.583 -177.595)" fill="#68e1fd"/><path d="M344.457,183.88h17.959l-.648.778H344.16Z" transform="translate(-332.673 -178.684)" fill="#68e1fd"/><path d="M372.586,183.88h15.05l-1.06.861H371.85Z" transform="translate(-341.675 -178.684)" fill="#68e1fd"/><path d="M343.6,186.37h13.35l-.493.677H343.34Z" transform="translate(-332.407 -179.695)" fill="#68e1fd"/><path d="M365.137,186.37H392.7l-1.107.748H364.57Z" transform="translate(-339.308 -179.695)" fill="#68e1fd"/><path d="M328.361,189.45h16.474l-.371.659H328.28Z" transform="translate(-327.511 -180.946)" fill="#68e1fd"/><path d="M328.147,191.55h9.712l-.223.576H328.08Z" transform="translate(-327.446 -181.798)" fill="#68e1fd"/><path d="M348.24,191.55h30.566l-.79.576H347.95Z" transform="translate(-333.905 -181.798)" fill="#68e1fd"/><path d="M335.138,193.51h12.918l-.358.57H334.99Z" transform="translate(-329.692 -182.594)" fill="#68e1fd"/><path d="M340.639,195.35h14.9l-.445.534H340.43Z" transform="translate(-331.461 -183.342)" fill="#68e1fd"/><path d="M364.013,195.35h12.492l-.736.594H363.5Z" transform="translate(-338.961 -183.342)" fill="#68e1fd"/><path d="M340.035,197.07h11.156l-.344.475H339.86Z" transform="translate(-331.275 -184.04)" fill="#68e1fd"/><path d="M358.048,197.07h23.014l-.769.529H357.65Z" transform="translate(-337.059 -184.04)" fill="#68e1fd"/><path d="M327.341,199.24H341.21l-.27.469H327.28Z" transform="translate(-327.186 -184.921)" fill="#68e1fd"/><path d="M327.187,200.74h8.22l-.162.41H327.14Z" transform="translate(-327.14 -185.531)" fill="#68e1fd"/><path d="M344.209,200.74h25.869l-.567.416H344Z" transform="translate(-332.621 -185.531)" fill="#68e1fd"/><path d="M333.168,202.15h10.987l-.263.41H333.06Z" transform="translate(-329.065 -186.103)" fill="#68e1fd"/><path d="M337.925,203.49h12.735l-.324.392H337.77Z" transform="translate(-330.596 -186.647)" fill="#68e1fd"/><path d="M357.921,203.49H368.6l-.533.434H357.55Z" transform="translate(-337.026 -186.647)" fill="#68e1fd"/><path d="M337.475,204.75h9.577l-.256.35H337.34Z" transform="translate(-330.456 -187.159)" fill="#68e1fd"/><path d="M352.95,204.75h19.761l-.567.392H352.66Z" transform="translate(-335.436 -187.159)" fill="#68e1fd"/></g></g></svg>