<svg xmlns="http://www.w3.org/2000/svg" xmlns:xlink="http://www.w3.org/1999/xlink" width="632.905" height="657" viewBox="0 0 632.905 657"><defs><linearGradient id="a" x1="0.776" y1="0.218" x2="-1.794" y2="1.677" gradientUnits="objectBoundingBox"><stop offset="0" stop-opacity="0"/><stop offset="0.91" stop-opacity="0.8"/><stop offset="1"/></linearGradient><linearGradient id="b" x1="0.522" y1="0.1" x2="0.45" y2="0.866" xlink:href="#a"/><linearGradient id="c" x1="0" y1="0.502" x2="1" y2="0.502" xlink:href="#a"/><linearGradient id="d" x1="0.829" y1="0.144" x2="-1.656" y2="2.733" xlink:href="#a"/><linearGradient id="e" x1="0" y1="0.5" x2="1" y2="0.5" xlink:href="#a"/><linearGradient id="f" x1="-0.001" y1="0.5" x2="0.999" y2="0.5" xlink:href="#a"/><linearGradient id="g" x1="0.574" y1="-0.079" x2="0.382" y2="1.335" xlink:href="#a"/><linearGradient id="h" x1="0.562" y1="-0.131" x2="0.415" y2="1.262" xlink:href="#a"/><linearGradient id="i" x1="0" y1="0.5" x2="1" y2="0.5" xlink:href="#a"/><linearGradient id="j" x1="0" y1="0.5" x2="1" y2="0.5" xlink:href="#a"/><linearGradient id="k" x1="0.724" y1="0.228" x2="-0.07" y2="0.981" xlink:href="#a"/><linearGradient id="l" x1="0.59" y1="0.442" x2="0.41" y2="1.132" gradientUnits="objectBoundingBox"><stop offset="0" stop-color="#ecc4d7"/><stop offset="0.42" stop-color="#efd4d1"/><stop offset="1" stop-color="#f2eac9"/></linearGradient><linearGradient id="m" x1="-0.051" y1="0.373" x2="0.709" y2="0.515" xlink:href="#l"/><linearGradient id="n" x1="-0.006" y1="0.5" x2="0.994" y2="0.5" xlink:href="#l"/><linearGradient id="o" x1="0.412" y1="1.313" x2="0.518" y2="0.06" xlink:href="#a"/><linearGradient id="p" x1="-0.874" y1="0.655" x2="5.819" y2="0.057" gradientUnits="objectBoundingBox"><stop offset="0" stop-color="#fff" stop-opacity="0"/><stop offset="1" stop-color="#fff"/></linearGradient><linearGradient id="q" x1="0.421" y1="-0.67" x2="0.635" y2="2.512" xlink:href="#p"/></defs><g transform="translate(0.02 -0.009)"><path d="M629.725,363.214c6.5,36.5,86.438,87.375-14.178,213.947-58.433,73.509-131.122,34.821-148.425,39.8-27.81,8.007-51.753,39.645-80.618,41.422-32.81,1.953-206.467,13.046-278.473-68.764a121.69,121.69,0,0,1-15.038-21.131C65.2,519,179.568,502.382,68.8,387.645c-20.721-21.483-31.247-161.373,51.128-206.623,45.934-25.193,21.854-37.184,98.019-132.235,42.3-52.73,143.269-59.292,194.593-23.064q8.007,5.664,15.624,10.585c119.834,77.884,174.77,34.431,234.609,120.224C735.263,260.449,621.269,315.854,629.725,363.214Z" transform="translate(-54.13 -2.96)" fill="#68e1fd" opacity="0.27" style="isolation:isolate"/><path d="M492.307,434.145c-8.71,36.032,44.039,114.736-98.937,190.218-83.04,43.844-134.071-20.8-151.862-23.162-28.669-3.906-63.315,15.526-90.461,5.527-7.6-2.793-23.24-8.515-42.965-17.108a121.691,121.691,0,0,1-15.038-21.131C65.253,519,179.618,502.382,68.846,387.645,48.125,366.163,37.6,226.272,119.975,181.022c45.836-25.193,21.756-37.184,97.921-132.235C260.2-3.943,361.165-10.5,412.489,25.723q8.007,5.664,15.624,10.585l.918,1.484C511.8,175.007,584.486,151.2,605.676,258.145,630.244,382.431,503.595,387.372,492.307,434.145Z" transform="translate(-54.082 -2.96)" fill="#68e1fd" opacity="0.27" style="isolation:isolate"/><path d="M221.8,18.43s63.491,81.868-5.644,151.725l25.388,14.061S281.74,146,278.44,107.426,269.671,48.642,221.8,18.43Z" transform="translate(100.297 11.774)" opacity="0.25" fill="url(#a)" style="isolation:isolate"/><path d="M193.945,98.886c1.465,57.046,0,70.5,0,70.5S87.86,218.075,87.86,289.553s31.853,108.37,31.853,108.37,34.45-2.617,42.789-19.1-4.98-84.993-4.98-84.993l35.915-15.936S188.418,345.74,216.5,397.923s47.2,93.469,37.634,115.713S241.4,566.112,241.4,566.112l31.931,33.923s15,12.226,32.478-9.765,6.874-120.419,10.761-125.38,21.873-50.621,21.873-50.621,24.9-12.03,41.4,1.152,37.321,79.173,43.414,84.114S444.353,546.5,444.353,546.5l43.668,5.957,8.945-23.592-39.723-71.439-5.195-68.217-17.87-30.036-71.439-44.352-4.355-51.48s66.244,43.746,85.93,45.152,80.638-6.132,80.638-6.132l29.294-24.471-44.684-7.148L423.3,252.017l-84.817-58.2L288.116,82.754l1.953-32.126S192.48,41.84,193.945,98.886Z" transform="translate(-21.968 41.992)" fill="#68e1fd" opacity="0.27" style="isolation:isolate"/><path d="M187.882,297s-21.971,23.807-12.557,35.622,52.4,36.325,63.471,31.6,10.253-20.506,3.34-31.033-14.764-21.483-14.764-21.483Z" transform="translate(59.148 277.24)" fill="#68e1fd"/><path d="M282.715,288.157s-.43,21.639,8.3,32.263,75.462-13.671,77.318-22.732-8.73-19.178-26.189-19.412a71.011,71.011,0,0,1-28.748-5.859S280.918,270.912,282.715,288.157Z" transform="translate(163.653 253.781)" fill="#68e1fd"/><path d="M345.363,108.692a95.7,95.7,0,1,1-28.028-67.8A95.832,95.832,0,0,1,345.363,108.692Z" transform="translate(40.775 6.466)" fill="#68e1fd" opacity="0.49" style="isolation:isolate"/><path d="M283.7,112.112a95.89,95.89,0,0,1-111.826-6.484s23.435-12.577,60.542-11.464C262.956,95.16,283.7,106.839,283.7,112.112Z" transform="translate(58.091 83.879)" fill="#68e1fd"/><path d="M512.423,223.146h0a36.423,36.423,0,0,1-25.779,15.624,167.836,167.836,0,0,1-29.939.781c-48.453-2.754-92.512-52.339-92.512-52.339s1.328,61.284,15,75.462S431.8,279.2,456.7,292.515c26.7,14.3,36.872,79.876,41.012,116.826,3.281,29.724.742,40.231-15.624,46.871-11.034,4.492-22.029,2.48-25.115-20.311-13.046-96.613-83.079-87.2-97.96-94.289-2.793-1.328-4.882-1.269-6.464-.117-3.672,2.676-4.453,11.288-4.453,21.951,0,9.081.566,19.647.41,29.294-.449,25.76-17.85,80.677-41.969,103.253-7.812,7.382-15.507,9.472-22.186,8.945a32.614,32.614,0,0,1-16.952-7.031,12.323,12.323,0,0,1-4.336-13.1c5.253-18.787,15.233-73.119-23.143-129.93-47.5-70.307-36.677-171.665-36.677-171.665s-25.388,16.62-38.942,28.376.234,50.035-2.89,60.893C154.113,297.71,123,294.526,123,294.526a25.388,25.388,0,0,1-19.334-9.9h0c-8.163-10.116-13.944-30.486-4.98-71.5,16.444-75.169,123.388-106.768,143.992-112.2,2.226-.586,3.437-.859,3.437-.859l111.826,6.406s77.552,61.05,104.151,71.3a64.447,64.447,0,0,0,36.911,2.422A15.624,15.624,0,0,1,517.5,191.41l.352,1.289a36.6,36.6,0,0,1-5.429,30.447Z" transform="translate(-15.961 89.573)" fill="#68e1fd"/><path d="M512.423,223.146h0a36.423,36.423,0,0,1-25.779,15.624,167.836,167.836,0,0,1-29.939.781c-48.453-2.754-92.512-52.339-92.512-52.339s1.328,61.284,15,75.462S431.8,279.2,456.7,292.515c26.7,14.3,36.872,79.876,41.012,116.826,3.281,29.724.742,40.231-15.624,46.871-11.034,4.492-22.029,2.48-25.115-20.311-13.046-96.613-83.079-87.2-97.96-94.289-2.793-1.328-4.882-1.269-6.464-.117-3.672,2.676-4.453,11.288-4.453,21.951,0,9.081.566,19.647.41,29.294-.449,25.76-17.85,80.677-41.969,103.253-7.812,7.382-15.507,9.472-22.186,8.945a32.614,32.614,0,0,1-16.952-7.031,12.323,12.323,0,0,1-4.336-13.1c5.253-18.787,15.233-73.119-23.143-129.93-47.5-70.307-36.677-171.665-36.677-171.665s-25.388,16.62-38.942,28.376.234,50.035-2.89,60.893C154.113,297.71,123,294.526,123,294.526a25.388,25.388,0,0,1-19.334-9.9h0c-8.163-10.116-13.944-30.486-4.98-71.5,16.444-75.169,123.388-106.768,143.992-112.2,2.226-.586,3.437-.859,3.437-.859l111.826,6.406s77.552,61.05,104.151,71.3a64.447,64.447,0,0,0,36.911,2.422A15.624,15.624,0,0,1,517.5,191.41l.352,1.289a36.6,36.6,0,0,1-5.429,30.447Z" transform="translate(-15.961 89.573)" opacity="0.25" fill="url(#b)" style="isolation:isolate"/><path d="M248.157,116.407s-93,31.911-106.632,68.529-16.249,62.4-16.249,62.4l-21.639,36.872h0c-8.163-10.116-13.944-30.486-4.98-71.5C115.1,137.538,222.046,105.939,242.65,100.51Z" transform="translate(-15.99 89.993)" fill="#fff" opacity="0.25" style="isolation:isolate"/><path d="M283.7,112.112a95.89,95.89,0,0,1-111.826-6.484s23.435-12.577,60.542-11.464C262.956,95.16,283.7,106.839,283.7,112.112Z" transform="translate(58.091 83.879)" opacity="0.25" fill="url(#c)" style="isolation:isolate"/><path d="M99,213.289s-.293-36.032,28.845-38.239,28.9,26.092,28.9,26.092-14.8,26.912-38.415,22.049C103.394,220.124,99,213.289,99,213.289Z" transform="translate(-11.352 160.909)" fill="url(#d)"/><path d="M231.584,469.017a32.459,32.459,0,0,1-16.62-6.777,12.694,12.694,0,0,1-4.628-13.534c5.273-18.924,15.077-73.1-23.182-129.755-47.5-70.307-36.677-171.665-36.677-171.665S182,129.4,188.638,142.658,175.69,164.57,190.2,221.226s31.99,90.735,51.109,125.653S250.527,463.373,231.584,469.017Z" transform="translate(36.694 125.494)" opacity="0.25" fill="url(#e)" style="isolation:isolate"/><path d="M199.219,137.416s48.551-5.722,61.753-1.836,13.2,75.4,20.682,93.742c0,0,4.3,2.91-4.921,5.41s-56.636,16.21-65.326,11.21-17.831-30.759-23.045-47.379-13.534-49.9-8.554-55.718S199.219,137.416,199.219,137.416Z" transform="translate(64.195 122.124)" opacity="0.25" fill="url(#f)" style="isolation:isolate"/><path d="M314.073,142.716s-8.3-1.113-11.073,10.116-.293,26.912,2.617,29.841,2.929,4.14,8.945,0S327.646,164,327.646,164,328.9,140.431,314.073,142.716Z" transform="translate(181.9 130.065)" opacity="0.25" fill="url(#g)" style="isolation:isolate"/><path d="M308.976,156.419c.684,7.949-4.453,25.076,0,30.6s49.761.508,61.4-30.6-5-28.416-8.945-28.005-29.294,17.049-29.294,17.049,13.1-10.39,7.285-14.55S308.292,148.451,308.976,156.419Z" transform="translate(186.997 116.361)" fill="#68e1fd"/><path d="M308.976,156.419c.684,7.949-4.453,25.076,0,30.6s49.761.508,61.4-30.6-5-28.416-8.945-28.005-29.294,17.049-29.294,17.049,13.1-10.39,7.285-14.55S308.292,148.451,308.976,156.419Z" transform="translate(186.997 116.361)" opacity="0.25" fill="url(#h)" style="isolation:isolate"/><path d="M106.4,200.906s6.992-24.295,26.4-17.167,27.049,28.162,26.951,29.08-2.168,11.19-10.878,5.6-10.487-3.593-10.273-2.637,7.031,17.87,16.7,20.487.957,16.581-8.359,16.483-29.685-7.011-31.794-10.351S98.7,217.31,106.4,200.906Z" transform="translate(-6.446 168.058)" fill="#68e1fd"/><path d="M106.4,200.906s6.992-24.295,26.4-17.167,27.049,28.162,26.951,29.08-2.168,11.19-10.878,5.6-10.487-3.593-10.273-2.637,7.031,17.87,16.7,20.487.957,16.581-8.359,16.483-29.685-7.011-31.794-10.351S98.7,217.31,106.4,200.906Z" transform="translate(-6.446 168.058)" opacity="0.25" fill="url(#i)" style="isolation:isolate"/><path d="M355.95,347.02c-11.034,4.492-22.029,2.48-25.115-20.311-13.046-96.613-83.079-87.2-97.96-94.289-2.793-1.328-4.882-1.269-6.464-.117,0,0,4.16-14.686,19.666-16.913s65.7,0,74,17.03S355.227,301.575,355.95,347.02Z" transform="translate(110.065 198.784)" opacity="0.25" fill="url(#j)" style="isolation:isolate"/><path d="M380.682,190.583h0A36.423,36.423,0,0,1,354.9,206.207a167.836,167.836,0,0,1-29.939.781c-48.453-2.754-92.512-52.339-92.512-52.339-.625-13.065,5.214-20.408,5.214-20.408s41.774,36.7,75.326,49.136S382.264,169.823,380.682,190.583Z" transform="translate(115.779 122.136)" opacity="0.25" fill="url(#k)" style="isolation:isolate"/><path d="M195.11,86.46s12.343,29.529-5.859,34.938,25.232,15.624,39.059,12.968,13.671-4.648,13.671-4.648a11.112,11.112,0,0,1-3.105-13.671C242.45,107.279,195.11,86.46,195.11,86.46Z" transform="translate(70.473 76.603)" fill="url(#l)"/><path d="M259.651,65.224s6.054,62.3-3.418,74.017-23.436,21.111-47.027,2.07-31.97-69.818-14.94-79.8S241.508,36.535,259.651,65.224Z" transform="translate(70.867 40.501)" fill="url(#m)"/><path d="M235.434,44.3s-20.565,1.953-32.2,13.085-11.874,12.265-11.874,12.265-10.585-1.66-10.37,8.1-3.535,9.159-1.445,20.584,23.689,36.4,23.689,36.4l-9.2-24.8,4.492,2.539s-6.113-19.139,2.832-22.967,21.834-14.042,24.939-14.452,30.564-1.66,33.884,2.5a70.308,70.308,0,0,1,6.953,12.85s7.6-12.85,4.062-22.83-8.886-13.671-8.886-13.671l7.011-4.746S240.433,39.73,235.434,44.3Z" transform="translate(64.794 35.236)" fill="#001316"/><path d="M194.852,80.4s-11.835-8.32-11.991,0,7.656,14.3,14.257,15.35S194.852,80.4,194.852,80.4Z" transform="translate(68.562 67.309)" fill="url(#n)"/><path d="M172.412,98.74s-6.913,2.265-5.859,7.577,36.13,34.157,79.173,27.771,49.547-21.483,49.547-21.483,1.621-6.484-6.445-5.019S217.877,134.4,172.412,98.74Z" transform="translate(52.92 88.306)" fill="#68e1fd"/><path d="M172.412,98.74s-6.913,2.265-5.859,7.577,36.13,34.157,79.173,27.771,49.547-21.483,49.547-21.483,1.621-6.484-6.445-5.019S217.877,134.4,172.412,98.74Z" transform="translate(52.92 88.306)" opacity="0.25" fill="url(#o)" style="isolation:isolate"/><path d="M300.933,77.2a1.472,1.472,0,0,1-1.426,1.387l-7.187,1.7,5.468,1.953a2.656,2.656,0,0,1,1.191.723,2.421,2.421,0,0,1,.332,1.484l.1,5.859,4.55-6.23,4.687,3.906-3.125-8.32a18.123,18.123,0,0,0,5.976-2.6l-4.921-.527c-3.027-.352-2.968-2.265-4.062-4.589A26.872,26.872,0,0,0,300.933,77.2Z" transform="translate(172.875 62.776)" fill="#fff"/><path d="M335.2,223.113a1.8,1.8,0,0,1-.43.937,1.953,1.953,0,0,1-1,.449l-7.187,1.7,5.468,1.953a2.5,2.5,0,0,1,1.191.723,2.421,2.421,0,0,1,.332,1.484l.1,5.859,4.55-6.23,4.687,3.906-3.125-8.32a18.534,18.534,0,0,0,5.976-2.6l-4.922-.547c-3.027-.332-2.969-2.246-4.062-4.57a26.873,26.873,0,0,0-1.582,5.253Z" transform="translate(205.532 201.822)" fill="#fff"/><path d="M126.993,272.873a1.8,1.8,0,0,1-.43.938,1.953,1.953,0,0,1-1,.449l-7.187,1.7,5.468,1.953a2.655,2.655,0,0,1,1.191.723,2.422,2.422,0,0,1,.332,1.484v5.859l4.57-6.23,4.687,3.906-3.125-8.32a18.124,18.124,0,0,0,5.976-2.6l-4.921-.547c-3.027-.332-2.968-2.246-4.062-4.57A25.6,25.6,0,0,0,126.993,272.873Z" transform="translate(7.117 249.242)" fill="#fff"/><path d="M298.92,195.707a1.075,1.075,0,0,1-.234.547,1.25,1.25,0,0,1-.586.273l-4.179.977,3.183,1.172a1.465,1.465,0,0,1,.684.43,1.445,1.445,0,0,1,.2.859v3.4l2.656-3.633,2.715,2.246-1.816-4.824a10.839,10.839,0,0,0,3.476-1.523l-2.871-.312c-1.758-.2-1.719-1.308-2.363-2.656a16.732,16.732,0,0,0-.859,3.047Z" transform="translate(174.399 177.808)" fill="#fff"/><path d="M245.893,283.973a2.187,2.187,0,0,1-.43.937,1.953,1.953,0,0,1-1.016.449l-7.167,1.7,5.468,1.953a2.6,2.6,0,0,1,1.191.723,2.422,2.422,0,0,1,.332,1.484v5.859l4.57-6.23,4.687,3.906-3.125-8.32a18.534,18.534,0,0,0,5.976-2.6l-4.941-.547c-3.008-.332-2.949-2.246-4.043-4.57a25.6,25.6,0,0,0-1.5,5.253Z" transform="translate(120.424 259.82)" fill="#fff"/><path d="M271.48,51.936a.858.858,0,0,1-.137.332,1.132,1.132,0,0,1-.351.156l-2.422.566,1.855.684a.859.859,0,0,1,.391.254.82.82,0,0,1,.117.488v1.953l1.543-2.109,1.6,1.289L273,52.737a6.288,6.288,0,0,0,1.953-.879l-1.66-.176c-1.035-.117-1.016-.762-1.387-1.562A10.4,10.4,0,0,0,271.48,51.936Z" transform="translate(150.242 41.973)" fill="#fff"/><path d="M260.83,86.676a.683.683,0,0,1-.156.313.879.879,0,0,1-.332.156l-2.422.566,1.836.684a.82.82,0,0,1,.41.254.86.86,0,0,1,.117.488v1.953l1.543-2.109,1.582,1.289-1.055-2.812a6.054,6.054,0,0,0,1.953-.879l-1.68-.176c-1.016-.117-1-.762-1.367-1.562a8.706,8.706,0,0,0-.43,1.836Z" transform="translate(140.093 75.06)" fill="#fff"/><path d="M133.879,81.567a.781.781,0,0,1-.156.312.664.664,0,0,1-.332.156l-2.441.566,1.953.684a.82.82,0,0,1,.41.254,1.074,1.074,0,0,1,.117.508V86l1.523-2.09,1.582,1.308-1.055-2.832a6.054,6.054,0,0,0,1.953-.879l-1.68-.176c-1.016-.117-1-.762-1.367-1.543A8.535,8.535,0,0,0,133.879,81.567Z" transform="translate(19.095 70.247)" fill="#fff"/><path d="M104.8,107.057l4.9-10.937a13.847,13.847,0,0,0,.879,8.163,7.128,7.128,0,0,0,6.679,4.121c-3.125,0-7.187.7-7.656,3.769-.293,1.953.957,4.843-.918,5.683l-2.656-6.464a18.846,18.846,0,0,1-6.367,2.285,7.616,7.616,0,0,1,3.027-3.066,21.112,21.112,0,0,1-4.2-6.6,19.529,19.529,0,0,1,4.629,3.73" transform="translate(-11.838 85.809)" fill="#fff"/><path d="M137.662,54.081l1.465-3.261a3.906,3.906,0,0,0,.254,2.422,2.129,2.129,0,0,0,1.953,1.23c-.937,0-2.148.215-2.285,1.133,0,.605.293,1.445-.273,1.68l-.781-1.953a5.957,5.957,0,0,1-1.953.684,2.148,2.148,0,0,1,.9-.918,6.5,6.5,0,0,1-1.25-1.953,6.308,6.308,0,0,1,1.367,1.113" transform="translate(23.612 42.64)" fill="#fff"/><path d="M200.632,169.858c6.347.84,9.472-3.906,10.976-9.765a29.763,29.763,0,0,0-4.316-24.119c-9.081-13.456-24.51-44.039-4.668-75.873,26.58-42.633-6.777-37.907-17.577-26.443C122.611,100.313,185.809,167.905,200.632,169.858Z" transform="translate(44.874 18.73)" fill="url(#p)" style="isolation:isolate"/><ellipse cx="18.846" cy="11.464" rx="18.846" ry="11.464" transform="matrix(0.987, -0.158, 0.158, 0.987, 259.942, 29.1)" fill="url(#q)" style="isolation:isolate"/></g></svg>