<?xml version="1.0" encoding="utf-8"?>
<!-- Generator: Adobe Illustrator 24.1.2, SVG Export Plug-In . SVG Version: 6.00 Build 0)  -->
<svg version="1.1" id="Layer_1" xmlns="http://www.w3.org/2000/svg" xmlns:xlink="http://www.w3.org/1999/xlink" x="0px" y="0px"
	 viewBox="0 0 231 37" style="enable-background:new 0 0 231 37;" xml:space="preserve">
<style type="text/css">
	.st0{enable-background:new    ;}
	.st1{fill:#F0F8FF;}
	.st2{fill:url(#SVGID_1_);}
</style>
<g transform="translate(-90 -50)">
	<g class="st0">
		<path class="st1" d="M189.3,61.9v5.5h9.7v3.9h-9.7V79h-4.9V58h15.9v3.9H189.3z"/>
		<path class="st1" d="M204.1,56.7h4.7V79h-4.7V56.7z"/>
		<path class="st1" d="M229.9,62.9L222.6,80c-1.6,3.9-3.8,5.1-6.7,5.1c-1.6,0-3.5-0.5-4.5-1.5l1.7-3.3c0.7,0.6,1.7,1,2.6,1
			c1.3,0,2-0.6,2.6-2l0.1-0.1l-7-16.3h4.8l4.5,11l4.6-11C225.3,62.9,229.9,62.9,229.9,62.9z"/>
		<path class="st1" d="M243.4,78.2c-1,0.7-2.4,1-3.8,1c-3.8,0-6-2-6-5.8v-6.6h-2.5v-3.6h2.5v-3.9h4.7v3.9h4v3.6h-4v6.6
			c0,1.4,0.8,2.1,2,2.1c0.7,0,1.4-0.2,1.9-0.6L243.4,78.2z"/>
		<path class="st1" d="M247.1,58h4.9v17h10.5v4h-15.4V58z"/>
		<path class="st1" d="M280.1,69.8V79h-4.4v-2c-0.9,1.5-2.5,2.2-4.9,2.2c-3.8,0-6-2.1-6-4.9c0-2.9,2-4.8,6.9-4.8h3.7
			c0-2-1.2-3.2-3.7-3.2c-1.7,0-3.5,0.6-4.7,1.5l-1.7-3.3c1.8-1.3,4.4-1.9,7-1.9C277.3,62.6,280.1,64.9,280.1,69.8z M275.4,73.9v-1.7
			h-3.2c-2.2,0-2.9,0.8-2.9,1.9c0,1.2,1,1.9,2.6,1.9C273.6,76.1,274.9,75.4,275.4,73.9z"/>
		<path class="st1" d="M302.7,70.9c0,5.1-3.5,8.3-8,8.3c-2.2,0-3.9-0.7-5.1-2.1V79h-4.5V56.7h4.7v7.8c1.2-1.3,2.8-1.9,4.9-1.9
			C299.2,62.6,302.7,65.9,302.7,70.9z M297.9,70.9c0-2.8-1.8-4.5-4.1-4.5s-4.1,1.7-4.1,4.5s1.8,4.5,4.1,4.5S297.9,73.7,297.9,70.9z"
			/>
		<path class="st1" d="M305,77.5l1.6-3.4c1.4,0.9,3.6,1.6,5.6,1.6c2.2,0,3-0.6,3-1.5c0-2.6-9.8,0.1-9.8-6.4c0-3.1,2.8-5.2,7.5-5.2
			c2.2,0,4.7,0.5,6.2,1.4l-1.6,3.3c-1.6-0.9-3.2-1.2-4.7-1.2c-2.1,0-3,0.7-3,1.5c0,2.8,9.8,0.1,9.8,6.5c0,3-2.8,5.1-7.6,5.1
			C309.3,79.2,306.5,78.5,305,77.5z"/>
	</g>
	
		<linearGradient id="SVGID_1_" gradientUnits="userSpaceOnUse" x1="-574.5018" y1="25.9995" x2="-575.5018" y2="26.9995" gradientTransform="matrix(61.446 0 0 37 35452.2617 -911.9824)">
		<stop  offset="0" style="stop-color:#68E1FD"/>
		<stop  offset="1" style="stop-color:#68FAFC"/>
	</linearGradient>
	<path class="st2" d="M108.5,87C98.3,87,90,78.7,90,68.5l0,0C90,58.3,98.3,50,108.5,50l0,0V87z M114.4,87V68.5
		c0-10.2,8.3-18.5,18.5-18.5l0,0c10.2,0,18.5,8.3,18.5,18.5l0,0c0,10.2-8.3,18.5-18.5,18.5l0,0H114.4z"/>
</g>
</svg>
